<svg xmlns="http://www.w3.org/2000/svg" viewBox="0 0 1224.57 758.63"><defs><style>.cls-1{fill:#008963;}.cls-2,.cls-3{fill:none;stroke-linecap:round;stroke-linejoin:round;}.cls-2,.cls-3,.cls-4{stroke:#4f2a13;}.cls-2,.cls-4{stroke-width:6px;}.cls-3{stroke-width:2px;}.cls-4{fill:#ed6b6b;stroke-miterlimit:10;}.cls-5{fill:#fff;}.cls-6{fill:#285f78;}.cls-7{fill:#4f2a13;}.cls-8{fill:#f7cc90;}.cls-9{opacity:0.15;}.cls-10{fill:#e3051e;}.cls-11{fill:#fcce90;}</style></defs><title>자산 5</title><g id="레이어_2" data-name="레이어 2"><g id="Layer_1" data-name="Layer 1"><path class="cls-1" d="M403.71,245.63s-25,21-38,38c0,0-20,31-15,51l234-25s-42-50-73-58"/><path class="cls-2" d="M403.71,245.63s-25,21-38,38c0,0-20,31-15,51l234-25s-42-50-73-58"/><path class="cls-3" d="M764.83,72a11.07,11.07,0,0,1,4.81,1.28l73.45,32.39c2.34,1,4.78,2.14,6.39,4.13a16.08,16.08,0,0,1,2.38,4.8q17.5,48,35,96c-25.09,33.79-58.65,59.93-92.24,84.74L785,302.44c-1.26.92-13.06-8.21-15.17-9.54-5.06-3.19-10.16-6.75-13-12.15-3.68-6.9-3-15.21-2.16-23-8.28-.54-16.88-1.17-24.11-5.24a57,57,0,0,1-8-5.9l-17.09-14.21a13.15,13.15,0,0,1-6.22-11.08l-2.5-20.24c-.48-3.85-.95-7.76-.29-11.58,1.31-7.55,6.92-13.9,7.89-21.5.57-4.42-.49-8.87-1.54-13.2l-6.94-28.59c-.45-1.86-1.87-4.91-1.65-6.79.26-2.22,1.36-2.54,3.3-3.83l13-8.62,50.29-33.28a9.55,9.55,0,0,1,3.5-1.69C764.42,72,764.63,72,764.83,72Z"/><path class="cls-4" d="M703.21,302.13s14.48-34.94,56.74-58.47c0,0,101.26.47,113.26,29.47,0,0,32,43,15,73"/><path class="cls-5" d="M17.71,496.63s527-490,1188,0l-99,182S633.86,282.45,122.28,679Z"/><path class="cls-5" d="M1175.66,574.44,1111,695s-24.46-11.37-71.63-20.47c0,0,80.36,59.13,97.83,84.14,0,0,14-56.85,14-93.23,0,0,47.17-20.47,73.37-38.66C1224.57,626.74,1201.86,594.9,1175.66,574.44Z"/><path class="cls-5" d="M48.91,574.44,113.55,695s24.45-11.37,71.62-20.47c0,0-80.36,59.13-97.83,84.14,0,0-14-56.85-14-93.23,0,0-47.17-20.47-73.37-38.66C0,626.74,22.71,594.9,48.91,574.44Z"/><polygon class="cls-6" points="200.94 548.64 170.04 547.47 151.56 572.26 143.13 542.51 113.84 532.6 139.52 515.38 139.9 484.46 164.22 503.57 193.74 494.38 183.08 523.4 200.94 548.64"/><polygon class="cls-6" points="1028.84 548.64 1059.74 547.47 1078.22 572.26 1086.65 542.51 1115.94 532.6 1090.26 515.38 1089.88 484.46 1065.57 503.57 1036.04 494.38 1046.7 523.4 1028.84 548.64"/><path class="cls-6" d="M268.85,416.5l-.18.09,1.2,2.42c-8.64,4.26-17.21,8.74-25.64,13.4a140.56,140.56,0,0,1,6.11,13.85,92.24,92.24,0,0,1,4.34,14.32c2,.27,5.1.65,9.33,1.19a105.8,105.8,0,0,1,13.26,2.62,63.63,63.63,0,0,1,12.58,4.67c3.79,1.89,6.33,4.27,7.5,7,1.33,3.08,1.55,5.76.75,7.84a10.11,10.11,0,0,1-3.77,4.87,13.16,13.16,0,0,1-5.62,2.16,8.11,8.11,0,0,1-4.68-.4,43,43,0,0,1-4.77-3.22q-3.45-2.57-7.58-5.69t-8.38-6.16q-4.26-3-7.24-5c0,2.07,0,3.1,0,5.17a51.7,51.7,0,0,1-2.73,13.12,94.48,94.48,0,0,1-5.61,13.11q-3.34,6.47-7.28,12.58t-7.56,11.28L230,524.47a65.1,65.1,0,0,0,5.54-16.9,67.57,67.57,0,0,0,.94-16.16A75.72,75.72,0,0,0,234,476.6a116.41,116.41,0,0,0-4.34-13,94.53,94.53,0,0,0-4.88-10.45q-2.48-4.47-3.94-7.27c-4.36,2.64-6.54,4-10.87,6.7-1.86,2.87-2.77,4.31-4.59,7.2-3.44.5-5.16.77-8.62,1.33l-1.49-2.25c16.3-10.85,33.15-20.94,50.35-30.3,3.91-4.59,5.9-6.86,9.93-11.39C260.9,416.85,263.55,416.71,268.85,416.5Zm-31.69-.23c2.54.55,3.61,1.85,3.23,3.88a13.4,13.4,0,0,1-3.54,6.32,31.45,31.45,0,0,1-7.31,5.86,14.34,14.34,0,0,1-8.1,2.38l-3.73-.14c-1.56-.06-3.3-.15-5.22-.28s-3.89-.32-5.93-.59a40.45,40.45,0,0,1-5.94-1.27,52.67,52.67,0,0,1,10.55-9.6,50,50,0,0,1,11.74-5.64A28.1,28.1,0,0,1,237.16,416.27Zm55.57,18.18c-4.53,2.13-6.78,3.22-11.28,5.44a11.83,11.83,0,0,1-2.34,5.81,14.77,14.77,0,0,1-5.26,4.41,14.26,14.26,0,0,1-9.48,1.5,9.34,9.34,0,0,1-6.86-4.74q16.35-8.85,33.18-16.76Zm41.79,45.33a9.67,9.67,0,0,1-.11,8.47,27.43,27.43,0,0,1-5.18,7.33,58.65,58.65,0,0,1-8.94,7.15q-24.37-50.94-48.73-101.9c-4,1.53-6.05,2.32-10.06,3.91-1.15.35-1.89.17-2.25-.55s0-1.5,1.15-2.09l.18-.08q17.22-6.9,34.79-12.85ZM367,476.45a9.77,9.77,0,0,1-.5,8.43,26.62,26.62,0,0,1-5.42,7,55.81,55.81,0,0,1-9.09,6.57Q327.8,440,303.61,381.61c-4.11,1.31-6.16,2-10.26,3.37-1.16.28-1.9.06-2.22-.68s.06-1.5,1.27-2l.18-.07q17.58-6,35.46-11Q347.53,423.84,367,476.45Z"/><path class="cls-6" d="M472.06,393.66c.69,4.45,1,6.67,1.72,11.12a9.27,9.27,0,0,1-2.95,8.36,32.79,32.79,0,0,1-8.26,6,87.5,87.5,0,0,1-12.52,5.1c-2.06-10.3-3.08-15.45-5.14-25.74-10.27,2-15.39,3.18-25.58,5.65-3.7,2.5-5.53,3.76-9.17,6.32-4.42-.46-6.64-.67-11.09-1.06-.32-1.15-.48-1.73-.81-2.89A713.68,713.68,0,0,1,518.4,385.2c6.6-4.5,10-6.72,16.79-11,7.24,3.57,10.82,5.41,17.86,9.19,0,1.2,0,1.8.07,3A756.09,756.09,0,0,0,472.06,393.66Zm7.47-61.36a113.65,113.65,0,0,1,21,.52,71.92,71.92,0,0,1,17,4,34.45,34.45,0,0,1,11.37,6.75,13,13,0,0,1,4.45,8.91c.19,3.49-1.22,6.77-4.14,9.85A42,42,0,0,1,517,370.72a106.88,106.88,0,0,1-18.23,6.63,199.35,199.35,0,0,1-45.33,6.6,107.78,107.78,0,0,1-19.32-1.18A42.23,42.23,0,0,1,420,378.22c-3.7-2.11-6-4.85-6.81-8.26-.91-3.79.1-7.64,3.1-11.51A46.12,46.12,0,0,1,429,347.6a97,97,0,0,1,18.88-8.69,118.69,118.69,0,0,1,21.34-5.19C473.33,333.12,475.4,332.83,479.53,332.3Zm57.84,104.08a9.73,9.73,0,0,1-1.74,6.33,19,19,0,0,1-4.84,4.74,36.7,36.7,0,0,1-6.29,3.47,68.12,68.12,0,0,1-6.4,2.43q-3,.94-5.11,1.46c-1.39.34-2.15.52-2.25.53q-2-19.09-4-38.19c-16.46,1.66-32.85,4.12-49.12,7.12-5.23,3.3-7.82,5-12.92,8.38-6-1.06-9-1.56-15.07-2.47l-.65-2.77A689.72,689.72,0,0,1,536,412ZM475.63,377.8A68.94,68.94,0,0,0,490,374.36a30.42,30.42,0,0,0,9.35-5.3,16.44,16.44,0,0,0,4.82-6.76,17.77,17.77,0,0,0,.92-7.7,18.66,18.66,0,0,0-2.44-7.6,16.84,16.84,0,0,0-6.33-6.06,30,30,0,0,0-10.85-3.43,55.84,55.84,0,0,0-15.7.37A56.54,56.54,0,0,0,454.46,342a28.83,28.83,0,0,0-9.35,6.37,17,17,0,0,0-4.25,7.59,18.54,18.54,0,0,0-.17,8,17.73,17.73,0,0,0,3.08,7.12,16.58,16.58,0,0,0,6.47,5.12,29.66,29.66,0,0,0,10.41,2.42A69.56,69.56,0,0,0,475.63,377.8Zm40.23,8.81,1.08,12.71a9.28,9.28,0,0,1-3.52,8.14,33.07,33.07,0,0,1-8.64,5.37A86,86,0,0,1,492,417.05c-1.41-11-2.12-16.51-3.53-27.52C499.38,388.13,504.87,387.54,515.86,386.61Z"/><path class="cls-6" d="M648.84,346.14q-4.1,35.31-8.21,70.63c6.72.78,12.69,1.4,17.94,1.82A124.74,124.74,0,0,0,673,419a88.12,88.12,0,0,0,12.54-1.32,93.8,93.8,0,0,0,12-3c.49-.1,1.34-.2,2.54-.31a26,26,0,0,1,3.64-.05,10.45,10.45,0,0,1,3,.51c.76.27,1,.66.63,1.14a9.26,9.26,0,0,1-3.34,1.87c-1.88.76-4.89,1.75-9,2.91-3.55,1-7.29,1.89-11.12,2.69a98.53,98.53,0,0,1-12.4,1.74,130.39,130.39,0,0,1-14.49.31c-5.22-.15-11-.62-17.28-1.35-8.23-1-12.35-1.37-20.6-2a7.41,7.41,0,0,1-3.76-1.12,5.44,5.44,0,0,1-1.86-2.17,8.25,8.25,0,0,1-.62-3.05q2.55-36.21,5.11-72.42c-2.86-.2-4.29-.29-7.15-.46-1.25-.08-1.85-.61-1.79-1.61s.71-1.46,2-1.39c15.27,1.05,30.44,2.47,45.64,4.27,6.61-1.52,9.94-2.24,16.65-3.59,6,3.27,9,4.94,14.86,8.34-.21,1.18-.31,1.78-.52,3Q668.36,348.4,648.84,346.14ZM744.91,406c-10.34-2.82-20.68-5.59-31.14-8l-11,48.1a9.75,9.75,0,0,1-5.05,6.78,27.22,27.22,0,0,1-8.4,2.86,56.82,56.82,0,0,1-11.24.51q10.53-55.41,21.07-110.82c-4.07-1.14-6.11-1.69-10.2-2.77-1.1-.39-1.58-1-1.45-1.77s.87-1.23,2.13-1l.19,0q17.63,4.59,35,10.12l-9.93,43.28c10.39,2.35,20.77,5,31,7.92C745.49,403.18,745.29,404.12,744.91,406Zm-11.19,57.5a9.83,9.83,0,0,1-5.4,6.48,26.63,26.63,0,0,1-8.46,2.39,54.75,54.75,0,0,1-11.12-.11l30.81-122.64c-4-1.39-6.06-2.06-10.12-3.39-1.09-.46-1.54-1.07-1.35-1.85s.93-1.17,2.19-.88l.19.05q17.5,5.65,34.69,12.24Q749.43,409.65,733.72,463.51Z"/><path class="cls-6" d="M809.1,471.58c-4.29-.15-6.43-.21-10.69-.28-3.07-2.95-4.62-4.42-7.76-7.33l1.1-2.8a718.28,718.28,0,0,1,65.48,30.42c6,2.8,11.06,5.09,15.08,6.77a102.43,102.43,0,0,0,10.26,3.76,25,25,0,0,0,7.15,1.17,18.87,18.87,0,0,0,5.67-1,63.49,63.49,0,0,0,6-2.42c2.17-1,4.81-2,7.94-3.13l.25,1.95c-1.54,4.36-4.7,7-9.4,8.05a28.83,28.83,0,0,1-7.51.4,50,50,0,0,1-10.57-2.07,126.78,126.78,0,0,1-14.28-5.31c-5.4-2.32-11.61-5.38-18.67-9.07C836,484,822.65,477.61,809.1,471.58Zm35.54-72.05c-4.07-.08-6.11-.11-10.16-.13-2.83-2.89-4.26-4.33-7.15-7.19.45-1.12.68-1.67,1.13-2.78,22.57,9.41,44.51,19.74,66.15,31.14,6.37,1,9.57,1.5,16,2.65,4.28,4.91,6.39,7.38,10.53,12.37l-1.53,2.58A792.55,792.55,0,0,0,844.64,399.53Zm24.67,15.28a54.83,54.83,0,0,1,13.35,9.11,48,48,0,0,1,9.09,11.23,28.55,28.55,0,0,1,3.85,11.65,18,18,0,0,1-2.32,10.76,18.33,18.33,0,0,1-7.84,7.28,32.46,32.46,0,0,1-11.65,3.22,45.83,45.83,0,0,1-13.67-.83A58.61,58.61,0,0,1,846,462.35a57.81,57.81,0,0,1-12.48-8.19,45.06,45.06,0,0,1-8.93-10.28,32.15,32.15,0,0,1-4.48-11.15,18.49,18.49,0,0,1,1-10.64,18.1,18.1,0,0,1,7-8.43,28.17,28.17,0,0,1,11.48-4.12,47,47,0,0,1,14.34.29A54.25,54.25,0,0,1,869.31,414.81Zm24.08-10c1,2.42.48,4-1.42,4.84a13.53,13.53,0,0,1-7.25.55,31.61,31.61,0,0,1-9-2.83A14.35,14.35,0,0,1,869.3,402l-1.94-3.18q-1.23-2-2.65-4.48c-1-1.66-1.88-3.42-2.77-5.26a38.37,38.37,0,0,1-2.22-5.62,52,52,0,0,1,13.76,3.4,49.15,49.15,0,0,1,11.19,6.63A28.15,28.15,0,0,1,893.39,404.82Zm-46.22,55.1a13.14,13.14,0,0,0,7.74,1.44,18.83,18.83,0,0,0,7.17-2.58,24.64,24.64,0,0,0,6.15-5.34,39.65,39.65,0,0,0,4.7-7,38.9,38.9,0,0,0,3.21-8.14,23.59,23.59,0,0,0,.76-8.22,16.38,16.38,0,0,0-2.42-7.39,15.19,15.19,0,0,0-6.36-5.44,15,15,0,0,0-8.19-1.7,15.68,15.68,0,0,0-7.22,2.64,26.9,26.9,0,0,0-6,5.64,36.65,36.65,0,0,0-4.56,7.48,36.14,36.14,0,0,0-2.59,8.06,27.89,27.89,0,0,0-.49,8.12,17.86,17.86,0,0,0,2.25,7.2A13.12,13.12,0,0,0,847.17,459.92Zm1.62,28.9c-8.87-4.62-13.34-6.83-22.35-11.06l11-23.5a64.18,64.18,0,0,1,10.5,8.06,31,31,0,0,1,5.84,8.06,9,9,0,0,1,0,8.72Zm51.44,49.92a9.32,9.32,0,0,1-7.77,4.16,31.67,31.67,0,0,1-9.9-1.13,81.49,81.49,0,0,1-12.29-4.57L935,432.09c-3.54-2.61-5.32-3.89-8.9-6.44-.93-.78-1.19-1.52-.78-2.21s1.26-.82,2.41-.14l.17.1q17.15,12.17,33.7,25Z"/><path class="cls-5" d="M426.71,239,405,245.53s37.31,60,57.32,71.56c0,0,10.95-20.85,11.92-43.43,0,0,11.45,31.33,23.91,35.69,0,0,20.07-35.41,21.14-54.31,0,0-1.63-6.88-13.28-16.23"/><path class="cls-7" d="M461.35,320.09a3.06,3.06,0,0,1-1.5-.4c-20.43-11.78-56.83-70.1-58.36-72.57a3,3,0,0,1,1.68-4.46l21.67-6.52a3,3,0,1,1,1.73,5.75l-17.89,5.38c7.68,12,34.62,53,51.45,65.42,2.94-6.45,9.42-22.43,10.14-39.16a3,3,0,0,1,5.82-.9c2.8,7.67,11.4,27.16,19.84,32.75,4.44-8.21,18.21-34.72,19.36-50-.52-1.37-3-7-12.12-14.27a3,3,0,0,1,3.75-4.67c12.11,9.72,14.12,17.08,14.32,17.89a3,3,0,0,1,.07.85c-1.1,19.37-20.69,54.15-21.52,55.62a3,3,0,0,1-3.61,1.35c-8.75-3.06-16.53-16.7-21.21-26.72a124.32,124.32,0,0,1-11,33,3,3,0,0,1-2.66,1.61Z"/><path class="cls-8" d="M425.76,239l-5.87-33.3s-11.71,21.45-33.77,10.3c0,0-33.26-9.43-21.33-44.78L390.67,131l28.4-46.45L557.93,71.87,577,87.64l2.9,21s-10.59,44.39-2.89,54.53c0,0,5.88,92-72,75.59,0,0-5.88,29.79-30.78,35C474.26,273.83,439.71,263.45,425.76,239Z"/><path class="cls-7" d="M474.26,276.33a2.55,2.55,0,0,1-.72-.1,113.54,113.54,0,0,1-19.49-8.45c-9.76-5.31-23-14.39-30.46-27.52a2.56,2.56,0,0,1-.29-.8l-4.86-27.58c-5.4,6.11-16.7,14.72-33.24,6.47-2-.63-15.31-5.12-21.89-17.62-4.49-8.53-4.79-18.73-.89-30.29a2.56,2.56,0,0,1,.27-.55l25.88-40.28,28.36-46.4A2.53,2.53,0,0,1,418.84,82L557.71,69.38a2.47,2.47,0,0,1,1.82.56l19.08,15.78a2.47,2.47,0,0,1,.88,1.58l2.9,21a2.58,2.58,0,0,1,0,.92c-4,16.72-8.42,45.74-3.34,52.44a2.45,2.45,0,0,1,.5,1.35c.12,1.88,2.66,46.38-22.79,68.41-12.35,10.69-29.1,14.13-49.81,10.26-2.05,7.52-9.94,29.89-32.13,34.55A3.05,3.05,0,0,1,474.26,276.33Zm-46.11-38.18c12.43,21.31,41.67,31.6,46.23,33.1,22.49-5.21,28.16-32.65,28.21-32.93a2.49,2.49,0,0,1,1.08-1.6,2.46,2.46,0,0,1,1.89-.36c20.2,4.26,36.31,1.34,47.87-8.66,12.24-10.58,17.32-27.4,19.44-39.66a120.28,120.28,0,0,0,1.68-24c-3.23-5.11-3.71-15.68-1.45-32.23,1.49-10.93,3.76-21,4.27-23.25L574.67,89l-17.53-14.5L420.54,86.89,392.8,132.26l-25.73,40.07c-3.35,10.09-3.13,18.86.67,26.07,6,11.4,18.93,15.17,19.06,15.21a2.23,2.23,0,0,1,.45.18c19.68,9.94,30-8.48,30.45-9.27a2.51,2.51,0,0,1,4.66.77Z"/><path class="cls-7" d="M426.28,184.82s-4.9-14.06-1-28.06c0,0,15.1-57.55,38.49-52.77,0,0,6.65-.32,24.05-7.58a50.51,50.51,0,0,1,29.76-6.58s29.42,8,49.55,2c0,0,15.21,1.17,13.21,17,0,0,19.72-37.67-26.47-63.28,0,0-9.84-23.71-53.91-27.67,0,0-51.71-36.1-99.57-5.5,0,0-54.62,10.35-60.69,87.81,0,0-5.78,50.36,25.11,71.12,0,0,13.43-18.22,36.41-6.91,0,0,16.62,22.69,19.94,24.73C421.15,189.06,425.3,190.52,426.28,184.82Z"/><path class="cls-7" d="M478.38,159.35s-3.63-8.7,5.79-12.21c0,0,16.81-8.09,17.31,5.94,0,0-2.34,13.53-11,12.76C490.47,165.84,482.38,165.91,478.38,159.35Z"/><path class="cls-7" d="M556.76,151.64s0-12.48,7.43-9c0,0,7.59,2.78,4,11C568.16,153.61,560.88,157.49,556.76,151.64Z"/><path class="cls-7" d="M499,124.77s-10.65-6.24-21.39.7a14,14,0,0,1,4.67-5.79s8.57-2.92,13.19.08C495.51,119.76,498.7,122.51,499,124.77Z"/><path class="cls-7" d="M555.47,129.41s4.7-10.2,12.29-7.42c0,0-6.72-7.76-10.93-.42C556.83,121.57,553.83,126.19,555.47,129.41Z"/><path class="cls-7" d="M538,159.42c1.41,2.54,3.64,4.21,4.35,7.25.65,2.82-.23,6.17-2.73,7.63a7.43,7.43,0,0,0,6.79-1.7,11,11,0,0,0,3.39-6.32,3.79,3.79,0,0,0,.09-1.11,3.49,3.49,0,0,0-.59-1.44,10.59,10.59,0,0,0-4.94-4.32C542.53,158.67,539.69,158.28,538,159.42Z"/><path class="cls-7" d="M517.65,191.09s18.86,5.47,26.14,1.59a61.13,61.13,0,0,0,6.56-4s-4.21,7.35-14.67,8.47C535.68,197.15,526.76,197.81,517.65,191.09Z"/><path class="cls-7" d="M476.22,229.05c3.35.53,6.61,1.28,9.84,2.1s6.43,1.69,9.62,2.62,6.35,1.87,9.51,2.86,6.31,2,9.6,2.76a34.75,34.75,0,0,1-10.13-.48,81.74,81.74,0,0,1-9.82-2.26c-3.22-1-6.39-2-9.5-3.28A70.89,70.89,0,0,1,476.22,229.05Z"/><g class="cls-9"><ellipse class="cls-10" cx="472.38" cy="179.22" rx="19.88" ry="25.67" transform="matrix(0.17, -0.99, 0.99, 0.17, 215.21, 614.1)"/></g><path class="cls-7" d="M376.44,182.42a19.81,19.81,0,0,1,7.85-4.29,18.28,18.28,0,0,1,9.24-.28,16.2,16.2,0,0,1,8,4.76,19.14,19.14,0,0,1,4.34,7.84,41.64,41.64,0,0,0-5.94-6.12,18.75,18.75,0,0,0-7.1-3.57,22.35,22.35,0,0,0-8.05-.32A43.36,43.36,0,0,0,376.44,182.42Z"/><path class="cls-7" d="M397.22,185.29c-1,1.63-2,3.16-2.79,4.69a20.54,20.54,0,0,0-1.83,4.63,11.59,11.59,0,0,0-.19,4.77,10.75,10.75,0,0,0,.22,1.24c.13.41.24.83.36,1.26a7.45,7.45,0,0,0,.44,1.28c.16.44.32.88.46,1.36a9.76,9.76,0,0,1-3.74-4.48,9.65,9.65,0,0,1-.47-6.12,12.61,12.61,0,0,1,2.83-5.29A12.11,12.11,0,0,1,397.22,185.29Z"/><g class="cls-9"><path class="cls-10" d="M573.49,156.74s-13.65,15.24-1.06,35.77c0,0,2,1.23,3.61-8.1l1.05-14.36-.31-6.87Z"/></g><path class="cls-5" d="M782.91,302.76s-14.14,14.69-30.14,20.53c0,0-38.13-18.73-6.73-75.55l106.32-24.3,19.5,22.35-3.13,27.45s-23.21,60.63-32.06,62.49C836.67,335.73,806.58,339,782.91,302.76Z"/><path class="cls-7" d="M834.53,338.82c-7.72,0-31.77-2.5-52.09-31.41-4.93,4.59-16.14,14.13-28.64,18.7l-1.2.44-1.15-.57a40.19,40.19,0,0,1-18.69-23.37c-4.92-15.67-1.34-34.61,10.66-56.32l.65-1.17,1.3-.3,108.07-24.71L875,244.82,871.67,274l-.14.35c-.06.15-5.91,15.41-12.78,30.7-14.44,32.18-19.18,33.18-21.46,33.66l-.29.05C836.8,338.74,835.94,338.82,834.53,338.82ZM783.37,298l2,3.16c21.46,32.86,47.74,31.87,50.7,31.65,3.78-1.65,16.16-25,29.67-60.25l2.94-25.75-17.46-20L748,250.37c-10.66,19.71-13.87,36.67-9.55,50.44A35.09,35.09,0,0,0,753,320c14.66-5.84,27.6-19.16,27.73-19.3Z"/><polygon class="cls-11" points="764.75 71.08 849.64 108.56 886.89 210.6 854.81 248.16 784.28 303.39 756.04 281.96 754.39 258.02 731.4 254.22 699.92 227.63 695.51 190.69 704.83 167.79 703.5 154.21 698.39 140.21 694.24 117.69 764.75 71.08"/><path class="cls-7" d="M759.8,257.46S701.29,266.13,692,229.6c0,0-27.34-4.07-25.18-23,0,0,3.62-14.93,13.62-18.58,0,0,2.95-.62,9.49-7.55,0,0,7.08-11.65,10.35-15.12,0,0-16.82-3.83-14.68-14.13,0,0-8.63,0-6.9-15.17,0,0-4-32.1,7.56-32.69a35,35,0,0,0,7.08-11.66s-3-15.68,14.68-19.42c0,0,26.44-13.28,39.09-23.34,0,0,37.09-22.62,65.38-18.43,0,0,33-3.9,47.32,5.39,0,0,60.14,10.7,60,45.2,0,0,6.57,18,13.71,22.65,0,0,17.74,12.57,4.58,52.3,0,0,3.12,14.73,12.37,17.7,0,0,48.3,30.44-7.45,65.3,0,0-8.87,10.5-21.06,8.15,0,0-5.32,21.44-36.53,9.26,0,0-22.65,13.71-32.2,5,0,0-24.84,3.4-15.19-22.34,0,0,.67-14.31-6.79-16.12,0,0-9.85-14.54,12.48-25.42,0,0,8.85-1.86,7-28,0,0-19.4-23.3-17.24-42.23a21.3,21.3,0,0,1-18.79-11.73s-42.94,6.61-62.93-28.26c0,0-10.38,23.74-37.71,19.66,0,0-23.28,10.77-10.11,38.16,0,0,8.28,11.49-.42,37.34,0,0-11.7,43.72,23.27,65C726.9,247.48,749.48,259.64,759.8,257.46Z"/><path class="cls-7" d="M792.53,174.63s4.68,4.7,14.4,1.64c0,0,6.64-3.41,7.35-9.58,0,0-.89-10.52-12.79-6.67,0,0-10.64,1.91-11.22,7.06C790.27,167.08,789.56,173.25,792.53,174.63Z"/><path class="cls-7" d="M717.37,158.67s11.71-10.17,12.5,8.14c0,0-5.92,9.87-13.79,3.22C716.08,170,713.05,163,717.37,158.67Z"/><path class="cls-7" d="M748,175.59s-4.54,6.19-1.29,11.36c0,0-3.79-.44-4.2-5.28A13.27,13.27,0,0,1,748,175.59Z"/><path class="cls-7" d="M730.91,132.41s-12.62,1.44-13.27,7.12C717.64,139.53,715.88,129.74,730.91,132.41Z"/><path class="cls-7" d="M798.54,136.29s12.19,2.35,14.28,9.3C812.82,145.59,814,135.18,798.54,136.29Z"/><path class="cls-7" d="M739.85,205.33s9.14,3.92,16.82,3.84c0,0,13.36.56,14.52-1.22,0,0-1.59,5.57-14.84,4.06C756.35,212,743,211.44,739.85,205.33Z"/><path class="cls-7" d="M749.48,221.77s5.47,2.54,9.47,1.08C759,222.85,752.84,226,749.48,221.77Z"/><path class="cls-7" d="M790.13,243.66a24.07,24.07,0,0,1-7.69,7.16c-.76.45-1.53.9-2.3,1.33s-1.6.75-2.4,1.12-1.63.67-2.45,1-1.65.61-2.49.86a54.89,54.89,0,0,1-10.25,2.18,46.63,46.63,0,0,1-10.43.24l10-2.54c3.29-.87,6.57-1.72,9.78-2.75a84,84,0,0,0,9.44-3.49A47.55,47.55,0,0,0,790.13,243.66Z"/><g class="cls-9"><path class="cls-10" d="M841.36,191.29c1.62,12.2-7.31,26.44-24.47,29.46-16.08,2.82-31-5.81-33.39-19.28-3.25-18.47,18.69-31.87,38.9-28.13C834.18,175.52,840.25,182.93,841.36,191.29Z"/></g><g class="cls-9"><path class="cls-10" d="M707.67,168.11s1.16-1.78,6.62.76c0,0,22.82,19.43-9.9,49.46C704.39,218.33,697.18,192.8,707.67,168.11Z"/></g><path class="cls-7" d="M843.14,256.05c-4.38,4.68-9,9.09-13.63,13.48s-9.39,8.62-14.22,12.79-9.73,8.26-14.78,12.19c-2.52,2-5.08,3.9-7.71,5.8-1.32.94-2.66,1.85-4.07,2.75-.7.45-1.41.89-2.2,1.32-.36.22-.82.44-1.26.65a9.7,9.7,0,0,1-1.76.63l-1.24.33-1.12-.86c-9.17-7-18.22-14.08-27.09-21.46l-.79-.66,0-.83c.1-4.07.28-8.13.48-12.2.09-2,.22-4.07.35-6.11s.29-4.07.47-6.1c.28,2,.55,4.05.78,6.07s.47,4.05.65,6.08c.42,4.05.8,8.11,1.11,12.16l-.78-1.49c9.61,6.38,19,13,28.33,19.8l-2.36-.53c0-.06.73-.31,1.32-.67s1.24-.74,1.87-1.15c1.27-.82,2.54-1.73,3.82-2.62,2.56-1.79,5.07-3.7,7.62-5.57l15.19-11.44q7.62-5.73,15.33-11.36C832.64,263.33,837.8,259.59,843.14,256.05Z"/></g></g></svg>