<svg xmlns="http://www.w3.org/2000/svg" width="18.48" height="12.842" viewBox="0 0 18.48 12.842">
  <defs>
    <style>
      .cls-1, .cls-2 {
        fill: #fff;
      }

      .cls-1 {
        opacity: 0.71;
      }

      .cls-2 {
        opacity: 0.32;
      }
    </style>
  </defs>
  <g id="그룹_147" data-name="그룹 147" transform="translate(-158.02 -1452.549)">
    <g id="그룹_146" data-name="그룹 146" transform="translate(6 1452.265)">
      <path id="패스_68" data-name="패스 68" class="cls-1" d="M2140.5,217.592l-4.323,4.155a7.209,7.209,0,0,1-5.029,4.834,7.231,7.231,0,0,0,7.093-1.976A7.71,7.71,0,0,0,2140.5,217.592Z" transform="translate(-1970.142 -213.703)"/>
      <path id="패스_69" data-name="패스 69" class="cls-2" d="M2434.438,207q-.059.218-.125.424l4.323-4.155a7.005,7.005,0,0,0-4.03.106A8.122,8.122,0,0,1,2434.438,207Z" transform="translate(-2268.274 -199.377)"/>
      <path id="패스_70" data-name="패스 70" class="cls-2" d="M2434.438,207q-.059.218-.125.424l4.323-4.155a7.005,7.005,0,0,0-4.03.106A8.122,8.122,0,0,1,2434.438,207Z" transform="translate(-2268.274 -199.377)"/>
      <path id="패스_71" data-name="패스 71" class="cls-2" d="M2248.025,14.133c.1-.113.207-.225.318-.336a7.6,7.6,0,0,1,3.052-1.908,7.379,7.379,0,0,0-1.717-3.578l-1.667,5.759Z" transform="translate(-2085.065 -7.894)"/>
      <path id="패스_72" data-name="패스 72" class="cls-2" d="M2139.431,226.246a7.233,7.233,0,0,1-1.845,6.536l4.923-4.731q.067-.206.125-.424A8.125,8.125,0,0,0,2142.8,224a7.6,7.6,0,0,0-3.052,1.908Q2139.583,226.077,2139.431,226.246Z" transform="translate(-1976.471 -220.007)"/>
      <path id="패스_73" data-name="패스 73" class="cls-2" d="M2139.431,226.246a7.233,7.233,0,0,1-1.845,6.536l4.923-4.731q.067-.206.125-.424A8.125,8.125,0,0,0,2142.8,224a7.6,7.6,0,0,0-3.052,1.908Q2139.583,226.077,2139.431,226.246Z" transform="translate(-1976.471 -220.007)"/>
      <path id="패스_74" data-name="패스 74" class="cls-2" d="M2139.431,226.246a7.233,7.233,0,0,1-1.845,6.536l4.923-4.731q.067-.206.125-.424A8.125,8.125,0,0,0,2142.8,224a7.6,7.6,0,0,0-3.052,1.908Q2139.583,226.077,2139.431,226.246Z" transform="translate(-1976.471 -220.007)"/>
      <path id="패스_75" data-name="패스 75" class="cls-2" d="M2143.052,14.07l1.666-5.759a7.006,7.006,0,0,0-3.437,2.107,8.125,8.125,0,0,1,1.667,3.222Q2143.006,13.858,2143.052,14.07Z" transform="translate(-1980.104 -7.894)"/>
      <path id="패스_76" data-name="패스 76" class="cls-2" d="M2143.052,14.07l1.666-5.759a7.006,7.006,0,0,0-3.437,2.107,8.125,8.125,0,0,1,1.667,3.222Q2143.006,13.858,2143.052,14.07Z" transform="translate(-1980.104 -7.894)"/>
      <path id="패스_77" data-name="패스 77" class="cls-2" d="M1945.279,6.153c.031-.148.067-.3.108-.45a7.6,7.6,0,0,1,1.689-3.178A7.378,7.378,0,0,0,1943.8.284l1.437,5.821Z" transform="translate(-1785.9 0)"/>
      <path id="패스_78" data-name="패스 78" class="cls-2" d="M2246.018,355.6l.046-.052-.013-.063Z" transform="translate(-2083.104 -349.311)"/>
      <path id="패스_79" data-name="패스 79" class="cls-2" d="M2246.018,355.6l.046-.052-.013-.063Z" transform="translate(-2083.104 -349.311)"/>
      <path id="패스_80" data-name="패스 80" class="cls-2" d="M2131.258,753.216l-.107.1S2131.19,753.284,2131.258,753.216Z" transform="translate(-1970.142 -740.441)"/>
      <path id="패스_81" data-name="패스 81" class="cls-2" d="M2131.258,753.216l-.107.1S2131.19,753.284,2131.258,753.216Z" transform="translate(-1970.142 -740.441)"/>
      <path id="패스_82" data-name="패스 82" class="cls-2" d="M2131.258,753.216l-.107.1S2131.19,753.284,2131.258,753.216Z" transform="translate(-1970.142 -740.441)"/>
      <path id="패스_83" data-name="패스 83" class="cls-2" d="M2032.969,138.956a7.257,7.257,0,0,1,1.755,3.532,7.911,7.911,0,0,1,1.779-3.393l.033-.114q-.045-.212-.1-.43a8.125,8.125,0,0,0-1.667-3.222,7.6,7.6,0,0,0-1.689,3.178Q2033.016,138.734,2032.969,138.956Z" transform="translate(-1873.589 -132.804)"/>
      <path id="패스_84" data-name="패스 84" class="cls-2" d="M2032.969,138.956a7.257,7.257,0,0,1,1.755,3.532,7.911,7.911,0,0,1,1.779-3.393l.033-.114q-.045-.212-.1-.43a8.125,8.125,0,0,0-1.667-3.222,7.6,7.6,0,0,0-1.689,3.178Q2033.016,138.734,2032.969,138.956Z" transform="translate(-1873.589 -132.804)"/>
      <path id="패스_85" data-name="패스 85" class="cls-2" d="M2032.969,138.956a7.257,7.257,0,0,1,1.755,3.532,7.911,7.911,0,0,1,1.779-3.393l.033-.114q-.045-.212-.1-.43a8.125,8.125,0,0,0-1.667-3.222,7.6,7.6,0,0,0-1.689,3.178Q2033.016,138.734,2032.969,138.956Z" transform="translate(-1873.589 -132.804)"/>
      <path id="패스_86" data-name="패스 86" class="cls-2" d="M1831.248,6.105,1829.811.284a7.006,7.006,0,0,0-1.923,3.543,8.126,8.126,0,0,1,3.055,1.957Q1831.1,5.944,1831.248,6.105Z" transform="translate(-1671.91 0)"/>
      <path id="패스_87" data-name="패스 87" class="cls-2" d="M1831.248,6.105,1829.811.284a7.006,7.006,0,0,0-1.923,3.543,8.126,8.126,0,0,1,3.055,1.957Q1831.1,5.944,1831.248,6.105Z" transform="translate(-1671.91 0)"/>
      <path id="패스_88" data-name="패스 88" class="cls-2" d="M1593.3,187.7a7.378,7.378,0,0,0-3.957-.3l4.237,4.409q-.083-.247-.154-.51A7.6,7.6,0,0,1,1593.3,187.7Z" transform="translate(-1437.323 -183.873)"/>
      <path id="패스_89" data-name="패스 89" class="cls-2" d="M2030.429,351.288l.014-.068-.043-.048Z" transform="translate(-1871.063 -345.067)"/>
      <path id="패스_90" data-name="패스 90" class="cls-2" d="M2030.429,351.288l.014-.068-.043-.048Z" transform="translate(-1871.063 -345.067)"/>
    </g>
  </g>
</svg>
