<?xml version="1.0" encoding="utf-8"?>
<!-- Generator: Adobe Illustrator 21.0.0, SVG Export Plug-In . SVG Version: 6.00 Build 0)  -->
<svg version="1.1" xmlns="http://www.w3.org/2000/svg" xmlns:xlink="http://www.w3.org/1999/xlink" x="0px" y="0px"
	 viewBox="0 0 200 200" style="enable-background:new 0 0 200 200;" xml:space="preserve">
<style type="text/css">
	<!-- .st0{fill:none;stroke:#000000;stroke-width:8;stroke-linecap:round;stroke-miterlimit:10;} -->
	<!-- .st1{fill:none;stroke:#000000;stroke-width:3;stroke-linecap:round;stroke-miterlimit:10;} -->
	svg * { fill: #FFFFFF!important; }
</style>
<g id="레이어_2">
</g>
<g id="레이어_3">
	<g>
		<g>
			<path class="st0" d="M143.4,105.5"/>
			<circle cx="63.4" cy="103.7" r="3.3"/>
			<circle cx="97.8" cy="84.4" r="3.3"/>
			<g>
				<path d="M86.4,60.8c9.3,0,17.8,3.1,21.6,7.8c1.8,2.2,3.8,4.7,5.6,13c0.3,1.3,0.5,2.4,0.7,3.2c0.8,3.6,1,4.9,2.8,7.7
					c4.1,6.8,11,10,17.7,13.1c3.4,1.6,7,3.3,10.2,5.4c10.4,6.9,15.7,23.6,7,37.5c-9.9,15.9-31.8,17.6-40.8,17.6
					c-7.1,0-14.1-1-19.4-2.7c-1.2-0.4-29.4-9.9-39.2-38.4c-2.3-6.7-8.8-29.8,4.1-48.3c5.4-7.7,11.3-12,14.7-13.3
					C76,61.8,81.2,60.8,86.4,60.8 M86.4,55.8c-5.6,0-11.4,1-16.9,3.1c-5,1.9-11.5,7.2-17,15.1c-14.5,20.7-7.1,45.8-4.7,52.8
					c10.6,30.5,40,40.7,42.4,41.5c5.4,1.8,12.9,3,21,3c16.6,0,35.7-5,45-19.9c10.5-16.8,3.5-36.3-8.5-44.3
					c-9.9-6.5-21.2-8.4-26.4-17c-1.6-2.7-1.4-2.9-2.8-9.4c-1.9-8.9-4.3-12.2-6.6-15.1C107,59.5,97.2,55.8,86.4,55.8L86.4,55.8z"/>
			</g>
			<path class="st1" d="M100.9,91.6c2.2,12.2-17.5,24.3-30.8,16.8"/>
			<path class="st1" d="M74.2,75c0,0-9.4-23.6,9.4-32s21.8,1.2,22.8,6.1c0,0-14.1,5.4-27.5-10.8c-4.1-5-3.1-17.8-3.1-17.8
				s16.4-5.1,6.9,23.5"/>
		</g>
		<g>
			<path d="M100,12.1c48.5,0,87.9,39.4,87.9,87.9s-39.4,87.9-87.9,87.9S12.1,148.5,12.1,100S51.5,12.1,100,12.1 M100,1.1
				C45.4,1.1,1.1,45.4,1.1,100s44.3,98.9,98.9,98.9s98.9-44.3,98.9-98.9S154.6,1.1,100,1.1L100,1.1z"/>
		</g>
	</g>
</g>
</svg>
