<?xml version="1.0" encoding="UTF-8" standalone="no"?><!DOCTYPE svg PUBLIC "-//W3C//DTD SVG 1.1//EN" "http://www.w3.org/Graphics/SVG/1.1/DTD/svg11.dtd"><svg width="100%" height="100%" viewBox="0 0 200 200" version="1.1" xmlns="http://www.w3.org/2000/svg" xmlns:xlink="http://www.w3.org/1999/xlink" xml:space="preserve" xmlns:serif="http://www.serif.com/" style="fill-rule:evenodd;clip-rule:evenodd;stroke-linecap:round;stroke-miterlimit:10;"><g id="레이어_3"><g><circle cx="63.4" cy="103.7" r="3.3" style="fill:#7308d0;"/><circle cx="97.8" cy="84.4" r="3.3" style="fill:#7308d0;"/><path d="M86.4,60.8c9.3,0 17.8,3.1 21.6,7.8c1.8,2.2 3.8,4.7 5.6,13c0.3,1.3 0.5,2.4 0.7,3.2c0.8,3.6 1,4.9 2.8,7.7c4.1,6.8 11,10 17.7,13.1c3.4,1.6 7,3.3 10.2,5.4c10.4,6.9 15.7,23.6 7,37.5c-9.9,15.9 -31.8,17.6 -40.8,17.6c-7.1,0 -14.1,-1 -19.4,-2.7c-1.2,-0.4 -29.4,-9.9 -39.2,-38.4c-2.3,-6.7 -8.8,-29.8 4.1,-48.3c5.4,-7.7 11.3,-12 14.7,-13.3c4.6,-1.6 9.8,-2.6 15,-2.6m0,-5c-5.6,0 -11.4,1 -16.9,3.1c-5,1.9 -11.5,7.2 -17,15.1c-14.5,20.7 -7.1,45.8 -4.7,52.8c10.6,30.5 40,40.7 42.4,41.5c5.4,1.8 12.9,3 21,3c16.6,0 35.7,-5 45,-19.9c10.5,-16.8 3.5,-36.3 -8.5,-44.3c-9.9,-6.5 -21.2,-8.4 -26.4,-17c-1.6,-2.7 -1.4,-2.9 -2.8,-9.4c-1.9,-8.9 -4.3,-12.2 -6.6,-15.1c-4.9,-6.1 -14.7,-9.8 -25.5,-9.8Z" style="fill:#7308d0;fill-rule:nonzero;"/><path d="M100.9,91.6c2.2,12.2 -17.5,24.3 -30.8,16.8" style="fill:none;fill-rule:nonzero;stroke:#7308d0;stroke-width:3px;"/><path d="M74.2,75c0,0 -9.4,-23.6 9.4,-32c18.8,-8.4 21.8,1.2 22.8,6.1c0,0 -14.1,5.4 -27.5,-10.8c-4.1,-5 -3.1,-17.8 -3.1,-17.8c0,0 16.4,-5.1 6.9,23.5" style="fill:none;fill-rule:nonzero;stroke:#7308d0;stroke-width:3px;"/></g><path d="M100,12.1c48.5,0 87.9,39.4 87.9,87.9c0,48.5 -39.4,87.9 -87.9,87.9c-48.5,0 -87.9,-39.4 -87.9,-87.9c0,-48.5 39.4,-87.9 87.9,-87.9m0,-11c-54.6,0 -98.9,44.3 -98.9,98.9c0,54.6 44.3,98.9 98.9,98.9c54.6,0 98.9,-44.3 98.9,-98.9c0,-54.6 -44.3,-98.9 -98.9,-98.9Z" style="fill:#7308d0;fill-rule:nonzero;"/></g></svg>