<?xml version="1.0" encoding="utf-8"?>
<!-- Generator: Adobe Illustrator 22.0.1, SVG Export Plug-In . SVG Version: 6.00 Build 0)  -->
<svg version="1.1" id="레이어_1" xmlns:serif="http://www.serif.com/"
	 xmlns="http://www.w3.org/2000/svg" xmlns:xlink="http://www.w3.org/1999/xlink" x="0px" y="0px" viewBox="0 0 1000 1000"
	 style="enable-background:new 0 0 1000 1000;" xml:space="preserve">
<style type="text/css">
	.st0{fill:#6D6D6D;}
	.st1{fill:#6D6D6D;stroke:#808080;stroke-width:3;stroke-linecap:round;stroke-miterlimit:10;}
	.st2{fill:#6D6D6D;stroke:#737373;stroke-linejoin:round;stroke-miterlimit:2;stroke-opacity:0;}
</style>
<g id="레이어_3">
	<g>
		<circle class="st0" cx="317" cy="518.5" r="16.5"/>
		<circle class="st0" cx="489" cy="422" r="16.5"/>
		<path class="st0" d="M432,304c46.5,0,89,15.5,108,39c9,11,19,23.5,28,65c1.5,6.5,2.5,12,3.5,16c4,18,5,24.5,14,38.5
			c20.5,34,55,50,88.5,65.5c17,8,35,16.5,51,27c52,34.5,78.5,118,35,187.5c-49.5,79.5-159,88-204,88c-35.5,0-70.5-5-97-13.5
			c-6-2-147-49.5-196-192c-11.5-33.5-44-149,20.5-241.5c27-38.5,56.5-60,73.5-66.5C380,309,406,304,432,304 M432,279
			c-28,0-57,5-84.5,15.5c-25,9.5-57.5,36-85,75.5C190,473.5,227,599,239,634c53,152.5,200,203.5,212,207.5c27,9,64.5,15,105,15
			c83,0,178.5-25,225-99.5c52.5-84,17.5-181.5-42.5-221.5c-49.5-32.5-106-42-132-85c-8-13.5-7-14.5-14-47c-9.5-44.5-21.5-61-33-75.5
			C535,297.5,486,279,432,279L432,279z"/>
		<path class="st1" d="M504.5,458c11,61-87.5,121.5-154,84"/>
		<path class="st1" d="M371,375c0,0-47-118,47-160s109,6,114,30.5c0,0-70.5,27-137.5-54c-20.5-25-15.5-89-15.5-89S461,77,413.5,220"
			/>
	</g>
	<path class="st2" d="M500,60.5c242.5,0,439.5,197,439.5,439.5S742.5,939.5,500,939.5S60.5,742.5,60.5,500S257.5,60.5,500,60.5
		 M500,5.5C227,5.5,5.5,227,5.5,500S227,994.5,500,994.5S994.5,773,994.5,500S773,5.5,500,5.5z"/>
</g>
</svg>
