<?xml version="1.0" encoding="utf-8"?>
<!-- Generator: Adobe Illustrator 21.0.0, SVG Export Plug-In . SVG Version: 6.00 Build 0)  -->
<svg version="1.1" id="레이어_10" xmlns="http://www.w3.org/2000/svg" xmlns:xlink="http://www.w3.org/1999/xlink" x="0px"
	 y="0px" viewBox="0 0 2000 1000" style="enable-background:new 0 0 2000 1000;" xml:space="preserve">
<g>
	<path d="M1842.1,361.9c-65.4,0-120.1,45.5-134.3,106.6c-14.2-61.1-68.9-106.6-134.3-106.6c-62,0-114.5,41-131.8,97.3l-33.1,72
		l-81.7-160.8h-0.4c-1.3-4.7-5.6-8.1-10.7-8.1c-5.1,0-9.4,3.4-10.7,8.1h-1.2l-41.3,82.4l-2,3.9c-4,7.1-9.6,11.5-15.6,11.5
		s-11.6-4.4-15.6-11.5l-2-3.9l-43.3-86.4c-2-2.5-5.1-4.1-8.6-4.1c-5.1,0-9.4,3.4-10.7,8.1h-0.4l-83.1,160.8l-80.5-160.8h-0.4
		c-1.3-4.7-5.6-8.1-10.7-8.1c-5.1,0-9.4,3.4-10.7,8.1l-80.9,160.8l-83.1-160.8h-0.4c-1.3-4.7-5.6-8.1-10.7-8.1c-2.8,0-5.3,1-7.2,2.7
		l-44,87.8l-2,3.9c-4,7.1-9.6,11.5-15.6,11.5s-11.6-4.4-15.6-11.5l-2-3.9L676,370.4h-0.5c-1.3-4.7-5.6-8.1-10.7-8.1
		s-9.4,3.4-10.7,8.1l-82.6,160.8l-80.9-160.8h-0.4c-1.3-4.7-5.6-8.1-10.7-8.1c-5.1,0-9.4,3.4-10.7,8.1l-80.5,160.8l-83.5-160.8
		c-1.3-4.7-5.6-8.1-10.7-8.1c-3.3,0-6.2,1.4-8.2,3.7l-43.5,86.8l-2,3.9c-4,7.1-9.6,11.5-15.6,11.5s-11.6-4.4-15.6-11.5l-2-3.9
		L164,366.6c-2-2.6-5.2-4.3-8.7-4.3c-5.1,0-9.4,3.4-10.7,8.1h-0.4L34.5,585.5c-2.1,2.9-3.8,6.2-4.9,9.7l0,0l0,0
		c-1,3.1-1.5,6.5-1.5,9.9c0,18.2,14.8,33,33,33c12.5,0,23.4-6.9,29-17.2l0.9-1.9l0,0l7.3-14.4l36.6-72.3l2-3.9
		c4-7.1,9.6-11.5,15.6-11.5s11.6,4.4,15.6,11.5l2,3.9l24.7,49.3l5.9,11.7l0.4,0l1.2,2.4c0,0.3,0.1,0.7,0.1,1l4.3,8.5
		c0.5,0.8,1.1,1.6,1.6,2.4v0c1.4,1.9,2.8,3.5,4.2,4.7c1.1,0.7,2.2,1.3,3.4,1.8c2.8,1.2,5.8,1.9,9,1.9c6.9,0,13-3.1,17.2-7.9
		l5.1-10.1v0l33.4-66.7l1.4-2.9c4-7.1,9.6-11.5,15.6-11.5s11.6,4.4,15.6,11.5l2,3.9l44.2,88.6c5.6,10.2,16.5,17.2,29,17.2
		s23.4-6.9,29-17.2l43.6-88.6l2-3.9c4-7.1,9.6-11.5,15.6-11.5c6.1,0,11.6,4.4,15.6,11.5l1.4,2.9l0,0l0.2,0.4
		c0.1,0.3,0.4,0.7,0.7,1.3l0.9,1.7c0.1,0.2,0.2,0.3,0.3,0.5l1,1.9c0.3,0.5,0.6,1.1,0.9,1.7l1.2,2.4c0.2,0.5,0.5,1,0.8,1.5l1.7,3.2
		c0.1,0.2,0.2,0.5,0.4,0.7l1.3,2.5c0.4,0.7,0.7,1.4,1.1,2.1l5.5,10.4c0.5,1,1.1,2.1,1.6,3.1l2.4,4.7c0.7,1.3,1.3,2.6,2,3.8l5.9,11.2
		c0.5,1,1.1,2,1.6,3l3.7,7c0.2,0.3,0.3,0.6,0.5,0.9l5.3,10.1h0c4.8,9.1,8,15.4,8,15.4l0.2,0.5c0,0,0,0,0,0
		c5.6,10.2,16.5,17.2,29,17.2c12.5,0,23.4-6.9,29-17.2l43.8-89.7l1.4-2.9c4-7.1,9.6-11.5,15.6-11.5s11.6,4.4,15.6,11.5l1.4,2.9
		l0.5,1.1l30.6,61.1h0l3.6,7.3l2.6,5.3c0.4,0.6,0.8,1.1,1.2,1.6l0,0v0c4.2,5.1,10.5,8.4,17.6,8.4c5.8,0,11.1-2.2,15.2-5.8l1.3-2.5v0
		l7.2-14.3h0l25.2-50.4l5.8-11.7l1.4-2.9c4-7.1,9.6-11.5,15.6-11.5c6.1,0,11.6,4.4,15.6,11.5l1.4,2.9l0,0.1l37.1,73.3l0,0l7.3,14.5
		c0,0,0,0,0,0l0.9,1.8c0,0,0,0,0,0c5.6,10.2,16.5,17.2,29,17.2c12.5,0,23.4-7,29-17.2l0,0l0.9-1.8l7.1-14l37.4-73.9l0,0l1.4-2.9
		c4-7.1,9.6-11.5,15.6-11.5s11.6,4.4,15.6,11.5l1.4,2.9l0,0l45.7,89.7c0,0,0,0,0,0c5.6,10.2,16.5,17.2,29,17.2
		c12.5,0,23.4-6.9,29-17.2c0,0,0,0,0,0l8.2-16.3l0.2,0l36.2-72.3l0.5-1l0,0v0l1.4-2.9c4-7.1,9.6-11.5,15.6-11.5s11.6,4.4,15.6,11.5
		l2,3.9l30.5,61l0.7,1.5l6.9,13.8c4.2,4.5,10.1,7.4,16.7,7.4c7.1,0,13.4-3.3,17.6-8.4c0,0,0,0,0,0l4.4-8.7c0,0,0,0,0,0l2.8-5.5l0,0
		l0.5,0.1l30.6-61.1l0.5-1.1l0,0v0l1.4-2.9c4-7.1,9.6-11.5,15.6-11.5s11.6,4.4,15.6,11.5l1.4,2.9l44.1,89.7
		c5.6,10.2,16.5,17.2,29,17.2c12.5,0,23.4-6.9,29-17.2l0,0l0,0c0.3-0.6,0.6-1.2,0.9-1.8l21.1-41.7c24.8,36.4,66.6,60.3,114,60.3
		c65.4,0,120.1-45.5,134.3-106.6c14.2,61.1,68.9,106.6,134.3,106.6c76.2,0,137.9-61.7,137.9-137.9S1918.3,361.9,1842.1,361.9z
		 M1573.5,567.3c-37.3,0-67.5-30.2-67.5-67.5s30.2-67.5,67.5-67.5c37.3,0,67.5,30.2,67.5,67.5S1610.7,567.3,1573.5,567.3z
		 M1842.1,567.3c-37.3,0-67.5-30.2-67.5-67.5s30.2-67.5,67.5-67.5c37.3,0,67.5,30.2,67.5,67.5S1879.4,567.3,1842.1,567.3z"/>
</g>
</svg>
