<svg xmlns="http://www.w3.org/2000/svg" viewBox="0 0 356.4 383.98"><defs><style>.cls-1{fill:#f2be80;}.cls-2{fill:#4f2a13;}.cls-3{fill:#60629f;}.cls-4{fill:#f8cf91;}.cls-5{opacity:0.4;}.cls-6{opacity:0.15;}.cls-7{fill:#e3051e;}.cls-8{fill:#fff;}.cls-9{fill:#e37628;}</style></defs><title>자산 19</title><g id="레이어_2" data-name="레이어 2"><g id="Layer_1" data-name="Layer 1"><path class="cls-1" d="M264,324.63s-4.75,27,13.81,28l11.55-9v-16Z"/><path class="cls-2" d="M277.85,355.63h-.16a16.05,16.05,0,0,1-12.26-6c-7.14-9-4.46-24.82-4.34-25.49a3,3,0,0,1,3.31-2.46l25.36,3a3,3,0,0,1,2.64,3v16a3,3,0,0,1-1.15,2.37l-11.56,9A3,3,0,0,1,277.85,355.63ZM266.67,328c-.38,4.41-.48,13,3.47,17.92a9.86,9.86,0,0,0,6.8,3.66l9.46-7.37V330.3Z"/><path class="cls-3" d="M272.4,240.63s60,24.48,81,89H45.4s73.84-79.34,126-83"/><path class="cls-2" d="M353.4,332.63H45.4a3,3,0,0,1-2.19-5A484.34,484.34,0,0,1,87,287.17c33.64-27.32,62-42,84.24-43.53a3,3,0,1,1,.42,6c-42.82,3-101.9,59.61-119.12,77H349.21c-21.45-59.57-77.36-83-77.94-83.22a3,3,0,0,1,2.27-5.56c.63.26,15.61,6.45,33.37,20.75,16.4,13.19,38.27,36.07,49.35,70.1a3,3,0,0,1-2.86,3.93Z"/><path class="cls-4" d="M247.9,239l5.87-33.3s11.71,21.45,33.77,10.3c0,0,33.27-9.43,21.33-44.78L283,131,254.6,84.51,115.73,71.87,96.65,87.64l-2.9,21s10.59,44.39,2.9,54.53c0,0-34.25,89.41,72,75.59,0,0,5.89,29.79,30.78,35C199.4,273.83,234,263.45,247.9,239Z"/><path class="cls-2" d="M199.4,276.33a2.94,2.94,0,0,1-.51-.05c-22.47-4.72-30.27-27.58-32.2-34.83-33.87,2.32-57-4.69-68.89-20.84-17.2-23.41-4-56.91-3.47-58.33,2.4-5.79,2.65-16.73.74-31.66-1.48-11.49-3.73-21.27-3.75-21.36a2.33,2.33,0,0,1,0-.91l2.89-21a2.53,2.53,0,0,1,.89-1.58l19.08-15.78a2.45,2.45,0,0,1,1.82-.56L254.83,82a2.51,2.51,0,0,1,1.9,1.19l28.4,46.45L311,169.89a2.53,2.53,0,0,1,.26.55c3.91,11.56,3.61,21.76-.89,30.29-6.57,12.5-19.85,17-21.88,17.62-16.55,8.25-27.84-.36-33.24-6.47l-4.86,27.58a2.56,2.56,0,0,1-.29.8c-7.5,13.13-20.7,22.21-30.46,27.52a113.08,113.08,0,0,1-19.5,8.45A2.46,2.46,0,0,1,199.4,276.33Zm-30.78-40a2.49,2.49,0,0,1,2.45,2c.06.28,5.79,27.73,28.22,32.92,4.56-1.5,33.81-11.81,46.23-33.09l5.79-32.86a2.51,2.51,0,0,1,4.66-.77c.43.79,10.86,19.17,30.45,9.27a2.39,2.39,0,0,1,.44-.18c.13,0,13.13-3.88,19.09-15.25,3.77-7.2,4-16,.65-26l-25.71-40L253.12,86.89,116.53,74.45,99,89l-2.71,19.63c1.06,4.69,8.86,40.66,2.67,55.6-.12.29-12.68,32.33,2.88,53.49,11,15,33.43,21.26,66.59,18.64ZM247.9,239h0Z"/><path class="cls-2" d="M247.38,184.82s4.91-14.06,1-28.06c0,0-15.1-57.55-38.49-52.77,0,0-6.66-.32-24.06-7.58a50.49,50.49,0,0,0-29.75-6.58s-29.43,8-49.55,2c0,0-15.21,1.17-13.21,17,0,0-19.73-37.67,26.47-63.28,0,0,9.83-23.71,53.9-27.67,0,0,51.72-36.1,99.57-5.5,0,0,54.62,10.35,60.69,87.81,0,0,5.79,50.36-25.1,71.12,0,0-13.43-18.22-36.42-6.91,0,0-16.61,22.69-19.93,24.73C252.52,189.06,248.37,190.52,247.38,184.82Z"/><path class="cls-2" d="M195.28,169.35s3.63-8.7-5.78-12.21c0,0-16.81-8.09-17.32,5.94,0,0,2.35,13.53,11,12.76C183.2,175.84,191.28,175.91,195.28,169.35Z"/><g class="cls-5"><path class="cls-2" d="M197.2,170.37s3.92-8.76-6-12.17c0,0-17.7-7.95-18.37,6.11,0,0,2.34,13.54,11.52,12.68C184.35,177,192.9,177,197.2,170.37Z"/></g><path class="cls-2" d="M116.91,161.64s0-12.48-7.43-9c0,0-7.59,2.78-4,11C105.51,163.61,112.78,167.49,116.91,161.64Z"/><path class="cls-2" d="M174.62,134.77s10.66-6.24,21.4.7a14.12,14.12,0,0,0-4.67-5.79s-8.58-2.92-13.19.08C178.16,129.76,175,132.51,174.62,134.77Z"/><path class="cls-2" d="M118.19,139.41s-4.7-10.2-12.29-7.42c0,0,6.73-7.76,10.94-.42C116.84,131.57,119.84,136.19,118.19,139.41Z"/><path class="cls-2" d="M135.68,169.42c-1.41,2.54-3.63,4.21-4.34,7.25-.66,2.82.23,6.17,2.73,7.63a7.46,7.46,0,0,1-6.8-1.7,11.08,11.08,0,0,1-3.39-6.32,3.78,3.78,0,0,1-.08-1.11,3.62,3.62,0,0,1,.58-1.44,10.66,10.66,0,0,1,5-4.32C131.14,168.67,134,168.28,135.68,169.42Z"/><path class="cls-2" d="M197.44,229.05a70.14,70.14,0,0,1-9.11,4.32c-3.11,1.26-6.29,2.33-9.5,3.28a81.9,81.9,0,0,1-9.83,2.26,34.67,34.67,0,0,1-10.12.48c3.28-.81,6.42-1.8,9.59-2.76s6.34-1.93,9.52-2.86,6.38-1.82,9.62-2.62S194.09,229.58,197.44,229.05Z"/><g class="cls-6"><path class="cls-7" d="M170.4,206.63c2.13,13.46,21.7,22.3,35,20,14-2.42,25-20,23-33-2.17-14.13-20.13-21.32-33.52-19C179.07,177.3,168.56,194.92,170.4,206.63Z"/></g><path class="cls-2" d="M297.23,182.42a43.54,43.54,0,0,0-8.33-2,22.34,22.34,0,0,0-8,.32,18.75,18.75,0,0,0-7.1,3.57,41.71,41.71,0,0,0-5.95,6.12,19.14,19.14,0,0,1,4.34-7.84,16.23,16.23,0,0,1,8-4.76,18.39,18.39,0,0,1,9.24.28A19.88,19.88,0,0,1,297.23,182.42Z"/><path class="cls-2" d="M276.45,185.29a12.11,12.11,0,0,1,4.71,3.34,12.49,12.49,0,0,1,2.82,5.29,9.65,9.65,0,0,1-.46,6.12,9.76,9.76,0,0,1-3.74,4.48c.13-.48.29-.92.45-1.36a7.49,7.49,0,0,0,.45-1.28c.11-.43.23-.85.35-1.26a7.68,7.68,0,0,0,.22-1.24,11.59,11.59,0,0,0-.19-4.77,20,20,0,0,0-1.82-4.63C278.42,188.45,277.48,186.92,276.45,185.29Z"/><g class="cls-6"><path class="cls-7" d="M100.18,156.74c.06-.12,9,12.89,9.49,14.37,2.29,6.84.19,13.18-4.61,18.31-3,3.24-12.11,12.15-13.66,3.21l5.18-22.58.31-6.87Z"/></g><path class="cls-8" d="M194.4,268.63s52-22,59-59c0,0,16,13,19,30,0,0-31,70-49,81C223.4,320.63,194.4,296.63,194.4,268.63Z"/><path class="cls-2" d="M223.41,323.63a3,3,0,0,1-1.92-.69c-1.23-1-30.09-25.23-30.09-54.31a3,3,0,0,1,1.83-2.76c.51-.21,50.61-21.82,57.23-56.8a3,3,0,0,1,4.84-1.77c.68.56,16.9,13.91,20.06,31.81a3.06,3.06,0,0,1-.21,1.74c-.08.17-7.91,17.81-17.84,36.56-13.53,25.53-24.41,40.94-32.34,45.78A3,3,0,0,1,223.41,323.63Zm-26-53.07c.66,12.85,7.76,24.76,13.76,32.64a106.11,106.11,0,0,0,12.4,13.61c14.14-11.34,37.17-58.49,45.67-77.54-2.16-10.45-9.65-19.36-14.18-24C245.6,246.81,206.65,266.33,197.45,270.56Z"/><path class="cls-8" d="M171.4,246.63s18,23.11,25,20.12c0,0-15,48.89-27,51.88,0,0-19-52-17-64C152.4,254.63,162.4,245.63,171.4,246.63Z"/><path class="cls-2" d="M169.4,321.63a3,3,0,0,1-2.81-2c-2-5.4-19.21-53.13-17.14-65.52a3,3,0,0,1,1-1.74c.45-.4,11.12-9.89,21.33-8.75a3,3,0,0,1,2,1.14,141.07,141.07,0,0,0,9.67,10.94c8.89,8.93,11.76,8.27,11.78,8.26a3,3,0,0,1,4.05,3.64c-2.59,8.43-16.15,50.67-29.14,53.91A3,3,0,0,1,169.4,321.63Zm-14.14-65.49c-.46,9.13,8.62,38.16,15.74,58.08,4.89-4.56,13.23-19.2,21.37-44.64-3.54-1.1-7.87-4.28-13.22-9.65-4.11-4.13-7.67-8.42-9.25-10.37C164.45,249.6,158.18,253.76,155.26,256.14Z"/><path class="cls-9" d="M295.4,311.63C293.49,290,272.9,260,247.2,268.12c-22.81,7.24-12.83,31.48-.8,43.51,0,0,20,17,35,21"/><path class="cls-2" d="M281.41,335.63a3,3,0,0,1-.78-.1c-15.47-4.13-35.33-20.9-36.17-21.61l-.18-.17c-8.3-8.3-16-22.45-13.17-33.91,1.17-4.82,4.76-11.27,15.19-14.58,9.46-3,19.11-1.49,27.91,4.37,14.29,9.53,23,28.21,24.18,41.74a3,3,0,0,1-6,.53c-1.07-12.11-8.81-28.8-21.54-37.28-7.33-4.88-15-6.11-22.77-3.64-6.23,2-10,5.44-11.17,10.28-2.14,8.76,4.15,20.77,11.5,28.16,1.45,1.22,20.07,16.67,33.74,20.31a3,3,0,0,1-.77,5.9Z"/><path class="cls-1" d="M339,356s6.63-7.58-1.9-15.17c0,0,2.84-18-10.43-19,0,0-2.84-21.8-23.7-11.37,0,0-24.65,4.74-23.7,31.28,0,0-7.58,18,0,19.91,0,0-3.79,10.43,5.69,11.38C284.91,373.05,326.62,373.05,339,356Z"/><path class="cls-2" d="M284.91,376.05l-.3,0c-4.39-.44-6.58-2.56-7.65-4.27-1.79-2.84-1.64-6.25-1.23-8.55a7.32,7.32,0,0,1-1.83-2.33c-2.88-5.76,1-16.37,2.3-19.67-.55-26.16,22.19-32.72,25.7-33.58,7.14-3.49,13.28-3.92,18.25-1.28,5.77,3.06,8.11,9.42,9,12.84a12.53,12.53,0,0,1,7.39,4.55c4,5.07,3.94,12.64,3.67,15.93,7,7.18,3.91,14.88,1.11,18.18C328.14,375.84,286.67,376.05,284.91,376.05Zm28.17-65.4a20.3,20.3,0,0,0-8.82,2.51,2.91,2.91,0,0,1-.77.26c-.9.18-22.11,4.66-21.27,28.24a3.28,3.28,0,0,1-.23,1.27c-1.91,4.53-4.09,12.53-2.72,15.27a.89.89,0,0,0,.68.56A3,3,0,0,1,282,362.7c-.34,1-1.09,4.16,0,5.88.19.3.77,1.21,3,1.47,2.72,0,40.53-.69,51.45-15.82l.16-.21c.78-.91,4.29-5.71-1.61-11a3,3,0,0,1-1-2.71c.36-2.34.65-9.22-2.28-12.89a7.12,7.12,0,0,0-5.4-2.61,3,3,0,0,1-2.76-2.61c0-.07-1.13-7.86-6.34-10.6A8.86,8.86,0,0,0,313.08,310.65Z"/><path class="cls-2" d="M279.22,343.31a2.5,2.5,0,0,1-1.77-4.26,65.77,65.77,0,0,1,30.64-15.85,2.5,2.5,0,1,1,1,4.89A61.82,61.82,0,0,0,281,342.58,2.49,2.49,0,0,1,279.22,343.31Z"/><path class="cls-2" d="M279.22,364.17a2.5,2.5,0,0,1-1.65-4.38c1-.84,23.8-20.62,40.81-18.61a2.5,2.5,0,0,1-.58,5c-14.81-1.74-36.71,17.22-36.93,17.41A2.5,2.5,0,0,1,279.22,364.17Z"/><circle class="cls-2" cx="254.9" cy="290.13" r="1.5"/><circle class="cls-2" cx="258.9" cy="303.13" r="2.5"/><circle class="cls-2" cx="270.9" cy="298.13" r="1.5"/><circle class="cls-2" cx="273.4" cy="317.63" r="1"/><path class="cls-3" d="M35.67,290.84S32.2,278.07,9,314.05c0,0-26.61,93.42,32.87,59.56,0,0,40.06-33.79,35.59-66.8"/><path class="cls-2" d="M20.1,384a17.31,17.31,0,0,1-11-3.56c-17.55-13.77-4.5-61.77-2.95-67.2a3,3,0,0,1,.36-.8c16.25-25.2,23.34-27.31,27.23-26.71a6.11,6.11,0,0,1,4.86,4.34l-5.79,1.58,0,.11a.4.4,0,0,0-.07-.13h-.06c-.56,0-5.93.53-20.91,23.68-3.92,14-11.07,50.94,1,60.41,5.37,4.21,14.58,2.68,27.37-4.56,3-2.61,38.38-34.11,34.34-63.93a3,3,0,0,1,6-.8c4.64,34.25-34.94,68.07-36.62,69.49a3.28,3.28,0,0,1-.45.31Q29.71,384,20.1,384Z"/><path class="cls-1" d="M42.75,270.72s-2.53,19.75-11.7,30.52c0,0,3.23,27.83,37.48,17.06l26.54-34.15"/><path class="cls-2" d="M54.17,323.78a26.78,26.78,0,0,1-14.86-4c-9.76-6.33-11.19-17.66-11.24-18.14a3,3,0,0,1,.69-2.29c8.5-10,11-28.78,11-29a3,3,0,0,1,5.95.77c-.1.81-2.59,19.5-11.48,31,.59,2.6,2.58,8.94,8.38,12.67s13.88,4,24.12,1l26-33.4A3,3,0,1,1,97.43,286L70.9,320.14a3,3,0,0,1-1.47,1A51.21,51.21,0,0,1,54.17,323.78Z"/><path class="cls-1" d="M52.77,284.45c-8.05-.36-14.28-27.95-14.28-27.95-11.41-42.22,16.14-36.41,16.14-36.41,4.86-14.43,16.47-7.34,16.47-7.34C80.19,201,91,210.16,91,210.16c13.32-9.1,21.82,9.28,21.82,9.28S133,272,89.06,286.55"/><path class="cls-2" d="M89.06,289.55a3,3,0,0,1-.94-5.84c10.7-3.55,18.24-9.81,22.4-18.61,8.78-18.59.1-42.82-.52-44.49-1.11-2.33-4.91-8.39-9.74-9.71-2.44-.67-4.93-.1-7.61,1.73a3,3,0,0,1-3.64-.19s-3.8-3.11-8.16-2.63c-2.67.29-5.15,1.9-7.38,4.78a3,3,0,0,1-3.94.72s-3.66-2.14-6.91-.93c-2.2.81-3.93,3.06-5.15,6.67A3,3,0,0,1,54,223c-.06,0-7.22-1.39-11.56,3.24-4.58,4.89-5,15.07-1.06,29.45l0,.12c3,13.27,8.47,25.48,11.49,25.61a3,3,0,0,1-.27,6c-9.57-.43-15.46-23.16-17.06-30.23-4.51-16.73-3.66-28.55,2.55-35.11,4.69-5,11-5.44,14.54-5.25,1.85-4.16,4.51-6.89,7.93-8.13a14,14,0,0,1,9.69.35,15.87,15.87,0,0,1,10-5.25,17.52,17.52,0,0,1,10.79,2.75,14.11,14.11,0,0,1,10.81-1.46c8.59,2.37,13.42,12.63,13.62,13.06l.08.18c.43,1.13,10.52,27.83.37,49.31C111.05,278,102.33,285.32,90,289.4A3.08,3.08,0,0,1,89.06,289.55Z"/><path class="cls-9" d="M98.5,241.65c9.73-3.79,30.22,1.59,30.22,1.59,13.08,13,30.39,3.58,30.39,3.58C193.55,226,155.83,206,155.83,206c-25.72-8-43.06,13.49-43.06,13.49L97.3,226.7"/><path class="cls-2" d="M145.6,253.1A26.25,26.25,0,0,1,127.21,246c-6-1.48-20.71-4.19-27.62-1.5a3,3,0,1,1-2.18-5.59c10.51-4.1,31.2,1.25,32.07,1.48a3,3,0,0,1,1.36.77c11.06,11,25.61,3.72,26.78,3.1,8.77-5.31,13.14-10.84,13-16.44-.24-8.64-11.35-16.53-15.94-19-23.36-7.05-39.4,12.39-39.56,12.59a3.18,3.18,0,0,1-1.06.83l-15.47,7.26A3,3,0,0,1,96,224l14.9-7c3.12-3.47,20.89-21.62,45.79-13.9a3,3,0,0,1,.52.22c.78.41,19,10.24,19.37,24.3.22,7.92-5.14,15.25-15.94,21.78l-.12.07A32.76,32.76,0,0,1,145.6,253.1Z"/><path class="cls-2" d="M62.14,257.56c-9.18,0-16-18.72-17.31-22.64a2.5,2.5,0,0,1,4.74-1.6c2.89,8.57,9,20,12.94,19.2a2.5,2.5,0,0,1,1,4.9A6.44,6.44,0,0,1,62.14,257.56Z"/><path class="cls-2" d="M73,260a10,10,0,0,1-6.27-2.14c-8.37-6.48-7.91-26-7.89-26.8a2,2,0,0,1,2.06-1.94,2,2,0,0,1,1.94,2.05c-.14,5.07.72,19.18,6.34,23.53,1.76,1.35,3.88,1.64,6.48.88a2,2,0,0,1,1.12,3.84A13.33,13.33,0,0,1,73,260Z"/><path class="cls-2" d="M82.2,256.81a6.48,6.48,0,0,1-3-.73c-8.14-4.22-9.26-26.83-9.36-29.39a2,2,0,0,1,1.92-2.08,2,2,0,0,1,2.07,1.92c.35,8.79,2.62,23.62,7.21,26,.64.32,1.7.61,3.6-.62a2,2,0,0,1,2.18,3.35A8.45,8.45,0,0,1,82.2,256.81Z"/><path class="cls-2" d="M90.73,251.74a6.12,6.12,0,0,1-4.48-1.83c-5.79-5.8-1.61-24.66-1.11-26.79a2,2,0,0,1,3.9.9c-1.68,7.22-3.15,19.87,0,23.07.43.43,1.12.88,2.69.52a2,2,0,1,1,.9,3.89A8.22,8.22,0,0,1,90.73,251.74Z"/><path class="cls-2" d="M99.3,253.62a2,2,0,0,1-1.67-.89c-6-9.09-3-32.29-2.88-33.27a2,2,0,1,1,4,.53c-.84,6.29-2.09,24,2.24,30.52a2,2,0,0,1-.55,2.78A2.05,2.05,0,0,1,99.3,253.62Z"/><circle class="cls-2" cx="124.67" cy="224" r="1.5"/><circle class="cls-2" cx="144.73" cy="236.44" r="1.5"/><circle class="cls-2" cx="150.67" cy="222.92" r="1.5"/><circle class="cls-2" cx="137.11" cy="229.03" r="1.5"/><circle class="cls-2" cx="117.1" cy="229.63" r="2.5"/><path class="cls-2" d="M161.4,196.63c1.06,2.29,2,4.5,3.12,6.64a56.09,56.09,0,0,0,3.51,6.11,29.52,29.52,0,0,0,4.45,5.26,25.48,25.48,0,0,0,5.92,4,12.62,12.62,0,0,1-3.79-.49,16,16,0,0,1-3.55-1.61,18.93,18.93,0,0,1-5.52-5.47,25.42,25.42,0,0,1-3.21-6.94A22.35,22.35,0,0,1,161.4,196.63Z"/><path class="cls-2" d="M120.81,198.63a16.86,16.86,0,0,1,1.75,5.89,18.53,18.53,0,0,1-.31,6.24,12.32,12.32,0,0,1-3,5.74,9.3,9.3,0,0,1-2.65,1.92,8.18,8.18,0,0,1-3.07.71,19.55,19.55,0,0,0,2.23-1.92,13.75,13.75,0,0,0,1.63-2.16,17.6,17.6,0,0,0,1.9-5,48,48,0,0,0,.88-5.53Z"/><g class="cls-5"><path class="cls-2" d="M116.73,162.32s.37-12.53-8.31-8.83c0,0-8.8,3-4.86,11.11C103.56,164.6,111.83,168.31,116.73,162.32Z"/></g><path class="cls-8" d="M7.4,324.63s2.44,37.61,51,29c0,0,20-28,17-39,0,0-34,25-47-13l6-8-1-3S22.9,291.6,7.4,324.63Z"/><path class="cls-2" d="M20.1,384a17.31,17.31,0,0,1-11-3.56c-17.55-13.77-4.5-61.77-2.95-67.2a3,3,0,0,1,.36-.8c16.25-25.2,23.34-27.31,27.23-26.71a6.11,6.11,0,0,1,4.86,4.34l-5.79,1.58,0,.11a.4.4,0,0,0-.07-.13h-.06c-.56,0-5.93.53-20.91,23.68-3.92,14-11.07,50.94,1,60.41,5.37,4.21,14.58,2.68,27.37-4.56,3-2.61,38.38-34.11,34.34-63.93a3,3,0,0,1,6-.8c4.64,34.25-34.94,68.07-36.62,69.49a3.28,3.28,0,0,1-.45.31Q29.71,384,20.1,384Z"/><path class="cls-2" d="M40.4,361.12a33.3,33.3,0,0,1-12.84-2.54c-17.37-7.21-24.6-27.1-24.9-27.94a3,3,0,1,1,5.66-2c.11.3,6.73,18.28,21.57,24.42,8,3.33,17.21,2.61,27.23-2.13a3,3,0,1,1,2.57,5.42A45.07,45.07,0,0,1,40.4,361.12Z"/></g></g></svg>