<svg xmlns="http://www.w3.org/2000/svg" viewBox="0 0 1224.57 479.78"><defs><style>.cls-1{fill:#286380;}.cls-2{fill:#fff;}</style></defs><title>자산 2</title><g id="레이어_2" data-name="레이어 2"><g id="Layer_1" data-name="Layer 1"><path class="cls-1" d="M17.71,217.78s527-490,1188,0l-99,182S633.86,3.6,122.28,400.19Z"/><path class="cls-1" d="M1175.66,295.58,1111,416.11s-24.46-11.37-71.63-20.47c0,0,80.36,59.12,97.83,84.14,0,0,14-56.85,14-93.24,0,0,47.17-20.46,73.37-38.65C1224.57,347.89,1201.86,316.05,1175.66,295.58Z"/><path class="cls-1" d="M48.91,295.58l64.64,120.53s24.45-11.37,71.62-20.47c0,0-80.36,59.12-97.83,84.14,0,0-14-56.85-14-93.24,0,0-47.17-20.46-73.37-38.65C0,347.89,22.71,316.05,48.91,295.58Z"/><polygon class="cls-2" points="200.94 269.79 170.04 268.62 151.56 293.41 143.13 263.66 113.84 253.75 139.52 236.53 139.9 205.61 164.22 224.72 193.74 215.53 183.08 244.55 200.94 269.79"/><polygon class="cls-2" points="1028.84 269.79 1059.74 268.62 1078.22 293.41 1086.65 263.66 1115.94 253.75 1090.26 236.53 1089.88 205.61 1065.57 224.72 1036.04 215.53 1046.7 244.55 1028.84 269.79"/><path class="cls-2" d="M311.17,134l-.18.09,1.2,2.42c-8.64,4.26-17.21,8.74-25.64,13.4a144.05,144.05,0,0,1,6.11,13.85A92.56,92.56,0,0,1,297,178.08c2,.27,5.1.65,9.33,1.19a107.63,107.63,0,0,1,13.26,2.62,63.63,63.63,0,0,1,12.58,4.67c3.79,1.9,6.33,4.27,7.5,7,1.33,3.08,1.55,5.76.74,7.85a10,10,0,0,1-3.76,4.86,13,13,0,0,1-5.62,2.16,8.11,8.11,0,0,1-4.68-.4,42,42,0,0,1-4.77-3.22q-3.46-2.56-7.58-5.69t-8.38-6.16q-4.26-3-7.24-5c0,2.06,0,3.1,0,5.16a51.7,51.7,0,0,1-2.73,13.12,95.18,95.18,0,0,1-5.61,13.11q-3.35,6.47-7.28,12.58t-7.56,11.28l-3-1.26a65,65,0,0,0,5.54-16.9,68,68,0,0,0,.94-16.15,75.7,75.7,0,0,0-2.42-14.82,116.41,116.41,0,0,0-4.34-13,96.4,96.4,0,0,0-4.88-10.45q-2.47-4.47-3.94-7.26c-4.37,2.63-6.54,4-10.87,6.7-1.86,2.87-2.77,4.3-4.59,7.19-3.44.51-5.16.77-8.62,1.33l-1.49-2.25c16.3-10.85,33.15-20.93,50.35-30.29,3.91-4.59,5.9-6.87,9.93-11.39C303.22,134.35,305.87,134.21,311.17,134Zm-31.69-.22c2.54.54,3.61,1.84,3.23,3.87a13.4,13.4,0,0,1-3.54,6.32,31.2,31.2,0,0,1-7.31,5.86,14.28,14.28,0,0,1-8.1,2.38l-3.73-.14c-1.56-.06-3.3-.15-5.22-.28s-3.9-.32-5.93-.59a41.77,41.77,0,0,1-5.94-1.26,52.08,52.08,0,0,1,10.55-9.6,49.25,49.25,0,0,1,11.74-5.64A27.89,27.89,0,0,1,279.48,133.78ZM335.05,152c-4.53,2.12-6.78,3.21-11.28,5.43a11.79,11.79,0,0,1-2.34,5.81,14.77,14.77,0,0,1-5.26,4.41,14.14,14.14,0,0,1-9.48,1.5,9.34,9.34,0,0,1-6.86-4.74q16.35-8.85,33.18-16.76C333.83,149.35,334.24,150.22,335.05,152Zm41.79,45.32a9.73,9.73,0,0,1-.11,8.48,27.56,27.56,0,0,1-5.19,7.33,59.28,59.28,0,0,1-8.93,7.15q-24.37-51-48.74-101.9c-4,1.53-6,2.31-10.05,3.91-1.15.34-1.89.16-2.25-.56s0-1.5,1.15-2.08l.18-.09q17.22-6.9,34.79-12.85ZM409.31,194a9.74,9.74,0,0,1-.49,8.43,26.73,26.73,0,0,1-5.42,7,56.88,56.88,0,0,1-9.09,6.58L345.93,99.11c-4.11,1.32-6.16,2-10.26,3.37-1.16.28-1.9.06-2.22-.67s.06-1.5,1.27-2l.18-.08q17.58-6,35.46-11Q389.85,141.33,409.31,194Z"/><path class="cls-2" d="M514.37,111.16c.69,4.45,1,6.67,1.73,11.12a9.28,9.28,0,0,1-3,8.37,33,33,0,0,1-8.26,6,87.5,87.5,0,0,1-12.52,5.1L487.23,116c-10.27,2-15.39,3.18-25.58,5.65-3.7,2.5-5.53,3.77-9.17,6.32-4.42-.46-6.64-.67-11.09-1l-.8-2.9A713.56,713.56,0,0,1,560.72,102.7c6.61-4.5,10-6.71,16.79-11,7.25,3.58,10.82,5.42,17.86,9.19,0,1.2,0,1.8.08,3A761.64,761.64,0,0,0,514.37,111.16Zm7.48-61.36a113.65,113.65,0,0,1,21,.52,71.9,71.9,0,0,1,17,4,34.44,34.44,0,0,1,11.37,6.74A12.93,12.93,0,0,1,575.6,70c.2,3.49-1.2,6.77-4.13,9.85a42,42,0,0,1-12.18,8.39,106.22,106.22,0,0,1-18.22,6.63,185,185,0,0,1-22.51,4.61,182.41,182.41,0,0,1-22.83,2,107.84,107.84,0,0,1-19.32-1.17,42.45,42.45,0,0,1-14.13-4.55c-3.71-2.12-6-4.86-6.81-8.27-.91-3.79.1-7.64,3.1-11.51A46.27,46.27,0,0,1,471.31,65.1a96.36,96.36,0,0,1,18.88-8.68,117.88,117.88,0,0,1,21.34-5.2C515.65,50.62,517.72,50.34,521.85,49.8Zm57.84,104.08a9.66,9.66,0,0,1-1.74,6.33,19,19,0,0,1-4.84,4.74,36.7,36.7,0,0,1-6.29,3.47,68.12,68.12,0,0,1-6.4,2.43q-3,.94-5.11,1.46c-1.39.34-2.15.52-2.25.53q-2-19.09-4-38.19c-16.46,1.66-32.85,4.12-49.12,7.12-5.23,3.3-7.82,5-12.92,8.39-6-1.07-9-1.57-15.07-2.48l-.65-2.77a689.7,689.7,0,0,1,107-15.44ZM518,95.31a68.89,68.89,0,0,0,14.41-3.45,30.42,30.42,0,0,0,9.35-5.3,16.28,16.28,0,0,0,4.82-6.76,17.77,17.77,0,0,0,.92-7.7A18.66,18.66,0,0,0,545,64.5a16.78,16.78,0,0,0-6.32-6A29.93,29.93,0,0,0,527.83,55a55.84,55.84,0,0,0-15.7.37,56.54,56.54,0,0,0-15.35,4.16,28.83,28.83,0,0,0-9.35,6.37,17,17,0,0,0-4.25,7.6,18.49,18.49,0,0,0-.17,8,17.67,17.67,0,0,0,3.08,7.12,16.58,16.58,0,0,0,6.47,5.12A29.66,29.66,0,0,0,503,96.14,69.45,69.45,0,0,0,518,95.31Zm40.23,8.8c.43,5.09.64,7.63,1.08,12.71a9.28,9.28,0,0,1-3.52,8.14,32.64,32.64,0,0,1-8.64,5.37,84.9,84.9,0,0,1-12.82,4.22c-1.41-11-2.12-16.51-3.53-27.52C541.7,105.63,547.19,105,558.18,104.11Z"/><path class="cls-2" d="M691.16,63.64Q687.07,99,683,134.27c6.72.78,12.69,1.41,17.94,1.82a124.74,124.74,0,0,0,14.45.38,88.12,88.12,0,0,0,12.54-1.32,92.17,92.17,0,0,0,12-3,25.08,25.08,0,0,1,2.54-.3,26,26,0,0,1,3.64-.06,10.45,10.45,0,0,1,3,.51c.76.27,1,.66.63,1.14s-1.47,1.1-3.34,1.87-4.89,1.75-9,2.91c-3.55,1-7.29,1.89-11.12,2.7a100.46,100.46,0,0,1-12.4,1.73,130.39,130.39,0,0,1-14.49.31c-5.22-.15-11-.62-17.28-1.35-8.23-1-12.35-1.36-20.6-2a7.32,7.32,0,0,1-3.76-1.12,5.41,5.41,0,0,1-1.86-2.16,8.3,8.3,0,0,1-.62-3.06q2.55-36.21,5.11-72.42c-2.86-.2-4.29-.29-7.15-.46-1.25-.08-1.85-.61-1.79-1.61s.71-1.46,2-1.39c15.27,1.06,30.44,2.47,45.64,4.27,6.61-1.52,9.94-2.24,16.65-3.59,6,3.27,9,4.94,14.86,8.35-.21,1.18-.31,1.77-.52,3Q710.68,65.92,691.16,63.64Zm96.07,59.87c-10.34-2.82-20.68-5.59-31.14-8l-11,48.1a9.75,9.75,0,0,1-5,6.78,27,27,0,0,1-8.4,2.86,56.82,56.82,0,0,1-11.24.51Q730.89,118.39,741.43,63c-4.07-1.14-6.11-1.69-10.2-2.77q-1.65-.59-1.44-1.77c.15-.89.86-1.22,2.12-1l.19,0q17.63,4.61,35,10.12l-9.93,43.28c10.39,2.36,20.77,5,31,7.93C787.81,120.68,787.61,121.63,787.23,123.51ZM776,181a9.83,9.83,0,0,1-5.4,6.48,26.65,26.65,0,0,1-8.46,2.4,55.53,55.53,0,0,1-11.12-.12L781.87,67.13c-4-1.38-6.06-2.06-10.12-3.38-1.08-.46-1.54-1.08-1.35-1.86s.93-1.17,2.19-.87l.19,0q17.51,5.66,34.69,12.24Q791.75,127.15,776,181Z"/><path class="cls-2" d="M851.42,189.09c-4.29-.16-6.43-.22-10.69-.29-3.07-3-4.62-4.42-7.76-7.33l1.1-2.79a718.2,718.2,0,0,1,65.48,30.41c6,2.8,11.06,5.09,15.08,6.77a100,100,0,0,0,10.26,3.76,25,25,0,0,0,7.15,1.17,18.87,18.87,0,0,0,5.67-1,63.49,63.49,0,0,0,6-2.42c2.17-1,4.81-2,7.94-3.13l.25,1.95c-1.54,4.36-4.7,7-9.4,8.05a28.83,28.83,0,0,1-7.51.4,49.37,49.37,0,0,1-10.57-2.07,126.78,126.78,0,0,1-14.28-5.31c-5.4-2.32-11.61-5.37-18.67-9.07C878.27,201.46,865,195.11,851.42,189.09ZM887,117c-4.07-.08-6.11-.11-10.16-.13-2.83-2.89-4.26-4.33-7.15-7.19l1.13-2.78c22.57,9.41,44.51,19.74,66.15,31.14,6.37,1,9.57,1.51,16,2.65,4.28,4.91,6.39,7.39,10.53,12.37l-1.53,2.58A794.91,794.91,0,0,0,887,117Zm24.67,15.28A55.39,55.39,0,0,1,925,141.42a48.35,48.35,0,0,1,9.1,11.23,28.53,28.53,0,0,1,3.84,11.66,18,18,0,0,1-2.32,10.75,18.27,18.27,0,0,1-7.84,7.28,32.67,32.67,0,0,1-11.65,3.23,46.18,46.18,0,0,1-13.67-.84,60.3,60.3,0,0,1-26.62-13.07,45.48,45.48,0,0,1-8.93-10.27,32.19,32.19,0,0,1-4.48-11.16,18.49,18.49,0,0,1,1-10.64,18.1,18.1,0,0,1,7.05-8.43A28.17,28.17,0,0,1,882,127a47,47,0,0,1,14.34.29A54.89,54.89,0,0,1,911.63,132.31Zm24.08-10c1,2.42.48,4-1.42,4.84a13.5,13.5,0,0,1-7.24.56,31.6,31.6,0,0,1-9-2.84,14.34,14.34,0,0,1-6.47-5.41l-1.94-3.18c-.81-1.32-1.7-2.82-2.65-4.48s-1.88-3.42-2.77-5.25a40.11,40.11,0,0,1-2.22-5.63,51.59,51.59,0,0,1,13.76,3.41A49.09,49.09,0,0,1,927,111,28.2,28.2,0,0,1,935.71,122.32Zm-46.22,55.1a13.16,13.16,0,0,0,7.75,1.44,18.83,18.83,0,0,0,7.16-2.57,24.72,24.72,0,0,0,6.15-5.35,39.57,39.57,0,0,0,4.7-7,39.12,39.12,0,0,0,3.21-8.14,23.64,23.64,0,0,0,.76-8.23,16.38,16.38,0,0,0-2.42-7.39A16.88,16.88,0,0,0,902.25,133a15.59,15.59,0,0,0-7.22,2.65,26.88,26.88,0,0,0-6,5.64,36.53,36.53,0,0,0-7.15,15.53,27.58,27.58,0,0,0-.48,8.13,17.7,17.7,0,0,0,2.24,7.19A13.06,13.06,0,0,0,889.49,177.42Zm1.62,28.9c-8.87-4.62-13.34-6.83-22.35-11.06l11-23.5a65.18,65.18,0,0,1,10.5,8.06,31.09,31.09,0,0,1,5.85,8.07,9,9,0,0,1,0,8.71Zm51.44,49.92a9.32,9.32,0,0,1-7.77,4.16,32,32,0,0,1-9.9-1.12,82.71,82.71,0,0,1-12.29-4.58l64.74-105.11c-3.54-2.6-5.32-3.89-8.9-6.44-.92-.78-1.18-1.51-.78-2.2s1.26-.83,2.41-.15l.17.11q17.14,12.15,33.7,25Z"/></g></g></svg>