<svg xmlns="http://www.w3.org/2000/svg" viewBox="0 0 1062.99 1298.28"><defs><style>.cls-1{fill:#1b455a;}.cls-2{fill:#b83244;}.cls-3{fill:#fff;}.cls-4{fill:#583164;}.cls-5{fill:#b13e69;}.cls-6{fill:#fac498;}.cls-7{fill:#47292b;}.cls-8{fill:#ab353a;}.cls-9{fill:#fbcfaa;}.cls-10{fill:#231611;}.cls-11{opacity:0.5;}.cls-12{fill:#2d1e1b;}.cls-13{fill:#c83637;}.cls-14{fill:#3c0d00;}.cls-15{fill:#372623;}.cls-16{fill:#402114;}.cls-17{opacity:0.2;}.cls-18{opacity:0.1;}.cls-19{opacity:0.81;}.cls-20{fill:#502b1e;}.cls-21{fill:#5c3225;}.cls-22{opacity:0.77;}.cls-23{fill:#ec604f;}.cls-24{opacity:0.05;}.cls-25{fill:#e94d4a;}.cls-26{opacity:0.07;}.cls-27{opacity:0.8;}.cls-28{fill:#511e0a;}.cls-29{opacity:0.95;}.cls-30{fill:#feeddb;}.cls-31{fill:#782d21;}.cls-32{fill:#f4baa8;}</style></defs><title>자산 16</title><g id="레이어_2" data-name="레이어 2"><g id="Layer_1" data-name="Layer 1"><path class="cls-1" d="M56.41,189.23l-.13.1,1.59,2c-7.88,6.36-11.78,9.62-19.5,16.28a141.46,141.46,0,0,1,8.38,11.5,91.46,91.46,0,0,1,6.91,12.22c1.8-.08,4.64-.24,8.49-.45a97.72,97.72,0,0,1,12.28.14,60.46,60.46,0,0,1,12.12,2.06c3.76,1.06,6.53,2.75,8.16,5,1.86,2.55,2.64,4.94,2.38,7a8.77,8.77,0,0,1-2.28,5.06A11.09,11.09,0,0,1,90.29,253a7.2,7.2,0,0,1-4.24.44,41.46,41.46,0,0,1-4.93-2.1q-3.62-1.74-7.93-3.88t-8.74-4.18Q60,241.28,57,240c.44,1.87.67,2.8,1.12,4.66a47,47,0,0,1,.32,12.3,82.43,82.43,0,0,1-2.3,12.76,128.53,128.53,0,0,1-4,12.53c-1.55,4.1-3.06,7.9-4.57,11.38L44.67,293a58,58,0,0,0,1.65-16.15,62.73,62.73,0,0,0-2.41-14.76,71.92,71.92,0,0,0-5.2-13A112.9,112.9,0,0,0,32.18,238a95.68,95.68,0,0,0-6.51-8.67q-3.12-3.65-5-5.95c-3.31,3-4.95,4.57-8.22,7.67-1.05,2.85-1.56,4.28-2.58,7.15-3,1-4.42,1.45-7.37,2.45L.73,238.81q18.58-18,38-34.91c2.43-4.76,3.67-7.13,6.19-11.86C49.55,190.87,51.84,190.31,56.41,189.23Zm-27.77,5c2.35.09,3.57,1.09,3.69,3a11.66,11.66,0,0,1-1.73,6.24,25.3,25.3,0,0,1-5.16,6.42,11.8,11.8,0,0,1-6.62,3.39l-3.31.44c-1.39.18-2.94.36-4.66.54s-3.5.29-5.35.34a34.71,34.71,0,0,1-5.5-.26,44.06,44.06,0,0,1,7.26-10.19,41.25,41.25,0,0,1,9.1-6.85A24,24,0,0,1,28.64,194.19Zm52.71,7.12c-3.48,2.71-5.21,4.08-8.66,6.86a10.59,10.59,0,0,1-.76,5.65,12.46,12.46,0,0,1-3.65,4.87,12.09,12.09,0,0,1-8,2.94,9,9,0,0,1-7.07-3.15c8.38-7,16.81-13.94,25.39-20.73Zm47,33.34a9.31,9.31,0,0,1,1.83,7.7,24.18,24.18,0,0,1-2.94,7.62,49.84,49.84,0,0,1-6.35,8.15l-65.7-83.46c-3.15,2.06-4.73,3.11-7.87,5.21-.91.5-1.61.46-2.08-.12s-.36-1.35.53-2.07l.14-.11q13.51-9,27.24-17.53Zm27.82-9.36a9.4,9.4,0,0,1,1.55,7.73,23.77,23.77,0,0,1-3.14,7.41,48.92,48.92,0,0,1-6.52,7.76Q113.28,200,78.5,151.76c-3.23,1.92-4.84,2.89-8.06,4.86-.94.46-1.63.39-2.08-.21s-.3-1.36.62-2l.14-.11Q83,145.89,97,137.92Z"/><path class="cls-1" d="M186.78,147.19c2,3.72,3,5.57,5.06,9.29a8.83,8.83,0,0,1,.25,8.23,28.29,28.29,0,0,1-5,7.66,71.83,71.83,0,0,1-8.92,8.1l-12.54-21.26c-8,4.7-11.92,7.13-19.77,12.11-2.34,3.22-3.5,4.84-5.79,8.09-3.89.79-5.84,1.21-9.74,2.06-.63-.93-1-1.4-1.57-2.34a807.64,807.64,0,0,1,93.58-53.2c3.91-6,5.91-8.94,10-14.85,7.14.88,10.68,1.38,17.72,2.45l1.1,2.6C229.21,125.6,207.85,135.91,186.78,147.19ZM172.76,91a96.34,96.34,0,0,1,17.32-5.69,60.76,60.76,0,0,1,15.15-1.56,30.36,30.36,0,0,1,11.52,2.45,12.27,12.27,0,0,1,6.64,16.35,35.61,35.61,0,0,1-7.11,11.08A84.25,84.25,0,0,1,203.52,125a141.36,141.36,0,0,1-17.09,10.69A140.64,140.64,0,0,1,168.08,144a86.44,86.44,0,0,1-16.54,4.4,36.2,36.2,0,0,1-13.29-.12,12.51,12.51,0,0,1-8.31-5.44c-2-3.1-2.33-6.77-1.05-11a40.31,40.31,0,0,1,7.16-13.05,82.69,82.69,0,0,1,12.85-12.89,99.47,99.47,0,0,1,15.87-10.63C168,93.55,169.56,92.7,172.76,91Zm82.58,73.9a9.45,9.45,0,0,1,.71,6.1,17.38,17.38,0,0,1-2.43,5.68,31.3,31.3,0,0,1-4.09,5,55.09,55.09,0,0,1-4.55,4.13c-1.48,1.18-2.74,2.14-3.8,2.87s-1.63,1.12-1.72,1.16q-8-16.17-16-32.36c-13.12,6.65-26,13.56-38.83,20.81-3.35,4.42-5,6.64-8.26,11.11-5.41.75-8.12,1.17-13.56,2.05l-1.43-2.27A790.59,790.59,0,0,1,245.92,144Zm-70.78-32.74a54.74,54.74,0,0,0,10.79-7.26,25.38,25.38,0,0,0,5.94-7.43,15,15,0,0,0,1.7-7.38,17.81,17.81,0,0,0-1.83-7,19,19,0,0,0-4.54-6,15.72,15.72,0,0,0-7.2-3.44,25.4,25.4,0,0,0-10,.17,46.28,46.28,0,0,0-12.76,4.87,47,47,0,0,0-11.29,8,24.73,24.73,0,0,0-5.66,8.24,16,16,0,0,0-1.08,7.88A18.7,18.7,0,0,0,151,130a17.59,17.59,0,0,0,4.86,5.41,15.32,15.32,0,0,0,7,2.69,24.82,24.82,0,0,0,9.45-.83A55.56,55.56,0,0,0,184.56,132.19ZM220.72,128l5.17,10.82a8.89,8.89,0,0,1-.18,8.22,27.83,27.83,0,0,1-5.37,7.35,69.6,69.6,0,0,1-9.29,7.57c-4.8-9.26-7.21-13.9-12-23.16C207.65,134.27,212,132.11,220.72,128Z"/><path class="cls-1" d="M270.41,63.56l22.92,62.81c5.57-2,10.47-3.9,14.71-5.69a96.6,96.6,0,0,0,11.33-5.57,69.89,69.89,0,0,0,9.08-6.29,75.2,75.2,0,0,0,7.88-7.54,21.21,21.21,0,0,1,1.81-1.33,22.36,22.36,0,0,1,2.74-1.57,8.27,8.27,0,0,1,2.49-.84c.7-.1,1,.14,1,.68a8.06,8.06,0,0,1-1.74,3,75.5,75.5,0,0,1-5.59,6.2c-2.28,2.33-4.77,4.63-7.37,6.89a79,79,0,0,1-8.82,6.58A101.82,101.82,0,0,1,309.73,127c-4.12,2-8.8,3.92-14,5.83-6.83,2.49-10.24,3.78-17,6.45a6.18,6.18,0,0,1-3.43.53,5,5,0,0,1-2.35-1.11,8.12,8.12,0,0,1-1.74-2.34L245.53,73.12c-2.29.93-3.44,1.39-5.73,2.34-1,.42-1.68.19-2-.68s0-1.51,1-1.93Q257,65.3,275.58,58.71c4.41-3.91,6.65-5.84,11.17-9.67,5.92.34,8.86.54,14.73,1l.85,2.69C291.62,56.19,281,59.79,270.41,63.56Zm97.92,10.36c-10.74,2.48-16.1,3.82-26.76,6.71l12.18,44.78a9.46,9.46,0,0,1-1,7.8,23.18,23.18,0,0,1-5.24,5.94,46.36,46.36,0,0,1-8.49,5.15L308.27,42.78c-3.54.72-5.3,1.09-8.84,1.85q-1.49.16-1.83-.9c-.26-.81.13-1.38,1.18-1.71l.15-.05c10.11-2.22,20.3-4.22,30.49-6q5.49,20.15,11,40.28C351,73.4,356.32,72.06,367,69.59,367.54,71.32,367.81,72.19,368.33,73.92Zm16.52,52.52a9.52,9.52,0,0,1-1.27,7.73,22.7,22.7,0,0,1-5.41,5.68,44.73,44.73,0,0,1-8.56,4.73Q354.9,87,340.2,29.37c-3.58.56-5.37.85-8.95,1.45-1,.07-1.6-.25-1.79-1s.2-1.37,1.26-1.65l.16,0c10.23-1.78,20.53-3.33,30.82-4.65Q373.28,75,384.85,126.44Z"/><path class="cls-1" d="M404.43,105.13c-3.09,2.07-4.63,3.12-7.67,5.22-3.63-.76-5.45-1.14-9.1-1.85l-.6-2.76c20.13-4.13,40.27-7.51,60.64-10.17,5.53-1,10.08-2,13.65-2.88A69.73,69.73,0,0,0,470.16,90a19.35,19.35,0,0,0,5.39-3,16.46,16.46,0,0,0,3.3-3.87,57.67,57.67,0,0,0,2.8-5.15c1-1.95,2.18-4.21,3.71-6.76l1.13,1.34a12.19,12.19,0,0,1-2.21,11.31,24,24,0,0,1-4.82,4.45,37.78,37.78,0,0,1-8.13,4.2A90.52,90.52,0,0,1,459,96.2c-4.82,1.12-10.58,2.09-17.27,3Q423,101.64,404.43,105.13ZM393.75,30.36c-2.84,2-4.24,3-7,5.06-3.36-.84-5-1.25-8.44-2.06-.22-1.1-.34-1.65-.56-2.76,20-3.93,40-7.21,60.15-9.84,4.74-2.63,7.13-3.93,11.94-6.48,5.25,1.48,7.85,2.24,13,3.82l.25,2.81C439.81,23.17,416.79,26.31,393.75,30.36ZM418,29.6a42,42,0,0,1,13.48.08,38.31,38.31,0,0,1,11.62,3.87,25.37,25.37,0,0,1,8.32,6.94,18.89,18.89,0,0,1,2.1,19.35,28.43,28.43,0,0,1-6.26,8.72,35.71,35.71,0,0,1-9.69,6.62,44.62,44.62,0,0,1-24.75,3.74,36.61,36.61,0,0,1-11.24-3.46A28.83,28.83,0,0,1,393,69a18.82,18.82,0,0,1-3.73-19.11,25.51,25.51,0,0,1,5.9-9.08,38.55,38.55,0,0,1,10-7.13A42.14,42.14,0,0,1,418,29.6ZM429.33,9.19c1.84,1.37,2.3,2.88,1.42,4.51A11,11,0,0,1,426.16,18a23.12,23.12,0,0,1-7.41,2.48,10.79,10.79,0,0,1-7-.85l-2.87-1.48c-1.19-.61-2.52-1.33-4-2.13s-2.94-1.71-4.44-2.69A34.5,34.5,0,0,1,396.2,10a39.62,39.62,0,0,1,11-4.41,36.93,36.93,0,0,1,10.76-.65A22.47,22.47,0,0,1,429.33,9.19ZM425.1,76.31a10.19,10.19,0,0,0,6-2.94,16.8,16.8,0,0,0,3.62-5.77,24.76,24.76,0,0,0,1.54-7.4,41.93,41.93,0,0,0-2.12-15.94,24.11,24.11,0,0,0-3.53-6.78A14.68,14.68,0,0,0,425.36,33,12.78,12.78,0,0,0,412,35a14.1,14.1,0,0,0-3.63,5.81A27.33,27.33,0,0,0,407,48.36a38.59,38.59,0,0,0,2.7,15.85,28.49,28.49,0,0,0,3.67,6.61,15.92,15.92,0,0,0,5.09,4.45A10.19,10.19,0,0,0,425.1,76.31Zm15.44,21.6C432.15,99,428,99.65,419.6,101c-1.59-9.63-2.39-14.44-4-24.07a51.51,51.51,0,0,1,11.21.81,26,26,0,0,1,8,3.2,8.83,8.83,0,0,1,4.35,6.74C439.73,91.79,440,93.83,440.54,97.91Zm59.86,10.2a9.13,9.13,0,0,1-3.08,7.49,25.55,25.55,0,0,1-7.21,4.65,60,60,0,0,1-10.62,3.3Q474.87,65.7,470.26,7.84c-3.6,0-5.4-.07-9-.08-1-.1-1.53-.52-1.6-1.27s.43-1.31,1.52-1.41l.16,0c11.44,0,22.83.16,34.27.48Z"/><path class="cls-1" d="M632.08,27.81c-9.44-1.25-14.17-1.8-23.64-2.76-.68,1.35-1.49,3.11-2.45,5.29s-1.93,4.27-2.91,6.3-1.84,3.82-2.56,5.36a15.65,15.65,0,0,1-1.24,2.43,34.43,34.43,0,0,0,6.54,4.17,79.28,79.28,0,0,1,8.52,5.17,32.49,32.49,0,0,1,7,6.36,8.94,8.94,0,0,1,2.14,7.37c-.55,3-1.7,5.12-3.29,6.2A7.74,7.74,0,0,1,615,75.07a12.83,12.83,0,0,1-5.23-1.66,9.18,9.18,0,0,1-3.38-2.92,27.72,27.72,0,0,0-2.55-3.23q-1.76-2-3.8-4.55c-1.37-1.69-2.75-3.52-4.16-5.48a41.22,41.22,0,0,1-3.57-5.9c-2.57,2.68-3.85,4-6.37,6.72a32.76,32.76,0,0,1-8,5.38,56.55,56.55,0,0,1-9.17,3.36,100.67,100.67,0,0,1-10.61,2.28c-3.76.62-7.8,1.3-12.09,2.06-.69-1-1-1.54-1.74-2.57A114,114,0,0,0,559,60.21,66.06,66.06,0,0,0,569,52a37.54,37.54,0,0,0,6.16-8.14,37.14,37.14,0,0,0,3.21-7.72A46,46,0,0,0,579.71,29q.38-3.43.72-6.24c-5.8-.37-8.7-.53-14.5-.79-3.19,1.16-4.77,1.75-7.93,2.93-3.07-1.4-4.61-2.09-7.71-3.47l.07-2.53c10.79.34,21.53.82,32.31,1.46l2.56.1q2.71.12,6.56.42c2.55.2,5.19.44,7.9.73l6.61.69c5.8-1.36,8.72-2,14.58-3.26,4.65,2.47,7,3.72,11.54,6.26C632.29,26.3,632.22,26.8,632.08,27.81Zm20,97.22a2.43,2.43,0,0,1,1.55.91,2,2,0,0,1,.4,1.67,2.25,2.25,0,0,1-1,1.49,2.36,2.36,0,0,1-1.77.37c-22.81-3.94-45.58-6.88-68.64-8.87a20.74,20.74,0,0,1-5.72,3.05,42.38,42.38,0,0,1-6,1.66,57.15,57.15,0,0,1-6.81.91q1.11-22.47,2.21-44.94c-3.21-.5-4.82-.73-8.05-1.19a1.23,1.23,0,0,1-.94-.46,1.28,1.28,0,0,1-.34-.86c0-.94.54-1.39,1.53-1.36h.15c10.23,1.3,20.47,2.86,30.62,4.66q19.54,1.59,39,4.28c5.09-1.46,7.65-2.17,12.8-3.53,4.6,2.94,6.88,4.43,11.39,7.45q-2.84,16.18-5.66,32.37C649,123.59,650,124.07,652.11,125ZM605.53,8.47c1.47,1.75,1.58,3.32.36,4.71a10.92,10.92,0,0,1-5.4,3.11,22.51,22.51,0,0,1-7.75.76,10.71,10.71,0,0,1-6.62-2.4l-2.44-2.08q-1.53-1.31-3.38-3c-1.23-1.12-2.47-2.32-3.7-3.62a33.47,33.47,0,0,1-3.37-4.14A39.22,39.22,0,0,1,584.85,0a36.63,36.63,0,0,1,10.59,1.78A22.32,22.32,0,0,1,605.53,8.47ZM589,86.58c-.89,10.84-1.34,16.26-2.23,27.11a8.65,8.65,0,0,1-.64,2.65q19.5,1.57,38.87,4.3,2.1-14.81,4.18-29.6Q609.12,88.22,589,86.58Zm85.9-38.36a11,11,0,0,1,7,4.36,9,9,0,0,1,1.71,7.48c-9.73-2-14.61-3-24.39-4.69-1.1,6.28-1.65,9.42-2.76,15.7a8.86,8.86,0,0,1-4.9,6.6A28,28,0,0,1,643,80.55a69.53,69.53,0,0,1-11.87.79l9.72-68.42c-3.51-.84-5.27-1.25-8.79-2a1.47,1.47,0,0,1-1-.56,1.23,1.23,0,0,1-.29-.89c.12-.93.72-1.33,1.8-1.19l.16,0c11.19,2.49,22.29,5.13,33.4,7.94q-3,17.3-6.07,34.59l4.3.76a10.12,10.12,0,0,1,4.62-3A11.61,11.61,0,0,1,674.85,48.22Z"/><path class="cls-1" d="M733.17,41.38a38.18,38.18,0,0,1,14.32,7.34,40.24,40.24,0,0,1,10,12,39.51,39.51,0,0,1,4.55,14.93,37.65,37.65,0,0,1-1.81,16,39.49,39.49,0,0,1-7.94,13.88,45.58,45.58,0,0,1-11.87,9.68,40.94,40.94,0,0,1-14,4.83,34.78,34.78,0,0,1-14.51-.8,34,34,0,0,1-12.83-6.63,40.51,40.51,0,0,1-9.49-11.2,45.37,45.37,0,0,1-5.29-14.35,39.83,39.83,0,0,1,.23-16A37.84,37.84,0,0,1,691.1,56.4a39.43,39.43,0,0,1,11.46-10.57A40.24,40.24,0,0,1,717.2,40.5,37.56,37.56,0,0,1,733.17,41.38ZM713,115.28a9.68,9.68,0,0,0,7.82-1.13,25.7,25.7,0,0,0,7.13-6.61,53,53,0,0,0,6.08-10.35,96.61,96.61,0,0,0,4.61-12.31,90.5,90.5,0,0,0,2.8-12.71,47.79,47.79,0,0,0,.33-12,24.92,24.92,0,0,0-2.91-9.56,11.24,11.24,0,0,0-15.33-4.16,23.88,23.88,0,0,0-7.27,6.79,53.22,53.22,0,0,0-5.82,10.54,83.65,83.65,0,0,0-4.1,12.36,87.33,87.33,0,0,0-2.21,13,59.34,59.34,0,0,0,0,12,24.77,24.77,0,0,0,2.7,9.28A9.7,9.7,0,0,0,713,115.28ZM787,86.92c-2.83-1-4.25-1.55-7.09-2.56a10.37,10.37,0,0,1-5,2.26A11.88,11.88,0,0,1,769,86.1a11.28,11.28,0,0,1-6.4-5.2,9.11,9.11,0,0,1-.89-7.63q13.53,4.35,26.88,9.28C787.93,84.3,787.61,85.18,787,86.92Zm-9.74,26.48c-2.73-1-4.09-1.49-6.83-2.47a10,10,0,0,1-4.89,2.32,11,11,0,0,1-5.64-.46,10.56,10.56,0,0,1-6.12-5.1,9.23,9.23,0,0,1-.77-7.59c10.39,3.37,15.57,5.15,25.85,8.93Zm4.44,41.88a9.1,9.1,0,0,1-5.95,5.54,26,26,0,0,1-8.59,1.21A62.3,62.3,0,0,1,756,160.61Q775.71,106,795.46,51.43c-3.3-1.55-5-2.31-8.26-3.82-.88-.51-1.19-1.11-.94-1.82s.93-1,2-.66l.15,0c10.56,4.77,21,9.67,31.4,14.74Q800.74,107.6,781.67,155.28Z"/><path class="cls-1" d="M842.45,89.14c-3.5,0-5.25.06-8.73.14-2.31-2.61-3.47-3.91-5.82-6.5l1.1-2.59c18.89,8.18,37.41,16.94,55.72,26.36,5.47.58,8.22.89,13.71,1.58,3.56,4.26,5.31,6.39,8.77,10.7-.56,1-.84,1.47-1.39,2.45C885.07,109.71,864,99,842.45,89.14Zm24.23,15.5a42.25,42.25,0,0,1,12.79,9.67,42.94,42.94,0,0,1,8.07,12.79,34.56,34.56,0,0,1,2.49,14,28.48,28.48,0,0,1-3.77,13.42,29.72,29.72,0,0,1-9.43,10.15,38.33,38.33,0,0,1-12.7,5.47,43.29,43.29,0,0,1-14.2.81,40.63,40.63,0,0,1-14.07-4.07,39.94,39.94,0,0,1-11.67-8.69,42.76,42.76,0,0,1-7.8-11.74A37.82,37.82,0,0,1,813.13,133a29.81,29.81,0,0,1,2.4-13.64,28.81,28.81,0,0,1,8.37-11.14,34.38,34.38,0,0,1,12.53-6.49,42.8,42.8,0,0,1,14.91-1.38A41.1,41.1,0,0,1,866.68,104.64Zm19.77-13.25c.75,2.19.28,3.69-1.39,4.52a11.31,11.31,0,0,1-6.28.83,23.65,23.65,0,0,1-7.62-2.24,11,11,0,0,1-5.37-4.75l-1.55-2.86q-1-1.8-2.1-4T860,78.08A34.36,34.36,0,0,1,858.32,73,40.17,40.17,0,0,1,870,75.65a38.19,38.19,0,0,1,9.36,5.67A23,23,0,0,1,886.45,91.39Zm-49.09,72.4a10.59,10.59,0,0,0,7.83.78,23.05,23.05,0,0,0,7.83-4.14,39.77,39.77,0,0,0,7.25-7.52,69.54,69.54,0,0,0,6-9.38,66,66,0,0,0,4.41-10.43,36.75,36.75,0,0,0,1.86-10.25A21.57,21.57,0,0,0,871,113.9a12.47,12.47,0,0,0-14.25-7.07,21,21,0,0,0-8,4.25,40.65,40.65,0,0,0-7,7.69,61.36,61.36,0,0,0-5.69,9.79A64.09,64.09,0,0,0,832.26,139a44.56,44.56,0,0,0-1.61,10.31A21.83,21.83,0,0,0,832,158,10.5,10.5,0,0,0,837.36,163.79Zm97.67,2a11.44,11.44,0,0,1,5,6.8,9,9,0,0,1-1.21,7.62c-8.39-5.71-12.63-8.48-21.17-13.86L890,210.42a9,9,0,0,1-6.91,4.32,26.64,26.64,0,0,1-8.79-.42,65.39,65.39,0,0,1-10.89-3.53q29.21-50.16,58.42-100.33c-3-2.15-4.54-3.22-7.58-5.34-.79-.66-1-1.31-.63-2s1.12-.83,2.09-.28l.15.09q14.63,9.93,28.79,20.51L920.14,162.4l3.75,2.39a10,10,0,0,1,5.48-1A11.92,11.92,0,0,1,935,165.79Z"/><path class="cls-1" d="M965.87,255c8.79,7.41,17.4,14.92,25.94,22.61,6.94,1.31,10.42,2,17.41,3.55,1.84,6.92,2.71,10.38,4.36,17.29l-2,2a767,767,0,0,0-88.42-74.62c-3.71-.84-5.57-1.24-9.27-2-2-3.19-3.08-4.78-5.17-7.95l1.57-2.34q18.94,12.93,37.18,26.75l30.37-39.46a64.87,64.87,0,0,1,8.34,9.78,30.81,30.81,0,0,1,2.54,4.31,19.84,19.84,0,0,1,1.57,4.46,11.16,11.16,0,0,1,.11,4.3,8.08,8.08,0,0,1-1.8,3.81ZM1063,230.93q-10,10.33-18.63,18.18a63.06,63.06,0,0,1-17.83,11.72,42.74,42.74,0,0,1-19.71,3.17c-7-.45-15.13-2.87-24.42-7l.25-3.13a67.56,67.56,0,0,0,14.63-5,98.15,98.15,0,0,0,12.82-7.3A105.83,105.83,0,0,0,1021,233.2q4.88-4.33,8.61-8.38t6.34-7.19c1.73-2.11,3-3.65,3.92-4.64-19.23-17-39-33-59.59-48.29-3.52-.76-5.27-1.12-8.78-1.82-1.8-3.09-2.71-4.63-4.56-7.71l1.54-2.2a876.11,876.11,0,0,1,73.43,58.26c5.75,2.2,8.63,3.34,14.38,5.7C1059,222.51,1060.35,225.31,1063,230.93Z"/><path class="cls-2" d="M183.63,1019.39c4.26,3.25,6.92,6.39,8,9.54a18.1,18.1,0,0,1,1,8.55,18.6,18.6,0,0,1-4.08,8.44,130,130,0,0,1-9.84,10.27,46.1,46.1,0,0,1-9.52,7.33c1,1.75,2.2,4.36,3.76,7.82s3.19,7.33,4.93,11.62,3.41,8.75,5,13.39,3,9.09,4.23,13.38a61.82,61.82,0,0,1,2.18,11.56c.25,3.42-.24,6-1.51,7.75a11.31,11.31,0,0,1-9.26,4.7,30.8,30.8,0,0,1-11.95-2.14,42.62,42.62,0,0,1-10.85-6c-3.21-2.47-5.17-4.59-5.91-6.31a26.82,26.82,0,0,1-1.86-12.79,90.16,90.16,0,0,1,2.26-13.68q1.67-6.75,3.39-12.94a30.91,30.91,0,0,0,1.33-10.76c-2.6.53-3.91.79-6.52,1.29a64.8,64.8,0,0,1-19-1.36,130.41,130.41,0,0,1-21.21-6.45,182.11,182.11,0,0,1-22-10.57q-11.14-6.29-21.77-13.16c-.19-1.88-.27-2.81-.45-4.68a85.84,85.84,0,0,0,28.79,10,67.31,67.31,0,0,0,23.59-.56,61,61,0,0,0,18.38-7.19,85.54,85.54,0,0,0,13.84-10.29,106.54,106.54,0,0,0,9.9-10.35q4-4.89,6.42-7.39c-4.09-3.37-6.11-5.08-10.13-8.57-1.29-1.11-1.61-2.05-.95-2.81s1.63-.57,2.91.54C165.58,1005,174.49,1012.27,183.63,1019.39ZM72.52,1142.92c-3.78-3-6.19-5.79-7.24-8.31A14.51,14.51,0,0,1,64,1128a13,13,0,0,1,2.37-6.42L91.78,1091c-4.7-3.92-7-5.91-11.66-10-1.54-1.35-1.83-2.57-.88-3.64s2.18-.94,3.71.4q14,12.21,28.56,23.61a30.14,30.14,0,0,1,7.64,7.9,34.13,34.13,0,0,1,4.35,9.12,27.39,27.39,0,0,1,1.21,8.72,12.08,12.08,0,0,1-2,6.76q-8.47,11.91-17,23.81a3.53,3.53,0,0,0-.72,2.13c0,1.55,1,3.08,3.11,4.57a822.74,822.74,0,0,0,70.11,43.3c11,2.12,16.49,3.06,27.42,4.69,8,7.65,12,11.41,20.37,18.79-.66,1.5-1,2.24-1.66,3.74A760.57,760.57,0,0,1,72.52,1142.92Zm166.57-35.8c-7.51-4-11.24-6-18.64-10.25a16.34,16.34,0,0,1-8.9,1.71,21.14,21.14,0,0,1-9.6-3.18,20.28,20.28,0,0,1-9-10.86c-1.51-4.47-1.09-8.44,1.19-11.92,15.74,10.1,31.71,19.53,48.16,28.41Zm11.45,66.26c-1.88,4.19-5.56,6.63-11.11,7.23a54,54,0,0,1-17-.95,128.9,128.9,0,0,1-22.47-7.16l60.79-113.77c-4.45-3-6.66-4.47-11-7.55a2,2,0,0,1-1-1.34,1.92,1.92,0,0,1,.11-1.42q1.06-1.86,3.16-.67l.21.12c13.85,9.43,28.09,18.34,42.77,26.42Z"/><path class="cls-2" d="M301.46,1171.7c-6.91-.12-10.38-.23-17.35-.56-5.33-4.49-8-6.77-13.14-11.38l1.67-4a662.17,662.17,0,0,0,181.84,46c9.21-3.78,18.37-7.86,27.34-12.17,8.46,5.25,17.12,10.28,25.86,15l-.05,4.3A662.58,662.58,0,0,1,301.46,1171.7Zm184.8,8.46a5.23,5.23,0,0,1,3.1,1.11,3,3,0,0,1,1.21,2.52,3.26,3.26,0,0,1-1.43,2.53,4.8,4.8,0,0,1-3.21.93,656.12,656.12,0,0,1-149.67-26.11,40.57,40.57,0,0,1-11.18,2,69,69,0,0,1-11.11-.45,100.72,100.72,0,0,1-11.91-2.19l24.22-65.76c-4.8-2.32-7.19-3.5-11.93-5.94a2,2,0,0,1-1.22-1.17,1.92,1.92,0,0,1-.08-1.42q.79-2,3-1.11l.22.08c14.26,7.13,28.81,13.75,43.65,19.58a629.51,629.51,0,0,0,82.41,17.57c7.23-2.33,10.8-3.56,17.86-6.13,7.5,4.14,11.31,6.14,19.08,10q-1.68,25.62-3.34,51.25C480.07,1178.56,482.13,1179.11,486.26,1180.16Zm-8.85,114c-.08,1.63-.12,2.45-.21,4.08a768.61,768.61,0,0,1-181-33c-4.81-1.54-8.26-3.41-10.31-5.54a13.68,13.68,0,0,1-3.71-6.15,14.17,14.17,0,0,1,.13-7l7.25-20.69c-3.41-1.2-5.12-1.81-8.51-3q-2.83-1-2.09-3.06c.5-1.34,1.68-1.67,3.56-1a732.35,732.35,0,0,0,147.82,35.67c1.29-10.23,1.93-15.35,3.22-25.59a740.47,740.47,0,0,1-96.25-19.48c-10.19.61-15.32.81-25.66,1-8.28-6.2-12.33-9.37-20.28-15.83.57-1.54.85-2.3,1.41-3.84a705,705,0,0,0,137.92,33.67c9.87-2.09,14.75-3.24,24.41-5.7,9,4.2,13.62,6.23,22.92,10.11l-1.92,33.9c-15.48-1-30.86-2.4-46.28-4.19a776.24,776.24,0,0,1-92.87-18.22c-2.85,10.55-4.28,15.82-7.13,26.36a3.51,3.51,0,0,0,.05,2.23c.46,1.46,1.91,2.52,4.34,3.15,24.33,6.14,48.7,11.14,73.47,15.1q18-3,35.81-7Q460.24,1287.64,477.41,1294.2ZM358.55,1109.48l-13.34,44.93a10.49,10.49,0,0,1-1.92,3.69A684.13,684.13,0,0,0,437.53,1178q3.29-25.26,6.55-50.52A635.17,635.17,0,0,1,358.55,1109.48Zm52.91,92.3c-.76,4.52-3.6,7.84-8.6,9.86a50.5,50.5,0,0,1-16,3.54,118.36,118.36,0,0,1-22.48-1l5.93-24.88c13.89,3.16,27.79,6,41.82,8.42Z"/><path class="cls-2" d="M625.9,1124q6.75,32.74,13.48,65.48c.93,4.49-.5,8.6-4.39,12.27a49.78,49.78,0,0,1-13.46,9,116.69,116.69,0,0,1-21,7.1c-.55-4.09-.83-6.13-1.38-10.22-15.58,2.14-31.25,3.58-46.94,4.55a39.78,39.78,0,0,1-10.65,5.81,85.88,85.88,0,0,1-11.73,3.51,116.75,116.75,0,0,1-13.68,2.11l-.21-87.26c-5.32-.5-8-.78-13.27-1.41a2.08,2.08,0,0,1-1.56-.68,1.93,1.93,0,0,1-.57-1.31c0-1.43.86-2.12,2.45-2.09h.24c16.72,1.73,33.54,2.85,50.35,3,.58,8.15.86,12.22,1.44,20.37q18.26-1.29,36.4-3.73l-2.6-19.17c-5.35.2-8,.27-13.37.34a2.07,2.07,0,0,1-1.63-.47,1.94,1.94,0,0,1-.74-1.22c-.15-1.42.57-2.22,2.16-2.39l.24,0C592.32,1127.13,609.17,1126,625.9,1124Zm-19.38,161.14a3.55,3.55,0,0,0,.89,2c1,1.17,2.73,1.59,5.2,1.25,25.54-3.76,50.66-8.63,75.75-14.69,9.39-5.81,14-8.79,23.07-14.92,11,.31,16.46.36,27.55.22l1.29,3.87a772.41,772.41,0,0,1-167.61,34c-5.42.44-9.54,0-12.33-1.26a13.62,13.62,0,0,1-5.89-4.6,13.92,13.92,0,0,1-2.24-7L550,1243.72c-5.78.31-8.67.43-14.46.61-1.93.06-2.91-.63-3-2.06s.9-2.17,2.82-2.23A719.42,719.42,0,0,0,675,1220.59c8.6-5.61,12.83-8.49,21.12-14.39,10.16.53,15.29.7,25.6.81.55,1.64.82,2.45,1.36,4.09a735.38,735.38,0,0,1-122.57,28Zm-8.3-84.33-5.88-43.44q-18.35,2.46-36.83,3.77,1.4,19.81,2.8,39.64a10.53,10.53,0,0,1-.52,4.15Q578.07,1203.53,598.22,1200.8Zm116.15-74.32a19.89,19.89,0,0,1,13.48-.41c4.36,1.44,7.36,4.06,8.91,7.91-13.07,5.13-26.21,9.88-39.53,14.32q5.12,15.85,10.25,31.7c1.41,4.37.4,8.62-3.14,12.72a51.12,51.12,0,0,1-12.66,10.5,120.05,120.05,0,0,1-20.46,9.45L644.79,1106.5c-5.19.75-7.78,1.1-13,1.72-1.45,0-2.29-.52-2.54-1.64s.35-2,1.88-2.39l.23,0c16.35-2.22,32.64-5.07,48.71-8.81L695,1141.55c2.77-.89,4.14-1.34,6.9-2.27a16.62,16.62,0,0,1,4.34-7.62A21.1,21.1,0,0,1,714.37,1126.48Z"/><path class="cls-2" d="M832.15,1033.8l-.2.14,2.47,3.52c-12.75,8.79-25.67,17.13-38.94,25.12q2.5,4.77,5.21,10.65t5.15,11.93c1.63,4,3.06,8.09,4.28,12.17s2.18,7.84,2.86,11.25c2.21.22,5.43.36,9.68.36s9,.15,14.13.42,10.62.57,16.34.89,11.17.85,16.33,1.61a65.45,65.45,0,0,1,13.59,3.33c3.9,1.48,6.71,3.55,8.33,6.24,2.81,4.65,3.43,9,1.85,13a24.13,24.13,0,0,1-7.71,10.13,36.32,36.32,0,0,1-11.64,6.15c-4.21,1.31-7.35,1.61-9.36,1a58.73,58.73,0,0,1-8.88-3.9q-6.28-3.22-13.83-7.39t-15.07-8.53q-7.54-4.37-12.6-7.23c-.28,3.4-.43,5.1-.75,8.51a67.31,67.31,0,0,1-7.83,21.73,138.59,138.59,0,0,1-15.22,22,192.57,192.57,0,0,1-19.76,20.33c-7.15,6.34-14.26,12.18-21.24,17.37-1.94-1.11-2.91-1.67-4.84-2.8,7.66-8.2,15-16.58,20-26.58a94.61,94.61,0,0,0,8.7-26.59,89.48,89.48,0,0,0,.49-24.71,141.21,141.21,0,0,0-4.37-21.61,148,148,0,0,0-6.15-17.44l-5.22-12.17c-7.23,3.53-10.87,5.22-18.2,8.47-3.52,4-5.31,6-9,9.94-5.37-.18-8-.31-13.36-.63l-1.57-4a634.23,634.23,0,0,0,81.54-40c5.88-7.43,8.72-11.19,14.22-18.81C819.78,1036.3,823.89,1035.53,832.15,1033.8Zm92.45-12.35a23.38,23.38,0,0,1,13.16-6.51c4.83-.63,8.73.47,11.67,3.41-11,10.77-22.2,21.19-33.75,31.35l51.72,60.12c3,3.48,3.43,8,1.18,13.68a64.36,64.36,0,0,1-9.45,16.12,153.76,153.76,0,0,1-17.91,18.72L835.79,1016.28c-4.67,2.84-7,4.22-11.72,6.91-1.37.61-2.38.45-3-.5s-.44-2,.89-3l.2-.14c14.81-8.92,29.15-18.33,43.24-28.36l45.69,53.12c2.4-2.07,3.59-3.11,6-5.21a17.91,17.91,0,0,1,1.49-9.13A25.06,25.06,0,0,1,924.6,1021.45Z"/><circle class="cls-3" cx="522.18" cy="618.11" r="471.5"/><path class="cls-4" d="M170.68,706.61s-34-80-91-24C79.68,682.61,133.68,750.61,170.68,706.61Z"/><path class="cls-4" d="M160.74,667s50.81-76.66-31.86-94.33C128.88,572.65,100.33,660,160.74,667Z"/><path class="cls-4" d="M216.68,790.61s-34-80-91-24C125.68,766.61,179.68,834.61,216.68,790.61Z"/><path class="cls-4" d="M308.79,883.92s-51.24-70.22-94.07-2.76C214.72,881.16,282.72,935.16,308.79,883.92Z"/><path class="cls-4" d="M182.59,724.1s-31-81.21,48.92-80.4C231.51,643.7,239.77,730.14,182.59,724.1Z"/><path class="cls-4" d="M251.34,832.18s-61.41-73.47,22.1-101.29C273.44,730.89,313.05,818,251.34,832.18Z"/><path class="cls-4" d="M328.5,892.29s-73.67-46.15-9.4-93.64C319.1,798.65,377.77,862.66,328.5,892.29Z"/><path class="cls-4" d="M407.86,914.51S337.84,883.39,388,834C388,834,447.17,882.53,407.86,914.51Z"/><path class="cls-4" d="M246.19,378.84s51.17-56.54-14.41-81.3C231.78,297.54,197.53,365.58,246.19,378.84Z"/><path class="cls-4" d="M319.47,319.21s42.35-25.73,6.09-53.3C325.56,265.91,291.62,301.94,319.47,319.21Z"/><path class="cls-4" d="M372.56,289.15s34.35-10.75,13.6-36.53C386.16,252.62,355.93,272.11,372.56,289.15Z"/><path class="cls-4" d="M424.56,276.15s34.35-10.75,13.6-36.53C438.16,239.62,407.93,259.11,424.56,276.15Z"/><path class="cls-4" d="M453.15,301.69s-35.52,5.83-28.56-26.52C424.59,275.17,460.35,279,453.15,301.69Z"/><path class="cls-4" d="M406.06,309s-32.55,15.37-34.75-17.65C371.31,291.38,406.74,285.23,406.06,309Z"/><path class="cls-4" d="M201.21,445.47s44-62.27-24.08-79C177.13,366.5,151.31,438.17,201.21,445.47Z"/><path class="cls-4" d="M175.23,544.14s25.38-71.91-44.67-69.44C130.56,474.7,125.22,550.69,175.23,544.14Z"/><path class="cls-4" d="M235.6,395s47.42-59.71,82.56,1C318.16,396,256.62,440.88,235.6,395Z"/><path class="cls-4" d="M287.74,340.29s37.53-47.26,65.33.74C353.07,341,304.37,376.57,287.74,340.29Z"/><path class="cls-4" d="M187.91,481.31s35.88-76,88.79-19.71C276.7,461.6,222,525.21,187.91,481.31Z"/><path class="cls-4" d="M175.46,559.88s9.62-75.65,71.1-42C246.56,517.91,217.19,588.2,175.46,559.88Z"/><path class="cls-4" d="M183,619.25s-1-67.21,56.83-45.46C239.82,573.79,222.93,638.78,183,619.25Z"/><path class="cls-4" d="M440.68,273.61c-5.42.71-10.77,1.76-16.08,2.94s-10.59,2.52-15.81,4A299.88,299.88,0,0,0,378,291.12q-15.09,6-29.49,13.5c-9.54,5.08-18.9,10.45-27.92,16.35a328.67,328.67,0,0,0-50.09,40.58c-1,.91-1.91,1.89-2.83,2.87l-2.78,2.91-5.58,5.82L254,379.22l-2.66,3c-.89,1-1.78,2-2.6,3.08l-5,6.29c-1.67,2.11-3.42,4.15-4.95,6.36L234,404.5c-1.58,2.17-3.2,4.32-4.64,6.59l-4.46,6.73c-1.48,2.24-3,4.45-4.36,6.79l-4.15,6.92L214.33,435l-1,1.74-1,1.77c-2.55,4.75-5.15,9.46-7.67,14.23L197.6,467.3A121.76,121.76,0,0,0,191.84,482c-1.68,5.06-3.16,10.21-4.46,15.4s-2.46,10.44-3.43,15.73c-.54,2.63-.95,5.28-1.41,7.93s-.8,5.32-1.15,8a293.94,293.94,0,0,0-2.29,32.23,289.59,289.59,0,0,0,1.23,32.38,300.28,300.28,0,0,0,4.59,32.2c.47,2.68,1.12,5.32,1.67,8,.3,1.33.56,2.67.89,4l1,4c1.21,5.32,2.79,10.54,4.21,15.82a277.71,277.71,0,0,1-19.05-129.42,245.25,245.25,0,0,1,5.23-32.82q1.84-8.13,4.29-16.14A134.66,134.66,0,0,1,189,463.35a361.53,361.53,0,0,1,32.13-57.9,318.8,318.8,0,0,1,42.81-50.67l6.11-5.63,3-2.81,3.17-2.68,6.35-5.36c2.11-1.78,4.36-3.41,6.53-5.12l3.28-2.54c1.09-.85,2.19-1.69,3.33-2.47l6.78-4.79c2.24-1.62,4.6-3.06,6.92-4.56s4.63-3,7-4.42c4.78-2.79,9.5-5.66,14.41-8.19,4.82-2.69,9.81-5,14.78-7.44a325.11,325.11,0,0,1,30.69-12.23,279.11,279.11,0,0,1,31.79-8.64q8.07-1.66,16.2-2.83A160.37,160.37,0,0,1,440.68,273.61Z"/><path class="cls-4" d="M159.18,662.11q1.88,6.48,4.07,12.85t4.51,12.67c3.15,8.4,6.48,16.71,10.11,24.88s7.38,16.28,11.44,24.22,8.25,15.81,12.77,23.48c18,30.67,39.73,59.17,65.79,83.07,6.46,6,13.27,11.66,20.29,17,3.47,2.72,7.09,5.25,10.69,7.8l5.49,3.68c1.83,1.24,3.73,2.36,5.59,3.55a270.14,270.14,0,0,0,47.47,23.42l3.1,1.19,3.14,1.08,6.3,2.14c4.25,1.25,8.47,2.63,12.77,3.73,8.55,2.45,17.28,4.22,26,5.86a381.82,381.82,0,0,0,53.43,5.37,288,288,0,0,1-54.13-.51,259.91,259.91,0,0,1-53.24-11.5c-2.16-.74-4.35-1.41-6.49-2.2l-6.41-2.39c-2.15-.78-4.22-1.74-6.34-2.61l-3.16-1.33c-1.05-.45-2.07-1-3.11-1.42A242.93,242.93,0,0,1,305,883.43a265.61,265.61,0,0,1-43.9-32.79q-10.05-9.32-19.26-19.47t-17.38-21.12A341.47,341.47,0,0,1,195.29,764c-4.23-8-8.26-16.16-11.88-24.46s-7-16.71-10.07-25.21c-1.51-4.27-3-8.55-4.33-12.86s-2.7-8.62-3.87-13A251.73,251.73,0,0,1,159.18,662.11Z"/><path class="cls-4" d="M342.43,960.18s-42.62-9.88-36.74,29.91C305.69,990.09,349.36,988.28,342.43,960.18Z"/><path class="cls-4" d="M323.36,952.48s-16.12-43.39-47.82-15C275.54,937.48,302.6,975,323.36,952.48Z"/><path class="cls-4" d="M390.24,966.37s-42.63-9.88-36.74,29.91C353.5,996.28,397.17,994.47,390.24,966.37Z"/><path class="cls-4" d="M455.51,956.56s-43.76,0-29,37.45C426.5,994,468.62,982.35,455.51,956.56Z"/><path class="cls-4" d="M353.08,960.52s-42.23-11.46-18.21-43.73C334.87,916.79,372.48,939.05,353.08,960.52Z"/><path class="cls-4" d="M417.43,964.59s-48.1,3.21-34.66-39C382.77,925.58,429.93,935.27,417.43,964.59Z"/><path class="cls-4" d="M464.75,951s-40.61,16.29-40.88-23.93C423.87,927.09,467.3,922.2,464.75,951Z"/><path class="cls-4" d="M497.32,925.32s-33.42,19.26-38.66-15.8C458.66,909.52,496,899.85,497.32,925.32Z"/><path class="cls-4" d="M320.92,951.67a236.42,236.42,0,0,0,26.16,6.87,244.85,244.85,0,0,0,26.56,4c17.76,1.57,35.68,1.22,53-2.36l3.26-.63,3.2-.81c2.13-.56,4.3-1,6.39-1.72s4.22-1.29,6.31-2l6.18-2.35,1.55-.58,1.51-.68,3-1.37,3-1.36c1-.48,1.95-1,2.93-1.53,1.94-1.06,3.93-2,5.84-3.15l5.66-3.47,1.42-.87c.46-.31.9-.64,1.35-1l2.71-1.94c1.78-1.32,3.66-2.52,5.35-4l5.19-4.21a33,33,0,0,0,2.49-2.23l2.45-2.29,2.48-2.27c.41-.39.84-.75,1.23-1.15l1.15-1.23c1.55-1.62,3.08-3.27,4.65-4.88s3-3.37,4.47-5.08,2.94-3.44,4.45-5.14c-1.17,1.94-2.4,3.85-3.6,5.78s-2.4,3.88-3.81,5.66a129,129,0,0,1-8.55,10.71l-2.3,2.56c-.77.84-1.52,1.72-2.37,2.49l-5,4.78a60.52,60.52,0,0,1-5.24,4.49l-2.69,2.18c-.45.36-.89.74-1.35,1.09l-1.42,1-5.68,4c-1.93,1.27-4,2.37-6,3.57-1,.57-2,1.19-3,1.73l-3.11,1.54-3.13,1.53-1.56.77-1.6.66A130.54,130.54,0,0,1,428,967c-4.53,1-9.12,1.55-13.71,2.11l-6.91.54c-2.31.12-4.61.16-6.92.22a169.34,169.34,0,0,1-27.49-2,188.36,188.36,0,0,1-26.75-6.07A153,153,0,0,1,320.92,951.67Z"/><path class="cls-4" d="M873.88,706.61s34-80,91-24C964.88,682.61,910.88,750.61,873.88,706.61Z"/><path class="cls-4" d="M883.82,667S833,590.32,915.68,572.65C915.68,572.65,944.24,660,883.82,667Z"/><path class="cls-4" d="M827.88,790.61s34-80,91-24C918.88,766.61,864.88,834.61,827.88,790.61Z"/><path class="cls-4" d="M735.77,883.92s51.24-70.22,94.07-2.76C829.84,881.16,761.84,935.16,735.77,883.92Z"/><path class="cls-4" d="M862,724.1s31-81.21-48.92-80.4C813.05,643.7,804.79,730.14,862,724.1Z"/><path class="cls-4" d="M793.22,832.18s61.41-73.47-22.1-101.29C771.12,730.89,731.51,818,793.22,832.18Z"/><path class="cls-4" d="M716.06,892.29s73.67-46.15,9.4-93.64C725.46,798.65,666.8,862.66,716.06,892.29Z"/><path class="cls-4" d="M636.7,914.51s70-31.12,19.84-80.55C656.54,834,597.39,882.53,636.7,914.51Z"/><path class="cls-4" d="M798.37,378.84s-51.17-56.54,14.41-81.3C812.78,297.54,847,365.58,798.37,378.84Z"/><path class="cls-4" d="M725.09,319.21s-42.35-25.73-6.09-53.3C719,265.91,752.94,301.94,725.09,319.21Z"/><path class="cls-4" d="M672,289.15s-34.35-10.75-13.6-36.53C658.4,252.62,688.63,272.11,672,289.15Z"/><path class="cls-4" d="M620,276.15s-34.35-10.75-13.6-36.53C606.4,239.62,636.63,259.11,620,276.15Z"/><path class="cls-4" d="M591.41,301.69s35.52,5.83,28.56-26.52C620,275.17,584.21,279,591.41,301.69Z"/><path class="cls-4" d="M638.5,309s32.55,15.37,34.76-17.65C673.26,291.38,637.83,285.23,638.5,309Z"/><path class="cls-4" d="M843.35,445.47s-44-62.27,24.08-79C867.43,366.5,893.26,438.17,843.35,445.47Z"/><path class="cls-4" d="M869.33,544.14S844,472.23,914,474.7C914,474.7,919.34,550.69,869.33,544.14Z"/><path class="cls-4" d="M809,395s-47.42-59.71-82.56,1C726.4,396,787.94,440.88,809,395Z"/><path class="cls-4" d="M756.82,340.29S719.3,293,691.49,341C691.49,341,740.19,376.57,756.82,340.29Z"/><path class="cls-4" d="M856.65,481.31s-35.88-76-88.78-19.71C767.87,461.6,822.6,525.21,856.65,481.31Z"/><path class="cls-4" d="M869.1,559.88s-9.62-75.65-71.1-42C798,517.91,827.37,588.2,869.1,559.88Z"/><path class="cls-4" d="M861.57,619.25s1-67.21-56.83-45.46C804.74,573.79,821.63,638.78,861.57,619.25Z"/><path class="cls-4" d="M603.88,273.61a160.37,160.37,0,0,1,16.35,1.46q8.13,1.15,16.2,2.83a279.11,279.11,0,0,1,31.79,8.64,325.11,325.11,0,0,1,30.69,12.23c5,2.39,10,4.75,14.78,7.44,4.91,2.53,9.63,5.4,14.41,8.19,2.38,1.4,4.67,3,7,4.42s4.68,2.94,6.92,4.56l6.78,4.79c1.14.78,2.24,1.62,3.33,2.47l3.28,2.54c2.18,1.71,4.42,3.34,6.53,5.12l6.35,5.36,3.17,2.68,3,2.81,6.11,5.63a318.8,318.8,0,0,1,42.81,50.67,361.53,361.53,0,0,1,32.13,57.9,132.91,132.91,0,0,1,5.84,15.88q2.46,8,4.29,16.14a245.25,245.25,0,0,1,5.23,32.82,277.71,277.71,0,0,1-19,129.42c1.42-5.28,3-10.5,4.21-15.82l1-4c.32-1.32.58-2.66.88-4,.55-2.66,1.2-5.3,1.67-8a302.86,302.86,0,0,0,4.6-32.2,289.58,289.58,0,0,0,1.22-32.38,296.42,296.42,0,0,0-2.28-32.23q-.54-4-1.16-8c-.46-2.65-.87-5.3-1.41-7.93q-1.46-7.93-3.42-15.73c-1.31-5.19-2.78-10.34-4.47-15.4A123.4,123.4,0,0,0,847,467.3l-7.07-14.57c-2.52-4.77-5.12-9.48-7.67-14.23l-1-1.77-1-1.74-2.07-3.46L824,424.61c-1.34-2.34-2.88-4.55-4.36-6.79l-4.46-6.73c-1.44-2.27-3.06-4.42-4.64-6.59L805.8,398c-1.54-2.21-3.29-4.25-5-6.36l-5-6.29c-.82-1.07-1.71-2.07-2.6-3.08l-2.66-3-5.31-6.07-5.57-5.82-2.79-2.91c-.92-1-1.84-2-2.83-2.87A328.67,328.67,0,0,0,724,321c-9-5.9-18.38-11.27-27.92-16.35s-19.43-9.48-29.49-13.5a299.88,299.88,0,0,0-30.77-10.54c-5.22-1.51-10.5-2.84-15.81-4S609.3,274.32,603.88,273.61Z"/><path class="cls-4" d="M885.38,662.11a251.73,251.73,0,0,1-6,26.37c-1.17,4.36-2.49,8.68-3.87,13s-2.82,8.59-4.32,12.86c-3.08,8.5-6.46,16.9-10.08,25.21S853.5,756,849.27,764a340.49,340.49,0,0,1-29.17,46.06q-8.22,10.92-17.38,21.12t-19.26,19.47a265.61,265.61,0,0,1-43.9,32.79,242.78,242.78,0,0,1-24.29,12.72c-1,.47-2.07,1-3.12,1.42L709,898.9c-2.11.87-4.19,1.83-6.34,2.61l-6.41,2.39c-2.14.79-4.33,1.46-6.48,2.2a260.14,260.14,0,0,1-53.25,11.5,288,288,0,0,1-54.13.51,381.67,381.67,0,0,0,53.43-5.37c8.77-1.64,17.49-3.41,26-5.86,4.3-1.1,8.52-2.48,12.77-3.73l6.3-2.14,3.14-1.08,3.1-1.19a270.14,270.14,0,0,0,47.47-23.42c1.86-1.19,3.76-2.31,5.59-3.55l5.5-3.68c3.59-2.55,7.21-5.08,10.68-7.8,7-5.35,13.83-11,20.29-17,26.06-23.9,47.76-52.4,65.79-83.07,4.52-7.67,8.7-15.54,12.77-23.48s7.85-16,11.44-24.22,7-16.48,10.11-24.88q2.37-6.28,4.51-12.67T885.38,662.11Z"/><path class="cls-4" d="M702.13,960.18s42.63-9.88,36.74,29.91C738.87,990.09,695.2,988.28,702.13,960.18Z"/><path class="cls-4" d="M721.2,952.48s16.12-43.39,47.82-15C769,937.48,742,975,721.2,952.48Z"/><path class="cls-4" d="M654.32,966.37s42.63-9.88,36.74,29.91C691.06,996.28,647.39,994.47,654.32,966.37Z"/><path class="cls-4" d="M589.06,956.56s43.75,0,29,37.45C618.06,994,575.94,982.35,589.06,956.56Z"/><path class="cls-4" d="M691.48,960.52s42.23-11.46,18.21-43.73C709.69,916.79,672.08,939.05,691.48,960.52Z"/><path class="cls-4" d="M627.13,964.59s48.1,3.21,34.66-39C661.79,925.58,614.63,935.27,627.13,964.59Z"/><path class="cls-4" d="M579.81,951s40.61,16.29,40.88-23.93C620.69,927.09,577.26,922.2,579.81,951Z"/><path class="cls-4" d="M547.25,925.32s33.41,19.26,38.65-15.8C585.9,909.52,548.6,899.85,547.25,925.32Z"/><path class="cls-4" d="M723.64,951.67a153,153,0,0,1-25.31,10.18,188.36,188.36,0,0,1-26.75,6.07,169.34,169.34,0,0,1-27.49,2c-2.31-.06-4.61-.1-6.92-.22l-6.91-.54c-4.58-.56-9.18-1.15-13.71-2.11A130.54,130.54,0,0,1,590,958.79l-1.6-.66-1.56-.77-3.13-1.53-3.11-1.54c-1-.54-2-1.16-3-1.73-2-1.2-4-2.3-6-3.57L566,945l-1.42-1c-.46-.35-.9-.73-1.35-1.09l-2.69-2.18a60.52,60.52,0,0,1-5.24-4.49l-5-4.78c-.85-.77-1.6-1.65-2.37-2.49l-2.29-2.56a127.06,127.06,0,0,1-8.56-10.71c-1.41-1.78-2.57-3.76-3.81-5.66s-2.43-3.84-3.6-5.78c1.51,1.7,3,3.44,4.45,5.14s2.84,3.5,4.47,5.08,3.1,3.26,4.65,4.88l1.15,1.23c.39.4.82.76,1.23,1.15l2.48,2.27,2.45,2.29a33,33,0,0,0,2.49,2.23l5.19,4.21c1.69,1.46,3.57,2.66,5.35,4l2.71,1.94c.45.32.89.65,1.35,1l1.42.87,5.66,3.47c1.91,1.12,3.9,2.09,5.84,3.15,1,.5,1.94,1.05,2.93,1.53l3,1.36,3,1.37,1.51.68,1.55.58,6.18,2.35c2.1.69,4.21,1.32,6.31,2s4.26,1.16,6.39,1.72l3.21.81,3.25.63c17.31,3.58,35.23,3.93,53,2.36a244.85,244.85,0,0,0,26.56-4A236.42,236.42,0,0,0,723.64,951.67Z"/><polygon class="cls-5" points="374.18 747.17 384.45 767.97 407.41 771.31 390.79 787.51 394.72 810.37 374.18 799.58 353.64 810.37 357.56 787.51 340.95 771.31 363.91 767.97 374.18 747.17"/><polygon class="cls-5" points="431.1 780.22 446.35 797.71 469.4 795.07 457.48 814.97 467.11 836.08 444.5 830.89 427.4 846.57 425.35 823.46 405.15 812.05 426.49 802.96 431.1 780.22"/><polygon class="cls-5" points="648.17 747.17 637.9 767.97 614.94 771.31 631.55 787.51 627.63 810.37 648.17 799.58 668.71 810.37 664.78 787.51 681.4 771.31 658.44 767.97 648.17 747.17"/><polygon class="cls-5" points="591.25 780.22 576 797.71 552.95 795.07 564.87 814.97 555.24 836.08 577.85 830.89 594.95 846.57 597 823.46 617.2 812.05 595.86 802.96 591.25 780.22"/><polygon class="cls-5" points="490.49 795.28 511.08 805.99 531.57 795.11 527.74 817.99 544.43 834.11 521.48 837.55 511.31 858.4 500.94 837.64 477.97 834.4 494.51 818.13 490.49 795.28"/><path class="cls-6" d="M846.28,782.93s21.24-9.24,33.25-38.8c0,0,15.71-46.19,30.49-56.36,0,0,33.26-42.49,37-22.17,0,0,5.55,8.32-21.24,35.11,0,0-7.39,18.47-5.55,21.25,0,0,40.65-36,63.75-29.57,0,0,6.47,6.47,0,14.78,0,0,20.32,4.62,2.77,20.33,0,0-37.88,22.17-29.56,31.41,0,0,37-17.55,46.19-2.77,0,0,1.85,10.16-16.63,12,0,0-37,26.79-43.42,44.34,0,0-9.24,12.94-33.26,11.09,0,0-18.91,16.45-24.7,24.39l-41.82,5.17L830.57,831V808.8Z"/><path class="cls-7" d="M843.5,855.64a2.5,2.5,0,0,1-2.16-1.24l-12.93-22.17a2.53,2.53,0,0,1-.34-1.26V808.8a2.57,2.57,0,0,1,.36-1.3l15.71-25.87a2.53,2.53,0,0,1,1.13-1h0c.21-.09,20.47-9.27,31.92-37.39.93-2.72,16.06-46.5,31.09-57.31,4.58-5.81,24.94-30.74,35.48-28.13,2,.49,4.6,2.11,5.6,7,1.27,2.75,2.88,12.85-21.5,37.35a133.33,133.33,0,0,0-4.75,14.12C934.63,706.9,965,684.48,984.6,690a2.41,2.41,0,0,1,1.1.64,13.09,13.09,0,0,1,2.06,15.17c3,1.25,7.17,3.71,8.3,8.09,1.2,4.63-1.39,9.83-7.69,15.47a3.08,3.08,0,0,1-.41.3c-10.84,6.35-28.43,18.93-29.47,25.67,0,.09,0,.17,0,.25a118.46,118.46,0,0,1,17.72-6c15-3.65,24.81-1.88,29.28,5.26a2.56,2.56,0,0,1,.34.88,10.36,10.36,0,0,1-2.16,7.71c-2.93,3.88-8.31,6.29-16,7.16-4.52,3.34-36.29,27.27-42,42.8a2.82,2.82,0,0,1-.32.59c-.4.56-10.07,13.67-34.42,12.2-3.59,3.16-18.64,16.57-23.55,23.3a2.47,2.47,0,0,1-1.71,1l-41.82,5.17A1.62,1.62,0,0,1,843.5,855.64Zm-10.43-25.35,11.76,20.17L884,845.62c6.49-8.3,23.66-23.27,24.41-23.93a2.45,2.45,0,0,1,1.83-.6c11.62.89,19.44-1.9,24-4.39a24.46,24.46,0,0,0,6.91-5.45c7-18,42.63-44,44.15-45.13a2.56,2.56,0,0,1,1.22-.46c8.12-.81,11.6-3.25,13.1-5.16a5.88,5.88,0,0,0,1.33-3.52c-7.12-9.79-33.1-.36-42.67,4.19a2.51,2.51,0,0,1-2.93-.59,7.1,7.1,0,0,1-1.74-6c.79-5.07,6.33-11.37,16.93-19.26,6.86-5.1,13.44-9,14.74-9.83,4.6-4.15,6.68-7.72,6-10.32-.83-3.24-6-5.1-7.85-5.54a2.5,2.5,0,0,1-1.41-4c4.21-5.43,1.67-9.65.6-11-21.67-5.11-60.33,28.86-60.72,29.21a2.51,2.51,0,0,1-2,.61,2.55,2.55,0,0,1-1.76-1.1c-1.71-2.56.08-10.49,5.3-23.56a2.53,2.53,0,0,1,.56-.84c22.63-22.63,21.14-31.06,20.86-32-.25-.29-.23-.43-.3-.86-.37-2-1-3.16-1.95-3.39-5-1.24-19.79,12.87-30.58,26.65a2.46,2.46,0,0,1-.55.52c-13.94,9.59-29.38,54.65-29.54,55.1a.78.78,0,0,1,0,.14c-11.12,27.38-29.8,37.82-33.83,39.8L833.07,809.5Z"/><path class="cls-8" d="M419.46,620.33s-21.25,6.47-37.88,23.1c0,0,52.66,72.06,16.63,165.37,0,0-14.78,65.59,0,97.93,0,0,144.12,94.23,272.53,0,0,0-18.47-85.92,6.47-140.43,0,0,13.86-48-10.16-117.33,0,0-9.25-10.6-34.19-15.92"/><path class="cls-7" d="M543,952.11a260.8,260.8,0,0,1-57.46-6.63c-52.1-11.79-87.76-34.85-89.26-35.83a3.46,3.46,0,0,1-1.26-1.47c-15.1-33-.85-97.43-.24-100.15a4,4,0,0,1,.15-.49,178.87,178.87,0,0,0,5.11-115.44c-8.4-28.75-21.17-46.43-21.3-46.61a3.51,3.51,0,0,1,.35-4.54c17.06-17.05,38.44-23.69,39.34-24a3.5,3.5,0,0,1,2,6.7h0c-.2.06-18.91,5.91-34.35,20.22,3.93,6,13.67,22.36,20.64,46.24a185.78,185.78,0,0,1-5.2,119.67c-.94,4.32-13.59,64.28-.59,94.52,5.73,3.57,39.76,23.88,86.34,34.37,29.8,6.71,58.84,8.16,86.32,4.29,33.56-4.71,64.92-17.42,93.22-37.77-2.79-14.21-16-89.46,7-140.11,1-3.6,12.25-49.72-9.91-114.26-2-1.92-11.39-10-31.87-14.38a3.5,3.5,0,0,1,1.46-6.85c25.78,5.51,35.69,16.58,36.1,17a3.63,3.63,0,0,1,.67,1.16c24.1,69.53,10.79,117.44,10.21,119.44a2.22,2.22,0,0,1-.18.49C656.21,820.6,674,905.14,674.17,906a3.51,3.51,0,0,1-1.35,3.56C643.05,931.39,610,945,574.47,950A226.88,226.88,0,0,1,543,952.11Z"/><path class="cls-3" d="M595.91,603.7s21.14,5.78,36,21.25c2.1.07-.06,21.92-.22,23.78-1,11.33-2.18,24.71-12.27,32-7.1,5.12-16.62.7-23.88-2.4-26.34-11.25-47.38-33.76-64.34-56.15"/><path class="cls-7" d="M611.84,685.57c-5.72,0-11.6-2.53-16.36-4.57l-.88-.37c-22.4-9.57-43.17-27.66-65.35-56.94a2.5,2.5,0,0,1,4-3C554.87,649.23,575,666.82,596.57,676l.88.38c6.63,2.84,14.88,6.38,20.54,2.29,9.25-6.68,10.36-19.71,11.25-30.19l.06-.68c1.42-15.54,1.08-19.94.86-21.13h0c-14.24-14.81-34.68-20.52-34.89-20.57a2.5,2.5,0,0,1,1.32-4.83c.89.24,21.67,6.05,36.84,21.58a3,3,0,0,1,.67.57c.95,1.07,2.24,2.53.2,24.84l-.06.66c-1,11.49-2.19,25.79-13.3,33.81A15.06,15.06,0,0,1,611.84,685.57Zm20-58.12h0Z"/><path class="cls-9" d="M454.56,576.91s2.78,26.79-5.54,38.8c0,0,54.32,34.23,82.13,6.49"/><path class="cls-7" d="M502.3,635.52a82.35,82.35,0,0,1-23.36-3.76,139.45,139.45,0,0,1-31.25-13.93,2.49,2.49,0,0,1-.72-3.54c7.69-11.12,5.13-36.86,5.11-37.12a2.5,2.5,0,0,1,5-.52c.11,1.07,2.47,24.89-4.59,38.19,10.1,5.78,53.84,28.61,76.92,5.59a2.5,2.5,0,1,1,3.53,3.54C525.22,631.64,514.84,635.52,502.3,635.52Z"/><path class="cls-9" d="M434.27,437.77c.28-.49.57-1,.87-1.46,2.89-4.66,6.85-8.54,10.77-12.38l25.81-25.3c2.65-2.6,5.41-5.26,8.86-6.63,3.27-1.29,6.88-1.3,10.39-1.3l114.84.07c8.47,0,21.47-2.51,29.48,0,7.5,2.35,9.24,8.41,13,16,7.82,15.63,14.35,32.89,11.58,50.66-1.78,11.35-7.21,21.81-9.62,33-3.8,17.67,0,36.4-4.39,53.92C639.42,570,617,587.85,596,603.79c-11.27,8.53-23.06,17.31-36.92,20.12-22.82,4.64-45.29-7.72-65.3-19.61-12.3-7.31-24.73-14.72-34.95-24.73s-18.18-23-19.32-37.29c-4.75,6-14.08,6.59-21,3.3s-11.9-9.52-16.37-15.73C395,519.93,388.3,509.11,386.66,497s3-25.83,13.72-31.64,27.06.2,28.73,12.32C428.29,464.09,427.7,449.56,434.27,437.77Z"/><path class="cls-7" d="M548.81,627.44c-19.19,0-37.63-9.88-56.33-21-12.25-7.29-24.92-14.82-35.42-25.09s-17.26-22.24-19.44-34.17a21.1,21.1,0,0,1-20.2.65c-7.6-3.61-12.93-10.42-17.33-16.52-6.89-9.55-14.16-21.06-15.91-34-1.93-14.3,4.25-28.35,15-34.17,6.39-3.46,14.72-3.4,21.71.15a21.73,21.73,0,0,1,5.24,3.67c-.19-11.18.88-21.35,5.94-30.41h0c.29-.53.6-1.05.92-1.57,3.08-4.94,7.18-9,11.15-12.85L470,396.85c2.68-2.62,5.71-5.6,9.69-7.17,3.76-1.49,7.76-1.49,11.31-1.48l114.84.07c2.59,0,5.68-.25,9-.51,7.2-.58,15.35-1.24,21.28.62,7.42,2.32,10,7.72,12.94,14,.49,1.05,1,2.14,1.57,3.26,13.48,27,13.39,42,11.81,52.16-1,6.43-3.15,12.59-5.22,18.54A127.74,127.74,0,0,0,652.71,491c-1.77,8.24-1.83,17-1.89,25.44-.07,9.43-.14,19.17-2.51,28.57-6.44,25.5-27.71,43.32-50.82,60.81-10.89,8.25-23.24,17.6-37.93,20.58A53.41,53.41,0,0,1,548.81,627.44ZM439.5,539.78a2.25,2.25,0,0,1,.72.11,2.5,2.5,0,0,1,1.77,2.19c1,12.25,7.57,24.93,18.57,35.7C470.63,587.64,483,595,495,602.15c21.3,12.65,42.18,23.65,63.53,19.31,13.57-2.75,25.44-11.74,35.92-19.67,22.36-16.93,42.94-34.11,49-58,2.22-8.81,2.29-18.25,2.36-27.38.06-8.71.12-17.72,2-26.46a131,131,0,0,1,4.6-15.23c2.09-6,4.06-11.68,5-17.67,2.77-17.77-4.18-34.82-11.34-49.16-.58-1.15-1.11-2.27-1.62-3.35-2.76-5.83-4.59-9.69-9.91-11.35-5-1.56-12.65-.95-19.39-.41-3.36.27-6.54.53-9.32.53h0L491,393.2c-3.24,0-6.6,0-9.47,1.13-3,1.2-5.58,3.69-8,6.09l-25.81,25.29c-3.76,3.68-7.64,7.49-10.4,11.92-.28.45-.55.9-.8,1.36h0c-6,10.74-5.74,23.8-4.85,38.53a2.5,2.5,0,0,1-5,.49c-.58-4.24-3.49-8-8-10.25-5.47-2.78-12.18-2.86-17.08-.21-10.48,5.66-13.79,19.06-12.43,29.11,1.6,11.84,8.48,22.69,15,31.73,4,5.6,8.89,11.83,15.43,14.94,5.6,2.66,13.8,2.65,18-2.61A2.5,2.5,0,0,1,439.5,539.78Zm-5.23-102h0Z"/><path class="cls-10" d="M476.27,416.62s0,20.33-29.56,42.5c0,0-9.24,21.25-7.39,26.79A36.8,36.8,0,0,1,414,467.23s-9.46-10.73-23.48,8.13c0,0-14.41,27.09,19.05,63.63,0,0,15,12.52,29.75,3.28,0,0-2.77,39.72-27.72,38.8a26.38,26.38,0,0,1-21.24-15.71s-45.27,8.32-41.58-40.65c0,0-5.54-12.93,9.24-47.11,0,0-40.65-124.72,20.33-162.6a231.74,231.74,0,0,1,44.34-37.88s28.64-38.8,100.7-43.42c0,0,86.84-9.24,122,76.68,0,0,8.31,24,6.47,40.65,0,0,50.88,50.31,7.42,85.21,0,0-29.6-1.14-45.3-15,0,0-12.94,11.09-13.86,20.33,0,0-12-3.7-12-14.78,0,0-24,15.7-36,12.93,0,0-11.09-1.85-10.16-12.93,0,0-15.71,3.69-18.48,11.08C523.39,437.87,520.62,424,476.27,416.62Z"/><g class="cls-11"><path class="cls-12" d="M405.14,318.7s-49,116.4,15.7,147.81c0,0-23.74-21.5-34.5,23.9,0,0-3.37,22.29,23.42,48.16,0,0,16.63,15.71,29.56,3.7,0,0-2.94,24.64-10.71,30.79,0,0-12,14.66-29.77,3,0,0-8.48-6.1-8.48-10.72,0,0-25.23,6.24-37.1-14.43,0,0-7.25-9.59-4.48-26.22,0,0-9.24-14.78,9.24-47.11,0,0-20.3-48.1-12-104,0,0,3-42.3,27.35-55.09"/></g><path class="cls-13" d="M455,260.25s-15-18-58.13-7c0,0-43.1-7-38.09,19,0,0-15,19.05,11,36.08,0,0-17,23.06,13,31.07S455,260.25,455,260.25Z"/><path class="cls-14" d="M386.89,343a18.36,18.36,0,0,1-4.79-.63c-10.31-2.75-16.73-7.56-19.09-14.29-2.6-7.42.61-15,2.77-18.83-8.06-5.87-12.76-12.58-14-20a25.65,25.65,0,0,1,3.85-17.63c-.87-6,.54-11,4.19-14.73,9.75-10,32.7-7.27,36.91-6.67,44-11,59.92,7.36,60.58,8.16a3,3,0,0,1,.4,3.22,375.63,375.63,0,0,1-25,43C415.18,330.06,399.8,343,386.89,343Zm-1.69-87.58c-7.73,0-16.71,1.19-21.05,5.66-2.49,2.57-3.27,6.06-2.38,10.68a3,3,0,0,1-.59,2.42,19.9,19.9,0,0,0-3.43,14.18c1.06,6.37,5.69,12.27,13.74,17.53a3,3,0,0,1,.77,4.3c-.06.08-6.18,8.56-3.58,15.93,1.67,4.73,6.71,8.25,15,10.46,22.09,5.89,55.43-50.79,67.72-75.61-4.46-3.65-20.18-13.36-53.72-4.78a3,3,0,0,1-1.22.05A75,75,0,0,0,385.2,255.37Z"/><path class="cls-13" d="M489.11,249.22s-25.05-8,0-27.06c0,0,15-31.07,37.09-22,0,0,31.07,15,10,46.1C536.22,246.21,510.16,262.25,489.11,249.22Z"/><path class="cls-14" d="M507.92,257.31A38.29,38.29,0,0,1,487.83,252c-2-.72-11.33-4.45-12.69-12.38-1-6.07,2.86-12.58,11.59-19.36,5.89-11.7,21.46-30.71,40.6-22.88l.17.08c.59.28,14.32,7.07,18.1,21.12,2.45,9.12.13,19-6.9,29.37a2.91,2.91,0,0,1-.91.87,66.23,66.23,0,0,1-16.47,6.74A53.5,53.5,0,0,1,507.92,257.31Zm10.34-55.81c-15.61,0-26.32,21.72-26.44,22a3.09,3.09,0,0,1-.89,1.08c-7.1,5.39-10.51,10.23-9.88,14,.72,4.25,6.73,7.08,9,7.82a2.73,2.73,0,0,1,.65.3c17.67,10.94,39.72-.61,43.42-2.7,5.71-8.64,7.63-16.68,5.69-23.88-2.94-11-13.85-16.74-14.84-17.24A17.68,17.68,0,0,0,518.26,201.5Z"/><path class="cls-13" d="M472.08,264.26s-44.1,10-29.07-19c0,0,33.08-32.07,46.1,4C489.11,249.22,492.12,263.25,472.08,264.26Z"/><path class="cls-14" d="M457.25,269c-6.92,0-14.3-1.3-18-6.09-3.47-4.49-3.1-10.89,1.11-19a2.85,2.85,0,0,1,.57-.77c.72-.7,17.84-17.08,33.53-13.46,7.8,1.8,13.68,8.06,17.49,18.6,0,.13.08.26.11.39a15.1,15.1,0,0,1-2.74,11.52c-3.3,4.29-9,6.69-16.82,7.13A76,76,0,0,1,457.25,269ZM445.44,247c-2,4-3.76,9.17-1.45,12.15,2.08,2.69,7.49,4,15.24,3.69a76.9,76.9,0,0,0,12.18-1.55,3,3,0,0,1,.52-.07c6.07-.31,10.44-2,12.62-4.8a9,9,0,0,0,1.66-6.46c-3.07-8.35-7.47-13.25-13.1-14.55C461.65,232.79,447.8,244.89,445.44,247Z"/><path class="cls-15" d="M582.44,364.39a96.42,96.42,0,0,1,11.82,50.88,103.56,103.56,0,0,0-11.82-50.88Z"/><path class="cls-15" d="M574.35,369.62a29.82,29.82,0,0,1-.15,7.55,31.39,31.39,0,0,1-2.06,7.27c-1.92,4.67-4.56,9-6.16,13.79s-2.9,9.66-5.08,14.23a27,27,0,0,1-4.11,6.34,17.22,17.22,0,0,1-6,4.47,17.29,17.29,0,0,0,5.94-4.55,27.28,27.28,0,0,0,4-6.33c2.14-4.56,3.31-9.49,5-14.25s4.31-9.12,6.24-13.77A30.55,30.55,0,0,0,574.35,369.62Z"/><path class="cls-15" d="M563.73,371.57c-5.45,9.41-11,18.78-17.81,27.33a94.46,94.46,0,0,1-11.23,11.83c-4.05,3.59-8.4,7-11.23,11.72a31.16,31.16,0,0,1,5.07-6.37c1.94-1.91,4-3.67,6.05-5.48a94.08,94.08,0,0,0,11.15-11.86,158.65,158.65,0,0,0,9.45-13.27C558.12,380.89,560.91,376.23,563.73,371.57Z"/><path class="cls-15" d="M587.93,366.64a155.37,155.37,0,0,1,17.41,37,190.49,190.49,0,0,0-17.41-37Z"/><path class="cls-15" d="M634,403a83.1,83.1,0,0,0-37.53-37.51l-.51-.26.57,0A115.42,115.42,0,0,1,629,371.47a75.39,75.39,0,0,1,14.9,7.23,60.16,60.16,0,0,1,12.61,10.71,60.24,60.24,0,0,0-12.68-10.6,74.57,74.57,0,0,0-14.89-7.18,117.28,117.28,0,0,0-32.46-6.11l.06-.22A82.37,82.37,0,0,1,634,403Z"/><path class="cls-15" d="M554.16,375.47a135.09,135.09,0,0,0-46,36.12,125.56,125.56,0,0,1,46-36.12Z"/><path class="cls-16" d="M519.83,504.2c.93-3.74-.83-7.91-5.85-10-3.88-1.6-8.29-1.23-12.39-.33a51.71,51.71,0,0,0-13.51,5c-1.39.74-2.92,1.87-2.81,3.44.09,1.25,1.22,2.14,2.27,2.82A43,43,0,0,0,501.62,511a22.72,22.72,0,0,0,10.84.13A10,10,0,0,0,519.83,504.2Z"/><g class="cls-17"><path class="cls-16" d="M519.79,503.16c1.07-4.26-1-9-6.74-11.37-4.47-1.83-9.55-1.4-14.28-.38a60.75,60.75,0,0,0-15.57,5.7c-1.59.84-3.35,2.13-3.22,3.91.1,1.42,1.39,2.44,2.6,3.21a50,50,0,0,0,16.24,6.69,26.52,26.52,0,0,0,12.49.15C516,509.8,518.92,506.65,519.79,503.16Z"/></g><path class="cls-16" d="M596.37,495.15s-14.78,8.32,0,12c0,0,12.94,2.77,22.18-5.54,0,0,8.31-2.77,8.31-6.47,0,0-.92-2.77-8.31-1.85C618.55,493.3,608.38,488.68,596.37,495.15Z"/><g class="cls-18"><path class="cls-16" d="M596.7,492.79s-15.52,9.89,0,14.29c0,0,13.58,3.3,23.28-6.6,0,0,8.73-3.3,8.73-7.69,0,0-1-3.3-8.73-2.2C620,490.59,609.31,485.09,596.7,492.79Z"/></g><g class="cls-19"><path class="cls-20" d="M525.7,467.9c-3.88-.45-7.47-.82-11-1a74.43,74.43,0,0,0-10.47.16l-1.29.07-1.29.19c-.85.11-1.72.18-2.57.33s-1.7.33-2.57.46a8,8,0,0,0-1.29.26l-1.28.31c-.85.22-1.76.31-2.6.61s-1.73.5-2.63.73c-1.79.45-3.5,1.15-5.47,1.56.6-.76,1.26-1.47,1.94-2.18a15.59,15.59,0,0,1,2.16-2c.78-.59,1.58-1.16,2.39-1.72l.62-.42.65-.34c.43-.23.87-.47,1.32-.68a29.33,29.33,0,0,1,5.54-2.16c1-.29,1.95-.42,2.92-.63.5-.09,1-.18,1.48-.25l1.49-.13a31.76,31.76,0,0,1,11.77,1.19A25,25,0,0,1,525.7,467.9Z"/></g><g class="cls-19"><path class="cls-20" d="M598.68,469.75a23.28,23.28,0,0,1,6.62-6.82,27.53,27.53,0,0,1,8.67-4.08,20.19,20.19,0,0,1,10-.29,14.71,14.71,0,0,1,4.66,2,11.18,11.18,0,0,1,3.35,3.61,36.05,36.05,0,0,0-4.44-.87,24.32,24.32,0,0,0-4.08-.08,40.29,40.29,0,0,0-7.9,1.39c-2.65.7-5.33,1.57-8.1,2.48S601.83,469,598.68,469.75Z"/></g><path class="cls-21" d="M576.16,493.77c-2.67,3.85-3.54,7.93-4.2,12.29-.32,2.17-.66,4.44-1.07,6.63s-.77,4.39-1.1,6.72a19,19,0,0,1-1.25-6.9,44.56,44.56,0,0,1,.45-6.91,20.81,20.81,0,0,1,2.16-6.81A11.36,11.36,0,0,1,576.16,493.77Z"/><path class="cls-21" d="M548.93,544.5c2.61.92,5.11,1.82,7.64,2.55a61.88,61.88,0,0,0,7.59,1.74c2.48.36,4.8.27,6.66-1.09s3.26-3.72,4.54-6.15a11.69,11.69,0,0,1-3,7.92,8.11,8.11,0,0,1-4.14,2.22,12.88,12.88,0,0,1-4.5.07,29.22,29.22,0,0,1-8-2.52A24.4,24.4,0,0,1,548.93,544.5Z"/><g class="cls-22"><path class="cls-20" d="M399.73,495.86c1.17-4.81,2.1-9.75,4.87-14.26a10.88,10.88,0,0,1,2.73-3.09,7.33,7.33,0,0,1,2-1.06,6.6,6.6,0,0,1,2.32-.28,7.83,7.83,0,0,1,4.17,1.5,13.76,13.76,0,0,1,3,2.87,33.21,33.21,0,0,1,5.63,14.26,29.41,29.41,0,0,1,.39,7.62,9.26,9.26,0,0,1-1.1,3.77,3.11,3.11,0,0,1-1.49,1.37,1.88,1.88,0,0,1-1.87-.21,1.68,1.68,0,0,0,1.67-.19,2.57,2.57,0,0,0,.95-1.33,8.89,8.89,0,0,0,.37-3.45,35.9,35.9,0,0,0-1.21-7.09,48.38,48.38,0,0,0-2.3-6.82,26.34,26.34,0,0,0-3.41-6.09c-1.34-1.8-3.1-3.24-5-3.39-1.82-.32-3.55,1.11-5,2.94C403.7,486.67,402.05,491.46,399.73,495.86Z"/></g><g class="cls-22"><path class="cls-20" d="M398.8,496.78c1.18-4.81,2.11-9.74,4.87-14.26a11.06,11.06,0,0,1,2.74-3.09,7.55,7.55,0,0,1,2-1.06,6.93,6.93,0,0,1,2.33-.28,8,8,0,0,1,4.17,1.5,13.79,13.79,0,0,1,3,2.88,33.29,33.29,0,0,1,5.63,14.26,30.31,30.31,0,0,1,.39,7.62,9.37,9.37,0,0,1-1.1,3.76,3.17,3.17,0,0,1-1.49,1.38,1.88,1.88,0,0,1-1.87-.22,1.62,1.62,0,0,0,1.66-.19,2.57,2.57,0,0,0,.95-1.33,8.66,8.66,0,0,0,.37-3.45,36.62,36.62,0,0,0-1.2-7.09,50.94,50.94,0,0,0-2.3-6.81,26.62,26.62,0,0,0-3.41-6.1c-1.34-1.8-3.1-3.24-5-3.39-1.82-.31-3.55,1.12-5,2.94C402.78,487.59,401.13,492.38,398.8,496.78Z"/></g><g class="cls-22"><path class="cls-20" d="M411.49,503.42c.5,3,.83,5.91,1.2,8.82.2,1.43.36,3,.56,4.3a3.57,3.57,0,0,0,1.66,2.7,47.6,47.6,0,0,0,7.34,4.24,8.75,8.75,0,0,0,3.76,1.16,2.28,2.28,0,0,0,1.62-.69,1.93,1.93,0,0,0,.59-1.86,2.17,2.17,0,0,1,.09,2.34,3.3,3.3,0,0,1-2,1.65,8.76,8.76,0,0,1-4.87-.4,27.58,27.58,0,0,1-8.33-4,7.2,7.2,0,0,1-1.88-2,6.71,6.71,0,0,1-.78-2.67c-.07-.84-.09-1.55-.1-2.31s0-1.5,0-2.25A40.24,40.24,0,0,1,411.49,503.42Z"/></g><g class="cls-18"><path class="cls-23" d="M446.44,512.71c3.74-4.52,10.07-5.77,15.9-6.45q7.4-.86,14.85-1.1c3.66-.11,7.41-.11,10.88,1.07,3.68,1.24,6.8,3.71,9.74,6.24a168.58,168.58,0,0,1,14.5,14c3.5,3.84,6.87,7.9,9.07,12.61,4.12,8.85,3.72,19.06,3.24,28.81-.31,6.16-.66,12.52-3.37,18.06-3.15,6.46-9.1,11-14.84,15.34-2.51,1.89-5.25,3.86-8.4,4-2.64.09-5.12-1.17-7.44-2.45a193.28,193.28,0,0,1-25.06-16.47,62.68,62.68,0,0,1-10.76-10c-5.32-6.6-8.26-14.76-11.1-22.76-1.34-3.79-3-7.78-3.57-11.8-.52-3.79.77-5.66,1.59-9.31C443.14,525.88,441.8,518.31,446.44,512.71Z"/></g><g class="cls-24"><path class="cls-25" d="M446.26,519.73c3.11-3.75,8.36-4.79,13.2-5.35q6.14-.71,12.32-.91a19.92,19.92,0,0,1,17.11,6.06,139.4,139.4,0,0,1,12,11.66,42.48,42.48,0,0,1,7.53,10.46c3.42,7.35,3.09,15.81,2.69,23.91-.26,5.11-.55,10.39-2.79,15-2.62,5.36-7.56,9.15-12.32,12.73-2.09,1.57-4.36,3.21-7,3.29-2.19.07-4.25-1-6.18-2a160.7,160.7,0,0,1-20.8-13.67,51.7,51.7,0,0,1-8.92-8.31c-4.42-5.48-6.85-12.25-9.21-18.88-1.12-3.15-2.5-6.46-3-9.79-.44-3.15.64-4.7,1.31-7.73C443.53,530.66,442.41,524.38,446.26,519.73Z"/></g><g class="cls-26"><path class="cls-23" d="M632.35,503.36c-5.05,1.69-9.39,5-13.35,8.6-10.6,9.59-19.52,22.49-19.47,36.78,0,11.48,5.8,22.06,11.39,32.08,1,1.77,2.13,3.67,4,4.35,2.09.75,4.39-.23,6.3-1.36,9.25-5.47,15.72-14.85,19.55-24.9s5.26-20.84,6.4-31.53c.57-5.35,3.27-16.3.85-21.29S636.93,501.82,632.35,503.36Z"/></g><g class="cls-27"><path class="cls-28" d="M523.39,561.67a38,38,0,0,1,22.17-1.85s17.56,3.7,34.19-.92c0,0,18.47-7.39,6.46,11.08,0,0-15.7,16.63-49,6.47C537.25,576.45,517.85,568.14,523.39,561.67Z"/></g><g class="cls-29"><path class="cls-30" d="M533.55,564.88s4.62,8.67,24,7.88c0,0,20.33,0,24-7.09,0,0,3.14-5.07-10-3.32,0,0-15,1.75-26.05-.62C545.56,561.73,531.71,561,533.55,564.88Z"/></g><path class="cls-31" d="M536.32,575.53s38.81,20.32,49.89-5.55C586.21,570,565,585.69,536.32,575.53Z"/><path class="cls-3" d="M454.16,600.24s12.22,34.92,77,22c0,0,15.8,48.94-26.7,60,0,0-60.05,13.86-85-61.9,0,0-11.09-10.16,35.1-43.42Z"/><path class="cls-7" d="M493.34,685.74a72.9,72.9,0,0,1-22.82-3.68c-17-5.63-40-20.71-53.29-60.49a8.28,8.28,0,0,1-1.42-5.56c.58-9.76,13.47-24,37.29-41.13a2.5,2.5,0,0,1,4,2.08l-.39,22.81c.72,1.68,4.18,8.66,13.37,14.41,17.72,11.08,42.75,9.15,60.62,5.57a2.51,2.51,0,0,1,2.87,1.68c.33,1,8,25.28-2.41,44.21-5.19,9.46-14,15.86-26,19A55.73,55.73,0,0,1,493.34,685.74ZM452,581.91c-27.42,20.43-31,30.79-31.18,34.39a4.18,4.18,0,0,0,.35,2.19,2.48,2.48,0,0,1,.68,1.06c10.09,30.62,27,50.06,50.26,57.77a65.13,65.13,0,0,0,31.8,2.48c10.62-2.78,18.33-8.35,22.83-16.54,7.69-14,4.17-32,2.63-38.16C502.92,630,482,627.71,467,618.19c-11.74-7.49-15.08-16.74-15.22-17.13a2.56,2.56,0,0,1-.14-.87Zm2.18,18.33h0Z"/><path class="cls-6" d="M439.78,715.49s18.48-31.41,19.4-61c0,0,.93-21.25,41.58-51.74,0,0,39.72-24,34.18-4.62,0,0-1.85,8.32-5.54,11.09,0,0,22.17-9.24,22.17,2.77,0,0-.93,8.31-3.7,11.08,0,0,21.25,0,21.25,13.86,0,0,12,15.71-1.85,21.25,0,0-22.17-15.7-35.1,32.34,0,0-3.7,36-40.65,48,0,0-15.71,12.93-13.86,26.79C477.66,765.38,431.47,751.52,439.78,715.49Z"/><path class="cls-7" d="M477.66,767.88a2.57,2.57,0,0,1-.72-.11c-.48-.14-48.33-15-39.59-52.84a2.29,2.29,0,0,1,.28-.71c.18-.31,18.16-31.22,19.05-59.78.05-1,1.45-22.82,42.58-53.66l.2-.14c6.63-4,28.84-16.66,36.12-11.09,2.39,1.83,3,4.93,1.78,9.23a36.32,36.32,0,0,1-1.89,5.82c5-1.28,11.33-2.13,15.18.44a7.87,7.87,0,0,1,3.42,7,2.45,2.45,0,0,1,0,.27,36.12,36.12,0,0,1-2,8.57c8.19,1,19,4.92,19.55,15.27,1.58,2.28,6.25,9.8,4.43,16.43-1,3.61-3.63,6.29-7.83,8a2.48,2.48,0,0,1-2.37-.28,13.18,13.18,0,0,0-11.45-1.2c-5.63,2.07-13.62,9.3-19.75,32-.42,3.16-5.79,37.76-41.86,49.77-2.18,1.92-14.13,13-12.63,24.25a2.51,2.51,0,0,1-2.48,2.83Zm-35.52-51.47c-3,13.71,2,25.64,14.87,35.47a76.24,76.24,0,0,0,18,9.92c.82-13.41,14.25-24.63,14.88-25.14a2.35,2.35,0,0,1,.82-.45c34.9-11.35,38.78-44.52,38.93-45.92a2.44,2.44,0,0,1,.07-.39c5.4-20,13.14-32,23-35.58a18.22,18.22,0,0,1,14.66,1.08,6.64,6.64,0,0,0,3.77-4.16c1.24-4.45-2.52-10.72-4.07-12.76a2.53,2.53,0,0,1-.51-1.52c0-11.19-18.56-11.35-18.75-11.36a2.5,2.5,0,0,1-1.77-4.26c1.46-1.46,2.6-6.35,3-9.45a2.88,2.88,0,0,0-1.19-2.69c-3.45-2.3-13.3.59-17.52,2.35a2.5,2.5,0,0,1-2.46-4.3c2.15-1.62,4-6.77,4.6-9.63l0-.15c.58-2,.58-3.51,0-4-2.78-2.12-16.68,3.06-30.38,11.34-39.15,29.39-40.47,49.56-40.48,49.76C460.79,683.14,444.26,712.72,442.14,716.41Z"/><path class="cls-7" d="M493.37,646.85a2.36,2.36,0,0,1-.65-.08A2.5,2.5,0,0,1,491,643.7c2.8-10.39,10.2-20.06,21.42-28a78.74,78.74,0,0,1,16.15-8.84,2.5,2.5,0,0,1,1.76,4.68c-.29.1-28.45,10.94-34.5,33.41A2.49,2.49,0,0,1,493.37,646.85Z"/><path class="cls-7" d="M509.07,659.79a2.43,2.43,0,0,1-.94-.19,2.5,2.5,0,0,1-1.38-3.25c14.33-35.34,40-35.75,41.12-35.75a2.5,2.5,0,0,1,0,5c-1,0-23.5.57-36.49,32.63A2.51,2.51,0,0,1,509.07,659.79Z"/><path class="cls-7" d="M518.31,677.34a2.5,2.5,0,0,1-2.41-3.16c11.49-42.14,53-39.74,53.39-39.71a2.5,2.5,0,0,1-.34,5h0c-1.54-.1-37.83-2.09-48.23,36A2.5,2.5,0,0,1,518.31,677.34Z"/><path class="cls-32" d="M477.66,765.38s0,16.63-16.63,18.47c0,0-5.54,115.49-121,120.1,0,0-54.51-31.41-71.14-69.28,0,0-12.93-45.27,9.24-72.06,0,0,25.87-12.94,47.12-65.6,0,0,24-49,57.27-52.66,0,0,36,75.76,22.18,102.55,0,0,8.31-12.93,15.7-11.09,0,0-4.62-18.47,18.48-20.32C438.86,715.49,449,766.3,477.66,765.38Z"/><path class="cls-7" d="M340,907.45a3.55,3.55,0,0,1-1.75-.46,261.23,261.23,0,0,1-29.77-20.74c-21.29-17.07-35.7-34-42.82-50.18a2.32,2.32,0,0,1-.16-.44c-.55-1.92-13.18-47.36,9.9-75.26a3.49,3.49,0,0,1,1.13-.89c.24-.12,25.06-13.27,45.44-63.78,0-.08.07-.15.1-.23,1-2.07,25.27-50.73,60-54.6a3.5,3.5,0,0,1,3.54,2,394,394,0,0,1,16.45,41.64c6.92,21.2,10,38.07,9.08,50.41a16,16,0,0,1,5.32-2.48A19.48,19.48,0,0,1,420,720.78c3.69-5.13,10-8.09,18.63-8.78a3.5,3.5,0,0,1,3.71,2.8c.1.48,9.75,47.09,34.61,47.09h.65a3.5,3.5,0,0,1,3.61,3.5c0,6.39-3.61,18.51-16.85,21.47a157.51,157.51,0,0,1-17.4,57C432,871.5,401.45,905,340.15,907.45Zm-67.83-74c15,33.72,61.77,62.76,68.72,66.92,45.94-2.11,79.49-22.18,99.72-59.68a150.32,150.32,0,0,0,16.91-57.05,3.51,3.51,0,0,1,3.11-3.3c9.28-1,12.2-7.53,13.11-11.67-24.29-2.83-34.89-38.35-37.6-49.37-4.91.83-8.43,2.66-10.47,5.47-3.21,4.42-1.91,10.12-1.9,10.17a3.51,3.51,0,0,1-4.25,4.23c-3.37-.84-9.09,5.22-11.91,9.59a3.5,3.5,0,0,1-6.05-3.51c10.33-20-10.81-74.71-21.13-97.09-29.06,5.4-50.81,47.83-52,50.25-19.79,49-43.55,64.35-48,66.9-5.82,7.27-12.4,20.54-11.72,43.06A117,117,0,0,0,272.18,833.49Z"/><path class="cls-7" d="M336.31,827.08a3.91,3.91,0,0,1-.75-.08,3.51,3.51,0,0,1-2.67-4.17c3.62-16.47,16.55-34.32,38.45-53.07a257.2,257.2,0,0,1,31.54-23.09,3.5,3.5,0,0,1,3.6,6c-.59.36-58.86,35.7-66.75,71.66A3.5,3.5,0,0,1,336.31,827.08Z"/><path class="cls-32" d="M668.9,649.9S687.37,649,727.1,746c0,0,35.11,24,33.26,39.72,0,0,36-3.69,58.2,18.48,0,0,12-18.48,27.72-21.25,0,0-12.94,55.43,12.93,61,0,0,20.32,3.7,27.71,0,0,0-6.46,23.1-32.33,26.8,0,0-47.12,109-120.1,61,0,0-63.75-4.62-73.91-55.43S668.9,649.9,668.9,649.9Z"/><path class="cls-7" d="M771.37,947.4c-12.61,0-25.35-4.12-38.06-12.32A117.27,117.27,0,0,1,700,926.22c-23.61-10.3-38.41-27.35-42.8-49.29-10.15-50.76,7.51-220.21,8.27-227.4a3.5,3.5,0,0,1,3.3-3.13c3.49-.18,22.78,3.71,61.22,97.29,5.88,4.12,31.15,22.64,33.77,38.31,9.56-.32,35.42.54,54.34,16.92,4.48-5.78,14.77-17.17,27.62-19.44a3.49,3.49,0,0,1,4,4.24,143.35,143.35,0,0,0-2.85,19.9c-1,13.87.57,24.48,4.5,30.66a13.09,13.09,0,0,0,8.56,6.19c7.43,1.34,20.87,2.61,25.47.3a3.5,3.5,0,0,1,4.93,4.08c-.28,1-7.07,24.21-33.28,29-4.7,10.15-29.21,59.24-68.66,71A59.05,59.05,0,0,1,771.37,947.4ZM671.88,655.14C669,683.83,655,830.55,664,875.55c4,19.89,17,34.77,38.74,44.25a110.07,110.07,0,0,0,32,8.38,3.44,3.44,0,0,1,1.67.57c16.89,11.11,33.69,14.28,49.94,9.42,11.46-3.42,29-12.94,47.55-38.81a183.53,183.53,0,0,0,17.48-30.05,3.49,3.49,0,0,1,2.71-2.08A35.53,35.53,0,0,0,881,848.84c-9.1.83-20.74-1.19-22.41-1.49l-.1,0a20.06,20.06,0,0,1-13.07-9.3c-8.71-13.74-5.68-38.74-3.7-50.07-11.5,4.94-20.12,18-20.22,18.13a3.5,3.5,0,0,1-5.41.56c-20.69-20.69-55-17.5-55.37-17.47a3.49,3.49,0,0,1-3.83-3.89c1.17-9.89-18.86-27.59-31.76-36.43a3.45,3.45,0,0,1-1.26-1.56c-15.29-37.33-29.14-64.44-41.17-80.56C677.81,660.2,674.21,656.85,671.88,655.14Z"/><path class="cls-7" d="M830.57,853.87a3.47,3.47,0,0,1-2.26-.83c-13.43-11.36-16.25-24.43-16.25-33.39a43.43,43.43,0,0,1,3.33-16.94,3.49,3.49,0,1,1,6.34,2.94c-.43,1-10.51,23.76,11.1,42.05a3.5,3.5,0,0,1-2.26,6.17Z"/><path class="cls-7" d="M739.1,816a3.49,3.49,0,0,1-3.46-3.06c-2.13-17,22.07-29.8,23.1-30.33a3.5,3.5,0,0,1,3.23,6.21c-5.82,3-20.65,13.14-19.39,23.25a3.5,3.5,0,0,1-3,3.91Z"/><path class="cls-7" d="M935.89,788.2a1.51,1.51,0,0,1-.3,0,2.49,2.49,0,0,1-2.18-2.78c2.56-21.37-31-45.46-31.3-45.7a2.5,2.5,0,0,1,2.89-4.08c1.49,1.06,36.29,26.09,33.37,50.38A2.5,2.5,0,0,1,935.89,788.2Z"/><path class="cls-7" d="M935.89,742.93a2.49,2.49,0,0,1-2.12-3.82c4.8-7.68,44.38-31.4,48.88-34.08a2.5,2.5,0,1,1,2.56,4.29c-16.59,9.88-44.07,27.43-47.2,32.44A2.5,2.5,0,0,1,935.89,742.93Z"/><path class="cls-6" d="M900.78,750.6s37-25.87,43.42-18.48c0,0,11.09,16.63-22.17,32.33,0,0-1.85,24-9.24,37"/><path class="cls-7" d="M912.79,803.91a2.53,2.53,0,0,1-1.24-.33,2.5,2.5,0,0,1-.93-3.41c7-12.31,8.9-35.67,8.92-35.91a2.52,2.52,0,0,1,1.42-2.07c15.75-7.43,20.67-14.81,22-19.69a12,12,0,0,0-.76-8.82c-.62-.44-4.39-2-21,7.09-9.82,5.42-19,11.81-19.06,11.87a2.5,2.5,0,1,1-2.87-4.09c.09-.07,9.46-6.61,19.51-12.15,14.91-8.23,23.56-10.11,27.22-5.93a1.64,1.64,0,0,1,.2.26,16.64,16.64,0,0,1,1.52,13.11c-2.3,8.29-10.17,15.77-23.4,22.25-.54,5.49-2.83,25-9.44,36.56A2.49,2.49,0,0,1,912.79,803.91Z"/></g></g></svg>