<svg xmlns="http://www.w3.org/2000/svg" viewBox="0 0 1873 856.85"><defs><style>.cls-1{fill:#c2bfad;}.cls-2{fill:#ebe8d8;}.cls-3{opacity:0.5;}.cls-4{fill:#c9c6b6;}</style></defs><title>자산 17</title><g id="레이어_2" data-name="레이어 2"><g id="Layer_1" data-name="Layer 1"><path class="cls-1" d="M1823.69,47.57l49.31-1.5-.75-24.66-107.86,3.28,2.14,70.58H1714.4l-2.11-46.08,49.28-2.26-1.13-24.64L1659,26.94l0-1.16L1551.2,21.42l-3,73.85h-52.46l2-48.24L1547,49l1-24.64L1440.17,20l-3,75.25H1390l-1.41-46.76,49.31-1.5-.75-24.65-107.87,3.27,2.11,69.64h-65.12l-1.29-42.49,49.31-1.5-.75-24.65L1205.63,29.9l2,65.37h-52.21l-1.87-40.87,49.28-2.26-1.13-24.64-101.45,4.65,0-1.16L992.45,26.63l-2.77,68.64H937.22l1.74-43,49.29,2,1-24.64L881.42,25.23l-2.83,70H831.06L829.8,53.72l49.31-1.5-.75-24.65L770.49,30.84l2,64.43H716.91L704.8,57.57l47-15.08L744.24,19,647.18,50.16l-.51-16.52L538.81,36.91l1.77,58.36H488.26l-1.55-33.86L536,59.16l-1.13-24.65L433.41,39.16l0-1.16L325.63,33.65l-.12,2.83L220.76,32.25l-2.55,63H168.59l1.63-40.37,49.29,2,1-24.64L112.68,27.89,110,95.27H68.42V32.77H16v799l276,18,103,7,1213.54.11c140.49,0,254.38-113.89,254.38-254.38V95.27h-37.78Zm-214.94.86,44.94,1.82,2.07,45h-48.91ZM1050,53.64l44.94,1.82,1.83,39.81h-48.46ZM598.11,59.79l45.44-1.37,11.83,36.85H599.19Zm-170,2.69,1.51,32.79H381.77l1.4-34.61ZM324.52,61.13l-1.38,34.14H276.85l1.45-36Z"/><path class="cls-2" d="M1807.69,28.57l49.31-1.5-.75-24.66L1748.39,5.69l2.14,70.58H1698.4l-2.11-46.08,49.28-2.26-1.13-24.64L1643,7.94l0-1.16L1535.2,2.42l-3,73.85h-52.46l2-48.24L1531,30l1-24.64L1424.17,1l-3,75.25H1374l-1.41-46.76,49.31-1.5-.75-24.65L1313.24,6.63l2.11,69.64h-65.12l-1.29-42.49,49.31-1.5-.75-24.65L1189.63,10.9l2,65.37h-52.21l-1.87-40.87,49.28-2.26L1185.69,8.5l-101.45,4.65,0-1.16L976.45,7.63l-2.77,68.64H921.22l1.74-43,49.29,2,1-24.64L865.42,6.23l-2.83,70H815.06L813.8,34.72l49.31-1.5-.75-24.65L754.49,11.84l2,64.43H700.91L688.8,38.57l47-15.08L728.24,0,631.18,31.16l-.51-16.52L522.81,17.91l1.77,58.36H472.26l-1.55-33.86L520,40.16l-1.13-24.65L417.41,20.16l0-1.16L309.63,14.65l-.12,2.83L204.76,13.25l-2.55,63H152.59l1.63-40.37,49.29,2,1-24.64L96.68,8.89,94,76.27H52.42V13.77H0V837.85H1592.54c140.49,0,254.38-113.89,254.38-254.38V76.27h-37.78Zm-214.94.86,44.94,1.82,2.07,45h-48.91ZM1034,34.64l44.94,1.82,1.83,39.81h-48.46ZM582.11,40.79l45.44-1.37,11.83,36.85H583.19Zm-170,2.69,1.51,32.79H365.77l1.4-34.61ZM308.52,42.13l-1.38,34.14H260.85l1.45-36Z"/><g class="cls-3"><path class="cls-4" d="M1748,220.45c.85.12,2.19.18,3.26.28C1748.18,220.84,1746.67,220.81,1748,220.45Z"/><path class="cls-4" d="M1791.44,221.83c-11.22,0-29,0-40.16-1.1C1761.23,220.4,1788.05,218.59,1791.44,221.83Z"/><path class="cls-4" d="M1746,215.19l14,1C1751.81,217,1753.31,215.51,1746,215.19Z"/><polygon class="cls-4" points="1751.1 218.22 1750.37 219.41 1742.93 218.25 1751.1 218.22"/><path class="cls-4" d="M1037.68,230.06c1.45.51,2.35,1.07,1.66,1.8Z"/><path class="cls-4" d="M1005.35,224.66c-2.9-.19-4.93-.27-6.66-.32A42.93,42.93,0,0,1,1005.35,224.66Z"/><path class="cls-4" d="M1067,229.56l-5.74.17A43.67,43.67,0,0,1,1067,229.56Z"/><path class="cls-4" d="M1425.76,225c5.34.86,10.4,1.65,14.24,2.18C1429.61,228.11,1428.71,226.15,1425.76,225Z"/><path class="cls-4" d="M856.77,207.31l-1.38.95C853.87,207.83,853.12,207.42,856.77,207.31Z"/><path class="cls-4" d="M997.6,208.73c.14.56-.16,1-.76,1.26-.56-.08-1.14-.13-1.68-.23Z"/><path class="cls-4" d="M1089.8,227.62c.08,0,.22-.06.32-.11l4.67.6C1092.29,228.29,1090.7,228.12,1089.8,227.62Z"/><path class="cls-4" d="M811.4,206a27.24,27.24,0,0,1-5.65-2.09C810.12,204.35,812.16,205.27,811.4,206Z"/><path class="cls-4" d="M997.89,224.34c-.06,0,0,0-.06,0,.24,0,.62,0,.86,0C998.38,224.35,998.18,224.32,997.89,224.34Z"/><path class="cls-4" d="M1044.3,209.78c-2.46-.17-4.77-.28-7.41-.49A23.61,23.61,0,0,1,1044.3,209.78Z"/><path class="cls-4" d="M1425.76,225c-1.51-.24-3-.47-4.52-.73A12.61,12.61,0,0,1,1425.76,225Z"/><path class="cls-4" d="M1710.48,222.6c-4.51,0-5.58-.67-6.43-1.36A31.83,31.83,0,0,1,1710.48,222.6Z"/><path class="cls-4" d="M78.55,226.78l-1.81,0A10.24,10.24,0,0,1,78.55,226.78Z"/><path class="cls-4" d="M251.42,229.33a12.54,12.54,0,0,1,2.29.76C252.23,230.34,251.4,229.9,251.42,229.33Z"/><path class="cls-4" d="M410.66,206.18c-11.28,1.39-23-1.45-32.78-1.6l3.35,1.18-9.9-1,.11,1.7c-16.38-.79-36.71,1-42.71-1.73l1.92,2.71-17.38-2.15,10,1.83c-19.52.57-49.17-1.54-53.33-1.52l1.76,1c-3.2.52-5.72-.15-9-.48l2.57,1.51c-29.41-.41-37.46,3-70.28,1.42-8.95.36,5,.49,5.1,1.34-4.89,1.2-16.39.05-18.87-.62,2.6,2.37,16.44,1.64,5.93,3.55-7.47-1.17,5.09,2.19-8.05,1.72l-5.15-3c-7.3.53-1.46,2.38-13,2.08-13.19-1.32,16.14-3.45-5.1-3.89-10.64.2-22.4,7-43,5.4-17.8,1.58,9.36,4.73-15.26,3.95l15.76,2c-4.07.86-1.5,2.38-12.17,1.74a59,59,0,0,0-15.74-2.84c23.07,2.3-20.22,3.46,1.25,6.44l-8-.11c1,.12,1.25.41.72.64l-10.64.21c6.56.66,22.16.94,14.91,3.18l-15.4.56c4.11,1.68-1.54,2.38-.64,3.73l45.32,3.26c-1.78-1-8.31-1.68-5.88-2.7,12.1-.89,9.88,1.83,21.24.43l-5-1.33c.9.5,2.5.67,0,.84-4,.87-5.72-.15-5.76-1,4-1.71,15.45-.56,18.86.62,14.72-.22,3-3.07,6.27-3.59,7.62,2.86,24.58-.08,33.69,1.25L170.39,231c11.2-2.24,21.23-.4,27.79.25l-2.54-1.51c15.58.28,23.32-4.83,35.19.56l-1.65-1c6.4-.47,16.11-1.61,22.24,0,.14-.63,1.23-1.42,3.82-1.61,3.47,2.08,10.11.5,19.54.13-6.26-.54-4.26-3.23-10.85-3.89,14.54-2.76,13.34,3,25.55,3,7.33-1.38-6.57-1.51-8.32-2.52,18.87,1.47,38.77-6.23,50.67-.84l-8.1,1.72c7.5,1.17,11.57,1.16,10.66.65a5.67,5.67,0,0,1-4.08-.84c22.65-2.78,35.43,4,58.3,2.87-1.7-1-5-1.34-5.11-2.19,10.53-1.05,10.26,5.23,27.26,3.14l-3.34-1.17c5.67-.71,9.87,1,9.1,1.33.45-4.59,36,.22,47.85-5.76,8.33,2.52,32.19,4.48,39.48,3.1,10.46-2.75-9.26-3-5.37-5.58,8.19,0,12.49,2.5,24.69,1.62.21,2.54-24.11,5.16-1.16,6.62l3.22-1.37a48.88,48.88,0,0,1-9,.37c-6.64-1.51,4-1.71,5.51-2.4l24.65.78c1.8,2.71-12.94,2.07-14.47,2.76,19.51-.57,43-4.55,61.12-2.74l-1.72-1c23.12,2.31,13.49-5,31.89-.6,9.72-.71-3.5-2.88,11.17-3.1,4.14,0,1.72,1,1,1.36,18,1,7.94-2.57,24.58-.08l-3.59-2.87c19.83,2,40.61,7,57.74,5.76-1-2.21-11.62-2-15.83-3.69,23.21,4,55.67.5,77.12,2.64-6.41,1.89,10.16,4.38-3.58,6-3.56-2.87-10-1-17.36-1.3,11.9,6.25,49.72-3,53.36,2.38l3.14-2.22c3.3.33,11.65,2,5.89,2.7L840.51,231c-8.31-1.67-25.83-5.52-31.33-3.13-6.74-2.36,9.69-1.56,3.73-4.26,15.84,3.69,9.73-1.56,26.14-.76-7.43,3.21,16.31,4.35,15.57,5.9,5.37-.6,17.3.89,21.91,2,9.49.3,31.25-2.28,46.47-1.17-5.76-1-14.88-2.33-14.21-4.37,7.47,1.16,15.67,1.13,17.08-1.24-26.51-4.34-8.54,5.45-32.53,2.65-5.93-2.7-12.5-3.36-24.86-4.17,5.63-1.54,3.15-2.22,5.46-4.09,15.13,5.72,39.34.55,59.12,3.38,8.34,1.67,2.07,5.25,21,5.88l-16.22,1.74c17.84-1.58,4.19,1.68,18.92,2.32l-5.86-1.86c9-.36,12.32,0,17.32,1.31l-7.63-2.86c4.86-.35,13.85-.72,14,1,1.25-.7,1.69-1.25,1.69-1.74.94.48,3.24.78,8.93.69-3.33-.33-5.74-.15-5.81-1,21.68.68,5.07-3.1,18.51-2.82-2.13-.66,1.69-1.49,6.51-1.84-.33,4.51,26.3,5.1,33.34,7.6l-.08-.07,18.14,1.81c-3.68-.36.29-1.59,5.56-2.07l-.85,0c5.76-.7-6.86-4.9,10.44-3.6l9.08,1.33c-1.62-.16-.06-.85.79-1.19l9.36,1.22c14.32-4.21,27,2.38,43.86.31-4.86.36-12.26,0-9.09-1.33a31.43,31.43,0,0,1,10.73.65l-.85-.51,32.09,2.78c-2.61-1.52-20.56-1.63-12.54-3.35,4.75-2.05,14,.12,19.72.28-.74,1.19-11.36,2.24-.63,2.88,1.32-.58,11.53-1.82,6.71-2.67,11,1.22,27,1.95,36.8,4.06,3.12-.52-1.79-1-3.43-1.17l-.79.34c-6.62-.66-1-3.06-14-1.82-1.09-3.91,18.75-1.08,30.15-1.63l-18.18-2.66c30.63-5.35,72,.45,102.34.52-8.91,1.22-16.36.06-15.29,3.11,18.85,1.47,16.38.8,35.19,1.42l-1.62-.16c9.72-1.57,23,1.45,29.38-1.29-4.2-1.68-13.8,1.58-14-1.82l23.73.26c-7.46-2-23.73-.26-32.77-.74-6.53.19,13.12.47,10,2.69-22.15-.11-27.2-2.3-38.09-5.49-6.64-2.36,9.67-2.4,13.79-2.42,14.09,3.52,34.68,5.15,56.65,3.56l12.06-2.59c10.88,2.34,6.25,6.95,25.89,6.37l-5.86-1.85a54.67,54.67,0,0,1,9.21-1c-8.44-1.39-17.54-3-25.17-4.42,11.17-3.94,32.09,1.94,48.52,2.73-.86-.5-6.6-.66-8.31-1.67,24.51-.93,50.17,3.75,69.09,4.36,8-1.72-15.72-1.13-11.82-3.69,10,1,21.19-1.25,23.86,1.11-4.35-3.38,22.86-.24,3.83-3.41,35.86-1.47,75.35,1.63,111.59,3.56-1.76-1-1.76-1.87-.24-2.55-12.26,0-30.28-.92-37.09-3.28,8.06-1.72,19.07,2.32,21.38,1.29-4.11-.83-12.28-.81-12.43-2.5,10.5-1.91,16.39.79,23.78,1.11l-4,.86c23,2.3,12.72,5.9,37.19,5,8.86-2.06-.09-1.69-.24-4.24,5.77,1,24.34-1.77,30.34.93l-14.81.21c10.37.72,20.17.71,27.35,1.59a5.56,5.56,0,0,0-3.54-1.32c8.24.82,18.81.61,23,2.3l2.32-2.73c-4.92,1.21-19.6,1.43-22.08-.09,1.41-2.39,16.27-.9,22.77-1.09-28.69-.76-29-5-53.33-3.23l4.09.84c-15.11,2.06-30.68-1.34-43.92-1.26,3.73-.55,4.48-1.55,2.73-2-29.29,2.13-58.1.52-91.49,1.82l-10-2.69-.62,2c-16.33.9-3.54-2.87-14.07-2.67,4,0,3.29.33,4.11.84-19-2.32-10.54,1.9-21.17,1.25,5,2.19,20.5.79,15.76,3.69-18.92-2.32-48.33-1-51.11-6-35.11,2-78.65-1.1-108.17-1.52-4,.86,2.51.67,1,1.36-11.67-2.85-39.17,2-39.35-.56a23.75,23.75,0,0,0-9.54,3.26,218.2,218.2,0,0,0-26-2.17l7,.7-.76.35-9.88-1,.37-.16c-23.69-.73-51.07-.11-72.57-2.84,12.38,1.66-3.11,3.07,2.73,4.07-10.92-4-37.11-4.13-58.35-3.72.09.85-1.56,1.53.94,2.2l-12.32-1.66,1.63,1c-22.05.75-46.07-3.75-60.63-1.84,9,.48,9,1.33,10,2.69-15.8-.1-30.71-.15-49.17-1.37,1,.24,1.64.53,1.66.84-4.83.35-10.65-.65-15.59-1.14l-.68,2c-9.44-.94-21.63.11-32.85-1.52-4.4,2.24-27.19-2.07-40.15-1.13-5-.49,10.81,2.34-3.1,2.22-2-4.41-18.05-.11-19.13-4.86L922.3,208l-2.68-2.37c-10.33,4.45-15.73-2-31.1-.58.81.51,2.46.68,1.67,1-5-.5-16.42-.8-7.55-2-8.19,0-36.06-1.07-23.55,1.44-.91-1.36,10.55-.21,15.5.28-.65,2-13,1.24-16,3.45-.4-.22-2-.57-3.19-.91l-1.76,1.26c-15.39-2.24-31-.62-42.23-3.52-.65.63-3.35,1.12-8.64,1l-.22-2.54-16.37,0,7.67,3.71c-18,.74-30.59-3.47-45.34-4.1-3.79,4.26-28.78-1.6-41.55,2.17l11.52,1.15c-24.62-.77-28.54,1.79-51.51.33,19.48-1.42,19.6-.57,48-4.05-28.49,1.78-49.22-2.4-75.3.07,1.74,1,8.29,1.67,1.9,2.71-5.09-2.19-24.57.08-20.71-2.48-8.1.86-9.51,3.25-14.46,3.6l-27.19-3.13.84.5c-46.22,5.92-86.27-4-132.64-1.45l.89,1.36-11.61-2c9.1,1.33-3.94,1.71-4.65,2.9l-29.71-3C401.62,204,403.37,206.71,410.66,206.18Zm391.23,1.14,7,.18a16.44,16.44,0,0,1,4.46.12l-4.46-.12C805.31,207.84,802.65,208.91,801.89,207.32Zm648.41,4.9c3.38,1.18-4.88.36-7.24.53l11.46.31C1456.1,212.37,1452,212.39,1450.3,212.22Zm-648,11.56-3.93,1.71-5-1.34Zm-99.82.14,9.95,1-.83.34-9.85-1ZM591.59,210.18c.63.1,1.21.18,1.92.34a12.89,12.89,0,0,1-1.92-.34c-7.68-1.22-10.74,1.83-17-1.13C582.27,206.51,587.2,209.14,591.59,210.18Zm175.36,0a38.61,38.61,0,0,0,7.4.32c-1.73-1-8.41-2.52-3.52-2.87,3.4,1.17,14.82,1.47,15,3.17C775.88,208.93,768.86,213.7,767,210.14Zm235,1.12-2.5.18,9.16,1.33Zm42.66,1.74c5.07,2.19,18.12,1.8,27.15,2.29,2.34-1.88-6.83-4-17.45-3.85C1041.84,209.78,1049.57,214.34,1044.57,213Zm-354.27.44,2.53,1.52-2.38.18,9.86,1c-13,2.09-22.22-1.79-28.84-2.45C677.26,213.82,693.06,217.51,690.3,213.44Zm445.21.63c9.1,1.33,25.5,3,24,4.5.58-2.88-12.59-4.2-16.69-4.19A37.45,37.45,0,0,1,1135.51,214.07Zm-.48,5.43c-13.19-1.31-14.1-2.67-24.17-5.36,13.06-1.22,16.63,2.5,15.07,4,9.1,1.33,7.34-.54,12.2-.89Zm-13.7-8.1-5.38.39c-6.35,1.2-7.67,4.47-16.59,1.2l16.59-1.2A24.33,24.33,0,0,1,1121.33,211.4Zm110.91.15-5.42-1c5.35.1,6,.54,5.42,1l4.51.84C1225,213.43,1231,212.43,1232.24,211.55Zm-84.59.78-15.58-.29C1133,213.4,1142.69,212.69,1147.65,212.33Zm81.11,1.78c-6.57.19-23.69.59-21.31.41C1209,213,1224.6,213.28,1228.76,214.11Zm343.94,4-9.83-.14,4.75-2.05Zm-115.25,1.55,2.43-1,5.71.15Zm-106.26.15c.51-.44.24-1-.64-1.47a10.24,10.24,0,0,1-3.7-.87,7.92,7.92,0,0,1,3.7.87,53.49,53.49,0,0,0,13.48-.42c-1.71-1-8.27-.81-10.8-1.49,9.72-2.4,31.54,4.83,25.32-2.11,4.11.83,18.19,2.65,13.32,3.86-11.13-.4-32.23.35-40.68,1.63-.49.37-1.41.66-3.33.71A17.24,17.24,0,0,1,1351.19,219.81Zm-143.2,1.5a36.15,36.15,0,0,1-6.56-.61c-3.45-.52-6.08-1.29-5.06-2.24,8.4.83,3,1.62,5.06,2.24A59.22,59.22,0,0,0,1208,221.31Zm-25.32.42,13.14,1.31-6.62-1.51,19.81,2.83C1197.64,225.75,1184.43,223.59,1182.67,221.73Zm-4.63,1.33-2.71-1.65,4.15,1.69-1.44,0,.63.38-22.15-.95Zm-226.26-3.32c-8.3,5.72,19.58,4.06,23.91,6.82.92-1.91,9.32-4.89-12.31-4.82,18.69-1.93,11.71,3.7,22.84-1.09-9,.37-19.74-1.13-21.34-1.29l10.55-.2C969.46,215.61,959.19,220.9,951.78,219.74Zm-113.7.87-13.88-.13,13.14.47Zm-342.76,1.6c1,1.35-16.89,3.79-21.14,1.25C483.18,223.09,493,223.23,495.32,222.21Zm-147.27-.39,15.6,1.14c-3,3.07-13.93-.12-21.25.41C339.86,221.85,345.62,222.85,348.05,221.82Zm-101.49,0-5-.5,5.22,3Zm6.83,4c-3.13,1.37,7.53,2,10,1.84ZM162,228.52l6.51-.19-5.88-2.69Zm10.36-3.16c1.53,1.94.89,4.55,15.86,3.25.63-2-3.45-2,2.11-4.42-4.93-.5-9,.37-11.43.54,3.35.33,7.32-.53,8.24.83a48,48,0,0,1-14.78-.2c-.52-.69-1.35-1.3-3.32-1.61C169.05,224.37,170.32,224.94,172.32,225.36Zm54.26-2.14a20.8,20.8,0,0,0,4.48-.86l.9.51a8.4,8.4,0,0,1-5.38.35c-2.16.27-4.68.5-7.28.72-1.66,1.72,8.59,2.89,11.3,3.85-4.88-.49-9.11-2.17-15.57-1.13.85.5,0,.85,4.11.83l-8.93.37c-10.22-2.39-.46-3.13,9.09-3.92.3-.38,1-.77,2.83-1.21A11.87,11.87,0,0,1,226.58,223.22Zm-71.79-3.84,4.89.49c2.52.68.92,1.36,1.8,1.87C155.74,221.58,148.26,220.42,154.79,219.38Zm293.71-.59c-3.24.52,4.26,2.53,11.56,2l-3.88,2.56c-.19-1.7-14.85-1.48-16.5-1.65C437.09,219.34,442.81,220.34,448.5,218.79Zm341.21-.06c2.67,3.22,21.35,1.28,25.48,2.12C805.48,221.56,783.38,222.31,789.71,218.73Zm32.4-1.31c5.11,0,6.57-.26,6,1.35,2.48.68,6.53-.18,9,.48-9.95,1.43-9.32-1.15-15.06-1.83-1.33,0-2.84,0-4.74-.14A27,27,0,0,1,822.11,217.42Zm-199.44-.2-6.79-2.36-10.62.21ZM508.6,213c.87,1.35-11.32,1.39-13.86.72.78,1.78,8.95,1.55,15.45,1.74a25.85,25.85,0,0,0,4.28.23c-1.27-.12-2.68-.18-4.28-.23-2.43-.42-.74-1.33-.74-2l3.24-.52-9-.49ZM308,211.08c-7.28,1.39-8.15.88-13.05.39C296.52,210.78,303.05,210.59,308,211.08Zm261.06.37c-12.27.88,5.89,2.69-2.15,3.57l6.42-.19c-10.43,1.9-7.44-2-14.78-1.48l4.91-.35c3.88-1.71-7.52-1.17-8.44-2.53C560.75,209.77,573.94,211.09,569.06,211.45Zm-272.59-1.52c-12.14,1.74-10-1.83-17.35-2.15C288.79,206.22,287.38,209.46,296.47,209.93Zm195.29-3.67.77-.34-9.86-1-.78.34Z"/><path class="cls-4" d="M281.39,227.81a41.66,41.66,0,0,1-6.61,0C276.88,227.76,279.07,227.72,281.39,227.81Z"/><path class="cls-4" d="M851.87,229.56c.28-.46,1.33-.7,2.75-.85C854.45,229,853.76,229.25,851.87,229.56Z"/><path class="cls-4" d="M875.63,230.67c.31,0,.63,0,.9,0s.51.11.75.16Z"/><path class="cls-4" d="M1703.31,224.83c5.09,2.19-4.91.36-9,.36C1698.4,225.19,1700,223.65,1703.31,224.83Z"/><path class="cls-4" d="M1671.12,221.2a50.87,50.87,0,0,0,10.1,1.27A36.77,36.77,0,0,1,1671.12,221.2Z"/><path class="cls-4" d="M1697.38,222.13a139.25,139.25,0,0,1-16.16.34C1685.35,222.37,1688.85,221.54,1697.38,222.13Z"/><path class="cls-4" d="M1584.42,221.81c5.06,1.34,14.79.63,14.79.63-21.2,1.26,4.26,2.53,6,3.55C1592.05,225.52,1592,223.82,1584.42,221.81Z"/><path class="cls-4" d="M1556.35,221.12a53.4,53.4,0,0,0,5.87-.26A26.68,26.68,0,0,1,1556.35,221.12Z"/><path class="cls-4" d="M1548.46,222.43c-7.34-.31-9.92-1.84-13.28-3,8.88-1.09,14.55,1.33,21.17,1.7C1551.15,221.15,1546.06,221,1548.46,222.43Z"/><path class="cls-4" d="M1322.34,229.77c1.69.17,5.74.15,5.86,1l-12.29,0C1311,230.31,1319.88,230,1322.34,229.77Z"/><path class="cls-4" d="M1277,225.67c-9.82-.14-4.71,2.05-9.68,1.55l.56-2.88Z"/><path class="cls-4" d="M1282.49,211.05l2.9.29-3.31-.1Z"/><path class="cls-4" d="M1229.78,228.53l6.78,3.21C1228.32,230.92,1228.21,228.37,1229.78,228.53Z"/><polygon class="cls-4" points="1192.35 230.69 1198.11 231.69 1180.08 230.73 1192.35 230.69"/><polygon class="cls-4" points="1147.22 229.14 1145.63 229.82 1133.27 229.01 1147.22 229.14"/><path class="cls-4" d="M656.11,226.45c-1.87-2.71,17.82-1.58,23.55-2.29C675.73,227.57,664,223,656.11,226.45Z"/><path class="cls-4" d="M298.51,226.56l18.81.63C302.74,228.25,313.25,227.19,298.51,226.56Z"/></g><g class="cls-3"><path class="cls-4" d="M1748.53,323.21c.85.12,2.19.18,3.26.29C1748.69,323.6,1747.19,323.57,1748.53,323.21Z"/><path class="cls-4" d="M1792,324.6c-11.21,0-29,0-40.16-1.1C1761.74,323.16,1788.56,321.36,1792,324.6Z"/><path class="cls-4" d="M1746.54,318l14,1C1752.32,319.8,1753.82,318.27,1746.54,318Z"/><polygon class="cls-4" points="1751.61 320.99 1750.88 322.18 1743.44 321.01 1751.61 320.99"/><path class="cls-4" d="M1038.19,332.82c1.45.51,2.35,1.08,1.66,1.8Z"/><path class="cls-4" d="M1005.87,327.42c-2.91-.19-4.94-.27-6.67-.32A44.4,44.4,0,0,1,1005.87,327.42Z"/><path class="cls-4" d="M1067.56,332.32l-5.75.17A43.82,43.82,0,0,1,1067.56,332.32Z"/><path class="cls-4" d="M1426.27,327.77c5.34.86,10.4,1.65,14.25,2.18C1430.12,330.87,1429.22,328.92,1426.27,327.77Z"/><path class="cls-4" d="M857.28,310.07l-1.38,1C854.38,310.6,853.63,310.18,857.28,310.07Z"/><path class="cls-4" d="M998.11,311.5c.14.55-.16,1-.76,1.25-.56-.08-1.14-.13-1.67-.23Z"/><path class="cls-4" d="M1090.31,330.38c.08,0,.22-.06.32-.1l4.67.59C1092.8,331.05,1091.21,330.89,1090.31,330.38Z"/><path class="cls-4" d="M811.91,308.76a27.24,27.24,0,0,1-5.65-2.09C810.63,307.11,812.67,308,811.91,308.76Z"/><path class="cls-4" d="M998.4,327.1c-.06,0,0,0-.06,0,.24,0,.62,0,.86,0C998.9,327.11,998.69,327.09,998.4,327.1Z"/><path class="cls-4" d="M1044.82,312.54c-2.47-.17-4.78-.28-7.42-.49A23.71,23.71,0,0,1,1044.82,312.54Z"/><path class="cls-4" d="M1426.27,327.77c-1.51-.23-3-.47-4.52-.72A12.43,12.43,0,0,1,1426.27,327.77Z"/><path class="cls-4" d="M1711,325.36c-4.52,0-5.58-.66-6.44-1.35A31.46,31.46,0,0,1,1711,325.36Z"/><path class="cls-4" d="M79.06,329.54l-1.8,0A9.41,9.41,0,0,1,79.06,329.54Z"/><path class="cls-4" d="M251.93,332.09a12.29,12.29,0,0,1,2.29.76C252.75,333.1,251.91,332.66,251.93,332.09Z"/><path class="cls-4" d="M411.17,308.94c-11.28,1.39-22.95-1.45-32.78-1.6l3.35,1.19-9.9-1,.11,1.69c-16.38-.79-36.71,1-42.71-1.73l1.92,2.71-17.38-2.15,10,1.84c-19.51.56-49.16-1.55-53.33-1.53l1.76,1c-3.2.52-5.72-.15-9.05-.48l2.57,1.52c-29.41-.42-37.45,3-70.28,1.41-9,.36,4.95.49,5.1,1.34-4.89,1.2-16.39.05-18.87-.62,2.6,2.37,16.44,1.65,5.93,3.55-7.47-1.17,5.09,2.19-8.05,1.72l-5.14-3c-7.31.53-1.46,2.38-13,2.08-13.19-1.32,16.15-3.44-5.1-3.89-10.64.2-22.4,7-43,5.4-17.8,1.58,9.37,4.73-15.26,3.95l15.76,2c-4.07.86-1.5,2.38-12.17,1.74a58.88,58.88,0,0,0-15.74-2.84c23.07,2.3-20.22,3.46,1.25,6.44l-8-.11c1,.12,1.25.41.72.64l-10.64.21c6.56.66,22.16.94,14.92,3.18l-15.41.56c4.11,1.68-1.54,2.38-.64,3.74l45.32,3.25c-1.78-1-8.31-1.67-5.88-2.7,12.1-.89,9.88,1.83,21.24.43l-5-1.33c.91.51,2.5.67,0,.84-4,.87-5.72-.15-5.76-1,4-1.71,15.45-.56,18.86.62,14.72-.22,3-3.07,6.27-3.59,7.62,2.86,24.58-.08,33.7,1.25l-5.86-1.85c11.2-2.24,21.23-.4,27.79.26l-2.54-1.52c15.59.28,23.32-4.83,35.19.56l-1.64-1c6.39-.47,16.1-1.61,22.23,0,.14-.63,1.23-1.42,3.82-1.61,3.47,2.08,10.12.51,19.54.13-6.25-.54-4.26-3.23-10.85-3.89,14.55-2.76,13.34,3,25.55,3,7.33-1.38-6.56-1.51-8.32-2.52,18.87,1.47,38.77-6.23,50.67-.84l-8.1,1.72c7.5,1.17,11.57,1.16,10.66.65a5.73,5.73,0,0,1-4.08-.83c22.65-2.79,35.43,4,58.3,2.87-1.7-1-5-1.34-5.11-2.19,10.53-1.06,10.26,5.22,27.26,3.13l-3.33-1.17c5.66-.7,9.86,1,9.09,1.33.45-4.59,36,.22,47.85-5.75,8.34,2.51,32.2,4.47,39.48,3.09,10.46-2.75-9.25-3-5.37-5.58,8.19,0,12.49,2.5,24.69,1.62.21,2.54-24.11,5.17-1.15,6.62l3.21-1.37a48.84,48.84,0,0,1-9,.37c-6.63-1.51,4-1.71,5.51-2.39l24.65.77c1.8,2.71-12.94,2.07-14.46,2.76,19.5-.57,43-4.55,61.11-2.74l-1.72-1c23.12,2.31,13.49-5,31.89-.6,9.72-.71-3.5-2.88,11.17-3.09,4.15,0,1.72,1,1,1.35,18,1,7.93-2.57,24.57-.08l-3.59-2.87c19.83,2,40.61,7,57.75,5.76-1-2.21-11.63-2-15.84-3.68,23.21,4,55.67.5,77.12,2.63-6.41,1.89,10.16,4.38-3.58,5.95-3.56-2.87-10-1-17.36-1.3,11.9,6.25,49.73-3,53.36,2.38l3.15-2.22c3.29.33,11.64,2,5.88,2.7L841,333.72c-8.31-1.67-25.83-5.52-31.33-3.13-6.73-2.35,9.69-1.56,3.73-4.26,15.84,3.69,9.73-1.56,26.14-.76-7.43,3.21,16.32,4.35,15.58,5.9,5.36-.6,17.29.89,21.91,2,9.48.3,31.24-2.28,46.46-1.17-5.76-1-14.88-2.33-14.2-4.37,7.46,1.16,15.66,1.14,17.07-1.24-26.5-4.34-8.54,5.45-32.53,2.65-5.93-2.7-12.5-3.36-24.86-4.16,5.63-1.55,3.15-2.22,5.46-4.1,15.13,5.72,39.34.55,59.13,3.38,8.33,1.67,2.06,5.26,20.94,5.88l-16.22,1.74c17.84-1.58,4.19,1.68,18.92,2.32l-5.86-1.85c9-.37,12.32,0,17.32,1.31L961.05,331c4.86-.35,13.85-.72,14,1,1.25-.69,1.69-1.25,1.69-1.74.94.48,3.24.78,8.93.69-3.33-.33-5.74-.15-5.81-1,21.69.67,5.07-3.11,18.51-2.83-2.13-.66,1.69-1.49,6.51-1.84-.33,4.51,26.3,5.1,33.34,7.6l-.08-.07,18.14,1.82c-3.68-.37.29-1.6,5.56-2.08l-.85,0c5.76-.7-6.86-4.9,10.44-3.59l9.09,1.33c-1.63-.17-.07-.85.78-1.2l9.36,1.23c14.32-4.22,27,2.37,43.86.3-4.86.36-12.26,0-9.09-1.33a31.67,31.67,0,0,1,10.73.65l-.85-.51,32.09,2.78c-2.6-1.51-20.56-1.63-12.53-3.35,4.74-2.05,14,.12,19.71.28-.74,1.19-11.36,2.24-.62,2.88,1.31-.58,11.52-1.81,6.7-2.67,11,1.22,27,1.95,36.8,4.06,3.12-.52-1.79-1-3.42-1.17l-.79.34c-6.63-.66-1-3.06-14-1.82-1.09-3.91,18.75-1.08,30.15-1.63l-18.18-2.65c30.63-5.36,72,.44,102.34.51-8.91,1.22-16.36.06-15.29,3.11,18.85,1.47,16.38.8,35.19,1.42l-1.62-.16c9.72-1.57,23,1.45,29.38-1.29-4.2-1.68-13.8,1.58-14-1.82l23.73.26c-7.46-2-23.73-.26-32.77-.74-6.53.19,13.12.47,10,2.69-22.15-.11-27.2-2.3-38.09-5.49-6.64-2.36,9.67-2.4,13.79-2.42,14.09,3.52,34.69,5.15,56.65,3.56l12.07-2.58c10.87,2.34,6.25,6.94,25.89,6.36l-5.87-1.85a53.35,53.35,0,0,1,9.21-.95c-8.44-1.4-17.54-3-25.17-4.43,11.17-3.94,32.09,1.94,48.52,2.73-.86-.5-6.6-.65-8.31-1.66,24.51-.94,50.17,3.74,69.09,4.36,8-1.72-15.72-1.14-11.82-3.7,10,1,21.19-1.25,23.86,1.11-4.35-3.37,22.86-.24,3.83-3.4,35.87-1.48,75.35,1.63,111.59,3.55-1.76-1-1.76-1.86-.23-2.55-12.27,0-30.29-.92-37.1-3.27,8.06-1.73,19.07,2.31,21.38,1.29-4.11-.84-12.28-.81-12.43-2.51,10.5-1.9,16.39.79,23.78,1.11l-4,.86c23,2.3,12.72,5.9,37.19,5,8.86-2.06-.09-1.69-.24-4.24,5.77,1,24.35-1.77,30.34.93l-14.81.21c10.37.72,20.17.71,27.35,1.6a5.61,5.61,0,0,0-3.54-1.33c8.24.82,18.81.61,23,2.3l2.32-2.73c-4.91,1.21-19.6,1.43-22.08-.09,1.41-2.39,16.27-.9,22.77-1.09-28.69-.76-29-5-53.33-3.23l4.09.84c-15.11,2.06-30.68-1.34-43.92-1.26,3.73-.55,4.48-1.55,2.73-2-29.29,2.12-58.1.52-91.49,1.81l-10.05-2.69-.62,2c-16.33.9-3.54-2.88-14.06-2.68,4,0,3.28.33,4.1.84-19-2.32-10.54,1.9-21.17,1.26,5.05,2.18,20.5.78,15.76,3.68-18.92-2.32-48.33-1-51.11-5.95-35.11,2-78.65-1.11-108.17-1.53-4,.86,2.51.68,1,1.36-11.67-2.85-39.17,2-39.35-.55a24,24,0,0,0-9.54,3.25,218.2,218.2,0,0,0-26-2.17l7,.7-.76.35-9.88-1,.37-.16c-23.69-.73-51.07-.11-72.57-2.84,12.38,1.66-3.11,3.07,2.74,4.07-10.93-4-37.12-4.13-58.36-3.72.09.85-1.55,1.53.94,2.2L1143,312.05l1.63,1c-22.05.74-46.07-3.76-60.63-1.85,9,.48,9.06,1.33,10,2.69-15.8-.1-30.7-.15-49.16-1.37,1,.25,1.63.53,1.66.84-4.84.35-10.65-.65-15.6-1.14l-.67,2c-9.44-.94-21.64.11-32.86-1.52-4.4,2.24-27.19-2.07-40.15-1.13-5-.49,10.81,2.34-3.1,2.22-2-4.41-18.05-.11-19.13-4.86l-12.16,1.73-2.68-2.37c-10.33,4.45-15.73-2-31.1-.58.81.51,2.46.68,1.67,1-5-.49-16.42-.8-7.55-2-8.19,0-36.06-1.08-23.55,1.43-.91-1.36,10.55-.21,15.5.29-.65,2-13,1.23-16,3.45a30.94,30.94,0,0,0-3.19-.91l-1.76,1.26c-15.39-2.25-31-.63-42.23-3.53-.65.63-3.35,1.12-8.64,1l-.22-2.55-16.36.05,7.66,3.71c-18,.74-30.59-3.47-45.34-4.1-3.79,4.26-28.78-1.6-41.55,2.17L719,310.17c-24.62-.77-28.54,1.79-51.51.34,19.48-1.43,19.6-.57,48-4.06-28.49,1.79-49.22-2.39-75.3.07,1.74,1,8.29,1.67,1.9,2.71-5.09-2.19-24.57.08-20.71-2.48-8.1.87-9.51,3.25-14.46,3.6l-27.19-3.13.84.5c-46.22,5.92-86.27-4-132.64-1.44l.89,1.35-11.61-2c9.1,1.33-3.94,1.71-4.65,2.9l-29.71-3C402.13,306.76,403.88,309.47,411.17,308.94Zm391.23,1.14,7,.18a16.94,16.94,0,0,1,4.47.12l-4.47-.12C805.82,310.6,803.16,311.67,802.4,310.08Zm648.41,4.9c3.38,1.18-4.88.36-7.24.53l11.46.31C1456.61,315.13,1452.48,315.15,1450.81,315Zm-648,11.56-3.93,1.71-5-1.34Zm-99.82.15,10,1-.83.35-9.85-1ZM592.1,313c.63.1,1.21.17,1.92.33a14.56,14.56,0,0,1-1.92-.33c-7.68-1.23-10.74,1.82-17-1.14C582.78,309.27,587.71,311.9,592.1,313Zm175.36-.05a37.81,37.81,0,0,0,7.4.32c-1.73-1-8.41-2.52-3.52-2.87,3.41,1.18,14.82,1.47,15,3.17C776.39,311.69,769.37,316.46,767.46,312.9Zm235,1.13-2.5.17,9.16,1.33Zm42.66,1.73c5.08,2.19,18.13,1.81,27.15,2.29,2.34-1.88-6.83-4.05-17.45-3.85C1042.35,312.54,1050.09,317.1,1045.08,315.76Zm-354.27.44,2.53,1.52-2.38.18,9.86,1c-13,2.09-22.22-1.79-28.84-2.45C677.77,316.58,693.57,320.27,690.81,316.2Zm445.22.63c9.09,1.33,25.49,3,24,4.51.58-2.89-12.59-4.21-16.69-4.2A37.32,37.32,0,0,1,1136,316.83Zm-.49,5.43c-13.19-1.31-14.1-2.66-24.17-5.36,13.06-1.22,16.63,2.5,15.07,4,9.1,1.33,7.34-.53,12.2-.89Zm-13.7-8.1-5.38.39c-6.35,1.2-7.67,4.48-16.58,1.2l16.58-1.2A24.33,24.33,0,0,1,1121.84,314.16Zm110.91.15-5.42-1c5.35.09,6,.53,5.42,1l4.51.84C1225.5,316.19,1231.55,315.19,1232.75,314.31Zm-84.59.78-15.58-.29C1133.47,316.16,1143.2,315.45,1148.16,315.09Zm81.11,1.78c-6.56.19-23.69.59-21.31.41C1209.51,315.75,1225.11,316,1229.27,316.87Zm343.94,4-9.82-.15,4.74-2.05ZM1458,322.42l2.43-1,5.71.15Zm-106.25.15c.51-.44.23-1-.65-1.47a10.24,10.24,0,0,1-3.7-.87,7.92,7.92,0,0,1,3.7.87,54.07,54.07,0,0,0,13.49-.41c-1.71-1-8.27-.82-10.81-1.5,9.72-2.4,31.54,4.83,25.32-2.11,4.11.83,18.19,2.66,13.32,3.86-11.13-.4-32.23.35-40.67,1.63a6,6,0,0,1-3.34.72A16.31,16.31,0,0,1,1351.71,322.57Zm-143.21,1.5a36.15,36.15,0,0,1-6.56-.61c-3.45-.51-6.08-1.29-5.06-2.24,8.4.84,3,1.62,5.06,2.24A57.11,57.11,0,0,0,1208.5,324.07Zm-25.32.42,13.14,1.31-6.62-1.5,19.81,2.82C1198.15,328.51,1184.94,326.35,1183.18,324.49Zm-4.62,1.33-2.71-1.65,4.14,1.69-1.43,0,.62.38-22.15-.95ZM952.29,322.5c-8.3,5.72,19.58,4.06,23.91,6.82.92-1.91,9.32-4.89-12.31-4.82,18.69-1.93,11.71,3.7,22.84-1.09-9,.37-19.74-1.12-21.33-1.29l10.54-.2C970,318.37,959.7,323.66,952.29,322.5Zm-113.7.87-13.88-.13,13.14.47ZM495.83,325c1,1.35-16.89,3.79-21.14,1.25C483.69,325.85,493.53,326,495.83,325Zm-147.27-.38,15.6,1.13c-3,3.07-13.93-.12-21.25.41C340.37,324.61,346.13,325.61,348.56,324.59Zm-101.49,0-5-.5,5.22,3Zm6.83,4.05c-3.13,1.36,7.53,2,10,1.83Zm-91.42,2.66,6.5-.19-5.88-2.69Zm10.36-3.16c1.53,1.94.88,4.55,15.86,3.25.62-2-3.46-2,2.1-4.42-4.93-.49-9,.37-11.43.54,3.35.34,7.32-.53,8.24.83a47.63,47.63,0,0,1-14.77-.2c-.53-.69-1.36-1.3-3.33-1.61C169.56,327.13,170.83,327.7,172.84,328.12ZM227.1,326a20.2,20.2,0,0,0,4.47-.86l.9.52a8.36,8.36,0,0,1-5.37.34c-2.17.27-4.69.5-7.29.72-1.66,1.72,8.59,2.89,11.3,3.85-4.88-.49-9.11-2.17-15.57-1.13.85.5,0,.85,4.11.83l-8.93.37c-10.22-2.39-.46-3.13,9.09-3.92.3-.38,1-.77,2.83-1.21A12.14,12.14,0,0,1,227.1,326Zm-71.8-3.84,4.9.5c2.51.67.91,1.35,1.79,1.86C156.25,324.34,148.77,323.18,155.3,322.14ZM449,321.55c-3.24.52,4.26,2.53,11.57,2l-3.89,2.56c-.18-1.7-14.85-1.48-16.49-1.65C437.6,322.1,443.32,323.1,449,321.55Zm341.21-.06c2.67,3.22,21.35,1.28,25.48,2.13C806,324.32,783.89,325.07,790.22,321.49Zm32.4-1.31c5.12,0,6.57-.26,6,1.36,2.48.67,6.53-.19,9,.48-10,1.42-9.33-1.16-15.07-1.84-1.33,0-2.84,0-4.74-.14A28,28,0,0,1,822.62,320.18ZM623.18,320l-6.79-2.36-10.61.21Zm-114.07-4.22c.87,1.35-11.32,1.39-13.86.72.78,1.78,8.95,1.55,15.45,1.74a26.76,26.76,0,0,0,4.29.24c-1.28-.13-2.69-.19-4.29-.24-2.43-.41-.74-1.33-.74-2l3.24-.52-9-.49Zm-200.6-1.92c-7.28,1.39-8.15.88-13.05.39C297,313.54,303.56,313.35,308.51,313.84Zm261.06.37c-12.27.89,5.9,2.69-2.15,3.57l6.42-.19c-10.43,1.9-7.44-2-14.78-1.48l4.91-.35c3.88-1.71-7.52-1.17-8.44-2.52C561.26,312.54,574.45,313.85,569.57,314.21ZM297,312.7c-12.15,1.73-10-1.84-17.36-2.15C289.3,309,287.89,312.22,297,312.7ZM492.27,309l.77-.34-9.85-1-.79.35Z"/><path class="cls-4" d="M281.9,330.57a40.48,40.48,0,0,1-6.61,0C277.39,330.53,279.58,330.48,281.9,330.57Z"/><path class="cls-4" d="M852.38,332.32c.28-.46,1.34-.7,2.76-.85C855,331.74,854.27,332,852.38,332.32Z"/><path class="cls-4" d="M876.14,333.43c.31,0,.63,0,.91,0s.5.11.74.16Z"/><path class="cls-4" d="M1703.82,327.59c5.09,2.19-4.91.36-9,.37C1698.91,328,1700.49,326.41,1703.82,327.59Z"/><path class="cls-4" d="M1671.63,324a50.87,50.87,0,0,0,10.1,1.27A36.39,36.39,0,0,1,1671.63,324Z"/><path class="cls-4" d="M1697.9,324.9a139.16,139.16,0,0,1-16.17.33C1685.86,325.13,1689.36,324.3,1697.9,324.9Z"/><path class="cls-4" d="M1584.93,324.57c5.06,1.34,14.79.63,14.79.63-21.2,1.26,4.26,2.54,6,3.55C1592.56,328.28,1592.47,326.59,1584.93,324.57Z"/><path class="cls-4" d="M1556.86,323.89a56,56,0,0,0,5.88-.27A26.82,26.82,0,0,1,1556.86,323.89Z"/><path class="cls-4" d="M1549,325.19c-7.34-.31-9.92-1.83-13.28-3,8.88-1.09,14.56,1.33,21.17,1.71C1551.66,323.92,1546.57,323.75,1549,325.19Z"/><path class="cls-4" d="M1322.85,332.53c1.69.17,5.75.15,5.86,1l-12.29,0C1311.49,333.07,1320.4,332.71,1322.85,332.53Z"/><path class="cls-4" d="M1277.55,328.43c-9.82-.14-4.71,2.05-9.68,1.56l.56-2.89Z"/><path class="cls-4" d="M1283,313.81l2.89.29-3.31-.1Z"/><path class="cls-4" d="M1230.29,331.3l6.79,3.2C1228.84,333.68,1228.72,331.13,1230.29,331.3Z"/><polygon class="cls-4" points="1192.86 333.46 1198.62 334.45 1180.59 333.49 1192.86 333.46"/><polygon class="cls-4" points="1147.73 331.9 1146.14 332.58 1133.78 331.77 1147.73 331.9"/><path class="cls-4" d="M656.62,329.21c-1.87-2.71,17.82-1.58,23.55-2.29C676.24,330.34,664.46,325.79,656.62,329.21Z"/><path class="cls-4" d="M299,329.33l18.81.62C303.26,331,313.76,330,299,329.33Z"/></g><g class="cls-3"><path class="cls-4" d="M1749,426c.85.13,2.19.19,3.26.29C1749.2,426.36,1747.7,426.33,1749,426Z"/><path class="cls-4" d="M1792.47,427.36c-11.22,0-29,0-40.17-1.1C1762.25,425.92,1789.07,424.12,1792.47,427.36Z"/><path class="cls-4" d="M1747.05,420.71l14,1C1752.83,422.56,1754.34,421,1747.05,420.71Z"/><polygon class="cls-4" points="1752.13 423.75 1751.4 424.94 1743.95 423.78 1752.13 423.75"/><path class="cls-4" d="M1038.7,435.58c1.45.52,2.35,1.08,1.66,1.8Z"/><path class="cls-4" d="M1006.38,430.18c-2.91-.19-4.93-.27-6.67-.32A44.4,44.4,0,0,1,1006.38,430.18Z"/><path class="cls-4" d="M1068.07,435.08l-5.74.17A43.62,43.62,0,0,1,1068.07,435.08Z"/><path class="cls-4" d="M1426.78,430.54c5.34.86,10.4,1.64,14.25,2.17C1430.63,433.63,1429.73,431.68,1426.78,430.54Z"/><path class="cls-4" d="M857.79,412.83l-1.38,1C854.89,413.36,854.14,412.94,857.79,412.83Z"/><path class="cls-4" d="M998.62,414.26c.14.55-.16,1-.76,1.26-.56-.09-1.14-.14-1.67-.23Z"/><path class="cls-4" d="M1090.83,433.14c.07,0,.21-.06.31-.1l4.67.59C1093.31,433.82,1091.72,433.65,1090.83,433.14Z"/><path class="cls-4" d="M812.42,411.52a27.24,27.24,0,0,1-5.65-2.09C811.14,409.87,813.19,410.8,812.42,411.52Z"/><path class="cls-4" d="M998.91,429.86c-.06,0,0,0-.06,0,.24,0,.63,0,.86,0Z"/><path class="cls-4" d="M1045.33,415.3c-2.47-.16-4.78-.28-7.42-.49A23.68,23.68,0,0,1,1045.33,415.3Z"/><path class="cls-4" d="M1426.78,430.54l-4.52-.73A12.14,12.14,0,0,1,1426.78,430.54Z"/><path class="cls-4" d="M1711.51,428.12c-4.52,0-5.58-.66-6.44-1.35A32.15,32.15,0,0,1,1711.51,428.12Z"/><path class="cls-4" d="M79.57,432.3l-1.8,0A9.41,9.41,0,0,1,79.57,432.3Z"/><path class="cls-4" d="M252.44,434.85a12.27,12.27,0,0,1,2.29.77C253.26,435.86,252.42,435.42,252.44,434.85Z"/><path class="cls-4" d="M411.68,411.7c-11.28,1.39-22.95-1.45-32.78-1.59l3.36,1.18-9.91-1,.11,1.69c-16.37-.79-36.71,1-42.71-1.73l1.92,2.71-17.37-2.15,9.95,1.84c-19.52.57-49.17-1.55-53.34-1.53l1.76,1c-3.2.52-5.71-.15-9.05-.48l2.57,1.52c-29.41-.41-37.45,3-70.28,1.41-8.95.36,5,.49,5.1,1.34-4.89,1.2-16.39.06-18.87-.62,2.6,2.37,16.44,1.65,5.93,3.55-7.47-1.17,5.09,2.19-8,1.72l-5.15-3c-7.31.52-1.46,2.37-13,2.07-13.19-1.32,16.15-3.44-5.09-3.88-10.65.19-22.4,7-43,5.39-17.8,1.59,9.37,4.73-15.26,3.95l15.76,2c-4.07.86-1.5,2.38-12.17,1.74A58.88,58.88,0,0,0,86.33,426c23.07,2.3-20.23,3.46,1.25,6.45l-8-.12c1,.12,1.25.41.72.64l-10.64.21c6.56.67,22.16,1,14.92,3.18l-15.41.56c4.11,1.68-1.53,2.38-.64,3.74l45.32,3.25c-1.78-1-8.31-1.67-5.88-2.7,12.1-.88,9.88,1.83,21.24.44l-5-1.34c.91.51,2.5.67,0,.84-4,.87-5.72-.14-5.76-1,4-1.71,15.45-.56,18.86.62,14.72-.22,3-3.07,6.28-3.59,7.61,2.86,24.57-.07,33.69,1.25l-5.86-1.85c11.2-2.24,21.23-.4,27.79.26l-2.54-1.52c15.59.29,23.32-4.83,35.19.56l-1.64-1c6.39-.47,16.1-1.6,22.23,0,.15-.63,1.23-1.42,3.82-1.61,3.47,2.09,10.12.51,19.54.13-6.25-.54-4.25-3.23-10.85-3.89,14.55-2.76,13.34,3,25.56,3,7.32-1.38-6.57-1.5-8.33-2.52,18.87,1.47,38.77-6.23,50.67-.83l-8.1,1.72c7.5,1.16,11.57,1.15,10.66.64a5.75,5.75,0,0,1-4.08-.83c22.65-2.79,35.43,4,58.3,2.87-1.7-1-5-1.34-5.11-2.19,10.53-1.05,10.26,5.23,27.26,3.13l-3.33-1.17c5.66-.7,9.86,1,9.09,1.33.45-4.58,36,.22,47.85-5.75,8.34,2.51,32.2,4.48,39.49,3.09,10.45-2.74-9.26-3-5.38-5.58,8.19,0,12.49,2.51,24.69,1.62.21,2.54-24.11,5.17-1.15,6.62l3.21-1.37a47.9,47.9,0,0,1-9,.37c-6.64-1.5,4-1.71,5.5-2.39l24.65.77c1.8,2.71-12.94,2.08-14.46,2.76,19.5-.57,43-4.55,61.11-2.74l-1.72-1c23.12,2.3,13.5-5,31.89-.61,9.72-.71-3.5-2.88,11.17-3.09,4.15,0,1.72,1,1,1.35,18,1,7.93-2.57,24.57-.08l-3.59-2.87c19.83,2,40.61,7,57.75,5.76-1-2.21-11.63-2-15.84-3.68,23.21,4,55.67.5,77.12,2.64-6.41,1.88,10.16,4.38-3.58,5.94-3.55-2.87-10-1-17.35-1.3,11.89,6.25,49.72-3,53.36,2.38l3.14-2.22c3.29.33,11.64,2,5.88,2.7l23.67-1.43c-8.31-1.67-25.83-5.52-31.33-3.13-6.73-2.35,9.69-1.56,3.73-4.25,15.84,3.68,9.74-1.56,26.14-.76-7.42,3.2,16.32,4.34,15.58,5.89,5.36-.6,17.29.89,21.91,2,9.48.3,31.24-2.29,46.46-1.18-5.76-1-14.87-2.33-14.2-4.36,7.46,1.16,15.66,1.13,17.07-1.25-26.5-4.33-8.54,5.46-32.53,2.65-5.93-2.7-12.5-3.36-24.86-4.16,5.63-1.55,3.15-2.22,5.47-4.1,15.12,5.72,39.33.56,59.12,3.38,8.33,1.67,2.06,5.26,20.94,5.88l-16.22,1.74c17.84-1.58,4.19,1.69,18.93,2.32l-5.86-1.85c9-.36,12.31,0,17.31,1.31l-7.63-2.87c4.86-.35,13.85-.72,14,1,1.25-.7,1.69-1.26,1.69-1.75.94.48,3.24.79,8.93.69-3.33-.33-5.74-.14-5.81-1,21.69.67,5.07-3.1,18.51-2.83-2.13-.66,1.69-1.49,6.51-1.84-.32,4.51,26.3,5.1,33.34,7.6l-.08-.06,18.14,1.81c-3.68-.37.29-1.6,5.57-2.08l-.86,0c5.76-.7-6.86-4.89,10.44-3.59L1081,433c-1.63-.16-.07-.85.79-1.2l9.35,1.23c14.32-4.21,27,2.37,43.86.3-4.86.36-12.26,0-9.08-1.33a31.63,31.63,0,0,1,10.72.65l-.85-.5,32.09,2.78c-2.6-1.52-20.56-1.64-12.53-3.36,4.74-2.05,14,.13,19.71.28-.74,1.19-11.36,2.25-.62,2.88,1.31-.58,11.52-1.81,6.7-2.67,11,1.22,27,1.95,36.8,4.07,3.12-.52-1.79-1-3.42-1.18l-.79.34c-6.63-.66-1-3.05-14-1.82-1.09-3.91,18.75-1.08,30.16-1.63l-18.19-2.65c30.63-5.36,72,.44,102.34.52-8.91,1.21-16.36.06-15.29,3.1,18.85,1.47,16.38.8,35.19,1.42l-1.62-.16c9.73-1.56,23,1.45,29.38-1.29-4.2-1.68-13.8,1.58-14-1.82l23.72.27c-7.45-2-23.72-.27-32.77-.75-6.52.19,13.12.47,10,2.69-22.14-.11-27.19-2.29-38.09-5.48-6.64-2.36,9.68-2.41,13.79-2.43,14.1,3.52,34.69,5.15,56.66,3.56l12.06-2.58c10.87,2.34,6.25,6.94,25.89,6.36l-5.87-1.85a54.39,54.39,0,0,1,9.21-.95c-8.44-1.4-17.54-3-25.17-4.43,11.17-3.93,32.09,1.94,48.52,2.73-.85-.5-6.6-.65-8.31-1.66,24.51-.93,50.17,3.74,69.1,4.36,8-1.72-15.72-1.14-11.83-3.7,10,1,21.19-1.25,23.86,1.12-4.35-3.38,22.86-.25,3.83-3.41,35.87-1.48,75.35,1.63,111.59,3.55-1.76-1-1.76-1.86-.23-2.55-12.27,0-30.29-.92-37.1-3.27,8.06-1.73,19.07,2.31,21.38,1.29-4.11-.84-12.28-.81-12.42-2.51,10.5-1.9,16.38.79,23.77,1.11l-4,.86c23,2.31,12.72,5.9,37.19,5,8.86-2.06-.09-1.69-.24-4.24,5.77,1,24.35-1.77,30.34.93l-14.81.22c10.37.71,20.17.7,27.35,1.59a5.61,5.61,0,0,0-3.54-1.33c8.24.82,18.81.61,23,2.31l2.32-2.73c-4.91,1.2-19.6,1.42-22.08-.1,1.41-2.38,16.27-.9,22.78-1.09-28.7-.76-29-5-53.34-3.23l4.09.84c-15.11,2.06-30.68-1.34-43.92-1.25,3.73-.56,4.48-1.56,2.73-2-29.29,2.12-58.1.52-91.49,1.81l-10.05-2.69-.62,2.05c-16.33.9-3.53-2.88-14.06-2.68,4,0,3.28.33,4.1.84-19-2.32-10.54,1.9-21.17,1.26,5.05,2.18,20.51.78,15.76,3.68-18.92-2.32-48.33-1-51.1-5.95-35.12,2-78.66-1.1-108.18-1.53-4,.86,2.51.68,1,1.36-11.68-2.84-39.17,2-39.36-.55a24,24,0,0,0-9.54,3.25,218.2,218.2,0,0,0-26-2.17l7,.71-.76.34-9.88-1,.37-.16c-23.69-.73-51.07-.11-72.57-2.84,12.38,1.66-3.11,3.07,2.74,4.07-10.93-4-37.12-4.13-58.36-3.72.09.85-1.55,1.53.94,2.21l-12.32-1.67,1.64,1c-22.06.75-46.08-3.76-60.64-1.85,9,.48,9.06,1.33,10,2.69-15.8-.1-30.7-.15-49.16-1.37,1,.25,1.63.53,1.66.84-4.84.35-10.65-.65-15.6-1.14l-.67,2c-9.44-.94-21.64.1-32.86-1.52-4.4,2.23-27.19-2.08-40.15-1.13-5-.5,10.81,2.33-3.1,2.21-2-4.41-18-.11-19.13-4.86l-12.16,1.74-2.68-2.38c-10.33,4.45-15.73-2-31.1-.58.81.52,2.46.68,1.67,1-5-.49-16.42-.8-7.54-2-8.2,0-36.07-1.08-23.56,1.43-.91-1.36,10.55-.2,15.51.29-.65,2-13,1.23-16,3.45a30.94,30.94,0,0,0-3.19-.91l-1.76,1.26c-15.39-2.25-31-.63-42.23-3.53-.65.63-3.34,1.12-8.63,1l-.23-2.55L787.2,410l7.66,3.71c-18,.74-30.59-3.47-45.34-4.1-3.79,4.26-28.78-1.6-41.55,2.17l11.52,1.15c-24.62-.77-28.54,1.79-51.51.34,19.49-1.42,19.6-.57,48-4-28.48,1.78-49.22-2.4-75.3.06,1.74,1,8.29,1.67,1.91,2.71-5.1-2.19-24.58.08-20.72-2.48-8.1.87-9.51,3.26-14.46,3.61L580.19,410l.84.51c-46.21,5.91-86.27-4-132.64-1.45l.9,1.36-11.61-2c9.09,1.33-3.94,1.71-4.66,2.9l-29.71-3C402.65,409.52,404.4,412.23,411.68,411.7Zm391.23,1.14,7,.19a16.92,16.92,0,0,1,4.47.11l-4.47-.11C806.33,413.36,803.67,414.43,802.91,412.84Zm648.41,4.9c3.38,1.18-4.88.36-7.24.53l11.46.31C1457.13,417.9,1453,417.91,1451.32,417.74Zm-648,11.56L799.39,431l-5-1.34Zm-99.82.15,10,1-.83.35-9.84-1ZM592.61,415.71c.63.1,1.21.17,1.93.34a16.26,16.26,0,0,1-1.93-.34c-7.68-1.23-10.74,1.83-17-1.14C583.3,412,588.22,414.66,592.61,415.71Zm175.36,0a38.5,38.5,0,0,0,7.4.31c-1.73-1-8.41-2.51-3.52-2.87,3.41,1.18,14.82,1.48,15,3.17C776.9,414.45,769.88,419.22,768,415.67Zm235,1.12-2.5.18,9.16,1.32Zm42.66,1.73c5.08,2.19,18.13,1.81,27.15,2.29,2.34-1.88-6.83-4.05-17.45-3.85C1042.86,415.3,1050.6,419.86,1045.59,418.52ZM691.32,419l2.53,1.52-2.38.18,9.86,1c-13,2.09-22.22-1.79-28.84-2.45C678.28,419.35,694.08,423,691.32,419Zm445.22.63c9.09,1.33,25.49,3,24,4.51.58-2.89-12.59-4.21-16.69-4.19A38.25,38.25,0,0,1,1136.54,419.59Zm-.49,5.44c-13.19-1.32-14.1-2.67-24.17-5.36,13.06-1.23,16.63,2.49,15.07,4,9.1,1.34,7.34-.53,12.2-.88Zm-13.7-8.11-5.37.39c-6.36,1.2-7.68,4.48-16.59,1.21l16.59-1.21A24.23,24.23,0,0,1,1122.35,416.92Zm110.91.15-5.42-1c5.35.1,6,.53,5.42,1l4.51.84C1226,419,1232.07,418,1233.26,417.07Zm-84.59.78-15.58-.29C1134,418.92,1143.71,418.21,1148.67,417.85Zm81.11,1.79c-6.56.19-23.69.58-21.31.4C1210,418.51,1225.62,418.8,1229.78,419.64Zm343.94,4-9.82-.15,4.74-2.05Zm-115.25,1.55,2.43-1,5.72.15Zm-106.25.14c.51-.44.23-1-.65-1.47a10.27,10.27,0,0,1-3.7-.86,7.8,7.8,0,0,1,3.7.86,54.07,54.07,0,0,0,13.49-.41c-1.71-1-8.27-.82-10.81-1.49,9.72-2.41,31.55,4.82,25.32-2.12,4.11.83,18.19,2.66,13.32,3.86-11.13-.4-32.23.35-40.67,1.63-.49.37-1.42.66-3.33.72A16,16,0,0,1,1352.22,425.33ZM1209,426.83a34.86,34.86,0,0,1-6.55-.61c-3.46-.51-6.08-1.29-5.07-2.24,8.4.84,3,1.63,5.07,2.24A56.73,56.73,0,0,0,1209,426.83Zm-25.32.42,13.15,1.31-6.63-1.5,19.82,2.82C1198.66,431.27,1185.45,429.11,1183.69,427.25Zm-4.62,1.33-2.71-1.65,4.14,1.69-1.43,0,.62.38-22.15-.95ZM952.8,425.26c-8.3,5.73,19.58,4.07,23.91,6.82.93-1.91,9.32-4.89-12.31-4.82,18.69-1.92,11.71,3.7,22.84-1.09-9,.37-19.74-1.12-21.33-1.29l10.55-.2C970.48,421.14,960.21,426.43,952.8,425.26Zm-113.7.87L825.22,426l13.14.47Zm-342.75,1.6c1,1.35-16.9,3.79-21.15,1.25C484.21,428.61,494,428.75,496.35,427.73Zm-147.28-.38,15.6,1.14c-3,3.06-13.93-.13-21.24.4C340.88,427.37,346.64,428.38,349.07,427.35Zm-101.49,0-5-.5,5.22,3Zm6.83,4.05c-3.13,1.37,7.53,2,10,1.84ZM163,434.05l6.5-.19-5.88-2.7Zm10.36-3.17c1.53,1.94.88,4.55,15.86,3.25.62-2-3.46-2,2.1-4.42-4.93-.49-9,.37-11.43.55,3.35.33,7.32-.53,8.24.82a47.63,47.63,0,0,1-14.77-.2c-.53-.69-1.36-1.3-3.33-1.61C170.07,429.89,171.34,430.46,173.35,430.88Zm54.26-2.14a21,21,0,0,0,4.47-.85l.9.51a8.36,8.36,0,0,1-5.37.34c-2.17.27-4.69.5-7.29.72-1.66,1.72,8.59,2.9,11.3,3.86-4.88-.5-9.1-2.18-15.57-1.14.85.51,0,.85,4.11.83l-8.93.38c-10.22-2.4-.46-3.14,9.09-3.93.3-.38,1-.77,2.83-1.21A12.14,12.14,0,0,1,227.61,428.74Zm-71.8-3.84,4.9.5c2.51.67.91,1.35,1.79,1.86C156.77,427.11,149.28,425.94,155.81,424.9Zm293.72-.59c-3.25.52,4.25,2.54,11.56,2l-3.89,2.56c-.18-1.7-14.85-1.48-16.49-1.65C438.12,424.86,443.83,425.86,449.53,424.31Zm341.2-.06c2.67,3.22,21.35,1.29,25.48,2.13C806.5,427.08,784.4,427.83,790.73,424.25Zm32.41-1.31c5.11,0,6.56-.26,6,1.36,2.48.67,6.53-.19,9,.48-10,1.42-9.33-1.16-15.06-1.84-1.34,0-2.85,0-4.75-.13A28.35,28.35,0,0,1,823.14,422.94Zm-199.45-.2-6.79-2.35-10.61.2Zm-114.07-4.22c.87,1.36-11.32,1.4-13.86.72.78,1.78,8.95,1.56,15.46,1.75a28.15,28.15,0,0,0,4.28.23c-1.28-.13-2.69-.19-4.28-.23-2.44-.42-.74-1.34-.74-2l3.23-.52-9-.49ZM309,416.61c-7.28,1.38-8.15.88-13,.38C297.55,416.3,304.07,416.11,309,416.61Zm261.06.36c-12.26.89,5.9,2.7-2.15,3.57l6.42-.18c-10.43,1.89-7.44-2-14.78-1.49l4.91-.35c3.88-1.71-7.52-1.17-8.44-2.52C561.77,415.3,575,416.61,570.08,417ZM297.5,415.46c-12.15,1.74-10-1.84-17.36-2.15C289.81,411.75,288.4,415,297.5,415.46Zm195.29-3.68.76-.33-9.85-1-.79.35Z"/><path class="cls-4" d="M282.41,433.33a40.48,40.48,0,0,1-6.61,0C277.9,433.29,280.1,433.25,282.41,433.33Z"/><path class="cls-4" d="M852.89,435.08c.28-.46,1.34-.7,2.76-.85C855.47,434.5,854.78,434.78,852.89,435.08Z"/><path class="cls-4" d="M876.65,436.2h.91l.74.15Z"/><path class="cls-4" d="M1704.33,430.35c5.09,2.19-4.91.36-9,.37C1699.42,430.71,1701,429.17,1704.33,430.35Z"/><path class="cls-4" d="M1672.14,426.72a50.13,50.13,0,0,0,10.1,1.27A36.39,36.39,0,0,1,1672.14,426.72Z"/><path class="cls-4" d="M1698.41,427.66a139.16,139.16,0,0,1-16.17.33C1686.37,427.89,1689.87,427.06,1698.41,427.66Z"/><path class="cls-4" d="M1585.44,427.33c5.06,1.34,14.79.63,14.79.63-21.2,1.26,4.27,2.54,6,3.55C1593.07,431,1593,429.35,1585.44,427.33Z"/><path class="cls-4" d="M1557.37,426.65a56.21,56.21,0,0,0,5.88-.26A26.79,26.79,0,0,1,1557.37,426.65Z"/><path class="cls-4" d="M1549.48,428c-7.33-.32-9.92-1.84-13.28-3,8.88-1.1,14.56,1.32,21.17,1.7C1552.17,426.68,1547.08,426.51,1549.48,428Z"/><path class="cls-4" d="M1323.37,435.29c1.68.17,5.74.16,5.85,1l-12.29,0C1312,435.84,1320.91,435.47,1323.37,435.29Z"/><path class="cls-4" d="M1278.06,431.19c-9.82-.13-4.7,2.06-9.68,1.56l.56-2.89Z"/><path class="cls-4" d="M1283.52,416.58l2.89.28-3.31-.1Z"/><path class="cls-4" d="M1230.8,434.06l6.79,3.2C1229.35,436.44,1229.23,433.89,1230.8,434.06Z"/><polygon class="cls-4" points="1193.37 436.22 1199.13 437.21 1181.1 436.25 1193.37 436.22"/><polygon class="cls-4" points="1148.24 434.66 1146.65 435.34 1134.29 434.53 1148.24 434.66"/><path class="cls-4" d="M657.13,432c-1.87-2.71,17.82-1.58,23.55-2.28C676.76,433.1,665,428.55,657.13,432Z"/><path class="cls-4" d="M299.53,432.09l18.81.62C303.77,433.77,314.28,432.72,299.53,432.09Z"/></g><g class="cls-3"><path class="cls-4" d="M1749.55,528.73c.85.13,2.2.19,3.26.29C1749.71,529.12,1748.21,529.09,1749.55,528.73Z"/><path class="cls-4" d="M1793,530.12c-11.22,0-29,0-40.17-1.1C1762.76,528.68,1789.58,526.88,1793,530.12Z"/><path class="cls-4" d="M1747.56,523.48l14,1C1753.34,525.32,1754.85,523.79,1747.56,523.48Z"/><polygon class="cls-4" points="1752.64 526.51 1751.91 527.7 1744.46 526.54 1752.64 526.51"/><path class="cls-4" d="M1039.21,538.34c1.45.52,2.35,1.08,1.66,1.8Z"/><path class="cls-4" d="M1006.89,533c-2.91-.2-4.93-.28-6.67-.33A43.31,43.31,0,0,1,1006.89,533Z"/><path class="cls-4" d="M1068.58,537.85l-5.74.16A42,42,0,0,1,1068.58,537.85Z"/><path class="cls-4" d="M1427.29,533.3c5.34.86,10.4,1.64,14.25,2.18C1431.14,536.39,1430.25,534.44,1427.29,533.3Z"/><path class="cls-4" d="M858.3,515.6l-1.38.95C855.4,516.12,854.65,515.7,858.3,515.6Z"/><path class="cls-4" d="M999.13,517c.15.55-.16,1-.76,1.26-.56-.08-1.14-.14-1.67-.23Z"/><path class="cls-4" d="M1091.34,535.91a2.24,2.24,0,0,1,.31-.11l4.67.6C1093.82,536.58,1092.23,536.41,1091.34,535.91Z"/><path class="cls-4" d="M812.93,514.29a27.26,27.26,0,0,1-5.65-2.1C811.66,512.63,813.7,513.56,812.93,514.29Z"/><path class="cls-4" d="M999.42,532.63c-.06,0,0,0-.06,0l.86,0C999.92,532.63,999.71,532.61,999.42,532.63Z"/><path class="cls-4" d="M1045.84,518.06c-2.47-.16-4.77-.28-7.42-.49A24,24,0,0,1,1045.84,518.06Z"/><path class="cls-4" d="M1427.29,533.3c-1.51-.24-3-.47-4.52-.73A12.14,12.14,0,0,1,1427.29,533.3Z"/><path class="cls-4" d="M1712,530.88c-4.51,0-5.58-.66-6.43-1.35A32.91,32.91,0,0,1,1712,530.88Z"/><path class="cls-4" d="M80.08,535.07l-1.8,0A9.27,9.27,0,0,1,80.08,535.07Z"/><path class="cls-4" d="M253,537.62a12.29,12.29,0,0,1,2.29.76C253.77,538.63,252.93,538.19,253,537.62Z"/><path class="cls-4" d="M412.2,514.46c-11.29,1.4-23-1.45-32.78-1.59l3.35,1.18-9.91-1,.11,1.7c-16.37-.8-36.71,1-42.71-1.74l1.92,2.72-17.37-2.16,9.95,1.84c-19.52.57-49.17-1.54-53.34-1.53l1.76,1c-3.19.52-5.71-.15-9.05-.47l2.57,1.51c-29.41-.41-37.45,3-70.28,1.41-8.95.37,5,.5,5.1,1.35-4.89,1.2-16.38,0-18.87-.62,2.6,2.36,16.44,1.64,5.93,3.54-7.46-1.17,5.09,2.19-8,1.73l-5.15-3c-7.31.53-1.46,2.37-13,2.08-13.2-1.33,16.14-3.45-5.1-3.89-10.65.2-22.4,7-43,5.39-17.8,1.59,9.37,4.73-15.26,4l15.77,2c-4.08.86-1.51,2.37-12.18,1.73a59.28,59.28,0,0,0-15.73-2.84c23.07,2.3-20.23,3.46,1.25,6.45l-8-.11c1,.11,1.25.41.72.64l-10.64.21c6.56.66,22.16.94,14.92,3.17l-15.41.56c4.11,1.68-1.53,2.38-.64,3.74l45.32,3.25c-1.78-1-8.3-1.67-5.88-2.69,12.1-.89,9.88,1.82,21.24.43l-5-1.34c.9.51,2.49.67,0,.84-4,.87-5.73-.14-5.77-1,4-1.71,15.45-.56,18.87.62,14.71-.22,3-3.07,6.27-3.59,7.61,2.86,24.57-.07,33.69,1.26l-5.86-1.86c11.2-2.24,21.23-.4,27.79.26l-2.54-1.52c15.59.29,23.32-4.83,35.19.57l-1.64-1c6.4-.47,16.11-1.6,22.23,0,.15-.64,1.23-1.43,3.83-1.62,3.46,2.09,10.11.51,19.53.14-6.25-.55-4.25-3.24-10.85-3.89,14.55-2.77,13.34,3,25.56,3,7.33-1.38-6.57-1.5-8.33-2.51,18.87,1.46,38.77-6.24,50.67-.84l-8.09,1.72c7.5,1.16,11.56,1.15,10.65.65a5.79,5.79,0,0,1-4.08-.84c22.65-2.79,35.44,4,58.31,2.87-1.7-1-5-1.34-5.11-2.19,10.52-1.05,10.25,5.23,27.25,3.14L409,536c5.66-.7,9.86,1,9.1,1.33.44-4.58,36,.22,47.84-5.75,8.34,2.52,32.2,4.48,39.49,3.09,10.45-2.74-9.26-3-5.38-5.58,8.19,0,12.5,2.51,24.7,1.62.2,2.54-24.12,5.17-1.16,6.62l3.21-1.37a47.07,47.07,0,0,1-9,.37c-6.64-1.5,4-1.71,5.5-2.39l24.65.77c1.8,2.71-12.94,2.08-14.46,2.76,19.5-.57,43-4.54,61.11-2.74l-1.72-1c23.12,2.3,13.5-5,31.89-.61,9.72-.71-3.5-2.88,11.17-3.09,4.15,0,1.72,1,1,1.36,18,1,7.94-2.58,24.57-.09l-3.58-2.87c19.82,2,40.61,7,57.74,5.76-1-2.21-11.62-2-15.84-3.68,23.21,4,55.67.5,77.13,2.64-6.42,1.88,10.15,4.38-3.59,6-3.55-2.87-10-1-17.35-1.31,11.89,6.25,49.72-3,53.36,2.38l3.14-2.21c3.29.32,11.64,2,5.88,2.69L842,539.25c-8.31-1.68-25.83-5.53-31.33-3.14-6.73-2.35,9.69-1.56,3.73-4.25,15.84,3.68,9.74-1.56,26.14-.76-7.42,3.2,16.32,4.34,15.58,5.89,5.36-.59,17.29.89,21.91,2,9.48.3,31.24-2.28,46.47-1.18-5.77-1-14.88-2.33-14.21-4.36,7.46,1.16,15.66,1.13,17.07-1.25-26.5-4.33-8.54,5.46-32.53,2.65-5.93-2.7-12.5-3.36-24.86-4.16,5.63-1.55,3.15-2.22,5.47-4.1,15.12,5.72,39.33.56,59.12,3.38,8.33,1.67,2.06,5.26,20.94,5.88l-16.22,1.75c17.84-1.59,4.19,1.68,18.93,2.31L952.39,538c9-.36,12.31,0,17.31,1.31l-7.63-2.86c4.86-.36,13.85-.72,14,1,1.25-.7,1.69-1.26,1.69-1.74.95.47,3.24.78,8.93.68-3.33-.32-5.74-.14-5.81-1,21.69.67,5.07-3.1,18.51-2.83-2.13-.66,1.69-1.48,6.51-1.84-.32,4.51,26.3,5.11,33.34,7.6l-.08-.06,18.14,1.81c-3.68-.37.29-1.6,5.57-2.08l-.86,0c5.77-.7-6.85-4.9,10.44-3.6l9.09,1.33c-1.63-.16-.07-.85.79-1.19l9.35,1.22c14.32-4.21,27,2.37,43.87.31-4.86.35-12.27,0-9.09-1.34a31.63,31.63,0,0,1,10.72.65l-.85-.5,32.09,2.78c-2.6-1.52-20.56-1.63-12.53-3.35,4.74-2.06,14,.12,19.72.27-.74,1.19-11.37,2.25-.63,2.89,1.31-.59,11.52-1.82,6.71-2.67,11,1.21,27,1.95,36.79,4.06,3.12-.52-1.78-1-3.42-1.18l-.79.34c-6.62-.66-1-3-14-1.82-1.08-3.91,18.75-1.08,30.16-1.62L1212.18,532c30.64-5.36,72,.44,102.34.52-8.91,1.22-16.35.06-15.29,3.11,18.86,1.46,16.38.79,35.19,1.41l-1.62-.16c9.73-1.56,23,1.45,29.38-1.29-4.2-1.68-13.8,1.58-14-1.82l23.72.27c-7.45-2-23.72-.27-32.77-.75-6.52.19,13.12.47,10,2.69-22.14-.1-27.19-2.29-38.09-5.48-6.64-2.36,9.68-2.41,13.79-2.43,14.1,3.52,34.69,5.15,56.66,3.56l12.06-2.58c10.87,2.34,6.25,6.94,25.89,6.36l-5.86-1.85a54.3,54.3,0,0,1,9.2-.95c-8.44-1.4-17.54-3-25.17-4.43,11.17-3.93,32.09,1.94,48.52,2.73-.85-.5-6.6-.65-8.3-1.66,24.5-.93,50.16,3.74,69.09,4.36,8-1.72-15.72-1.14-11.82-3.69,10,1,21.19-1.26,23.85,1.11-4.35-3.38,22.86-.25,3.83-3.41,35.87-1.47,75.35,1.63,111.59,3.55-1.76-1-1.76-1.86-.23-2.55-12.27,0-30.29-.92-37.1-3.27,8.06-1.73,19.07,2.31,21.39,1.29-4.12-.83-12.29-.81-12.43-2.51,10.5-1.9,16.38.8,23.77,1.12l-4,.86c23,2.3,12.72,5.9,37.19,5,8.86-2.06-.08-1.69-.23-4.23,5.76,1,24.34-1.78,30.33.92l-14.81.22c10.37.71,20.17.7,27.36,1.59a5.67,5.67,0,0,0-3.54-1.33c8.23.82,18.8.61,23,2.31l2.31-2.73c-4.91,1.2-19.6,1.42-22.08-.1,1.41-2.38,16.27-.9,22.78-1.09-28.7-.76-29-5-53.34-3.22l4.1.83c-15.12,2.07-30.69-1.34-43.93-1.25,3.73-.56,4.48-1.55,2.73-2-29.29,2.13-58.1.52-91.49,1.81l-10-2.68-.63,2c-16.33.9-3.53-2.88-14.06-2.68,4,0,3.28.33,4.1.84-19-2.31-10.53,1.9-21.17,1.26,5.06,2.19,20.51.78,15.76,3.68-18.92-2.31-48.33-1-51.1-6-35.12,2-78.66-1.1-108.18-1.53-4,.87,2.51.68,1,1.37-11.67-2.85-39.17,2-39.36-.56-5.65.7-8,2.57-9.54,3.25a218.34,218.34,0,0,0-26-2.16l7,.7-.76.34-9.88-1,.37-.16c-23.69-.72-51.07-.11-72.56-2.84,12.38,1.66-3.12,3.07,2.73,4.07-10.93-4-37.12-4.13-58.36-3.72.09.85-1.55,1.53.94,2.21l-12.31-1.67,1.63,1c-22.06.75-46.07-3.76-60.63-1.84,9,.48,9,1.33,10,2.68-15.8-.1-30.7-.15-49.16-1.37,1,.25,1.63.53,1.66.84-4.84.36-10.65-.65-15.6-1.14l-.67,2c-9.44-.94-21.64.1-32.86-1.52-4.4,2.23-27.19-2.07-40.14-1.13-5-.5,10.8,2.34-3.1,2.21-2-4.41-18-.11-19.14-4.86l-12.15,1.74-2.69-2.37c-10.33,4.44-15.73-2-31.1-.58.81.51,2.46.67,1.67,1-5-.49-16.42-.79-7.54-2-8.19,0-36.07-1.08-23.56,1.43-.9-1.36,10.55-.2,15.51.29-.65,2-13,1.23-16,3.45a32.87,32.87,0,0,0-3.19-.91l-1.76,1.26c-15.38-2.24-31-.63-42.23-3.52-.65.63-3.34,1.11-8.63,1l-.23-2.55-16.36.06,7.66,3.7c-18,.74-30.59-3.47-45.34-4.09-3.79,4.25-28.78-1.61-41.55,2.16L720,515.7c-24.62-.78-28.54,1.79-51.51.33,19.49-1.42,19.6-.57,48-4-28.48,1.78-49.22-2.4-75.3.07,1.74,1,8.29,1.66,1.91,2.7-5.09-2.19-24.58.08-20.72-2.48-8.09.87-9.51,3.26-14.46,3.61l-27.18-3.14.83.51c-46.21,5.92-86.27-4-132.64-1.45l.9,1.36-11.61-2c9.09,1.33-3.94,1.7-4.66,2.89l-29.71-3C403.16,512.28,404.91,515,412.2,514.46Zm391.22,1.14,7,.19a16.91,16.91,0,0,1,4.47.11l-4.47-.11C806.84,516.12,804.18,517.2,803.42,515.6Zm648.41,4.9c3.39,1.19-4.88.36-7.23.53l11.45.31C1457.64,520.66,1453.5,520.67,1451.83,520.5Zm-648,11.56-3.92,1.71-5-1.34Zm-99.81.15,10,1-.84.34-9.84-1ZM593.13,518.47c.63.1,1.2.17,1.92.34a16.1,16.1,0,0,1-1.92-.34c-7.69-1.23-10.74,1.83-17-1.14C583.81,514.8,588.73,517.43,593.13,518.47Zm175.35,0a38.5,38.5,0,0,0,7.4.31c-1.73-1-8.41-2.51-3.52-2.87,3.41,1.18,14.82,1.48,15,3.18C777.41,517.21,770.39,522,768.48,518.43Zm235,1.12-2.5.18,9.16,1.32Zm42.66,1.73c5.08,2.19,18.13,1.81,27.15,2.29,2.34-1.87-6.83-4.05-17.45-3.85C1043.37,518.06,1051.11,522.62,1046.1,521.28Zm-354.27.45,2.53,1.51-2.38.18,9.86,1c-13,2.08-22.22-1.8-28.83-2.46C678.79,522.11,694.6,525.79,691.83,521.73Zm445.22.62c9.09,1.33,25.5,3,24,4.51.58-2.89-12.59-4.21-16.69-4.19A38.25,38.25,0,0,1,1137.05,522.35Zm-.49,5.44c-13.19-1.32-14.1-2.67-24.16-5.36,13-1.23,16.62,2.49,15.07,4,9.09,1.34,7.33-.53,12.19-.88Zm-13.7-8.11-5.37.4c-6.36,1.19-7.68,4.47-16.59,1.2l16.59-1.2A23.62,23.62,0,0,1,1122.86,519.68Zm110.91.15-5.42-1c5.35.1,6,.53,5.42,1l4.51.84C1226.53,521.72,1232.58,520.72,1233.77,519.83Zm-84.59.78-15.58-.29C1134.5,521.68,1144.22,521,1149.18,520.61Zm81.11,1.79c-6.56.19-23.69.58-21.31.4C1210.54,521.27,1226.13,521.56,1230.29,522.4Zm343.94,4-9.82-.15,4.75-2ZM1459,528l2.43-1,5.72.16Zm-106.25.15c.51-.45.23-1-.65-1.48a10.27,10.27,0,0,1-3.7-.86,7.8,7.8,0,0,1,3.7.86,54.07,54.07,0,0,0,13.49-.41c-1.71-1-8.27-.82-10.81-1.49,9.72-2.41,31.55,4.82,25.32-2.12,4.12.83,18.19,2.66,13.32,3.86-11.13-.4-32.23.35-40.67,1.64-.49.37-1.42.65-3.33.71A15.52,15.52,0,0,1,1352.73,528.1Zm-143.21,1.49A34.86,34.86,0,0,1,1203,529c-3.46-.51-6.08-1.28-5.06-2.24,8.39.84,3,1.63,5.06,2.24A56.73,56.73,0,0,0,1209.52,529.59Zm-25.32.42,13.15,1.31-6.63-1.5,19.82,2.82C1199.17,534,1186,531.87,1184.2,530Zm-4.62,1.34-2.71-1.66,4.14,1.69-1.43,0,.62.37-22.14-1ZM953.31,528c-8.3,5.72,19.58,4.06,23.91,6.82.93-1.92,9.32-4.89-12.31-4.83,18.69-1.92,11.71,3.71,22.84-1.08-9,.36-19.74-1.13-21.33-1.3l10.55-.2C971,523.9,960.73,529.19,953.31,528Zm-113.7.87-13.88-.13,13.14.47Zm-342.75,1.59c1,1.35-16.9,3.79-21.15,1.25C484.72,531.37,494.55,531.51,496.86,530.49Zm-147.27-.38,15.59,1.14c-3,3.06-13.93-.13-21.24.4C341.39,530.14,347.16,531.14,349.59,530.11Zm-101.49,0-5-.49,5.22,3Zm6.82,4c-3.12,1.37,7.53,2,10.05,1.84Zm-91.42,2.67,6.5-.19-5.88-2.7Zm10.36-3.17c1.53,1.94.88,4.56,15.86,3.25.62-2-3.46-2,2.1-4.42-4.93-.49-9,.38-11.43.55,3.35.33,7.32-.53,8.24.82a47.63,47.63,0,0,1-14.77-.2c-.53-.69-1.36-1.3-3.33-1.61C170.58,532.65,171.85,533.22,173.86,533.64Zm54.26-2.14a20.69,20.69,0,0,0,4.47-.85l.9.51a8.3,8.3,0,0,1-5.37.34c-2.17.27-4.69.5-7.29.73-1.66,1.71,8.6,2.89,11.3,3.85-4.88-.49-9.1-2.18-15.57-1.14.85.51,0,.86,4.12.83l-8.94.38c-10.22-2.4-.46-3.14,9.09-3.92.31-.38,1-.78,2.83-1.22A12.35,12.35,0,0,1,228.12,531.5Zm-71.8-3.83,4.9.49c2.51.67.92,1.35,1.79,1.86C157.28,529.87,149.79,528.7,156.32,527.67Zm293.72-.6c-3.25.52,4.25,2.54,11.56,2l-3.89,2.55c-.18-1.69-14.85-1.48-16.49-1.64C438.63,527.62,444.34,528.62,450,527.07ZM791.25,527c2.66,3.22,21.35,1.29,25.48,2.13C807,529.85,784.91,530.6,791.25,527Zm32.4-1.3c5.11,0,6.56-.27,6,1.35,2.48.67,6.53-.19,9,.48-10,1.42-9.33-1.15-15.06-1.83-1.34,0-2.85,0-4.75-.14A27.15,27.15,0,0,1,823.65,525.71ZM624.2,525.5l-6.79-2.35-10.61.2Zm-114.07-4.22c.87,1.36-11.32,1.4-13.85.72.77,1.79,8.94,1.56,15.45,1.75A26.87,26.87,0,0,0,516,524c-1.28-.13-2.69-.19-4.28-.23-2.44-.42-.74-1.33-.74-2l3.23-.52-9-.48Zm-200.6-1.91c-7.28,1.38-8.15.88-13,.38C298.06,519.07,304.58,518.87,309.53,519.37Zm261.06.36c-12.26.89,5.9,2.7-2.15,3.57l6.43-.18c-10.43,1.89-7.45-2-14.78-1.48l4.9-.36c3.89-1.71-7.52-1.16-8.44-2.52C562.28,518.06,575.47,519.38,570.59,519.73ZM298,518.22c-12.15,1.74-10-1.84-17.36-2.15C290.33,514.51,288.91,517.74,298,518.22Zm195.29-3.68.77-.33-9.86-1-.79.34Z"/><path class="cls-4" d="M282.92,536.09a41.92,41.92,0,0,1-6.61,0C278.41,536.05,280.61,536,282.92,536.09Z"/><path class="cls-4" d="M853.4,537.85c.28-.46,1.34-.7,2.76-.86C856,537.26,855.3,537.54,853.4,537.85Z"/><path class="cls-4" d="M877.17,539h.9l.74.16Z"/><path class="cls-4" d="M1704.84,533.11c5.1,2.19-4.91.36-9,.37C1699.93,533.47,1701.51,531.94,1704.84,533.11Z"/><path class="cls-4" d="M1672.66,529.48a49.22,49.22,0,0,0,10.1,1.27A36.35,36.35,0,0,1,1672.66,529.48Z"/><path class="cls-4" d="M1698.92,530.42a139,139,0,0,1-16.16.33C1686.89,530.66,1690.38,529.82,1698.92,530.42Z"/><path class="cls-4" d="M1586,530.09c5.07,1.34,14.79.64,14.79.64-21.2,1.25,4.27,2.53,6,3.54C1593.58,533.8,1593.49,532.11,1586,530.09Z"/><path class="cls-4" d="M1557.88,529.41a56.21,56.21,0,0,0,5.88-.26A26.79,26.79,0,0,1,1557.88,529.41Z"/><path class="cls-4" d="M1550,530.72c-7.34-.32-9.93-1.84-13.29-3,8.89-1.1,14.56,1.33,21.17,1.7C1552.68,529.44,1547.59,529.28,1550,530.72Z"/><path class="cls-4" d="M1323.88,538.06c1.68.16,5.74.15,5.85,1l-12.29,0C1312.52,538.6,1321.42,538.23,1323.88,538.06Z"/><path class="cls-4" d="M1278.57,534c-9.82-.13-4.7,2.06-9.68,1.56l.56-2.89Z"/><path class="cls-4" d="M1284,519.34l2.89.29c-1.08,0-2.15-.08-3.31-.11Z"/><path class="cls-4" d="M1231.31,536.82l6.79,3.21C1229.86,539.21,1229.74,536.65,1231.31,536.82Z"/><polygon class="cls-4" points="1193.88 538.98 1199.64 539.97 1181.61 539.01 1193.88 538.98"/><polygon class="cls-4" points="1148.75 537.42 1147.16 538.11 1134.8 537.29 1148.75 537.42"/><path class="cls-4" d="M657.64,534.73c-1.87-2.71,17.82-1.58,23.55-2.28C677.27,535.86,665.49,531.31,657.64,534.73Z"/><path class="cls-4" d="M300,534.85l18.81.62C304.28,536.53,314.79,535.48,300,534.85Z"/></g><g class="cls-3"><path class="cls-4" d="M1750.06,631.49c.85.13,2.2.19,3.26.29C1750.22,631.88,1748.72,631.86,1750.06,631.49Z"/><path class="cls-4" d="M1793.49,632.88c-11.22,0-29,0-40.17-1.1C1763.27,631.45,1790.09,629.64,1793.49,632.88Z"/><path class="cls-4" d="M1748.07,626.24l14,1C1753.85,628.08,1755.36,626.56,1748.07,626.24Z"/><polygon class="cls-4" points="1753.15 629.27 1752.42 630.46 1744.97 629.3 1753.15 629.27"/><path class="cls-4" d="M1039.73,641.11c1.44.51,2.34,1.07,1.66,1.79Z"/><path class="cls-4" d="M1007.4,635.71c-2.9-.19-4.93-.27-6.67-.33A43.31,43.31,0,0,1,1007.4,635.71Z"/><path class="cls-4" d="M1069.09,640.61l-5.74.17A42,42,0,0,1,1069.09,640.61Z"/><path class="cls-4" d="M1427.8,636.06c5.34.86,10.41,1.64,14.25,2.18C1431.65,639.16,1430.76,637.2,1427.8,636.06Z"/><path class="cls-4" d="M858.82,618.36l-1.39.95C855.91,618.88,855.17,618.46,858.82,618.36Z"/><path class="cls-4" d="M999.65,619.78c.14.56-.17,1-.77,1.26-.56-.08-1.14-.14-1.67-.23Z"/><path class="cls-4" d="M1091.85,638.67c.08,0,.22-.07.32-.11l4.66.6C1094.34,639.34,1092.74,639.17,1091.85,638.67Z"/><path class="cls-4" d="M813.44,617.05A27.51,27.51,0,0,1,807.8,615C812.17,615.39,814.21,616.32,813.44,617.05Z"/><path class="cls-4" d="M999.93,635.39c-.06,0,0,0-.06,0l.86,0C1000.43,635.4,1000.22,635.37,999.93,635.39Z"/><path class="cls-4" d="M1046.35,620.82c-2.46-.16-4.77-.28-7.41-.49A24.26,24.26,0,0,1,1046.35,620.82Z"/><path class="cls-4" d="M1427.8,636.06c-1.51-.24-3-.47-4.51-.73A12.33,12.33,0,0,1,1427.8,636.06Z"/><path class="cls-4" d="M1712.53,633.64c-4.51,0-5.58-.66-6.43-1.35A32.91,32.91,0,0,1,1712.53,633.64Z"/><path class="cls-4" d="M80.59,637.83l-1.8,0A10.15,10.15,0,0,1,80.59,637.83Z"/><path class="cls-4" d="M253.47,640.38a12.43,12.43,0,0,1,2.28.76C254.28,641.39,253.45,641,253.47,640.38Z"/><path class="cls-4" d="M412.71,617.23c-11.29,1.39-22.95-1.46-32.78-1.6l3.35,1.18-9.91-1,.11,1.7c-16.37-.8-36.71,1-42.7-1.74l1.92,2.72-17.38-2.15,9.95,1.83c-19.52.57-49.17-1.54-53.34-1.52l1.76,1c-3.19.52-5.71-.14-9-.47l2.56,1.51c-29.41-.41-37.45,3-70.28,1.41-9,.37,5,.5,5.1,1.35-4.89,1.2-16.38,0-18.87-.62,2.6,2.36,16.44,1.64,5.93,3.54-7.46-1.16,5.09,2.19-8,1.73l-5.15-3c-7.31.53-1.46,2.38-13,2.08-13.2-1.32,16.14-3.45-5.1-3.89-10.65.2-22.4,7-43,5.4-17.8,1.58,9.37,4.72-15.26,4l15.77,2c-4.08.86-1.51,2.38-12.18,1.73a59.32,59.32,0,0,0-15.73-2.83c23.07,2.3-20.23,3.45,1.25,6.44l-8-.11c1,.11,1.25.41.72.64l-10.63.21c6.56.66,22.15.94,14.91,3.18l-15.41.55c4.11,1.69-1.53,2.39-.64,3.74l45.32,3.25c-1.78-1-8.3-1.67-5.87-2.69,12.09-.89,9.87,1.83,21.24.43l-5-1.34c.9.51,2.5.67,0,.85-4,.86-5.73-.15-5.76-1,4-1.71,15.44-.56,18.86.62,14.71-.21,3-3.07,6.27-3.59,7.61,2.86,24.57-.07,33.69,1.26l-5.86-1.85c11.2-2.25,21.23-.41,27.79.25l-2.54-1.52c15.59.29,23.32-4.82,35.19.57l-1.64-1c6.4-.48,16.11-1.61,22.24,0,.14-.64,1.23-1.43,3.82-1.62,3.46,2.09,10.11.51,19.54.14-6.26-.55-4.26-3.24-10.86-3.89,14.55-2.77,13.34,3,25.56,3,7.33-1.38-6.57-1.51-8.33-2.52,18.87,1.47,38.77-6.23,50.68-.84l-8.1,1.72c7.5,1.17,11.56,1.15,10.65.65a5.74,5.74,0,0,1-4.08-.84c22.66-2.78,35.44,4,58.31,2.87-1.7-1-5-1.34-5.11-2.19,10.53-1.05,10.25,5.23,27.25,3.14l-3.33-1.18c5.66-.7,9.86,1,9.1,1.33.44-4.58,36,.23,47.85-5.75,8.33,2.52,32.19,4.48,39.48,3.1,10.45-2.75-9.26-3-5.38-5.59,8.2,0,12.5,2.51,24.7,1.62.2,2.55-24.12,5.17-1.16,6.63l3.21-1.37a48.77,48.77,0,0,1-9,.37c-6.64-1.51,4-1.71,5.5-2.4l24.65.77c1.8,2.72-12.94,2.08-14.46,2.76,19.5-.57,43-4.54,61.11-2.73l-1.72-1c23.12,2.31,13.5-5,31.89-.61,9.72-.71-3.5-2.87,11.17-3.09,4.15,0,1.72,1,1,1.36,18,1,7.94-2.58,24.57-.08l-3.58-2.87c19.82,2,40.61,7,57.74,5.75-1-2.21-11.62-2-15.84-3.68,23.21,4,55.67.5,77.13,2.64-6.42,1.89,10.15,4.38-3.59,6-3.55-2.87-10-1-17.35-1.3,11.89,6.24,49.72-3,53.36,2.37l3.14-2.21c3.29.33,11.64,2,5.88,2.7L842.55,642c-8.31-1.68-25.83-5.53-31.33-3.13-6.73-2.36,9.7-1.56,3.73-4.26,15.84,3.69,9.74-1.56,26.14-.76-7.42,3.21,16.32,4.34,15.58,5.89,5.36-.59,17.29.9,21.91,2,9.48.3,31.24-2.28,46.47-1.17-5.77-1-14.88-2.33-14.21-4.37,7.46,1.16,15.66,1.13,17.07-1.25-26.5-4.33-8.54,5.46-32.53,2.65-5.93-2.7-12.5-3.36-24.86-4.16,5.63-1.55,3.15-2.22,5.47-4.09,15.13,5.71,39.33.55,59.12,3.38,8.33,1.67,2.06,5.25,20.94,5.87l-16.22,1.75c17.84-1.58,4.19,1.68,18.93,2.31l-5.86-1.85c9-.36,12.31,0,17.31,1.31l-7.63-2.86c4.86-.36,13.85-.72,14,1,1.24-.7,1.68-1.25,1.68-1.74,1,.48,3.24.78,8.93.69-3.33-.33-5.74-.15-5.81-1,21.69.68,5.07-3.1,18.51-2.82-2.13-.67,1.7-1.49,6.51-1.85-.32,4.52,26.31,5.11,33.35,7.61l-.09-.07,18.14,1.81c-3.68-.37.29-1.6,5.57-2.07l-.86,0c5.77-.7-6.85-4.9,10.44-3.6l9.09,1.33c-1.63-.16-.06-.85.79-1.19l9.36,1.22c14.31-4.21,27,2.38,43.86.31-4.86.35-12.26,0-9.09-1.33a31.64,31.64,0,0,1,10.72.64l-.84-.5,32.08,2.78c-2.6-1.52-20.56-1.63-12.53-3.35,4.75-2.06,14,.12,19.72.28-.74,1.18-11.36,2.24-.63,2.88,1.31-.59,11.52-1.82,6.71-2.67,11,1.21,27,1.95,36.79,4.06,3.13-.52-1.78-1-3.42-1.18l-.79.34c-6.62-.66-1-3.05-14-1.81-1.08-3.91,18.75-1.09,30.16-1.63l-18.19-2.66c30.64-5.35,72,.45,102.34.52-8.91,1.22-16.35.06-15.29,3.11,18.86,1.47,16.38.8,35.19,1.41l-1.62-.16c9.73-1.56,23,1.45,29.39-1.28-4.2-1.68-13.81,1.58-14-1.82l23.72.26c-7.45-2-23.72-.26-32.77-.74-6.52.18,13.12.46,10,2.68-22.14-.1-27.19-2.29-38.09-5.48-6.64-2.36,9.68-2.41,13.79-2.42,14.1,3.51,34.69,5.15,56.66,3.55l12.06-2.58c10.87,2.34,6.25,6.94,25.89,6.36l-5.86-1.85a54.3,54.3,0,0,1,9.21-.95c-8.45-1.39-17.55-3-25.18-4.43,11.17-3.93,32.09,2,48.52,2.74-.85-.51-6.59-.66-8.3-1.67,24.5-.93,50.16,3.74,69.09,4.36,8-1.72-15.72-1.14-11.82-3.69,10,1,21.19-1.26,23.85,1.11-4.35-3.38,22.87-.25,3.83-3.41,35.87-1.47,75.35,1.63,111.59,3.55-1.76-1-1.76-1.86-.23-2.54-12.27,0-30.29-.93-37.1-3.28,8.06-1.73,19.07,2.31,21.39,1.29-4.12-.83-12.29-.81-12.43-2.5,10.5-1.91,16.38.79,23.77,1.11l-4,.86c23,2.3,12.71,5.9,37.18,5,8.86-2.06-.08-1.69-.23-4.24,5.76,1,24.34-1.78,30.34.92l-14.81.22c10.36.72,20.16.71,27.35,1.59a5.67,5.67,0,0,0-3.54-1.33c8.23.82,18.8.62,23,2.31l2.31-2.73c-4.91,1.21-19.6,1.42-22.08-.1,1.41-2.38,16.27-.9,22.78-1.09-28.69-.75-29-5-53.34-3.22l4.1.84c-15.12,2.06-30.69-1.34-43.93-1.26,3.73-.56,4.49-1.55,2.74-2-29.3,2.13-58.11.52-91.49,1.81l-10.05-2.68-.62,2c-16.34.9-3.54-2.87-14.07-2.67,4,0,3.28.33,4.1.84-19-2.32-10.53,1.9-21.17,1.25,5.06,2.19,20.51.78,15.76,3.68-18.91-2.31-48.33-1-51.1-6-35.12,2-78.66-1.1-108.18-1.52-4,.86,2.52.67,1,1.36-11.67-2.85-39.17,2-39.36-.56-5.65.7-8,2.57-9.54,3.25a218.34,218.34,0,0,0-26-2.16l7,.7-.76.35-9.89-1,.37-.16c-23.69-.72-51.07-.11-72.56-2.83,12.38,1.66-3.12,3.06,2.73,4.06-10.92-4-37.12-4.13-58.36-3.71.09.85-1.55,1.52.94,2.2l-12.31-1.66,1.63,1c-22.06.75-46.07-3.75-60.63-1.84,9,.48,9,1.33,10,2.68-15.8-.1-30.7-.15-49.16-1.37,1,.25,1.63.54,1.66.84-4.84.36-10.65-.64-15.6-1.13l-.67,2c-9.44-.94-21.64.1-32.86-1.52-4.4,2.24-27.18-2.07-40.14-1.13-5-.49,10.8,2.34-3.1,2.22-2-4.41-18-.11-19.14-4.87L924.35,619l-2.69-2.37c-10.33,4.45-15.73-2-31.1-.58.82.51,2.46.67,1.67,1-5-.49-16.42-.79-7.54-2-8.19,0-36.06-1.07-23.56,1.43-.9-1.35,10.55-.2,15.51.29-.65,2-13,1.24-16,3.45-.39-.22-2-.57-3.19-.91l-1.76,1.26c-15.38-2.24-31-.63-42.23-3.52-.65.63-3.34,1.11-8.63,1l-.23-2.55-16.36.06,7.66,3.7c-18,.74-30.59-3.46-45.33-4.09-3.8,4.25-28.79-1.61-41.56,2.17l11.52,1.15c-24.62-.78-28.54,1.79-51.5.33,19.48-1.42,19.59-.57,48-4-28.49,1.78-49.22-2.4-75.31.07,1.75,1,8.29,1.66,1.91,2.7-5.09-2.19-24.58.08-20.71-2.48-8.1.87-9.52,3.26-14.47,3.61l-27.18-3.14.83.51c-46.21,5.92-86.26-4-132.64-1.45l.9,1.36-11.61-2c9.09,1.33-3.94,1.7-4.66,2.9l-29.7-3C403.67,615.05,405.42,617.76,412.71,617.23Zm391.22,1.14,7,.18a16.84,16.84,0,0,1,4.46.11l-4.46-.11C807.35,618.89,804.7,620,803.93,618.37Zm648.41,4.9c3.39,1.18-4.88.35-7.23.53l11.45.3C1458.15,623.42,1454,623.44,1452.34,623.27Zm-648,11.55-3.92,1.71-5-1.34Zm-99.81.15,10,1-.84.34-9.84-1ZM593.64,621.23c.63.1,1.21.17,1.92.34a16.1,16.1,0,0,1-1.92-.34c-7.69-1.23-10.74,1.83-17-1.13C584.32,617.56,589.25,620.19,593.64,621.23Zm175.35,0a38.53,38.53,0,0,0,7.4.31c-1.73-1-8.41-2.51-3.51-2.87,3.4,1.18,14.81,1.48,15,3.18C777.93,620,770.91,624.75,769,621.19Zm235,1.12-2.5.18,9.16,1.33Zm42.66,1.73c5.08,2.19,18.13,1.81,27.15,2.29,2.34-1.87-6.83-4.05-17.45-3.84C1043.89,620.83,1051.62,625.39,1046.61,624Zm-354.27.45,2.53,1.51-2.38.18,9.86,1c-13,2.08-22.21-1.8-28.83-2.46C679.3,624.87,695.11,628.56,692.34,624.49Zm445.22.62c9.09,1.34,25.5,3,24,4.51.58-2.89-12.59-4.2-16.68-4.19A38.32,38.32,0,0,1,1137.56,625.11Zm-.49,5.44c-13.19-1.32-14.09-2.67-24.16-5.36,13-1.22,16.62,2.49,15.07,4,9.09,1.33,7.33-.54,12.19-.89Zm-13.7-8.11-5.37.4c-6.36,1.2-7.68,4.47-16.59,1.2l16.59-1.2A24.83,24.83,0,0,1,1123.37,622.44Zm110.91.15-5.41-1c5.34.1,6,.53,5.41,1l4.51.85C1227,624.48,1233.09,623.48,1234.28,622.59Zm-84.58.79-15.59-.3C1135,624.44,1144.73,623.73,1149.7,623.38Zm81.11,1.78c-6.57.19-23.7.59-21.32.4C1211.05,624,1226.64,624.32,1230.81,625.16Zm343.93,4-9.82-.14,4.75-2Zm-115.24,1.55,2.43-1,5.71.15Zm-106.26.15c.51-.45.23-1-.65-1.47a10.45,10.45,0,0,1-3.7-.87,7.65,7.65,0,0,1,3.7.87,53.55,53.55,0,0,0,13.49-.42c-1.71-1-8.27-.82-10.8-1.49,9.71-2.41,31.54,4.83,25.31-2.12,4.12.84,18.19,2.66,13.33,3.87-11.13-.41-32.23.34-40.68,1.63-.49.37-1.42.66-3.33.71A16.5,16.5,0,0,1,1353.24,630.86ZM1210,632.35a36.34,36.34,0,0,1-6.55-.6c-3.46-.52-6.08-1.29-5.06-2.25,8.39.84,3,1.63,5.06,2.25A59,59,0,0,0,1210,632.35Zm-25.32.42,13.15,1.32-6.63-1.51,19.82,2.83C1199.68,636.8,1186.47,634.63,1184.71,632.77Zm-4.62,1.34-2.71-1.66,4.14,1.7-1.43,0,.62.37-22.14-1Zm-226.27-3.32c-8.29,5.72,19.59,4.06,23.91,6.82.93-1.92,9.32-4.89-12.31-4.83,18.7-1.92,11.71,3.71,22.84-1.08-9,.36-19.73-1.13-21.33-1.29l10.55-.21C971.5,626.66,961.24,632,953.82,630.79Zm-113.7.87-13.88-.13,13.14.47Zm-342.75,1.59c1,1.35-16.89,3.79-21.15,1.26C485.23,634.13,495.07,634.27,497.37,633.25Zm-147.27-.38L365.7,634c-3,3.06-13.94-.13-21.25.41C341.91,632.9,347.67,633.9,350.1,632.87Zm-101.49,0-5-.49,5.22,3Zm6.83,4c-3.13,1.37,7.52,2,10,1.84ZM164,639.57l6.5-.19-5.88-2.7Zm10.36-3.17c1.53,1.94.88,4.56,15.86,3.26.62-2-3.45-2,2.1-4.42-4.93-.5-9,.37-11.43.54,3.36.33,7.32-.53,8.24.82a47.63,47.63,0,0,1-14.77-.2c-.52-.69-1.36-1.3-3.33-1.6C171.09,635.41,172.36,636,174.37,636.4Zm54.26-2.14a20.69,20.69,0,0,0,4.47-.85l.9.51a8.3,8.3,0,0,1-5.37.34c-2.17.27-4.69.5-7.29.73-1.66,1.72,8.6,2.89,11.3,3.85-4.88-.49-9.1-2.17-15.57-1.14.85.51,0,.86,4.12.83l-8.94.38c-10.22-2.4-.46-3.14,9.09-3.92.31-.38,1-.78,2.83-1.21A12.13,12.13,0,0,1,228.63,634.26Zm-71.79-3.83,4.89.49c2.51.67.92,1.36,1.79,1.86C157.79,632.63,150.3,631.47,156.84,630.43Zm293.71-.6c-3.25.52,4.26,2.54,11.56,2l-3.89,2.55c-.18-1.69-14.85-1.48-16.49-1.64C439.14,630.38,444.85,631.38,450.55,629.83Zm341.21-.06c2.66,3.22,21.35,1.29,25.48,2.13C807.52,632.61,785.42,633.36,791.76,629.77Zm32.4-1.3c5.11,0,6.56-.27,6,1.35,2.48.68,6.53-.19,9,.48-10,1.42-9.33-1.15-15.06-1.83-1.34,0-2.85,0-4.75-.14A27.11,27.11,0,0,1,824.16,628.47Zm-199.44-.21-6.8-2.35-10.61.2ZM510.64,624c.87,1.36-11.32,1.4-13.85.73.77,1.78,8.95,1.55,15.45,1.74a25.69,25.69,0,0,0,4.28.23c-1.27-.13-2.69-.18-4.28-.23-2.44-.42-.74-1.33-.74-2l3.23-.52-9-.48ZM310,622.13c-7.28,1.38-8.15.88-13.05.39C298.57,621.83,305.09,621.64,310,622.13Zm261.06.37c-12.26.88,5.9,2.69-2.15,3.57l6.43-.19c-10.43,1.9-7.45-2-14.78-1.48l4.91-.36c3.88-1.71-7.53-1.16-8.44-2.52C562.79,620.82,576,622.14,571.1,622.5ZM298.52,621c-12.15,1.74-10-1.83-17.36-2.15C290.84,617.27,289.42,620.5,298.52,621Zm195.29-3.67.77-.34-9.86-1-.78.34Z"/><path class="cls-4" d="M283.43,638.85a41.79,41.79,0,0,1-6.6,0C278.92,638.81,281.12,638.77,283.43,638.85Z"/><path class="cls-4" d="M853.92,640.61c.27-.46,1.33-.7,2.75-.86C856.49,640,855.81,640.3,853.92,640.61Z"/><path class="cls-4" d="M877.68,641.72h.9l.74.16Z"/><path class="cls-4" d="M1705.35,635.88c5.1,2.18-4.91.35-9,.36C1700.44,636.23,1702,634.7,1705.35,635.88Z"/><path class="cls-4" d="M1673.17,632.24a49.92,49.92,0,0,0,10.1,1.28A36.82,36.82,0,0,1,1673.17,632.24Z"/><path class="cls-4" d="M1699.43,633.18a139.28,139.28,0,0,1-16.16.34C1687.4,633.42,1690.89,632.58,1699.43,633.18Z"/><path class="cls-4" d="M1586.47,632.86c5.06,1.34,14.78.63,14.78.63-21.2,1.26,4.27,2.53,6,3.54C1594.09,636.56,1594,634.87,1586.47,632.86Z"/><path class="cls-4" d="M1558.39,632.17a53.6,53.6,0,0,0,5.88-.26A26.77,26.77,0,0,1,1558.39,632.17Z"/><path class="cls-4" d="M1550.51,633.48c-7.34-.32-9.93-1.84-13.29-3,8.89-1.1,14.56,1.33,21.17,1.7C1553.19,632.2,1548.1,632,1550.51,633.48Z"/><path class="cls-4" d="M1324.39,640.82c1.68.16,5.74.15,5.85,1l-12.29,0C1313,641.36,1321.93,641,1324.39,640.82Z"/><path class="cls-4" d="M1279.08,636.72c-9.82-.14-4.7,2-9.67,1.55l.55-2.88Z"/><path class="cls-4" d="M1284.54,622.1l2.89.29-3.31-.11Z"/><path class="cls-4" d="M1231.82,639.58l6.79,3.21C1230.37,642,1230.26,639.41,1231.82,639.58Z"/><polygon class="cls-4" points="1194.39 641.74 1200.15 642.74 1182.12 641.77 1194.39 641.74"/><polygon class="cls-4" points="1149.27 640.19 1147.67 640.87 1135.31 640.06 1149.27 640.19"/><path class="cls-4" d="M658.15,637.5c-1.87-2.72,17.82-1.59,23.55-2.29C677.78,638.62,666,634.08,658.15,637.5Z"/><path class="cls-4" d="M300.55,637.61l18.81.62C304.79,639.3,315.3,638.24,300.55,637.61Z"/></g><g class="cls-3"><path class="cls-4" d="M1750.57,734.26c.86.12,2.2.18,3.27.28C1750.73,734.65,1749.23,734.62,1750.57,734.26Z"/><path class="cls-4" d="M1794,735.64c-11.22,0-29,0-40.16-1.1C1763.79,734.21,1790.6,732.4,1794,735.64Z"/><path class="cls-4" d="M1748.58,729l14,1C1754.36,730.85,1755.87,729.32,1748.58,729Z"/><polygon class="cls-4" points="1753.66 732.03 1752.93 733.22 1745.48 732.06 1753.66 732.03"/><path class="cls-4" d="M1040.24,743.87c1.45.51,2.34,1.07,1.66,1.79Z"/><path class="cls-4" d="M1007.91,738.47c-2.9-.19-4.93-.27-6.67-.33A44.62,44.62,0,0,1,1007.91,738.47Z"/><path class="cls-4" d="M1069.6,743.37l-5.74.17A42,42,0,0,1,1069.6,743.37Z"/><path class="cls-4" d="M1428.32,738.82c5.33.86,10.4,1.65,14.24,2.18C1432.16,741.92,1431.27,740,1428.32,738.82Z"/><path class="cls-4" d="M859.33,721.12l-1.39,1C856.43,721.64,855.68,721.23,859.33,721.12Z"/><path class="cls-4" d="M1000.16,722.54c.14.56-.17,1-.77,1.26-.56-.08-1.13-.14-1.67-.23Z"/><path class="cls-4" d="M1092.36,741.43c.08,0,.22-.07.32-.11l4.67.6C1094.85,742.1,1093.26,741.93,1092.36,741.43Z"/><path class="cls-4" d="M814,719.81a27.39,27.39,0,0,1-5.65-2.09C812.68,718.16,814.72,719.08,814,719.81Z"/><path class="cls-4" d="M1000.45,738.15c-.07,0,0,0-.07,0l.86,0C1000.94,738.16,1000.73,738.13,1000.45,738.15Z"/><path class="cls-4" d="M1046.86,723.58c-2.46-.16-4.77-.27-7.41-.48A24,24,0,0,1,1046.86,723.58Z"/><path class="cls-4" d="M1428.32,738.82c-1.51-.24-3-.47-4.52-.73A12.44,12.44,0,0,1,1428.32,738.82Z"/><path class="cls-4" d="M1713,736.41c-4.51,0-5.58-.67-6.43-1.36A32.14,32.14,0,0,1,1713,736.41Z"/><path class="cls-4" d="M81.1,740.59l-1.8,0A10.15,10.15,0,0,1,81.1,740.59Z"/><path class="cls-4" d="M254,743.14a12.8,12.8,0,0,1,2.29.76C254.79,744.15,254,743.71,254,743.14Z"/><path class="cls-4" d="M413.22,720c-11.29,1.39-23-1.45-32.78-1.6l3.35,1.18-9.91-1,.12,1.7c-16.38-.79-36.72,1-42.71-1.74l1.92,2.72-17.38-2.15,9.95,1.83c-19.52.57-49.17-1.54-53.34-1.52l1.76,1c-3.19.51-5.71-.15-9-.48l2.57,1.51c-29.42-.41-37.46,3-70.29,1.42-8.94.36,5,.49,5.1,1.34-4.89,1.2-16.38,0-18.87-.62,2.6,2.37,16.44,1.64,5.93,3.54-7.46-1.16,5.09,2.2-8,1.73l-5.15-3c-7.31.53-1.46,2.38-13,2.08-13.19-1.32,16.14-3.45-5.1-3.89-10.65.2-22.4,7-43,5.4-17.81,1.58,9.36,4.72-15.27,4l15.77,2c-4.08.86-1.51,2.38-12.18,1.73a59.32,59.32,0,0,0-15.73-2.83c23.07,2.3-20.22,3.46,1.25,6.44l-8-.11c1,.12,1.25.41.72.64l-10.63.21c6.56.66,22.16.94,14.91,3.18l-15.41.56c4.11,1.68-1.53,2.38-.63,3.73l45.31,3.25c-1.78-1-8.3-1.67-5.87-2.69,12.09-.89,9.88,1.83,21.24.43l-5-1.34c.9.51,2.5.67,0,.85-4,.87-5.73-.15-5.76-1,4-1.7,15.45-.56,18.86.63,14.72-.22,3-3.07,6.27-3.59,7.61,2.85,24.57-.08,33.69,1.25L173,744.85c11.2-2.25,21.22-.4,27.78.25l-2.54-1.52c15.59.29,23.33-4.82,35.2.57l-1.65-1c6.4-.48,16.11-1.61,22.24,0,.14-.64,1.23-1.43,3.82-1.61,3.46,2.08,10.11.5,19.54.13-6.26-.54-4.26-3.24-10.86-3.89,14.55-2.77,13.34,3,25.56,3,7.33-1.38-6.57-1.51-8.33-2.52,18.87,1.47,38.77-6.23,50.68-.84l-8.1,1.72c7.5,1.17,11.57,1.16,10.65.65a5.75,5.75,0,0,1-4.08-.84c22.66-2.78,35.44,4,58.31,2.87-1.7-1-5-1.34-5.11-2.19,10.53-1.05,10.25,5.23,27.26,3.14L410,741.56c5.66-.71,9.86,1,9.1,1.33.44-4.59,36,.22,47.85-5.76,8.33,2.52,32.19,4.48,39.48,3.1,10.46-2.75-9.26-3-5.37-5.59,8.19,0,12.49,2.51,24.69,1.62.2,2.55-24.12,5.17-1.16,6.63l3.21-1.37a48.77,48.77,0,0,1-9,.37c-6.64-1.51,4-1.71,5.51-2.4l24.64.77c1.8,2.72-12.94,2.08-14.46,2.77,19.5-.57,43-4.55,61.11-2.74l-1.72-1c23.13,2.31,13.5-5,31.9-.61,9.71-.7-3.51-2.87,11.17-3.09,4.14,0,1.71,1,1,1.36,18,1,7.94-2.58,24.58-.08L658.92,734c19.83,2,40.61,7,57.74,5.76-1-2.21-11.62-2-15.84-3.69,23.21,4,55.67.5,77.13,2.64-6.41,1.89,10.15,4.38-3.59,5.95-3.55-2.87-10-1-17.35-1.3,11.89,6.24,49.72-3,53.36,2.37l3.14-2.21c3.29.33,11.65,2,5.88,2.7l23.67-1.43c-8.31-1.67-25.83-5.52-31.33-3.13-6.73-2.36,9.7-1.56,3.74-4.26,15.83,3.69,9.73-1.56,26.13-.76-7.42,3.21,16.32,4.35,15.58,5.89,5.37-.59,17.29.9,21.91,2,9.49.3,31.24-2.28,46.47-1.17-5.76-1-14.88-2.33-14.21-4.37,7.46,1.16,15.66,1.13,17.07-1.24-26.5-4.34-8.53,5.45-32.53,2.64-5.92-2.69-12.5-3.35-24.85-4.16,5.62-1.55,3.15-2.22,5.46-4.09,15.13,5.72,39.33.55,59.12,3.38,8.33,1.67,2.06,5.25,20.94,5.88l-16.22,1.74c17.84-1.58,4.19,1.68,18.93,2.31l-5.86-1.85c9-.36,12.31,0,17.31,1.31L963.1,742c4.85-.36,13.84-.72,14,1,1.25-.7,1.68-1.25,1.68-1.74,1,.48,3.24.78,8.93.69-3.33-.33-5.73-.15-5.81-1,21.69.68,5.07-3.1,18.51-2.82-2.12-.67,1.7-1.49,6.51-1.84-.32,4.51,26.31,5.1,33.35,7.6l-.09-.07,18.14,1.81c-3.67-.36.29-1.6,5.57-2.07l-.86,0c5.77-.7-6.85-4.9,10.44-3.6l9.09,1.33c-1.63-.16-.06-.85.79-1.19l9.36,1.22c14.31-4.21,27,2.38,43.86.31-4.86.36-12.26,0-9.09-1.33a31.64,31.64,0,0,1,10.72.64l-.84-.5,32.09,2.78c-2.61-1.52-20.57-1.63-12.54-3.35,4.75-2.06,14,.12,19.72.28-.74,1.19-11.36,2.24-.63,2.88,1.31-.59,11.52-1.82,6.71-2.67,11,1.22,27,1.95,36.8,4.06,3.12-.52-1.79-1-3.43-1.17l-.79.34c-6.62-.66-1-3.06-14-1.82-1.09-3.91,18.74-1.08,30.15-1.63l-18.19-2.66c30.64-5.35,72,.45,102.34.52-8.9,1.22-16.35.06-15.29,3.11,18.86,1.47,16.39.8,35.19,1.42l-1.61-.17c9.72-1.56,23,1.45,29.38-1.28-4.2-1.68-13.81,1.58-14-1.82l23.73.26c-7.46-2-23.73-.26-32.78-.74-6.52.19,13.12.47,10,2.69-22.14-.11-27.19-2.3-38.09-5.49-6.63-2.36,9.68-2.4,13.79-2.42,14.1,3.52,34.69,5.15,56.66,3.55l12.06-2.58c10.88,2.34,6.25,7,25.89,6.37l-5.86-1.85a54.57,54.57,0,0,1,9.21-1c-8.45-1.39-17.55-3-25.18-4.43,11.17-3.93,32.1,2,48.52,2.74-.85-.5-6.59-.66-8.3-1.67,24.5-.93,50.16,3.75,69.09,4.36,8-1.72-15.72-1.13-11.82-3.69,10,1,21.19-1.26,23.85,1.11-4.35-3.38,22.87-.25,3.83-3.41,35.87-1.47,75.35,1.63,111.59,3.56-1.75-1-1.75-1.87-.23-2.55-12.27,0-30.29-.92-37.1-3.28,8.06-1.73,19.07,2.31,21.39,1.29-4.12-.83-12.29-.81-12.43-2.5,10.5-1.91,16.38.79,23.78,1.11l-4,.86c23,2.3,12.71,5.9,37.18,5,8.86-2.06-.08-1.69-.23-4.24,5.76,1,24.34-1.78,30.34.93l-14.81.21c10.36.72,20.17.71,27.35,1.59a5.64,5.64,0,0,0-3.54-1.33c8.23.83,18.8.62,23,2.31l2.32-2.73c-4.92,1.21-19.61,1.43-22.09-.09,1.42-2.39,16.27-.91,22.78-1.1-28.69-.75-29-5-53.34-3.22l4.1.84c-15.11,2.06-30.68-1.34-43.93-1.26,3.73-.55,4.49-1.55,2.74-2-29.29,2.13-58.11.52-91.49,1.81l-10-2.68-.62,2c-16.34.9-3.54-2.87-14.07-2.67,4,0,3.28.33,4.1.84-19-2.32-10.53,1.9-21.17,1.25,5.06,2.19,20.51.79,15.76,3.69-18.91-2.32-48.33-1-51.1-6-35.12,2-78.65-1.1-108.18-1.52-4,.86,2.52.67,1,1.36-11.67-2.85-39.17,2-39.36-.56a23.75,23.75,0,0,0-9.53,3.26,218.57,218.57,0,0,0-26-2.17l7,.7-.76.35-9.88-1,.36-.15c-23.69-.73-51.07-.11-72.56-2.84,12.38,1.66-3.12,3.06,2.73,4.07-10.92-4-37.11-4.14-58.36-3.72.1.85-1.55,1.53.94,2.2l-12.31-1.66,1.63,1c-22.06.75-46.07-3.75-60.63-1.84,9,.48,9,1.33,10,2.69-15.8-.1-30.7-.15-49.16-1.38,1,.25,1.63.54,1.66.84-4.84.36-10.65-.64-15.6-1.13l-.67,2c-9.44-.94-21.63.11-32.86-1.52-4.4,2.24-27.18-2.07-40.14-1.13-5-.49,10.8,2.34-3.1,2.22-2-4.41-18-.11-19.14-4.86l-12.15,1.73-2.69-2.37c-10.33,4.45-15.73-2-31.1-.58.82.51,2.46.68,1.67,1-5-.5-16.42-.8-7.54-2-8.19,0-36.06-1.07-23.56,1.44-.9-1.36,10.55-.21,15.51.28-.65,2-13,1.24-16,3.45-.39-.22-2-.57-3.19-.91l-1.75,1.26c-15.39-2.24-31-.62-42.23-3.52-.65.63-3.35,1.12-8.64,1l-.23-2.54-16.36,0,7.66,3.71c-17.95.74-30.59-3.47-45.33-4.1-3.79,4.25-28.79-1.61-41.56,2.17L721,721.22c-24.63-.77-28.55,1.79-51.51.33,19.48-1.42,19.59-.57,48-4-28.49,1.78-49.22-2.4-75.31.07,1.75,1,8.29,1.66,1.91,2.71-5.09-2.19-24.57.08-20.71-2.49-8.1.87-9.51,3.26-14.47,3.61l-27.18-3.14.83.51c-46.21,5.92-86.26-4-132.64-1.45l.9,1.36-11.61-2c9.1,1.33-3.94,1.71-4.65,2.9l-29.71-3C404.18,717.81,405.93,720.52,413.22,720Zm391.22,1.14,7,.18a16.84,16.84,0,0,1,4.46.11l-4.46-.11C807.86,721.65,805.21,722.72,804.44,721.13Zm648.41,4.9c3.39,1.18-4.88.36-7.23.53l11.45.3C1458.66,726.18,1454.52,726.2,1452.85,726Zm-648,11.56-3.92,1.71-5-1.34Zm-99.81.14,10,1-.83.34-9.85-1ZM594.15,724c.63.1,1.21.18,1.92.34a12.89,12.89,0,0,1-1.92-.34c-7.68-1.23-10.74,1.83-17-1.13C584.83,720.32,589.76,723,594.15,724Zm175.35,0a39.47,39.47,0,0,0,7.4.32c-1.73-1-8.41-2.52-3.51-2.88,3.4,1.18,14.81,1.48,15,3.18C778.44,722.74,771.42,727.51,769.5,724Zm235,1.12-2.5.18,9.16,1.33Zm42.66,1.74c5.08,2.18,18.13,1.8,27.16,2.29,2.33-1.88-6.83-4.05-17.45-3.85C1044.4,723.59,1052.13,728.15,1047.12,726.81Zm-354.26.44,2.52,1.51L693,729l9.86,1c-13,2.08-22.21-1.8-28.83-2.45C679.81,727.63,695.62,731.32,692.86,727.25Zm445.21.63c9.09,1.33,25.5,3,24,4.5.58-2.88-12.59-4.2-16.68-4.19A39.06,39.06,0,0,1,1138.07,727.88Zm-.49,5.43c-13.19-1.32-14.09-2.67-24.16-5.36,13-1.22,16.62,2.5,15.07,4,9.09,1.33,7.33-.54,12.19-.89Zm-13.7-8.11-5.37.4c-6.36,1.2-7.68,4.47-16.59,1.2l16.59-1.2A24.83,24.83,0,0,1,1123.88,725.2Zm110.91.15-5.41-1c5.34.1,6,.54,5.41,1l4.52.85C1227.55,727.24,1233.6,726.24,1234.79,725.35Zm-84.58.79-15.59-.29C1135.52,727.21,1145.24,726.5,1150.21,726.14Zm81.11,1.78c-6.57.19-23.69.59-21.31.4C1211.56,726.79,1227.15,727.08,1231.32,727.92Zm343.93,4-9.82-.14,4.75-2ZM1460,733.47l2.43-1,5.71.15Zm-106.26.15c.51-.44.24-1-.65-1.47a10.29,10.29,0,0,1-3.7-.87,7.74,7.74,0,0,1,3.7.87,53.55,53.55,0,0,0,13.49-.42c-1.71-1-8.27-.81-10.8-1.49,9.71-2.4,31.54,4.83,25.31-2.11,4.12.83,18.19,2.65,13.33,3.86-11.13-.4-32.23.35-40.68,1.63-.49.37-1.42.66-3.33.71A17.24,17.24,0,0,1,1353.75,733.62Zm-143.21,1.49a35.45,35.45,0,0,1-6.55-.6c-3.45-.52-6.08-1.29-5.06-2.24,8.39.83,3,1.62,5.06,2.24A56.73,56.73,0,0,0,1210.54,735.11Zm-25.31.43,13.14,1.31-6.62-1.51,19.81,2.83C1200.19,739.56,1187,737.39,1185.23,735.54Zm-4.63,1.33-2.71-1.66,4.15,1.7-1.44,0,.62.38-22.14-1Zm-226.27-3.32c-8.29,5.72,19.59,4.06,23.91,6.82.93-1.91,9.33-4.89-12.3-4.82,18.69-1.93,11.7,3.7,22.83-1.09-8.95.36-19.73-1.13-21.33-1.29L978,733C972,729.42,961.75,734.71,954.33,733.55Zm-113.69.87-13.89-.13,13.14.47ZM497.88,736c1,1.34-16.89,3.78-21.14,1.25C485.74,736.9,495.58,737,497.88,736Zm-147.27-.39,15.6,1.14c-3,3.07-13.94-.13-21.25.41C342.42,735.66,348.18,736.66,350.61,735.63Zm-101.49,0-5-.49,5.22,3Zm6.83,4c-3.13,1.37,7.53,2,10,1.84Zm-91.43,2.67,6.51-.19-5.89-2.7Zm10.36-3.16c1.53,1.93.88,4.55,15.86,3.25.62-2-3.45-2,2.11-4.42-4.94-.5-9,.37-11.44.54,3.36.33,7.33-.53,8.24.82a48,48,0,0,1-14.77-.19c-.52-.69-1.36-1.31-3.33-1.61C171.6,738.18,172.87,738.75,174.88,739.17ZM229.14,737a21.18,21.18,0,0,0,4.47-.86l.9.51a8.37,8.37,0,0,1-5.37.35c-2.17.26-4.69.5-7.29.72-1.66,1.72,8.6,2.89,11.3,3.85-4.88-.49-9.1-2.17-15.57-1.13.86.5,0,.85,4.12.83l-8.93.37c-10.23-2.39-.46-3.13,9.08-3.92.31-.38,1-.77,2.84-1.21A11.9,11.9,0,0,1,229.14,737Zm-71.79-3.84,4.89.49c2.51.67.92,1.36,1.79,1.86C158.3,735.39,150.81,734.23,157.35,733.19Zm293.71-.59c-3.25.52,4.26,2.53,11.56,2l-3.88,2.55c-.19-1.69-14.85-1.47-16.5-1.64C439.65,733.14,445.36,734.14,451.06,732.6Zm341.21-.06c2.66,3.22,21.35,1.28,25.48,2.12C808,735.37,785.93,736.12,792.27,732.54Zm32.4-1.31c5.11,0,6.57-.26,6,1.35,2.47.68,6.52-.18,9,.48-10,1.43-9.33-1.15-15.06-1.83-1.34,0-2.85,0-4.75-.14A27.07,27.07,0,0,1,824.67,731.23ZM625.23,731l-6.8-2.36-10.61.21Zm-114.08-4.22c.87,1.35-11.32,1.39-13.85.72.78,1.78,8.95,1.55,15.45,1.74a25.69,25.69,0,0,0,4.28.23c-1.27-.12-2.68-.18-4.28-.23-2.44-.42-.74-1.33-.74-2l3.23-.52-9-.48Zm-200.6-1.92c-7.28,1.39-8.14.88-13,.39C299.08,724.59,305.6,724.4,310.55,724.89Zm261.07.37c-12.27.88,5.89,2.69-2.16,3.57l6.43-.19c-10.43,1.9-7.44-2-14.78-1.48l4.91-.35c3.88-1.72-7.52-1.17-8.44-2.53C563.3,723.58,576.5,724.9,571.62,725.26ZM299,723.74c-12.15,1.74-10-1.83-17.36-2.15C291.35,720,289.93,723.27,299,723.74Zm195.29-3.67.77-.34-9.86-1-.78.34Z"/><path class="cls-4" d="M284,741.61a41.91,41.91,0,0,1-6.61,0C279.43,741.57,281.63,741.53,284,741.61Z"/><path class="cls-4" d="M854.43,743.37c.27-.46,1.33-.7,2.75-.86C857,742.78,856.32,743.06,854.43,743.37Z"/><path class="cls-4" d="M878.19,744.48c.3,0,.63,0,.9,0l.74.16Z"/><path class="cls-4" d="M1705.86,738.64c5.1,2.19-4.9.36-9,.36C1701,739,1702.53,737.46,1705.86,738.64Z"/><path class="cls-4" d="M1673.68,735a50,50,0,0,0,10.1,1.28A36.43,36.43,0,0,1,1673.68,735Z"/><path class="cls-4" d="M1699.94,735.94a139.28,139.28,0,0,1-16.16.34C1687.91,736.18,1691.4,735.35,1699.94,735.94Z"/><path class="cls-4" d="M1587,735.62c5.06,1.34,14.78.63,14.78.63-21.2,1.26,4.27,2.53,6,3.55C1594.6,739.33,1594.52,737.63,1587,735.62Z"/><path class="cls-4" d="M1558.91,734.93a53.52,53.52,0,0,0,5.87-.26A26.7,26.7,0,0,1,1558.91,734.93Z"/><path class="cls-4" d="M1551,736.24c-7.34-.31-9.93-1.84-13.28-3,8.88-1.09,14.55,1.33,21.17,1.7C1553.7,735,1548.61,734.8,1551,736.24Z"/><path class="cls-4" d="M1324.9,743.58c1.69.17,5.74.15,5.85,1l-12.28,0C1313.54,744.12,1322.44,743.76,1324.9,743.58Z"/><path class="cls-4" d="M1279.59,739.48c-9.81-.14-4.7,2-9.67,1.55l.55-2.88Z"/><path class="cls-4" d="M1285.05,724.86l2.9.29-3.32-.1Z"/><path class="cls-4" d="M1232.34,742.34l6.78,3.21C1230.88,744.73,1230.77,742.18,1232.34,742.34Z"/><polygon class="cls-4" points="1194.9 744.5 1200.66 745.5 1182.63 744.54 1194.9 744.5"/><polygon class="cls-4" points="1149.78 742.95 1148.18 743.63 1135.82 742.82 1149.78 742.95"/><path class="cls-4" d="M658.66,740.26c-1.87-2.71,17.82-1.59,23.55-2.29C678.29,741.38,666.51,736.84,658.66,740.26Z"/><path class="cls-4" d="M301.06,740.37l18.82.62C305.3,742.06,315.81,741,301.06,740.37Z"/></g></g></g></svg>