<?xml version="1.0" encoding="utf-8"?>
<!-- Generator: Adobe Illustrator 22.0.0, SVG Export Plug-In . SVG Version: 6.00 Build 0)  -->
<svg version="1.1" id="Layer_1" xmlns="http://www.w3.org/2000/svg" xmlns:xlink="http://www.w3.org/1999/xlink" x="0px" y="0px"
	 viewBox="0 0 841.9 595.3" style="enable-background:new 0 0 841.9 595.3;" xml:space="preserve">
<style type="text/css">
	.st0{fill:#FFFFFF;}
	.st1{fill:#286380;}
</style>
<g>
	<g>
		<g>
			<path class="st0" d="M23.7,231.5h794.6v97.4c0,0-111.7,53-262.6,70.2s-216.8,5.7-268.4,0c0,0-114.6-8.6-263.6-69.7V231.5z"/>
		</g>
		<g>
			<g>
				<g>
					<path class="st1" d="M147.3,254.2c3.2,0.2,6.3,1.2,9.2,3.1c2.9,1.9,5.5,4.4,7.6,7.5c2.2,3.2,3.8,6.9,5.1,11.2
						c1.2,4.1,1.9,9.1,1.7,13.4c-0.1,4.6-0.8,8.9-2.2,12.7c-1.4,3.8-3.2,6.9-5.4,9.2c-2.2,2.4-4.8,4-7.7,4.7
						c-2.9,0.8-5.9,0.6-9.1-0.5c-3.1-1.1-6.1-2.9-8.9-5.4c-2.8-2.5-5.3-5.4-7.4-8.7c-2.1-3.3-3.9-6.7-5.2-10.4
						c-1.3-3.7-1.9-7.4-1.9-11.1c0-3.8,0.7-7.2,2-10.3c1.3-3.2,3.1-5.9,5.3-8.2c2.2-2.3,4.8-4.1,7.7-5.5
						C141,254.6,144.1,254,147.3,254.2z M146.7,312.4c1.8,0.6,3.3,0.3,4.6-1c1.3-1.3,2.4-3.1,3.3-5.6c0.9-2.5,1.5-5.4,2-8.7
						c0.4-3.3,0.7-6.8,0.7-10.3c0.1-3.4-0.1-6.9-0.4-10.4c-0.3-3.5-0.9-6.6-1.7-9.4c-0.8-2.8-1.9-5.1-3.1-6.9
						c-1.3-1.8-2.8-2.7-4.7-2.9c-1.8-0.1-3.4,0.6-4.7,2.1c-1.3,1.5-2.4,3.5-3.2,5.9c-0.8,2.4-1.5,5.2-1.9,8.2
						c-0.4,3.1-0.7,6.2-0.7,9.3c0,3.2,0.2,6.4,0.5,9.7c0.4,3.2,1,6.2,1.7,9c0.8,2.8,1.8,5.1,3,7.1
						C143.4,310.6,144.9,311.9,146.7,312.4z M184.5,288.8c-1.4-0.2-2.2-0.3-3.6-0.6c-0.6,1.3-1.4,2.3-2.5,2.9
						c-1.1,0.6-2.2,0.8-3.5,0.6c-1.8-0.3-3.4-1.4-4.6-3.3c-1.3-1.8-1.9-3.9-1.8-6.1c5.4,0.8,10.7,1.6,16.1,2.4
						C184.6,286.3,184.5,287.1,184.5,288.8z M196.6,341.8c-0.1,2.7-0.9,4.7-2.4,5.9c-1.6,1.2-3.3,1.9-5.1,2.1
						c-2.1,0.3-4.6,0.2-7.3-0.4c0.7-33.7,1.4-67.5,2.1-101.2c-2.1-0.4-3.1-0.5-5.2-0.9c-0.6-0.2-0.8-0.6-0.8-1.2
						c0-0.7,0.3-1.1,1-1.1c0,0,0.1,0,0.1,0c6.6,0.9,13.3,1.9,19.9,2.9C198,279.3,197.3,310.6,196.6,341.8z"/>
				</g>
				<g>
					<path class="st1" d="M252.4,309.1c0,1.6-0.3,2.9-0.7,4c-0.4,1.1-1,2-1.7,2.8c-0.7,0.7-1.5,1.3-2.4,1.8
						c-0.9,0.4-1.8,0.7-2.8,0.9c-2.2,0.4-4.7,0.4-7.5-0.1c0.1-4.6,0.2-6.8,0.3-11.4c-8.2-1.2-16.4-2.5-24.5-3.8
						c-2.3,1-3.4,1.5-5.7,2.5c-2.2-1.8-3.3-2.7-5.5-4.4c0-1,0-1.6,0.1-2.6c21.8,3.6,43.6,6.7,65.6,9.3c3.8-3.5,5.8-5.4,9.6-9.1
						c3.1,3.7,6.1,7.4,9.2,11.1c0,1.2,0,1.9-0.1,3.1C274.9,312,263.6,310.6,252.4,309.1z M275.9,369c0,1.2,0,1.7-0.1,2.9
						c-18.9-4-37.5-8.6-56.1-13.9c-1.5-0.4-2.7-1.2-3.4-2.3c-0.8-1.1-1.3-2.2-1.6-3.4c-0.3-1.3-0.5-2.7-0.6-4.4
						c0.1-4.6,0.2-9.2,0.3-13.8c-1.1-0.3-1.7-0.4-2.8-0.7c-0.6-0.2-0.9-0.7-0.9-1.6c0-0.9,0.3-1.3,1-1.1
						c16.2,3.8,32.4,7.2,48.8,10.2c0.1-6,0.3-11.9,0.4-17.9c-11-1.7-21.9-3.5-32.8-5.4c-3.2,1.6-4.9,2.4-8.1,3.9
						c-3.1-2.8-4.7-4.2-7.8-6.9c0-1,0-1.5,0.1-2.5c15.8,3,31.7,5.6,47.6,8c3.3-1.9,4.9-2.8,8.2-4.8c3.2,2.8,4.8,4.2,7.9,7
						c-0.2,8.1-0.3,16.1-0.5,24.2c-5-0.8-10-1.7-15-2.6c-10.1-1.9-20.2-4-30.3-6.2c-0.1,5.9-0.3,11.9-0.4,17.8c0,0.6,0,1,0.2,1.5
						c0.2,0.9,0.7,1.5,1.5,1.7c7.6,2,15.2,3.9,22.9,5.7c4.4-2.1,6.5-3.2,10.9-5.6C268.8,362.2,272.4,365.6,275.9,369z M251.5,250.7
						c3.7,0.6,7.1,1.6,10.3,3.1c3.2,1.5,5.9,3.4,8.1,5.7c2.3,2.3,4.1,4.9,5.3,7.8c1.3,2.9,1.9,6.1,1.8,9.4c-0.1,3.6-1,6.8-2.6,9.6
						c-1.7,2.8-4,5.2-6.9,7c-2.9,1.9-6.2,3.1-10.1,3.9c-3.8,0.7-7.9,0.8-12.2,0.3c-4.3-0.5-8.4-1.6-12.1-3.1c-3.7-1.5-7-3.5-9.8-5.7
						c-2.8-2.3-4.9-4.8-6.5-7.6c-1.6-2.8-2.3-5.7-2.2-8.9c0.1-3.5,1.1-6.6,3.1-9.3c2-2.7,4.5-5,7.6-6.8c3.1-1.9,6.4-3.3,10.1-4.3
						c3.7-1,7.3-1.5,10.9-1.4C248.5,250.6,249.5,250.6,251.5,250.7z M245.4,293.5c3.1,0.3,5.7,0.1,7.8-0.6c2.2-0.8,3.9-2,5.3-3.6
						c1.4-1.7,2.4-3.6,3-5.9c0.6-2.3,1-4.8,1-7.5c0.1-2.7-0.2-5.3-0.7-7.8c-0.5-2.5-1.4-4.8-2.7-6.7c-1.3-2-3-3.6-5.1-4.8
						c-2.1-1.2-4.7-1.8-7.7-1.9c-3.1-0.1-5.8,0.4-7.9,1.4c-2.2,1-3.9,2.4-5.3,4.2c-1.3,1.8-2.3,3.8-3,6.1c-0.6,2.3-1,4.7-1,7.2
						c-0.1,2.5,0.2,4.9,0.7,7.1c0.5,2.2,1.4,4.3,2.7,6.1c1.3,1.8,2.9,3.3,5.1,4.5C239.7,292.4,242.3,293.2,245.4,293.5z"/>
				</g>
				<g>
					<path class="st1" d="M355,283.9c-1.9,7.3-4,14.3-7.6,21c-1.4,2.6-3,5.1-4.8,7.5c-1.8,2.4-3.9,4.6-6.2,6.4
						c-2.3,1.8-4.9,3.2-7.8,4.2c-2.9,1-6.1,1.3-9.5,1c-7.7-0.7-15.5-1.4-23.2-2.3c-1.5-0.2-2.7-0.8-3.5-1.9
						c-0.8-1.1-1.3-2.3-1.6-3.5c-0.3-1.4-0.6-3-0.6-4.9c0.1-6.9,0.3-13.7,0.4-20.6c-1.2-0.1-1.7-0.1-2.9-0.2c-0.6,0-0.9-0.6-0.9-1.6
						c0-1,0.4-1.5,1-1.5c9,0.6,18,1.2,27.1,1.7c0.1-8,0.3-16.1,0.4-24.1c-4.4-0.1-6.6-0.2-10.9-0.3c-3.3,2.4-4.9,3.6-8.2,5.9
						c-3.2-2.6-4.8-3.9-7.9-6.4c0-1.2,0-1.8,0.1-3c5.1,0.2,10.3,0.3,15.4,0.4c0-0.1,0-0.1,0-0.2c4.1,0.1,6.2,0.2,10.3,0.3
						c3.3-2.4,4.9-3.7,8.1-6.1c3.2,2.6,4.8,3.9,7.9,6.5c0,0.1,0,0.1,0,0.2c0,0,0.1,0,0.1,0c-0.1,10.2-0.3,20.5-0.4,30.7
						c-5-0.2-10-0.5-15-0.8c-3.3-0.2-5-0.3-8.4-0.5c-0.1,8.2-0.3,16.4-0.4,24.6c5.3,0.5,7.9,0.7,13.2,1.1c3.9,0.3,7.2,0.2,9.8-0.5
						c2.6-0.6,4.8-1.7,6.7-3.1c1.8-1.4,3.4-3.2,4.7-5.3c1.3-2.1,2.6-4.5,3.9-7.2c1.3-2.7,2.8-5.6,4.3-8.9c1.5-3.2,3.5-6.6,5.8-10.2
						C354.6,282.9,354.8,283.2,355,283.9z M362.7,380.6c0.5,0,0.8,0.3,1.2,0.8c0.3,0.5,0.5,1.1,0.5,1.9c0,0.8-0.2,1.4-0.5,1.9
						c-0.3,0.5-0.7,0.8-1.2,0.7c-16.2-1.4-32.3-3.3-48.4-5.6c-1.1,1.4-2.4,2.6-3.9,3.3c-1.5,0.8-2.9,1.3-4.2,1.6
						c-1.6,0.4-3.2,0.6-4.8,0.6c0.3-16.9,0.6-33.8,0.9-50.7c-2.1-0.6-3.2-0.9-5.3-1.6c-0.3,0-0.5-0.2-0.6-0.5
						c-0.2-0.3-0.2-0.7-0.2-1c0-1,0.4-1.5,1-1.5c0,0,0.1,0,0.1,0c6.7,1.8,13.4,3.6,20.1,5.4c8.6,0.8,17.1,1.6,25.7,2.3
						c3.2-2.3,4.8-3.4,8-5.7c3.2,2.8,4.8,4.2,8.1,7c-0.1,13-0.3,26-0.4,39C360.3,379.5,361.1,379.8,362.7,380.6z M317.3,341.3
						c-0.2,10.4-0.3,20.8-0.5,31.2c0,1.1-0.1,2.1-0.3,3c9,1.3,18.1,2.4,27.1,3.4c0.1-11.7,0.3-23.4,0.4-35.1
						C335.1,343.1,326.2,342.2,317.3,341.3z M359.4,314.8c0,3.6-0.9,6.4-2.5,8.6c-1.6,2.1-3.4,3.7-5.2,4.7c-2.2,1.2-4.7,2-7.6,2.5
						c0.3-26.5,0.7-53,1-79.4c-2.1-0.4-3.1-0.6-5.2-1c-0.3,0-0.5-0.2-0.6-0.5c-0.2-0.3-0.2-0.7-0.2-1c0-1.1,0.3-1.6,1-1.6
						c0,0,0.1,0,0.1,0c6.7,1.1,13.3,2.3,19.9,3.4C359.9,271.9,359.6,293.3,359.4,314.8z"/>
				</g>
				<g>
					<path class="st1" d="M402.9,330.3c-2.3,1.7-3.4,2.6-5.7,4.3c-2.3-1.8-3.4-2.7-5.7-4.5c0-1.4,0-2,0-3.4
						c22.2,0.5,44.4,0.4,66.7-0.2c3.1-3.8,6.3-7.6,9.4-11.5c3.2,3.6,6.4,7.2,9.6,10.7c0,1.3,0,2,0,3.4
						C452.4,330.2,427.7,330.7,402.9,330.3z M438.8,280.5c0.6,0.6,1.7,1.3,3.3,2.3c1.5,0.9,3.3,2,5.2,3.2s3.9,2.4,5.9,3.8
						c2,1.4,3.9,2.8,5.6,4.2c1.7,1.4,3.1,2.9,4.1,4.4c1.1,1.5,1.6,2.9,1.5,4.3c-0.1,2.4-0.6,4.4-1.5,6.2c-0.9,1.8-2,3.1-3.2,4
						c-1.3,0.9-2.6,1.2-4,1c-1.4-0.2-2.7-1.1-3.8-2.6c-0.4-0.6-1.3-1.8-2.9-3.8c-1.5-2-3.2-4.3-5-6.8c-1.8-2.5-3.5-5.1-5.2-7.6
						c-1.7-2.5-2.9-4.5-3.6-6c-0.7,1.3-1,1.9-1.6,3.2c-1.5,2.5-3.7,4.9-6.7,7.1c-3,2.2-6.2,4.2-9.7,6.1c-3.5,1.8-7.1,3.4-10.6,4.9
						c-3.6,1.4-6.7,2.6-9.4,3.6c-0.5-0.8-0.7-1.1-1.2-1.9c4.1-2.2,8.2-5.6,11.3-9c3-3.3,5.9-7.2,8.2-11c2.3-3.8,4.1-7.6,5.5-11.3
						c1.4-3.7,2.4-7.1,3.1-10.1c0,0-0.1,0-0.1,0c-5.4,0-10.9,0-16.3,0c-1.9,1.6-2.8,2.3-4.7,3.9c-1.9-1.6-2.8-2.4-4.7-3.9
						c0-1.2,0-1.8,0-3.1c16.2,0.1,32.4,0.1,48.6,0c0.4,0,0.6,0,1.1,0c3-2.1,4.5-3.2,7.5-5.3c3,2.1,4.5,3.1,7.5,5.2c0,1.2,0,1.8,0,3
						c-5.3,0.1-10.7,0.1-16,0.2c-2.3,0-3.5,0-5.9,0c-2.1,0-3.2,0-5.3,0c1.5,0.4,2.8,0.9,3.7,1.4c1,0.5,1.4,1.3,1.3,2.5
						c-0.1,0.5-0.2,1.1-0.4,1.8c-0.2,0.7-0.4,1.5-0.6,2.3c-0.2,0.8-0.4,1.6-0.6,2.3C439.1,279.6,438.9,280.2,438.8,280.5z
						 M437,338.5c3.8,0.5,7.3,1.6,10.5,3.3c3.2,1.7,6.1,3.8,8.4,6.3c2.4,2.5,4.3,5.4,5.6,8.7c1.4,3.3,2.1,6.9,2.1,10.7
						c0,4.1-0.8,7.8-2.4,11.4c-1.6,3.5-3.9,6.6-6.8,9.2c-2.9,2.6-6.3,4.7-10.2,6.3c-3.9,1.5-8,2.4-12.5,2.4c-4.4,0.1-8.6-0.6-12.5-2
						c-3.9-1.4-7.2-3.4-10.1-6c-2.9-2.5-5.2-5.6-6.8-9.1c-1.7-3.5-2.5-7.3-2.5-11.4c0-4.6,1-8.8,3-12.5c2-3.7,4.5-6.8,7.6-9.4
						c3.1-2.6,6.5-4.5,10.2-5.9c3.7-1.4,7.4-2.1,11-2.1c0.9,0,1.8,0,2.6,0C435.2,338.4,436,338.4,437,338.5z M431.8,392.1
						c2.5,0,4.6-0.7,6.3-2c1.7-1.3,3.1-3,4.2-5.1c1.1-2.1,1.8-4.6,2.3-7.5c0.5-2.8,0.7-5.9,0.7-9.2c0-3.3-0.3-6.4-0.8-9.5
						c-0.5-3-1.3-5.7-2.4-8c-1.1-2.3-2.5-4.1-4.2-5.5c-1.7-1.4-3.8-2.1-6.3-2c-2.5,0-4.6,0.8-6.3,2.2c-1.7,1.4-3.1,3.3-4.1,5.6
						c-1.1,2.3-1.8,5-2.3,8.1c-0.5,3.1-0.7,6.2-0.7,9.5c0,3.3,0.2,6.4,0.7,9.2c0.5,2.8,1.2,5.3,2.3,7.4c1.1,2.1,2.5,3.8,4.2,5
						C427.1,391.5,429.3,392.1,431.8,392.1z M439.9,250.9c1,1.9,1.1,3.8,0.5,5.6c-0.6,1.8-1.6,3.3-3,4.3c-1.4,1.1-2.9,1.7-4.5,1.7
						c-1.7,0.1-3-0.7-4-2.3c-0.4-0.6-0.9-1.3-1.5-2.3c-0.6-1-1.3-2.1-2.1-3.3c-0.8-1.2-1.5-2.6-2.3-4.1c-0.8-1.5-1.5-3.1-2.1-4.8
						c2.2-1.7,4.5-2.8,6.7-3.1c1.9-0.3,4,0.2,6.2,1.2C435.9,245,438,247.3,439.9,250.9z M441.1,328.6c-5,0.1-10.1,0.1-15.1,0.2
						c0-10.4,0-20.8,0-31.2c2.8,0.7,5.3,1.7,7.5,3c1,0.6,1.9,1.3,2.8,2.1c0.9,0.8,1.7,1.8,2.4,3c0.7,1.1,1.3,2.4,1.7,3.9
						c0.4,1.5,0.6,3.1,0.6,4.9C441.1,319.2,441.1,323.9,441.1,328.6z"/>
				</g>
				<g>
					<path class="st1" d="M487.6,271c-1.9,1.8-2.8,2.7-4.7,4.4c-1.9-1.7-2.8-2.5-4.7-4.3c0-1.3,0-2,0-3.4
						c12.1-0.2,24.2-0.5,36.2-0.8c3-2.4,4.4-3.6,7.4-6c3,2.3,4.5,3.4,7.6,5.6c0,1.3,0,1.9,0.1,3.2
						C515.5,270.3,501.6,270.7,487.6,271z M504.6,274.2c3.3-0.1,6.4,0.6,9.4,2c3,1.4,5.6,3.4,7.9,5.9c2.3,2.5,4.1,5.5,5.5,9
						c1.4,3.5,2.1,7.2,2.2,11.3c0.1,4-0.5,7.8-1.8,11.4c-1.3,3.7-3,6.9-5.2,9.7c-2.2,2.8-4.8,5.2-7.8,6.9c-3,1.8-6.1,2.8-9.4,3.1
						c-3.3,0.3-6.4-0.3-9.4-1.6c-3-1.3-5.6-3.3-7.9-5.9c-2.3-2.6-4.1-5.7-5.5-9.3c-1.4-3.6-2.1-7.5-2.1-11.6c0-4.2,0.6-8.2,1.9-12
						c1.3-3.7,3.1-7,5.3-9.8c2.2-2.8,4.8-5,7.7-6.6C498.2,275.2,501.3,274.3,504.6,274.2z M549.9,362.3c0,2.5-0.3,4.8-1.1,6.7
						c-0.8,2-1.8,3.7-3,5.2c-1.2,1.5-2.5,2.8-3.9,3.9c-1.4,1.1-2.7,2-4,2.7c-1.3,0.7-2.3,1.2-3.2,1.6c-0.9,0.4-1.3,0.5-1.4,0.6
						c-0.2-13.7-0.5-27.3-0.7-41c-9.5,1.1-18.9,2.1-28.4,2.9c-3.3,2.8-4.9,4.2-8.2,7c-3.3-2.2-4.9-3.4-8.2-5.7c0-1.3,0-1.9,0-3.2
						c20.7-1.5,41.2-3.5,61.8-6.1C549.6,345.3,549.8,353.8,549.9,362.3z M511,249.8c1,1.8,1.2,3.6,0.6,5.4c-0.6,1.8-1.6,3.2-3,4.2
						c-1.4,1.1-2.9,1.6-4.5,1.7c-1.7,0.1-3-0.6-4.1-2.2c-0.4-0.5-0.9-1.3-1.6-2.2c-0.6-0.9-1.4-2-2.1-3.2c-0.8-1.2-1.6-2.5-2.3-4
						c-0.8-1.4-1.5-3-2.2-4.6c2.2-1.7,4.5-2.7,6.7-3c1.9-0.2,4,0.2,6.2,1.1C507,244.1,509.1,246.4,511,249.8z M505.3,330.7
						c1.9-0.1,3.5-1.1,4.8-2.8c1.3-1.7,2.4-3.8,3.2-6.4c0.8-2.6,1.4-5.4,1.8-8.6c0.3-3.2,0.5-6.3,0.4-9.5c0-3.3-0.3-6.5-0.7-9.6
						c-0.4-3.1-1.1-6-2-8.5c-0.9-2.5-2-4.5-3.4-6c-1.3-1.5-2.9-2.2-4.8-2.1c-1.9,0.1-3.4,0.9-4.7,2.5c-1.3,1.6-2.3,3.7-3.1,6.3
						c-0.8,2.6-1.4,5.5-1.8,8.8c-0.4,3.2-0.5,6.5-0.5,9.8c0,3.2,0.3,6.4,0.7,9.6c0.5,3.2,1.1,6,2,8.5c0.9,2.5,2,4.5,3.3,6
						C501.9,330.1,503.5,330.8,505.3,330.7z M556.9,282.5c1.9-0.1,3.5,0.8,4.8,2.9c1.4,2,2.1,4.5,2.1,7.5
						c-5.1,0.4-10.2,0.8-15.3,1.2c0.1,7.5,0.3,15,0.4,22.4c0.1,3.3-0.7,6.1-2.2,8.4c-1.5,2.3-3.2,4-5.1,5.3
						c-2.2,1.5-4.6,2.8-7.5,3.7c-0.5-27.7-1-55.4-1.5-83.1c-2.1-0.4-3.2-0.5-5.3-0.9c-0.3,0-0.5-0.2-0.6-0.5c-0.2-0.3-0.2-0.6-0.3-1
						c0-1.1,0.3-1.6,0.9-1.6c0,0,0.1,0,0.1,0c6.7,1,13.4,2,20,3c0.3,13,0.5,26,0.8,39c1.1-0.1,1.6-0.1,2.7-0.2
						c0.5-1.8,1.3-3.3,2.4-4.4C554.5,283.1,555.7,282.5,556.9,282.5z"/>
				</g>
				<g>
					<path class="st1" d="M584.2,255.8c2-0.1,3.6,0.6,4.6,1.8c1,1.3,1.9,2.7,2.3,4.2c0.5,1.8,0.8,3.9,0.7,6.2
						c-0.1,3.2-0.3,6.4-0.5,9.6c-0.2,3.2-0.6,5.8-1.1,7.9c1,0.8,2.3,1.9,4,3.4c1.7,1.4,3.3,3.1,4.9,4.9c1.6,1.8,3,3.8,4.2,6
						c1.1,2.1,1.7,4.3,1.7,6.3c0,2.5-0.6,4.4-1.5,5.9c-1,1.4-2.1,2.5-3.3,3c-1.3,0.6-2.5,0.8-3.7,0.7c-1.2-0.1-2-0.5-2.6-1.2
						c-1-1.3-1.7-2.8-2.3-4.5c-0.5-1.7-0.9-3.4-1.3-5.2c-0.3-1.8-0.7-3.5-1.1-5.3c-0.4-1.8-1-3.4-1.7-4.9c-0.6,1.4-0.9,2.1-1.5,3.6
						c-1.4,2.8-3.1,5.4-5.2,7.9c-2.1,2.4-4.3,4.7-6.7,6.8c-2.4,2.1-4.9,4-7.6,5.7c-2.7,1.7-5.3,3.3-7.9,4.9c-0.5-0.8-0.7-1.2-1.2-2
						c3.4-2.7,6.6-6.5,8.8-10.1c2.3-3.8,4.2-7.8,5.5-12c1.3-4.2,2.3-8.3,2.9-12.5c0.6-4.2,1-8.1,1.2-11.8c0.2-3.7,0.2-7.1,0.2-10
						c-0.1-3-0.1-5.2-0.1-6.8c-2,0.1-3,0.1-5,0.2c-0.6,0-1-0.3-1-1c0-0.7,0.3-1.1,0.9-1.1C576.4,256.1,579,256,584.2,255.8z
						 M618.6,313.1c3,0,5.8,0.5,8.4,1.5c2.6,0.9,4.9,2.3,6.8,4.1c1.9,1.8,3.5,3.9,4.6,6.4c1.1,2.5,1.7,5.4,1.8,8.5
						c0.1,3.4-0.5,6.7-1.8,9.9c-1.3,3.2-3,6.2-5.2,9c-2.2,2.8-4.8,5.2-7.9,7.3c-3,2.1-6.3,3.7-9.8,4.7c-3.5,1-6.8,1.3-9.9,0.9
						c-3.1-0.4-5.8-1.5-8.2-3.1c-2.3-1.7-4.2-4-5.6-6.9c-1.4-2.9-2.2-6.2-2.2-10.1c-0.1-4.3,0.6-8.3,2.1-12c1.5-3.7,3.4-6.9,5.8-9.7
						c2.4-2.8,5.1-5,8.1-6.8c3-1.7,5.9-2.8,8.8-3.3c0.7-0.1,1.4-0.2,2.1-0.3C617.2,313.2,617.9,313.1,618.6,313.1z M636.8,281
						c-5.7,0.7-11.4,1.3-17.1,1.9c0.1,5,0.2,10,0.4,15c0.1,2.9-0.5,5.4-1.8,7.4c-1.3,2-2.8,3.7-4.4,4.9c-1.8,1.4-4,2.6-6.4,3.6
						c-0.5-19.9-0.9-39.8-1.4-59.7c-2.1-0.3-3.2-0.4-5.3-0.7c-0.6-0.2-0.9-0.6-0.9-1.4c0-0.9,0.3-1.3,0.9-1.3c0,0,0.1,0,0.1,0
						c6,0.8,12.1,1.6,18.1,2.3c0.2,8.5,0.4,17,0.6,25.5c5.6-0.5,11.3-1.1,16.9-1.7C636.6,278.5,636.6,279.3,636.8,281z M615.5,360.3
						c2-0.6,3.6-1.6,4.9-3c1.3-1.4,2.4-3.2,3.2-5.3c0.8-2.1,1.4-4.4,1.7-6.9c0.3-2.5,0.5-5.2,0.4-7.9c-0.1-2.8-0.3-5.4-0.8-7.9
						c-0.4-2.5-1.1-4.7-2-6.5c-0.9-1.8-2-3.2-3.4-4.2c-1.4-1-3.1-1.3-5-0.9c-2,0.4-3.7,1.3-5,2.8c-1.3,1.5-2.4,3.4-3.2,5.6
						c-0.8,2.2-1.3,4.8-1.6,7.5c-0.3,2.8-0.4,5.7-0.4,8.6c0.1,2.9,0.3,5.5,0.8,8c0.4,2.5,1.1,4.6,2,6.2c0.9,1.7,2,2.9,3.4,3.6
						C611.8,360.8,613.5,360.9,615.5,360.3z M639.1,298.9c0.1,2.8-0.5,5.1-1.8,7.1c-1.3,2-2.7,3.6-4.4,4.9c-1.8,1.4-4,2.6-6.4,3.6
						c-0.5-21.8-1-43.6-1.5-65.3c-2.1-0.3-3.2-0.4-5.3-0.7c-0.6-0.2-0.9-0.6-0.9-1.4c0-0.8,0.3-1.2,0.9-1.3c0,0,0.1,0,0.1,0
						c6,0.8,12.1,1.6,18.1,2.3C638.3,265.1,638.7,282,639.1,298.9z"/>
				</g>
				<g>
					<path class="st1" d="M657.1,325.6c-2.2,1.9-3.3,2.9-5.5,4.8c-2.2-0.7-3.4-1-5.6-1.8c0-1,0-1.5-0.1-2.6
						c13.3-3.5,26.5-7.2,39.6-11.2c3.6-1.4,6.5-2.7,8.9-3.8c2.3-1.1,4.2-2.2,5.7-3.2c1.5-1,2.7-2,3.5-3c0.9-1,1.6-2.1,2.2-3.3
						c0.6-1.2,1.3-2.6,2-4.1c0.7-1.5,1.5-3.3,2.6-5.3c0.3,0.3,0.4,0.5,0.7,0.8c0.6,2.8,0,5.6-1.8,8.4c-0.8,1.3-1.9,2.6-3.2,3.9
						c-1.3,1.4-3.1,2.8-5.3,4.3c-2.2,1.5-4.9,3-8,4.5c-3.1,1.5-6.9,2.9-11.2,4.3C673.4,320.9,665.3,323.3,657.1,325.6z M657.7,259.2
						c-1.8,1.4-2.8,2.1-4.6,3.5c-1.9-1.2-2.8-1.8-4.7-3c0-1,0-1.5-0.1-2.5c12-0.6,24-1.3,36-2.1c2.9-1.8,4.4-2.7,7.4-4.4
						c3,1.4,4.5,2.1,7.5,3.4c0,0.8,0,1.3,0,2.1C685.3,257.4,671.5,258.3,657.7,259.2z M672,261c2.8-0.2,5.4,0.1,8,1
						c2.5,0.8,4.7,2.1,6.6,3.6c1.9,1.5,3.4,3.4,4.6,5.6c1.1,2.2,1.7,4.6,1.7,7.3c0,2.6-0.5,5.1-1.5,7.7c-1.1,2.5-2.5,4.9-4.4,7.1
						c-1.8,2.2-4,4.1-6.4,5.7c-2.5,1.6-5,2.7-7.8,3.4c-2.8,0.6-5.4,0.7-7.9,0.1c-2.5-0.5-4.7-1.6-6.6-3.3c-1.9-1.6-3.5-3.7-4.6-6.2
						c-1.2-2.5-1.8-5.3-1.8-8.3c-0.1-3.2,0.4-6.2,1.5-9c1-2.8,2.5-5.2,4.4-7.4c1.9-2.1,4-3.8,6.5-5.1
						C666.6,261.9,669.2,261.2,672,261z M680,245.3c1,1.3,1.2,2.5,0.5,3.7c-0.6,1.2-1.6,2.2-3,3c-1.4,0.8-2.9,1.3-4.5,1.4
						c-1.6,0.1-3-0.3-4-1.4c-0.4-0.4-0.9-0.9-1.6-1.5c-0.6-0.6-1.4-1.4-2.1-2.3c-0.8-0.9-1.6-1.8-2.3-2.8c-0.8-1-1.5-2.2-2.2-3.4
						c2.2-1.2,4.4-2,6.6-2.2c1.9-0.2,4,0.1,6.2,0.8C676,241.3,678.1,242.9,680,245.3z M672.7,300.2c1.6-0.3,2.9-1.2,4-2.6
						c1.1-1.4,2-3,2.7-4.8c0.7-1.9,1.2-3.9,1.5-6.1c0.3-2.2,0.4-4.3,0.4-6.4c0-2.3-0.2-4.4-0.6-6.5c-0.3-2.1-0.9-4-1.7-5.6
						c-0.8-1.7-1.7-3-2.8-3.9c-1.1-0.9-2.5-1.4-4.1-1.2c-1.6,0.1-2.9,0.8-4,1.9c-1.1,1.2-2,2.7-2.6,4.6c-0.7,1.9-1.1,4-1.4,6.3
						c-0.3,2.3-0.4,4.7-0.4,7.1c0,2.3,0.3,4.5,0.7,6.7c0.4,2.2,0.9,4.1,1.7,5.8c0.7,1.7,1.6,3,2.8,3.9
						C669.8,300.3,671.2,300.6,672.7,300.2z M680.8,317.5c-4.5,1.4-9.1,2.7-13.6,4c-0.1-6.9-0.3-13.8-0.4-20.7
						c2.5-0.1,4.9,0.1,6.9,0.6c1.7,0.4,3.3,1.3,4.7,2.4c1.5,1.1,2.2,2.9,2.2,5.3C680.7,312.5,680.8,314.2,680.8,317.5z M718.7,315.5
						c0,2-0.7,4-2.2,6c-1.5,1.9-3.1,3.7-4.9,5.1c-2.1,1.7-4.4,3.4-7.1,5c-0.2-28.2-0.4-56.4-0.7-84.6c-2.1-0.2-3.1-0.3-5.2-0.5
						c-0.6-0.1-0.9-0.5-0.9-1c0-0.6,0.3-1,0.9-1c0,0,0.1,0,0.1,0c6.6,0.5,13.3,1,19.9,1.5C718.7,269.1,718.7,292.3,718.7,315.5z"/>
				</g>
			</g>
		</g>
	</g>
	<g>
		<path class="st1" d="M409.9,412C409.9,412,409.9,412,409.9,412c-1.6,0-3.2,0-4.8,0c-2.1,0-3.8-1.7-3.8-3.9c0-2.1,1.7-3.8,3.8-3.8
			c0,0,0,0,0,0c1.6,0,3.2,0,4.8,0c2.1,0,3.8,1.7,3.8,3.8C413.7,410.3,412,412,409.9,412z M426.6,411.9c-2.1,0-3.8-1.7-3.8-3.8
			c0-2.1,1.7-3.8,3.8-3.9c1.6,0,3.2-0.1,4.8-0.1c0,0,0.1,0,0.1,0c2.1,0,3.8,1.7,3.8,3.7c0,2.1-1.6,3.9-3.7,3.9
			C429.8,411.8,428.2,411.9,426.6,411.9C426.6,411.9,426.6,411.9,426.6,411.9z M388.4,411.6c0,0-0.1,0-0.1,0c-1.6,0-3.2-0.1-4.8-0.2
			c-2.1-0.1-3.8-1.8-3.7-4c0.1-2.1,1.8-3.8,4-3.7c1.6,0.1,3.1,0.1,4.7,0.2c2.1,0.1,3.8,1.8,3.7,3.9
			C392.2,410,390.5,411.6,388.4,411.6z M448.1,411.3c-2,0-3.7-1.6-3.8-3.7c-0.1-2.1,1.6-3.9,3.7-4c1.6-0.1,3.2-0.1,4.8-0.2
			c2.1-0.1,3.9,1.6,4,3.7c0.1,2.1-1.6,3.9-3.7,4c-1.6,0.1-3.2,0.1-4.8,0.2C448.2,411.3,448.1,411.3,448.1,411.3z M366.9,410.7
			c-0.1,0-0.1,0-0.2,0c-1.6-0.1-3.2-0.2-4.8-0.3c-2.1-0.1-3.7-1.9-3.6-4.1c0.1-2.1,1.9-3.7,4.1-3.6c1.6,0.1,3.1,0.2,4.7,0.3
			c2.1,0.1,3.7,1.9,3.6,4C370.6,409.2,369,410.7,366.9,410.7z M469.5,410.4c-2,0-3.7-1.6-3.8-3.6c-0.1-2.1,1.5-3.9,3.6-4
			c1.6-0.1,3.2-0.2,4.8-0.3c2.1-0.1,3.9,1.5,4,3.6c0.1,2.1-1.5,3.9-3.6,4c-1.6,0.1-3.2,0.2-4.8,0.3
			C469.7,410.4,469.6,410.4,469.5,410.4z M345.5,409.2c-0.1,0-0.2,0-0.3,0c-1.6-0.1-3.2-0.3-4.8-0.4c-2.1-0.2-3.7-2-3.5-4.1
			c0.2-2.1,2-3.6,4.1-3.5c1.6,0.1,3.1,0.3,4.7,0.4c2.1,0.2,3.7,2,3.5,4.1C349.1,407.7,347.5,409.2,345.5,409.2z M491,409
			c-2,0-3.7-1.5-3.8-3.5c-0.2-2.1,1.4-3.9,3.5-4.1c1.6-0.1,3.2-0.2,4.7-0.4c2.1-0.2,3.9,1.4,4.1,3.5c0.2,2.1-1.4,3.9-3.5,4.1
			c-1.6,0.1-3.2,0.2-4.8,0.4C491.2,409,491.1,409,491,409z M512.4,407.3c-2,0-3.6-1.5-3.8-3.5c-0.2-2.1,1.4-4,3.5-4.1
			c1.6-0.1,3.2-0.3,4.7-0.4c2.1-0.2,4,1.4,4.1,3.5c0.2,2.1-1.4,4-3.5,4.1c-1.6,0.1-3.2,0.3-4.8,0.4
			C512.6,407.3,512.5,407.3,512.4,407.3z M324.1,407.2c-0.1,0-0.3,0-0.4,0c-1.6-0.2-3.2-0.3-4.8-0.5c-2.1-0.2-3.6-2.1-3.4-4.2
			c0.2-2.1,2.1-3.6,4.2-3.4c1.6,0.2,3.1,0.3,4.7,0.5c2.1,0.2,3.6,2.1,3.4,4.2C327.7,405.7,326.1,407.2,324.1,407.2z M533.8,405.3
			c-1.9,0-3.6-1.5-3.8-3.4c-0.2-2.1,1.3-4,3.4-4.2c1.6-0.2,3.1-0.3,4.7-0.5c2.1-0.2,4,1.3,4.2,3.4c0.2,2.1-1.3,4-3.4,4.2
			c-1.6,0.2-3.2,0.3-4.8,0.5C534,405.3,533.9,405.3,533.8,405.3z M302.8,404.7c-0.2,0-0.3,0-0.5,0l-4.7-0.6
			c-2.1-0.2-3.6-2.1-3.3-4.2c0.2-2.1,2.1-3.6,4.2-3.3l4.7,0.6c2.1,0.2,3.6,2.1,3.3,4.2C306.3,403.3,304.7,404.7,302.8,404.7z
			 M555.1,403c-1.9,0-3.6-1.4-3.8-3.4c-0.2-2.1,1.3-4,3.4-4.2l0.5-0.1c1.4-0.2,2.8-0.3,4.3-0.5c2.1-0.2,4,1.2,4.2,3.3
			c0.2,2.1-1.2,4-3.3,4.2c-1.4,0.2-2.9,0.3-4.3,0.5l-0.5,0.1C555.4,403,555.3,403,555.1,403z M281.4,402.4c-0.1,0-0.3,0-0.4,0
			c-1.4-0.1-3-0.3-4.8-0.5c-2.1-0.2-3.6-2.1-3.4-4.2c0.2-2.1,2.1-3.6,4.2-3.4c1.8,0.2,3.4,0.4,4.7,0.5c2.1,0.2,3.6,2.1,3.4,4.2
			C285,400.9,283.3,402.4,281.4,402.4z M576.5,400.3c-1.9,0-3.5-1.4-3.8-3.3c-0.3-2.1,1.2-4,3.3-4.3c1.6-0.2,3.1-0.4,4.7-0.7
			c2.1-0.3,4,1.1,4.3,3.2c0.3,2.1-1.1,4-3.2,4.3c-1.6,0.2-3.2,0.5-4.7,0.7C576.8,400.3,576.6,400.3,576.5,400.3z M260.1,399.6
			c-0.2,0-0.4,0-0.6,0c-1.5-0.2-3.1-0.5-4.8-0.7c-2.1-0.3-3.5-2.3-3.2-4.4c0.3-2.1,2.3-3.5,4.4-3.2c1.6,0.2,3.2,0.5,4.7,0.7
			c2.1,0.3,3.5,2.2,3.2,4.3C263.6,398.3,261.9,399.6,260.1,399.6z M597.7,397.1c-1.8,0-3.5-1.3-3.8-3.2c-0.3-2.1,1.1-4,3.2-4.4
			c1.6-0.3,3.1-0.5,4.7-0.8c2.1-0.4,4.1,1.1,4.4,3.1c0.3,2.1-1.1,4.1-3.1,4.4c-1.6,0.3-3.1,0.5-4.7,0.8
			C598.1,397.1,597.9,397.1,597.7,397.1z M238.8,396.2c-0.2,0-0.4,0-0.7-0.1c-1.5-0.3-3.1-0.5-4.7-0.8c-2.1-0.4-3.5-2.4-3.1-4.4
			c0.4-2.1,2.4-3.5,4.4-3.1c1.6,0.3,3.2,0.6,4.7,0.8c2.1,0.4,3.5,2.3,3.1,4.4C242.3,394.9,240.7,396.2,238.8,396.2z M618.9,393.4
			c-1.8,0-3.4-1.3-3.8-3.1c-0.4-2.1,1-4.1,3.1-4.5c1.6-0.3,3.1-0.6,4.7-0.9c2.1-0.4,4.1,1,4.5,3c0.4,2.1-1,4.1-3,4.5
			c-1.6,0.3-3.1,0.6-4.7,0.9C619.4,393.4,619.1,393.4,618.9,393.4z M217.7,392.3c-0.2,0-0.5,0-0.8-0.1c-1.5-0.3-3.1-0.6-4.7-1
			c-2.1-0.4-3.4-2.4-3-4.5c0.4-2.1,2.4-3.4,4.5-3c1.6,0.3,3.1,0.6,4.7,0.9c2.1,0.4,3.4,2.4,3,4.5C221.1,391,219.5,392.3,217.7,392.3
			z M640,389.2c-1.8,0-3.4-1.2-3.7-3c-0.4-2.1,0.9-4.1,3-4.5c1.6-0.3,3.1-0.7,4.7-1c2.1-0.4,4.1,0.9,4.5,2.9
			c0.4,2.1-0.9,4.1-2.9,4.5c-1.6,0.3-3.1,0.7-4.7,1C640.5,389.2,640.2,389.2,640,389.2z M196.7,387.8c-0.3,0-0.6,0-0.8-0.1
			c-1.5-0.3-3.1-0.7-4.7-1.1c-2.1-0.5-3.3-2.5-2.9-4.6c0.5-2.1,2.5-3.3,4.6-2.9c1.6,0.4,3.1,0.7,4.6,1c2.1,0.5,3.4,2.5,2.9,4.6
			C200,386.6,198.4,387.8,196.7,387.8z M661,384.5c-1.7,0-3.3-1.2-3.7-3c-0.5-2.1,0.8-4.1,2.9-4.6c1.6-0.4,3.1-0.7,4.6-1.1
			c2.1-0.5,4.1,0.8,4.6,2.8c0.5,2.1-0.8,4.1-2.8,4.6c-1.5,0.4-3.1,0.7-4.7,1.1C661.5,384.5,661.3,384.5,661,384.5z M175.8,382.9
			c-0.3,0-0.6,0-0.9-0.1c-1.5-0.4-3.1-0.8-4.7-1.2c-2-0.5-3.3-2.6-2.8-4.6c0.5-2,2.6-3.3,4.6-2.8c1.6,0.4,3.1,0.8,4.6,1.1
			c2,0.5,3.3,2.6,2.8,4.6C179,381.8,177.5,382.9,175.8,382.9z M681.8,379.4c-1.7,0-3.3-1.1-3.7-2.9c-0.5-2,0.7-4.1,2.7-4.7
			c1.5-0.4,3.1-0.8,4.6-1.2c2-0.5,4.1,0.7,4.7,2.7c0.5,2-0.7,4.1-2.7,4.7c-1.5,0.4-3.1,0.8-4.6,1.2
			C682.5,379.4,682.2,379.4,681.8,379.4z M154.9,377.6c-0.3,0-0.7,0-1-0.1c-1.5-0.4-3.1-0.8-4.6-1.3c-2-0.6-3.2-2.7-2.7-4.7
			c0.6-2,2.7-3.2,4.7-2.7c1.5,0.4,3.1,0.8,4.6,1.2c2,0.5,3.2,2.6,2.7,4.7C158.2,376.4,156.6,377.6,154.9,377.6z M702.6,373.8
			c-1.7,0-3.2-1.1-3.7-2.8c-0.6-2,0.6-4.1,2.6-4.7c1.5-0.4,3.1-0.9,4.6-1.3c2-0.6,4.1,0.6,4.7,2.6c0.6,2-0.6,4.1-2.6,4.7
			c-1.5,0.4-3.1,0.9-4.6,1.3C703.3,373.8,702.9,373.8,702.6,373.8z M134.2,371.8c-0.4,0-0.7,0-1.1-0.2c-1.5-0.4-3.1-0.9-4.6-1.3
			c-2-0.6-3.2-2.7-2.6-4.7c0.6-2,2.7-3.2,4.7-2.6c1.5,0.5,3.1,0.9,4.6,1.3c2,0.6,3.2,2.7,2.6,4.7
			C137.4,370.7,135.9,371.8,134.2,371.8z M723.2,367.8c-1.6,0-3.2-1.1-3.7-2.7c-0.6-2,0.5-4.2,2.5-4.8c1.5-0.5,3-0.9,4.5-1.4
			c2-0.6,4.2,0.5,4.8,2.5c0.6,2-0.5,4.2-2.5,4.8c-1.5,0.5-3,0.9-4.6,1.4C724,367.7,723.6,367.8,723.2,367.8z M113.6,365.6
			c-0.4,0-0.8-0.1-1.1-0.2c-1.5-0.5-3-1-4.6-1.4c-2-0.6-3.1-2.8-2.5-4.8c0.6-2,2.8-3.1,4.8-2.5c1.5,0.5,3,1,4.5,1.4
			c2,0.6,3.1,2.8,2.5,4.8C116.8,364.6,115.3,365.6,113.6,365.6z M743.7,361.3c-1.6,0-3.1-1-3.6-2.6c-0.7-2,0.4-4.2,2.4-4.8
			c1.5-0.5,3-1,4.5-1.5c2-0.7,4.2,0.4,4.8,2.4c0.7,2-0.4,4.2-2.4,4.8c-1.5,0.5-3,1-4.6,1.5C744.5,361.2,744.1,361.3,743.7,361.3z
			 M93.2,359c-0.4,0-0.8-0.1-1.2-0.2c-1.5-0.5-3-1-4.5-1.5c-2-0.7-3.1-2.8-2.4-4.8c0.7-2,2.8-3.1,4.8-2.4c1.5,0.5,3,1,4.5,1.5
			c2,0.7,3.1,2.8,2.4,4.8C96.3,358,94.8,359,93.2,359z M764.1,354.3c-1.6,0-3-1-3.6-2.5c-0.7-2,0.3-4.2,2.3-4.9
			c1.5-0.5,3-1.1,4.5-1.6c2-0.7,4.2,0.3,4.9,2.3c0.7,2-0.3,4.2-2.3,4.9c-1.5,0.5-3,1.1-4.5,1.6C764.9,354.3,764.5,354.3,764.1,354.3
			z M72.9,352c-0.4,0-0.9-0.1-1.3-0.2c-1.5-0.5-3-1.1-4.5-1.6c-2-0.7-3-2.9-2.3-4.9c0.7-2,2.9-3,4.9-2.3c1.5,0.5,3,1.1,4.5,1.6
			c2,0.7,3,2.9,2.3,4.9C75.9,351,74.4,352,72.9,352z M784.2,346.9c-1.5,0-3-0.9-3.6-2.5c-0.8-2,0.2-4.2,2.2-4.9
			c1.5-0.6,3-1.2,4.4-1.7c2-0.8,4.2,0.2,4.9,2.2c0.8,2-0.2,4.2-2.2,4.9c-1.4,0.6-2.9,1.1-4.5,1.7
			C785.2,346.8,784.7,346.9,784.2,346.9z M52.7,344.6c-0.4,0-0.9-0.1-1.3-0.2c-1.5-0.6-3-1.1-4.5-1.7c-2-0.8-3-3-2.2-4.9
			c0.8-2,3-3,4.9-2.2c1.5,0.6,3,1.1,4.4,1.7c2,0.7,3,2.9,2.2,4.9C55.7,343.7,54.2,344.6,52.7,344.6z M804.2,338.9
			c-1.5,0-2.9-0.9-3.5-2.3c-0.8-1.9,0.1-4.2,2-5c1.6-0.7,3-1.3,4.4-1.9c1.9-0.8,4.2,0.1,5,2c0.8,1.9-0.1,4.2-2,5
			c-1.3,0.6-2.8,1.2-4.4,1.9C805.2,338.8,804.7,338.9,804.2,338.9z M32.7,336.8c-0.5,0-1-0.1-1.4-0.3c-1.5-0.6-3-1.2-4.4-1.8
			c-2-0.8-2.9-3-2.1-5s3-2.9,5-2.1c1.5,0.6,2.9,1.2,4.4,1.8c2,0.8,2.9,3,2.1,5C35.6,335.9,34.2,336.8,32.7,336.8z M818.2,326.5
			c-2.1,0-3.8-1.7-3.8-3.8v-4.8c0-2.1,1.7-3.8,3.8-3.8s3.8,1.7,3.8,3.8v4.8C822.1,324.8,820.4,326.5,818.2,326.5z M23.7,321.4
			c-2.1,0-3.8-1.7-3.8-3.8v-4.8c0-2.1,1.7-3.8,3.8-3.8s3.8,1.7,3.8,3.8v4.8C27.5,319.7,25.8,321.4,23.7,321.4z M818.2,305
			c-2.1,0-3.8-1.7-3.8-3.8v-4.8c0-2.1,1.7-3.8,3.8-3.8s3.8,1.7,3.8,3.8v4.8C822.1,303.3,820.4,305,818.2,305z M23.7,299.9
			c-2.1,0-3.8-1.7-3.8-3.8v-4.8c0-2.1,1.7-3.8,3.8-3.8s3.8,1.7,3.8,3.8v4.8C27.5,298.2,25.8,299.9,23.7,299.9z M818.2,283.5
			c-2.1,0-3.8-1.7-3.8-3.8v-4.8c0-2.1,1.7-3.8,3.8-3.8s3.8,1.7,3.8,3.8v4.8C822.1,281.8,820.4,283.5,818.2,283.5z M23.7,278.4
			c-2.1,0-3.8-1.7-3.8-3.8v-4.8c0-2.1,1.7-3.8,3.8-3.8s3.8,1.7,3.8,3.8v4.8C27.5,276.7,25.8,278.4,23.7,278.4z M818.2,262.1
			c-2.1,0-3.8-1.7-3.8-3.8v-4.8c0-2.1,1.7-3.8,3.8-3.8s3.8,1.7,3.8,3.8v4.8C822.1,260.3,820.4,262.1,818.2,262.1z M23.7,257
			c-2.1,0-3.8-1.7-3.8-3.8v-4.8c0-2.1,1.7-3.8,3.8-3.8s3.8,1.7,3.8,3.8v4.8C27.5,255.2,25.8,257,23.7,257z M818.2,240.6
			c-2.1,0-3.8-1.7-3.8-3.8V232c0-2.1,1.7-3.8,3.8-3.8s3.8,1.7,3.8,3.8v4.8C822.1,238.9,820.4,240.6,818.2,240.6z M23.7,235.5
			c-2.1,0-3.8-1.7-3.8-3.8v-0.2c0-2.1,1.7-3.8,3.8-3.8h4.8c2.1,0,3.8,1.7,3.8,3.8s-1.7,3.8-3.8,3.8h-3.7
			C24.4,235.4,24,235.5,23.7,235.5z M802,235.3h-4.8c-2.1,0-3.8-1.7-3.8-3.8s1.7-3.8,3.8-3.8h4.8c2.1,0,3.8,1.7,3.8,3.8
			S804.1,235.3,802,235.3z M780.5,235.3h-4.8c-2.1,0-3.8-1.7-3.8-3.8s1.7-3.8,3.8-3.8h4.8c2.1,0,3.8,1.7,3.8,3.8
			S782.6,235.3,780.5,235.3z M759,235.3h-4.8c-2.1,0-3.8-1.7-3.8-3.8s1.7-3.8,3.8-3.8h4.8c2.1,0,3.8,1.7,3.8,3.8
			S761.1,235.3,759,235.3z M737.5,235.3h-4.8c-2.1,0-3.8-1.7-3.8-3.8s1.7-3.8,3.8-3.8h4.8c2.1,0,3.8,1.7,3.8,3.8
			S739.7,235.3,737.5,235.3z M716.1,235.3h-4.8c-2.1,0-3.8-1.7-3.8-3.8s1.7-3.8,3.8-3.8h4.8c2.1,0,3.8,1.7,3.8,3.8
			S718.2,235.3,716.1,235.3z M694.6,235.3h-4.8c-2.1,0-3.8-1.7-3.8-3.8s1.7-3.8,3.8-3.8h4.8c2.1,0,3.8,1.7,3.8,3.8
			S696.7,235.3,694.6,235.3z M673.1,235.3h-4.8c-2.1,0-3.8-1.7-3.8-3.8s1.7-3.8,3.8-3.8h4.8c2.1,0,3.8,1.7,3.8,3.8
			S675.2,235.3,673.1,235.3z M651.6,235.3h-4.8c-2.1,0-3.8-1.7-3.8-3.8s1.7-3.8,3.8-3.8h4.8c2.1,0,3.8,1.7,3.8,3.8
			S653.7,235.3,651.6,235.3z M630.1,235.3h-4.8c-2.1,0-3.8-1.7-3.8-3.8s1.7-3.8,3.8-3.8h4.8c2.1,0,3.8,1.7,3.8,3.8
			S632.2,235.3,630.1,235.3z M608.6,235.3h-4.8c-2.1,0-3.8-1.7-3.8-3.8s1.7-3.8,3.8-3.8h4.8c2.1,0,3.8,1.7,3.8,3.8
			S610.7,235.3,608.6,235.3z M587.1,235.3h-4.8c-2.1,0-3.8-1.7-3.8-3.8s1.7-3.8,3.8-3.8h4.8c2.1,0,3.8,1.7,3.8,3.8
			S589.2,235.3,587.1,235.3z M565.6,235.3h-4.8c-2.1,0-3.8-1.7-3.8-3.8s1.7-3.8,3.8-3.8h4.8c2.1,0,3.8,1.7,3.8,3.8
			S567.7,235.3,565.6,235.3z M544.1,235.3h-4.8c-2.1,0-3.8-1.7-3.8-3.8s1.7-3.8,3.8-3.8h4.8c2.1,0,3.8,1.7,3.8,3.8
			S546.3,235.3,544.1,235.3z M522.7,235.3h-4.8c-2.1,0-3.8-1.7-3.8-3.8s1.7-3.8,3.8-3.8h4.8c2.1,0,3.8,1.7,3.8,3.8
			S524.8,235.3,522.7,235.3z M501.2,235.3h-4.8c-2.1,0-3.8-1.7-3.8-3.8s1.7-3.8,3.8-3.8h4.8c2.1,0,3.8,1.7,3.8,3.8
			S503.3,235.3,501.2,235.3z M479.7,235.3h-4.8c-2.1,0-3.8-1.7-3.8-3.8s1.7-3.8,3.8-3.8h4.8c2.1,0,3.8,1.7,3.8,3.8
			S481.8,235.3,479.7,235.3z M458.2,235.3h-4.8c-2.1,0-3.8-1.7-3.8-3.8s1.7-3.8,3.8-3.8h4.8c2.1,0,3.8,1.7,3.8,3.8
			S460.3,235.3,458.2,235.3z M436.7,235.3h-4.8c-2.1,0-3.8-1.7-3.8-3.8s1.7-3.8,3.8-3.8h4.8c2.1,0,3.8,1.7,3.8,3.8
			S438.8,235.3,436.7,235.3z M415.2,235.3h-4.8c-2.1,0-3.8-1.7-3.8-3.8s1.7-3.8,3.8-3.8h4.8c2.1,0,3.8,1.7,3.8,3.8
			S417.3,235.3,415.2,235.3z M393.7,235.3H389c-2.1,0-3.8-1.7-3.8-3.8s1.7-3.8,3.8-3.8h4.8c2.1,0,3.8,1.7,3.8,3.8
			S395.8,235.3,393.7,235.3z M372.2,235.3h-4.8c-2.1,0-3.8-1.7-3.8-3.8s1.7-3.8,3.8-3.8h4.8c2.1,0,3.8,1.7,3.8,3.8
			S374.4,235.3,372.2,235.3z M350.8,235.3H346c-2.1,0-3.8-1.7-3.8-3.8s1.7-3.8,3.8-3.8h4.8c2.1,0,3.8,1.7,3.8,3.8
			S352.9,235.3,350.8,235.3z M329.3,235.3h-4.8c-2.1,0-3.8-1.7-3.8-3.8s1.7-3.8,3.8-3.8h4.8c2.1,0,3.8,1.7,3.8,3.8
			S331.4,235.3,329.3,235.3z M307.8,235.3H303c-2.1,0-3.8-1.7-3.8-3.8s1.7-3.8,3.8-3.8h4.8c2.1,0,3.8,1.7,3.8,3.8
			S309.9,235.3,307.8,235.3z M286.3,235.3h-4.8c-2.1,0-3.8-1.7-3.8-3.8s1.7-3.8,3.8-3.8h4.8c2.1,0,3.8,1.7,3.8,3.8
			S288.4,235.3,286.3,235.3z M264.8,235.3H260c-2.1,0-3.8-1.7-3.8-3.8s1.7-3.8,3.8-3.8h4.8c2.1,0,3.8,1.7,3.8,3.8
			S266.9,235.3,264.8,235.3z M243.3,235.3h-4.8c-2.1,0-3.8-1.7-3.8-3.8s1.7-3.8,3.8-3.8h4.8c2.1,0,3.8,1.7,3.8,3.8
			S245.4,235.3,243.3,235.3z M221.8,235.3h-4.8c-2.1,0-3.8-1.7-3.8-3.8s1.7-3.8,3.8-3.8h4.8c2.1,0,3.8,1.7,3.8,3.8
			S223.9,235.3,221.8,235.3z M200.3,235.3h-4.8c-2.1,0-3.8-1.7-3.8-3.8s1.7-3.8,3.8-3.8h4.8c2.1,0,3.8,1.7,3.8,3.8
			S202.4,235.3,200.3,235.3z M178.8,235.3h-4.8c-2.1,0-3.8-1.7-3.8-3.8s1.7-3.8,3.8-3.8h4.8c2.1,0,3.8,1.7,3.8,3.8
			S181,235.3,178.8,235.3z M157.4,235.3h-4.8c-2.1,0-3.8-1.7-3.8-3.8s1.7-3.8,3.8-3.8h4.8c2.1,0,3.8,1.7,3.8,3.8
			S159.5,235.3,157.4,235.3z M135.9,235.3h-4.8c-2.1,0-3.8-1.7-3.8-3.8s1.7-3.8,3.8-3.8h4.8c2.1,0,3.8,1.7,3.8,3.8
			S138,235.3,135.9,235.3z M114.4,235.3h-4.8c-2.1,0-3.8-1.7-3.8-3.8s1.7-3.8,3.8-3.8h4.8c2.1,0,3.8,1.7,3.8,3.8
			S116.5,235.3,114.4,235.3z M92.9,235.3h-4.8c-2.1,0-3.8-1.7-3.8-3.8s1.7-3.8,3.8-3.8h4.8c2.1,0,3.8,1.7,3.8,3.8
			S95,235.3,92.9,235.3z M71.4,235.3h-4.8c-2.1,0-3.8-1.7-3.8-3.8s1.7-3.8,3.8-3.8h4.8c2.1,0,3.8,1.7,3.8,3.8S73.5,235.3,71.4,235.3
			z M49.9,235.3h-4.8c-2.1,0-3.8-1.7-3.8-3.8s1.7-3.8,3.8-3.8h4.8c2.1,0,3.8,1.7,3.8,3.8S52,235.3,49.9,235.3z"/>
	</g>
</g>
</svg>
