<?xml version="1.0" encoding="utf-8"?>
<!-- Generator: Adobe Illustrator 22.0.0, SVG Export Plug-In . SVG Version: 6.00 Build 0)  -->
<svg version="1.1" id="Layer_1" xmlns="http://www.w3.org/2000/svg" xmlns:xlink="http://www.w3.org/1999/xlink" x="0px" y="0px"
	 viewBox="0 0 2126 3826.8" style="enable-background:new 0 0 2126 3826.8;" xml:space="preserve">
<style type="text/css">
	.st0{fill:#286380;}
	.st1{fill:#FFFFFF;}
</style>
<g>
	<g>
		<path class="st0" d="M468,2027c0,0,527-490,1188,0l-99,182c0,0-472.9-396.2-984.4,0.4L468,2027z"/>
		<path class="st0" d="M1626,2104.8l-64.6,120.5c0,0-24.5-11.4-71.6-20.5c0,0,80.4,59.1,97.8,84.1c0,0,14-56.8,14-93.2
			c0,0,47.2-20.5,73.4-38.7C1674.9,2157.1,1652.2,2125.3,1626,2104.8z"/>
		<path class="st0" d="M499.2,2104.8l64.6,120.5c0,0,24.5-11.4,71.6-20.5c0,0-80.4,59.1-97.8,84.1c0,0-14-56.8-14-93.2
			c0,0-47.2-20.5-73.4-38.7C450.3,2157.1,473,2125.3,499.2,2104.8z"/>
		<polygon class="st1" points="651.2,2079 620.3,2077.8 601.9,2102.6 593.4,2072.9 564.1,2063 589.8,2045.8 590.2,2014.8 
			614.5,2033.9 644,2024.7 633.4,2053.8 		"/>
		<polygon class="st1" points="1479.1,2079 1510,2077.8 1528.5,2102.6 1536.9,2072.9 1566.2,2063 1540.5,2045.8 1540.2,2014.8 
			1515.9,2033.9 1486.3,2024.7 1497,2053.8 		"/>
	</g>
	<g>
		<g>
			<path class="st1" d="M761.5,1943.2c-0.1,0-0.1,0.1-0.2,0.1c0.5,1,0.7,1.5,1.2,2.4c-8.6,4.3-17.2,8.7-25.6,13.4
				c2.1,4.1,4.1,8.7,6.1,13.8c2,5.1,3.4,9.9,4.3,14.3c2,0.3,5.1,0.7,9.3,1.2c4.2,0.5,8.7,1.4,13.3,2.6c4.6,1.2,8.8,2.8,12.6,4.7
				c3.8,1.9,6.3,4.3,7.5,7c1.3,3.1,1.5,5.8,0.7,7.8c-0.8,2.1-2.1,3.7-3.8,4.9c-1.7,1.2-3.6,1.9-5.6,2.2c-2,0.3-3.6,0.1-4.7-0.4
				c-0.9-0.4-2.5-1.5-4.8-3.2c-2.3-1.7-4.8-3.6-7.6-5.7c-2.8-2.1-5.5-4.1-8.4-6.2c-2.8-2-5.3-3.7-7.2-5c0,2.1,0,3.1,0,5.2
				c-0.3,4.3-1.2,8.7-2.7,13.1c-1.5,4.4-3.4,8.8-5.6,13.1c-2.2,4.3-4.7,8.5-7.3,12.6c-2.6,4.1-5.1,7.8-7.6,11.3
				c-1.2-0.5-1.8-0.8-3-1.3c2.7-5.7,4.6-11.3,5.5-16.9c1-5.6,1.3-10.9,0.9-16.2c-0.4-5.2-1.1-10.1-2.4-14.8c-1.3-4.7-2.7-9-4.3-13
				c-1.6-4-3.2-7.5-4.9-10.5c-1.6-3-3-5.4-3.9-7.3c-4.4,2.6-6.5,4-10.9,6.7c-1.9,2.9-2.8,4.3-4.6,7.2c-3.4,0.5-5.2,0.8-8.6,1.3
				c-0.6-0.9-0.9-1.4-1.5-2.3c16.3-10.9,33.1-20.9,50.3-30.3c3.9-4.6,5.9-6.9,9.9-11.4C753.5,1943.6,756.2,1943.4,761.5,1943.2z
				 M729.8,1943c2.5,0.5,3.6,1.8,3.2,3.9c-0.4,2-1.6,4.1-3.5,6.3c-2,2.2-4.4,4.1-7.3,5.9c-2.9,1.7-5.6,2.5-8.1,2.4
				c-0.9,0-2.2-0.1-3.7-0.1c-1.6-0.1-3.3-0.2-5.2-0.3c-1.9-0.1-3.9-0.3-5.9-0.6c-2-0.3-4-0.7-5.9-1.3c3.2-3.7,6.7-7,10.5-9.6
				c3.3-2.2,7.3-4.1,11.7-5.6C720,1942.4,724.8,1942.1,729.8,1943z M785.3,1961.2c-4.5,2.1-6.8,3.2-11.3,5.4c-0.2,2.1-1,4-2.3,5.8
				c-1.3,1.8-3.1,3.3-5.3,4.4c-3.1,1.6-6.3,2.1-9.5,1.5c-3.2-0.6-5.5-2.2-6.9-4.7c10.9-5.9,22-11.5,33.2-16.8
				C784.1,1958.6,784.5,1959.4,785.3,1961.2z M827.1,2006.5c1.3,2.9,1.2,5.8-0.1,8.5c-1.3,2.7-3.1,5.2-5.2,7.3
				c-2.4,2.4-5.5,4.8-8.9,7.2c-16.2-34-32.5-67.9-48.7-101.9c-4,1.5-6,2.3-10.1,3.9c-1.1,0.3-1.9,0.2-2.2-0.6
				c-0.4-0.8,0-1.5,1.2-2.1c0.1,0,0.1-0.1,0.2-0.1c11.5-4.6,23.1-8.9,34.8-12.8C801,1946.1,814.1,1976.3,827.1,2006.5z
				 M859.6,2003.2c1.1,3,0.9,5.8-0.5,8.4c-1.4,2.6-3.2,5-5.4,7c-2.5,2.3-5.6,4.5-9.1,6.6c-16.1-38.9-32.3-77.9-48.4-116.8
				c-4.1,1.3-6.2,2-10.3,3.4c-1.2,0.3-1.9,0.1-2.2-0.7c-0.4-0.8,0.1-1.5,1.3-2c0.1,0,0.1,0,0.2-0.1c11.7-4,23.5-7.6,35.5-11
				C833.6,1933,846.6,1968.1,859.6,2003.2z"/>
			<path class="st1" d="M964.7,1920.4c0.7,4.4,1,6.7,1.7,11.1c0.5,3.2-0.5,5.9-2.9,8.4c-2.4,2.4-5.2,4.4-8.3,6
				c-3.6,1.8-7.8,3.5-12.5,5.1c-2.1-10.3-3.1-15.4-5.1-25.7c-10.3,2-15.4,3.2-25.6,5.6c-3.7,2.5-5.5,3.8-9.2,6.3
				c-4.4-0.5-6.6-0.7-11.1-1.1c-0.3-1.2-0.5-1.7-0.8-2.9c39.6-10.6,79.4-17.6,120.1-21.3c6.6-4.5,10-6.7,16.8-11
				c7.2,3.6,10.8,5.4,17.9,9.2c0,1.2,0,1.8,0.1,3C1018.5,1914.1,991.7,1916.5,964.7,1920.4z M972.1,1859c7.5-0.5,14.5-0.3,21,0.5
				c6.5,0.8,12.2,2.2,17,4c4.8,1.8,8.6,4.1,11.4,6.7s4.3,5.6,4.4,8.9c0.2,3.5-1.2,6.8-4.1,9.9c-2.9,3.1-7,5.9-12.2,8.4
				c-5.2,2.5-11.3,4.7-18.2,6.6c-7,1.9-14.5,3.4-22.5,4.6c-8.1,1.2-15.6,1.8-22.8,2c-7.2,0.1-13.6-0.2-19.3-1.2
				c-5.7-0.9-10.4-2.4-14.1-4.6c-3.7-2.1-6-4.9-6.8-8.3c-0.9-3.8,0.1-7.6,3.1-11.5c3-3.9,7.2-7.5,12.7-10.9
				c5.5-3.3,11.8-6.3,18.9-8.7c7.1-2.4,14.2-4.2,21.3-5.2C965.9,1859.8,968,1859.6,972.1,1859z M1030,1963.1
				c0.1,2.4-0.5,4.5-1.7,6.3c-1.3,1.8-2.9,3.4-4.8,4.7c-1.9,1.3-4,2.5-6.3,3.5c-2.3,1-4.4,1.8-6.4,2.4c-2,0.6-3.7,1.1-5.1,1.5
				c-1.4,0.3-2.1,0.5-2.3,0.5c-1.3-12.7-2.6-25.5-4-38.2c-16.5,1.7-32.9,4.1-49.1,7.1c-5.2,3.3-7.8,5-12.9,8.4
				c-6-1.1-9-1.6-15.1-2.5c-0.3-1.1-0.4-1.7-0.7-2.8c35.4-8,70.8-13.1,107-15.4C1029.2,1948.5,1029.4,1953.3,1030,1963.1z
				 M968.2,1904.5c5.7-0.8,10.5-2,14.4-3.4c3.9-1.5,7-3.2,9.4-5.3c2.3-2.1,4-4.3,4.8-6.8c0.9-2.4,1.2-5,0.9-7.7
				c-0.3-2.7-1.1-5.2-2.4-7.6c-1.4-2.4-3.5-4.4-6.3-6.1c-2.9-1.7-6.5-2.8-10.9-3.4c-4.4-0.6-9.6-0.5-15.7,0.4
				c-6.2,0.9-11.3,2.3-15.4,4.2c-4,1.8-7.1,4-9.3,6.4c-2.2,2.4-3.6,4.9-4.3,7.6c-0.6,2.7-0.7,5.3-0.2,8s1.6,5,3.1,7.1
				c1.5,2.1,3.7,3.8,6.5,5.1c2.8,1.3,6.2,2.1,10.4,2.4C957.4,1905.7,962.4,1905.4,968.2,1904.5z M1008.5,1913.3
				c0.4,5.1,0.6,7.6,1.1,12.7c0.3,3.2-0.9,5.9-3.5,8.1c-2.6,2.2-5.5,4-8.6,5.4c-3.7,1.6-8,3-12.8,4.2c-1.4-11-2.1-16.5-3.5-27.5
				C992,1914.8,997.5,1914.3,1008.5,1913.3z"/>
			<path class="st1" d="M1141.5,1872.9c-2.7,23.5-5.5,47.1-8.2,70.6c6.7,0.8,12.7,1.4,17.9,1.8c5.2,0.4,10.1,0.6,14.5,0.4
				c4.4-0.2,8.6-0.6,12.5-1.3c4-0.7,8-1.7,12-3c0.5-0.1,1.3-0.2,2.5-0.3c1.2-0.1,2.4-0.1,3.6-0.1c1.2,0.1,2.2,0.2,3,0.5
				c0.8,0.3,1,0.7,0.6,1.1c-0.3,0.5-1.5,1.1-3.3,1.9c-1.9,0.8-4.9,1.8-9,2.9c-3.6,1-7.3,1.9-11.1,2.7c-3.8,0.8-8,1.4-12.4,1.7
				c-4.4,0.4-9.3,0.5-14.5,0.3c-5.2-0.2-11-0.6-17.3-1.3c-8.2-1-12.4-1.4-20.6-2c-1.7-0.1-2.9-0.5-3.8-1.1c-0.8-0.6-1.5-1.3-1.9-2.2
				c-0.4-0.9-0.6-1.9-0.6-3.1c1.7-24.1,3.4-48.3,5.1-72.4c-2.9-0.2-4.3-0.3-7.1-0.5c-1.3-0.1-1.9-0.6-1.8-1.6c0.1-1,0.7-1.5,2-1.4
				c15.3,1.1,30.4,2.5,45.6,4.3c6.6-1.5,9.9-2.2,16.7-3.6c6,3.3,9,4.9,14.9,8.3c-0.2,1.2-0.3,1.8-0.5,3
				C1167.4,1876.3,1154.5,1874.4,1141.5,1872.9z M1237.5,1932.7c-10.3-2.8-20.7-5.6-31.1-8c-3.7,16-7.4,32.1-11,48.1
				c-0.7,3.1-2.4,5.4-5.1,6.8c-2.6,1.4-5.5,2.4-8.4,2.9c-3.4,0.5-7.1,0.7-11.2,0.5c7-36.9,14-73.9,21.1-110.8
				c-4.1-1.1-6.1-1.7-10.2-2.8c-1.1-0.4-1.6-1-1.4-1.8c0.2-0.9,0.9-1.2,2.1-1c0.1,0,0.1,0,0.2,0c11.8,3.1,23.4,6.4,35,10.1
				c-3.3,14.4-6.6,28.9-9.9,43.3c10.4,2.4,20.8,5,31,7.9C1238.1,1929.9,1237.9,1930.8,1237.5,1932.7z M1226.3,1990.2
				c-0.9,3.1-2.7,5.2-5.4,6.5c-2.7,1.3-5.5,2.1-8.5,2.4c-3.3,0.4-7.1,0.3-11.1-0.1c10.3-40.9,20.5-81.8,30.8-122.6
				c-4-1.4-6.1-2.1-10.1-3.4c-1.1-0.5-1.5-1.1-1.4-1.9c0.2-0.9,0.9-1.2,2.2-0.9c0.1,0,0.1,0,0.2,0c11.7,3.8,23.2,7.9,34.7,12.2
				C1247.3,1918.4,1236.8,1954.3,1226.3,1990.2z"/>
			<path class="st1" d="M1301.7,1998.3c-4.3-0.2-6.4-0.2-10.7-0.3c-3.1-3-4.6-4.4-7.8-7.3c0.4-1.1,0.7-1.7,1.1-2.8
				c22.4,9.1,44.1,19.1,65.5,30.4c6,2.8,11.1,5.1,15.1,6.8c4,1.7,7.4,2.9,10.3,3.8c2.8,0.8,5.2,1.2,7.1,1.2c1.9,0,3.8-0.4,5.7-1
				c1.8-0.6,3.8-1.4,6-2.4c2.2-1,4.8-2,7.9-3.1c0.1,0.8,0.1,1.2,0.2,1.9c-1.5,4.4-4.7,7-9.4,8.1c-2.1,0.4-4.6,0.6-7.5,0.4
				c-2.9-0.2-6.4-0.9-10.6-2.1c-4.1-1.2-8.9-3-14.3-5.3c-5.4-2.3-11.6-5.4-18.7-9.1C1328.6,2010.7,1315.3,2004.3,1301.7,1998.3z
				 M1337.3,1926.3c-4.1-0.1-6.1-0.1-10.2-0.1c-2.8-2.9-4.3-4.3-7.2-7.2c0.5-1.1,0.7-1.7,1.1-2.8c22.6,9.4,44.5,19.7,66.1,31.1
				c6.4,1,9.6,1.5,16,2.7c4.3,4.9,6.4,7.4,10.5,12.4c-0.6,1-0.9,1.5-1.5,2.6C1387.8,1950.7,1363,1937.8,1337.3,1926.3z
				 M1361.9,1941.5c5.1,2.5,9.5,5.5,13.4,9.1c3.8,3.6,6.9,7.3,9.1,11.2c2.2,3.9,3.5,7.8,3.8,11.7c0.3,3.9-0.4,7.5-2.3,10.8
				c-1.8,3.1-4.4,5.5-7.8,7.3c-3.4,1.7-7.3,2.8-11.7,3.2c-4.3,0.4-8.9,0.1-13.7-0.8c-4.8-1-9.5-2.6-14.1-4.9
				c-4.7-2.3-8.8-5-12.5-8.2c-3.7-3.2-6.6-6.6-8.9-10.3c-2.3-3.7-3.8-7.4-4.5-11.2c-0.7-3.8-0.4-7.3,1-10.6c1.5-3.5,3.8-6.3,7-8.4
				c3.2-2.1,7.1-3.5,11.5-4.1c4.4-0.6,9.2-0.5,14.3,0.3C1351.7,1937.4,1356.9,1939.1,1361.9,1941.5z M1386,1931.5
				c1,2.4,0.5,4-1.4,4.8c-1.9,0.8-4.3,1-7.2,0.6c-2.9-0.4-5.9-1.4-9-2.8c-3-1.5-5.2-3.2-6.5-5.4c-0.5-0.8-1.1-1.9-1.9-3.2
				c-0.8-1.3-1.7-2.8-2.7-4.5c-1-1.7-1.9-3.4-2.8-5.3c-0.9-1.8-1.6-3.7-2.2-5.6c4.8,0.5,9.5,1.7,13.8,3.4c3.7,1.5,7.4,3.7,11.2,6.6
				C1381,1923.1,1384,1926.9,1386,1931.5z M1339.8,1986.6c2.7,1.3,5.2,1.8,7.8,1.4c2.5-0.4,4.9-1.2,7.2-2.6c2.3-1.4,4.3-3.1,6.1-5.3
				c1.8-2.2,3.4-4.5,4.7-7c1.4-2.7,2.5-5.4,3.2-8.1c0.7-2.8,1-5.5,0.8-8.2c-0.2-2.7-1-5.2-2.4-7.4c-1.4-2.2-3.5-4-6.4-5.4
				c-2.9-1.4-5.6-2-8.2-1.7c-2.6,0.3-5,1.2-7.2,2.6c-2.2,1.5-4.2,3.4-6,5.6c-1.8,2.3-3.3,4.8-4.6,7.5c-1.2,2.5-2,5.2-2.6,8.1
				c-0.6,2.8-0.7,5.5-0.5,8.1c0.2,2.6,1,5,2.2,7.2C1335.2,1983.6,1337.1,1985.3,1339.8,1986.6z M1341.4,2015.5
				c-8.9-4.6-13.3-6.8-22.4-11.1c4.4-9.4,6.6-14.1,11-23.5c4,2.6,7.6,5.3,10.5,8.1c2.4,2.3,4.3,5.1,5.8,8.1c1.5,3,1.5,5.9,0,8.7
				C1344.4,2009.7,1343.4,2011.7,1341.4,2015.5z M1392.8,2065.5c-1.8,2.6-4.4,4-7.8,4.2c-3.4,0.1-6.7-0.2-9.9-1.1
				c-3.8-1-7.9-2.6-12.3-4.6c21.6-35,43.2-70.1,64.7-105.1c-3.5-2.6-5.3-3.9-8.9-6.4c-0.9-0.8-1.2-1.5-0.8-2.2
				c0.5-0.8,1.3-0.8,2.4-0.1c0.1,0,0.1,0.1,0.2,0.1c11.4,8.1,22.6,16.4,33.7,25C1433.8,2005.3,1413.3,2035.4,1392.8,2065.5z"/>
		</g>
	</g>
</g>
</svg>
