<svg xmlns="http://www.w3.org/2000/svg" viewBox="0 0 1840.45 1265.17"><defs><style>.cls-1{fill:#94938a;}.cls-2{fill:#ebe8d8;}.cls-3{opacity:0.5;}.cls-4{fill:#c9c6b6;}</style></defs><title>자산 4</title><g id="레이어_2" data-name="레이어 2"><g id="Layer_1" data-name="Layer 1"><path class="cls-1" d="M1830.66,889.55V140.62h-36.72l-1.4-70.44L1840.45,68l-.72-36.4L1734.91,36.4,1737,140.62h-50.65l-2-68.05,47.89-3.33-1.1-36.39-98.58,6.87,0-1.72-104.78-6.42-2.89,109h-51l1.89-71.23,47.9,2.94,1-36.39-104.78-6.43-2.95,111.11h-45.84l-1.37-69.05,47.91-2.2L1416.9,33l-104.82,4.83,2.05,102.83h-63.28l-1.25-62.75,47.91-2.21-.72-36.4L1192,44.09l1.93,96.53h-50.73l-1.82-60.35,47.89-3.34-1.1-36.38-98.58,6.86,0-1.71L984.82,39.27l-2.69,101.35h-51l1.68-63.53L980.74,80l1-36.4L876.93,37.21l-2.75,103.41H828l-1.22-61.35,47.91-2.21L874,40.65,769.14,45.48l1.9,95.14h-54L705.31,85,751,62.68,743.63,28,649.31,74l-.48-24.4L544,54.45l1.72,86.17H494.9l-1.51-50,47.89-3.34-1.1-36.38L441.6,57.78l0-1.72L336.87,49.63l-.12,4.18L235,47.57l-2.47,93.05H184.27L185.86,81,233.76,84l1-36.39L130,41.13l-2.65,99.49H86.93V48.33H36V1265.17H1583.47A165.77,165.77,0,0,0,1603,1264l228-.28V898.48l-.42.68Q1830.66,894.36,1830.66,889.55ZM334.45,140.62h-45l1.42-53.17,44.91,2.76Zm57,0,1.36-51.1,43.67,2.68,1.46,48.42Zm211.26,0-1-52.38,44.15-2,11.5,54.42Zm436.42,0,1.64-61.47,43.67,2.68,1.78,58.79Zm542.74,0,1.84-69.16,43.67,2.68,2,66.48h-47.52Z"/><path class="cls-2" d="M1794.66,861.55V112.62h-36.72l-1.4-70.44L1804.45,40l-.72-36.4L1698.91,8.4,1701,112.62h-50.65l-2-68.05,47.89-3.33-1.1-36.39-98.58,6.87,0-1.72L1491.76,3.58l-2.89,109h-51l1.89-71.23,47.9,2.94,1-36.39L1383.87,1.51l-2.95,111.11h-45.84l-1.37-69.05,47.91-2.2L1380.9,5,1276.08,9.79l2.05,102.83h-63.28l-1.25-62.75,47.91-2.21-.72-36.4L1156,16.09l1.93,96.53h-50.73l-1.82-60.35,47.89-3.34-1.1-36.38-98.58,6.86,0-1.71L948.82,11.27l-2.69,101.35h-51l1.68-63.53L944.74,52l1-36.4L840.93,9.21l-2.75,103.41H792l-1.22-61.35,47.91-2.21L838,12.65,733.14,17.48l1.9,95.14h-54L669.31,57,715,34.68,707.63,0,613.31,46l-.48-24.4L508,26.45l1.72,86.17H458.9l-1.51-50,47.89-3.34-1.1-36.38L405.6,29.78l0-1.72L300.87,21.63l-.12,4.18L199,19.57l-2.47,93.05H148.27L149.86,53,197.76,56l1-36.39L94,13.13,91.3,112.62H50.93V20.33H0V1237.17H1547.47A165.77,165.77,0,0,0,1567,1236l228-.28V870.48l-.42.68Q1794.66,866.36,1794.66,861.55ZM298.45,112.62h-45l1.42-53.17,44.91,2.76Zm57,0,1.36-51.1,43.67,2.68,1.46,48.42Zm211.26,0-1-52.38,44.15-2,11.5,54.42Zm436.42,0,1.64-61.47,43.67,2.68,1.78,58.79Zm542.74,0,1.84-69.16,43.67,2.68,2,66.48h-47.52Z"/><g class="cls-3"><path class="cls-4" d="M1698.55,325.57c.83.13,2.14.19,3.17.29C1698.71,326,1697.25,325.94,1698.55,325.57Z"/><path class="cls-4" d="M1740.75,327c-10.9,0-28.17,0-39-1.1C1711.39,325.53,1737.45,323.72,1740.75,327Z"/><path class="cls-4" d="M1696.62,320.32l13.56,1C1702.24,322.16,1703.7,320.64,1696.62,320.32Z"/><polygon class="cls-4" points="1701.55 323.35 1700.84 324.54 1693.61 323.38 1701.55 323.35"/><path class="cls-4" d="M1008.32,335.19c1.41.51,2.28,1.07,1.61,1.79Z"/><path class="cls-4" d="M976.91,329.79c-2.83-.19-4.8-.27-6.48-.33A42.17,42.17,0,0,1,976.91,329.79Z"/><path class="cls-4" d="M1036.85,334.69l-5.58.17A39.7,39.7,0,0,1,1036.85,334.69Z"/><path class="cls-4" d="M1385.41,330.14c5.19.86,10.11,1.65,13.85,2.18C1389.16,333.24,1388.28,331.28,1385.41,330.14Z"/><path class="cls-4" d="M832.53,312.44l-1.35.95C829.71,313,829,312.54,832.53,312.44Z"/><path class="cls-4" d="M969.37,313.86c.14.56-.16,1-.74,1.26-.54-.08-1.11-.14-1.63-.23Z"/><path class="cls-4" d="M1059,332.75c.08,0,.22-.07.31-.11l4.54.6C1061.38,333.42,1059.84,333.25,1059,332.75Z"/><path class="cls-4" d="M788.44,311.13A26.37,26.37,0,0,1,783,309C787.2,309.47,789.18,310.4,788.44,311.13Z"/><path class="cls-4" d="M969.65,329.47c-.06,0,0,0-.06,0l.84,0C970.13,329.48,969.93,329.45,969.65,329.47Z"/><path class="cls-4" d="M1014.75,314.9c-2.39-.16-4.63-.27-7.2-.49A22.89,22.89,0,0,1,1014.75,314.9Z"/><path class="cls-4" d="M1385.41,330.14c-1.46-.24-2.92-.47-4.39-.73A11.69,11.69,0,0,1,1385.41,330.14Z"/><path class="cls-4" d="M1662.08,327.72c-4.38,0-5.42-.66-6.25-1.35A31,31,0,0,1,1662.08,327.72Z"/><path class="cls-4" d="M76.32,331.91l-1.75,0A9.58,9.58,0,0,1,76.32,331.91Z"/><path class="cls-4" d="M244.31,334.46a11.76,11.76,0,0,1,2.22.76C245.1,335.47,244.29,335,244.31,334.46Z"/><path class="cls-4" d="M399,311.31c-11,1.39-22.3-1.46-31.85-1.6l3.26,1.18-9.63-1,.11,1.7c-15.91-.8-35.68,1-41.5-1.74l1.86,2.72-16.88-2.15,9.67,1.83c-19,.57-47.78-1.54-51.83-1.52l1.71,1c-3.1.51-5.55-.15-8.79-.48l2.5,1.51c-28.58-.41-36.4,3-68.3,1.42-8.69.36,4.82.49,5,1.34-4.75,1.2-15.92,0-18.34-.62,2.53,2.36,16,1.64,5.76,3.54-7.25-1.16,4.95,2.19-7.81,1.73l-5-3c-7.1.53-1.42,2.38-12.65,2.08-12.82-1.32,15.69-3.45-4.95-3.89-10.35.2-21.77,7-41.82,5.4-17.3,1.58,9.1,4.72-14.83,3.95l15.32,2c-4,.86-1.46,2.38-11.83,1.73a56.25,56.25,0,0,0-15.29-2.83c22.42,2.3-19.65,3.45,1.21,6.44l-7.78-.11c1,.12,1.22.41.7.64l-10.33.21c6.37.66,21.53.94,14.49,3.18l-15,.56c4,1.68-1.49,2.38-.62,3.73l44,3.25c-1.73-1-8.07-1.67-5.7-2.69,11.75-.89,9.59,1.83,20.63.43l-4.87-1.34c.87.51,2.43.67,0,.85-3.87.86-5.57-.15-5.6-1,3.87-1.7,15-.56,18.33.62,14.3-.21,2.94-3.07,6.09-3.59,7.4,2.86,23.88-.07,32.74,1.26l-5.69-1.85c10.88-2.25,20.63-.41,27,.25l-2.47-1.52c15.15.29,22.66-4.82,34.2.57l-1.6-1c6.22-.48,15.65-1.61,21.61,0,.13-.64,1.19-1.43,3.71-1.61,3.37,2.08,9.83.5,19,.13-6.08-.54-4.14-3.24-10.55-3.89,14.13-2.77,13,3,24.83,3,7.12-1.38-6.38-1.51-8.09-2.52,18.34,1.47,37.67-6.23,49.24-.84l-7.87,1.72c7.29,1.17,11.24,1.15,10.36.65a5.46,5.46,0,0,1-4-.84c22-2.78,34.43,4,56.66,2.87-1.66-1-4.83-1.34-5-2.19,10.23-1.05,10,5.23,26.49,3.14l-3.24-1.17c5.5-.71,9.58,1,8.84,1.32.43-4.58,35,.23,46.49-5.75,8.1,2.52,31.28,4.48,38.37,3.1,10.16-2.75-9-3-5.23-5.59,8,0,12.14,2.51,24,1.62.2,2.55-23.43,5.17-1.13,6.63l3.13-1.37a46.23,46.23,0,0,1-8.73.37c-6.45-1.51,3.87-1.71,5.36-2.4l23.94.77c1.75,2.72-12.57,2.08-14.05,2.77,19-.57,41.76-4.55,59.38-2.74l-1.67-1c22.47,2.31,13.12-5,31-.61,9.44-.7-3.4-2.87,10.86-3.09,4,0,1.67,1,.95,1.36,17.51,1,7.71-2.58,23.87-.08l-3.48-2.87c19.27,2,39.46,7,56.11,5.76-1-2.21-11.3-2-15.39-3.69,22.55,4,54.09.5,74.94,2.64-6.23,1.89,9.87,4.38-3.48,5.95-3.46-2.87-9.72-1-16.87-1.3,11.56,6.24,48.32-3,51.85,2.37l3.06-2.21c3.2.33,11.31,2,5.71,2.7l23-1.43c-8.07-1.68-25.1-5.53-30.44-3.13-6.54-2.36,9.42-1.56,3.63-4.26,15.39,3.69,9.45-1.56,25.39-.76-7.21,3.21,15.86,4.34,15.14,5.89,5.21-.59,16.81.9,21.29,2,9.22.3,30.36-2.28,45.15-1.17-5.6-1-14.45-2.33-13.8-4.37,7.25,1.16,15.22,1.13,16.59-1.24-25.75-4.34-8.3,5.45-31.61,2.64-5.76-2.7-12.15-3.36-24.16-4.16,5.47-1.55,3.06-2.22,5.31-4.09,14.7,5.71,38.22.55,57.45,3.38,8.1,1.67,2,5.25,20.35,5.88l-15.76,1.74c17.33-1.58,4.07,1.68,18.39,2.31L924,334.88c8.75-.36,12,0,16.82,1.31l-7.41-2.86c4.72-.36,13.46-.72,13.57,1,1.22-.7,1.64-1.25,1.64-1.74.92.48,3.15.78,8.68.69-3.24-.33-5.57-.15-5.64-1,21.07.68,4.92-3.1,18-2.82-2.07-.67,1.65-1.49,6.33-1.84-.32,4.51,25.56,5.1,32.4,7.6l-.08-.07,17.62,1.81c-3.57-.37.29-1.6,5.41-2.07l-.83,0c5.6-.7-6.66-4.9,10.14-3.6l8.83,1.33c-1.58-.16-.06-.85.77-1.19l9.09,1.22c13.91-4.21,26.26,2.38,42.62.31-4.72.35-11.91,0-8.83-1.33a29.91,29.91,0,0,1,10.42.64l-.82-.5,31.18,2.78c-2.53-1.52-20-1.63-12.18-3.35,4.61-2.06,13.56.12,19.16.28-.72,1.18-11,2.24-.61,2.88,1.28-.59,11.2-1.82,6.52-2.67,10.68,1.21,26.2,1.95,35.75,4.06,3-.52-1.73-1-3.32-1.18l-.77.34c-6.44-.65-1-3-13.63-1.81-1.06-3.91,18.22-1.09,29.3-1.63l-17.67-2.66c29.77-5.35,69.95.45,99.44.52-8.65,1.22-15.89.06-14.85,3.11,18.32,1.47,15.91.8,34.19,1.41l-1.57-.16c9.45-1.56,22.35,1.45,28.55-1.28-4.08-1.68-13.41,1.58-13.64-1.82l23,.26c-7.24-2-23-.26-31.84-.74-6.34.19,12.75.46,9.74,2.68-21.52-.1-26.43-2.29-37-5.48-6.45-2.36,9.4-2.4,13.4-2.42,13.7,3.51,33.71,5.15,55.05,3.55l11.72-2.58c10.57,2.34,6.08,6.94,25.16,6.37l-5.69-1.86a52.28,52.28,0,0,1,8.94-.95c-8.2-1.39-17-3-24.46-4.43,10.86-3.93,31.19,1.95,47.15,2.74-.83-.5-6.41-.66-8.07-1.67,23.81-.93,48.75,3.74,67.14,4.36,7.77-1.72-15.28-1.13-11.49-3.69,9.67,1,20.59-1.26,23.18,1.11-4.23-3.38,22.22-.25,3.72-3.41,34.85-1.47,73.22,1.63,108.43,3.55-1.7-1-1.7-1.86-.22-2.54-11.92,0-29.43-.93-36.05-3.28,7.83-1.73,18.53,2.31,20.78,1.29-4-.83-11.94-.81-12.08-2.5,10.21-1.91,15.92.79,23.11,1.11l-3.9.86c22.39,2.3,12.36,5.9,36.13,5,8.61-2.06-.08-1.69-.22-4.24,5.6,1,23.65-1.78,29.48.92l-14.39.22c10.07.72,19.59.71,26.57,1.59a5.37,5.37,0,0,0-3.44-1.33c8,.82,18.28.62,22.37,2.31l2.25-2.73c-4.77,1.21-19,1.42-21.45-.09,1.37-2.39,15.81-.91,22.13-1.1-27.88-.75-28.23-5-51.83-3.22l4,.84c-14.69,2.06-29.81-1.34-42.68-1.26,3.62-.55,4.35-1.55,2.65-2-28.46,2.13-56.45.52-88.9,1.81l-9.76-2.68-.61,2c-15.87.9-3.43-2.87-13.66-2.67,3.89,0,3.19.33,4,.84-18.42-2.32-10.23,1.9-20.57,1.25,4.91,2.19,19.93.78,15.32,3.69-18.39-2.32-47-1-49.66-6-34.12,2-76.43-1.1-105.12-1.52-3.91.86,2.45.67.94,1.36-11.34-2.85-38.06,2-38.24-.56a22.89,22.89,0,0,0-9.27,3.25,206.26,206.26,0,0,0-25.24-2.16l6.76.7-.74.35-9.6-1,.36-.15c-23-.73-49.63-.12-70.51-2.84,12,1.66-3,3.06,2.65,4.06-10.61-4-36.06-4.13-56.7-3.71.09.85-1.51,1.52.91,2.2l-12-1.66,1.59,1c-21.43.75-44.77-3.75-58.92-1.84,8.75.48,8.8,1.33,9.68,2.68-15.36-.09-29.84-.14-47.78-1.37,1,.25,1.59.54,1.62.84-4.7.36-10.35-.64-15.16-1.13l-.65,2c-9.18-.94-21,.11-31.93-1.52-4.28,2.24-26.42-2.07-39-1.13-4.82-.49,10.5,2.34-3,2.22-1.92-4.41-17.54-.11-18.6-4.87l-11.81,1.74-2.6-2.37c-10,4.45-15.29-2-30.22-.58.79.51,2.38.67,1.62,1-4.83-.5-16-.8-7.33-2-8,0-35-1.07-22.89,1.43-.88-1.35,10.25-.2,15.07.29-.64,2-12.6,1.24-15.57,3.45-.38-.22-2-.57-3.1-.91l-1.71,1.26c-15-2.24-30.15-.62-41-3.52-.63.63-3.25,1.12-8.39,1l-.22-2.55-15.9.06,7.44,3.7c-17.44.74-29.72-3.46-44-4.09-3.68,4.25-28-1.61-40.38,2.17l11.2,1.15c-23.93-.78-27.74,1.79-50,.33,18.93-1.42,19-.57,46.61-4.05-27.68,1.78-47.83-2.4-73.17.07,1.69,1,8.05,1.66,1.85,2.7-5-2.19-23.88.09-20.13-2.48-7.87.87-9.24,3.26-14,3.61l-26.42-3.14.81.51c-44.9,5.92-83.82-4-128.88-1.45l.87,1.36-11.28-2c8.84,1.33-3.83,1.71-4.53,2.9l-28.86-3C390.26,309.13,392,311.84,399,311.31Zm380.16,1.14,6.83.18a16,16,0,0,1,4.34.11l-4.34-.11C782.52,313,779.94,314,779.2,312.45Zm630.06,4.9c3.29,1.18-4.74.35-7,.53l11.13.3C1414.9,317.5,1410.88,317.52,1409.26,317.35ZM779.59,328.9l-3.81,1.71-4.88-1.33Zm-97,.15,9.67,1-.81.34-9.56-1ZM574.85,315.31c.61.1,1.18.18,1.87.34a13.62,13.62,0,0,1-1.87-.34c-7.46-1.23-10.43,1.83-16.51-1.13C565.8,311.64,570.59,314.27,574.85,315.31Zm170.39,0a37.36,37.36,0,0,0,7.2.32c-1.68-1-8.18-2.52-3.42-2.88,3.31,1.18,14.39,1.48,14.55,3.18C753.93,314.05,747.1,318.83,745.24,315.27Zm228.32,1.12-2.43.18,8.9,1.33Zm41.45,1.73c4.93,2.19,17.61,1.81,26.38,2.29,2.27-1.87-6.63-4-17-3.84C1012.36,314.91,1019.87,319.47,1015,318.12Zm-344.24.45,2.45,1.51-2.31.18,9.58,1c-12.59,2.08-21.59-1.8-28-2.46C658.09,319,673.45,322.64,670.77,318.57Zm432.61.63c8.84,1.33,24.78,3,23.32,4.5.56-2.89-12.24-4.2-16.22-4.19A36.87,36.87,0,0,1,1103.38,319.2Zm-.47,5.43c-12.82-1.32-13.7-2.67-23.48-5.36,12.69-1.22,16.15,2.49,14.64,4,8.84,1.33,7.13-.54,11.85-.89Zm-13.31-8.11-5.22.4c-6.18,1.2-7.46,4.47-16.12,1.2l16.12-1.2A23.42,23.42,0,0,1,1089.6,316.52Zm107.77.15-5.27-1c5.2.1,5.8.53,5.27,1l4.38.85C1190.33,318.56,1196.21,317.56,1197.37,316.67Zm-82.19.79-15.15-.3C1100.9,318.53,1110.35,317.81,1115.18,317.46Zm78.81,1.78c-6.38.19-23,.59-20.71.4C1174.79,318.11,1189.94,318.4,1194,319.24Zm334.21,4-9.55-.14,4.61-2.05Zm-112,1.55,2.36-1,5.55.15Zm-103.25.15c.49-.44.23-1-.63-1.47a9.7,9.7,0,0,1-3.59-.87,7.26,7.26,0,0,1,3.59.87,50.6,50.6,0,0,0,13.11-.42c-1.66-1-8-.81-10.5-1.49,9.44-2.41,30.65,4.83,24.6-2.11,4,.83,17.67,2.65,13,3.86-10.82-.41-31.32.34-39.53,1.63a5.66,5.66,0,0,1-3.24.71A15.6,15.6,0,0,1,1313,324.94Zm-139.15,1.49a34.42,34.42,0,0,1-6.37-.6c-3.36-.52-5.91-1.29-4.92-2.24,8.15.83,2.94,1.62,4.92,2.24A55.84,55.84,0,0,0,1173.81,326.43Zm-24.61.42,12.78,1.32-6.44-1.51,19.25,2.83C1163.75,330.88,1150.91,328.71,1149.2,326.85Zm-4.49,1.34-2.63-1.66,4,1.7-1.39,0,.6.37-21.51-.95Zm-219.86-3.32c-8.07,5.72,19,4.06,23.23,6.82.9-1.92,9.06-4.89-12-4.82,18.16-1.93,11.38,3.7,22.19-1.09-8.7.36-19.18-1.13-20.73-1.29l10.25-.2C942,320.74,932.05,326,924.85,324.87Zm-110.49.87-13.49-.13,12.77.47Zm-333,1.6c.95,1.34-16.42,3.78-20.55,1.25C469.51,328.21,479.07,328.35,481.31,327.34ZM338.2,327l15.16,1.14c-2.92,3.06-13.54-.13-20.65.41C330.24,327,335.84,328,338.2,327Zm-98.61,0-4.83-.49,5.07,3Zm6.63,4.05c-3,1.37,7.32,2,9.76,1.84Zm-88.84,2.67,6.32-.19-5.71-2.7Zm10.07-3.16c1.49,1.93.86,4.55,15.41,3.25.6-2-3.36-2,2-4.42-4.8-.5-8.72.37-11.12.54,3.27.33,7.12-.53,8,.82a45.31,45.31,0,0,1-14.35-.19c-.51-.7-1.32-1.31-3.23-1.61C164.26,329.5,165.5,330.07,167.45,330.49Zm52.72-2.14a20.23,20.23,0,0,0,4.35-.86l.87.51a7.92,7.92,0,0,1-5.22.35c-2.1.26-4.55.5-7.08.72-1.61,1.72,8.35,2.89,11,3.85-4.74-.49-8.84-2.17-15.13-1.13.83.5,0,.85,4,.82l-8.68.38c-9.93-2.39-.45-3.14,8.83-3.92.3-.38,1-.78,2.75-1.21A11.24,11.24,0,0,1,220.17,328.35Zm-69.76-3.84,4.76.49c2.44.67.89,1.36,1.74,1.86C151.34,326.71,144.06,325.55,150.41,324.51Zm285.4-.6c-3.15.52,4.14,2.54,11.24,2l-3.78,2.55c-.18-1.69-14.43-1.47-16-1.64C424.72,324.46,430.28,325.46,435.81,323.91Zm331.56-.06c2.58,3.22,20.74,1.29,24.75,2.13C782.68,326.69,761.21,327.44,767.37,323.85Zm31.48-1.3c5,0,6.38-.27,5.87,1.35,2.4.68,6.34-.19,8.76.48-9.66,1.42-9.06-1.15-14.63-1.83-1.3,0-2.77,0-4.61-.14A25.56,25.56,0,0,1,798.85,322.55Zm-193.8-.2-6.6-2.36-10.31.21ZM494.2,318.12c.85,1.36-11,1.4-13.46.73.76,1.78,8.7,1.55,15,1.74a24.32,24.32,0,0,0,4.16.23c-1.24-.12-2.61-.18-4.16-.23-2.37-.42-.72-1.33-.72-2l3.14-.52-8.74-.48Zm-194.92-1.91c-7.07,1.38-7.92.88-12.68.39C288.13,315.91,294.47,315.72,299.28,316.21Zm253.68.37c-11.92.88,5.73,2.69-2.1,3.57l6.25-.19c-10.14,1.9-7.23-2-14.36-1.48l4.77-.36c3.77-1.71-7.31-1.16-8.21-2.52C544.88,314.9,557.7,316.22,553,316.58Zm-264.88-1.52c-11.8,1.74-9.71-1.83-16.86-2.15C280.62,311.35,279.25,314.59,288.08,315.06Zm189.77-3.67.74-.34-9.57-1-.77.34Z"/><path class="cls-4" d="M273.43,332.93A39.54,39.54,0,0,1,267,333C269,332.89,271.18,332.85,273.43,332.93Z"/><path class="cls-4" d="M827.77,334.69c.26-.46,1.29-.7,2.67-.86C830.27,334.1,829.6,334.38,827.77,334.69Z"/><path class="cls-4" d="M850.85,335.8h.88l.72.16Z"/><path class="cls-4" d="M1655.11,330c5,2.19-4.77.35-8.75.36C1650.34,330.31,1651.87,328.78,1655.11,330Z"/><path class="cls-4" d="M1623.83,326.32a47.27,47.27,0,0,0,9.82,1.28A34.87,34.87,0,0,1,1623.83,326.32Z"/><path class="cls-4" d="M1649.35,327.26a131.45,131.45,0,0,1-15.7.34C1637.66,327.5,1641.06,326.66,1649.35,327.26Z"/><path class="cls-4" d="M1539.59,326.94c4.91,1.34,14.36.63,14.36.63-20.59,1.26,4.15,2.53,5.86,3.54C1547,330.65,1546.91,329,1539.59,326.94Z"/><path class="cls-4" d="M1512.31,326.25A50.6,50.6,0,0,0,1518,326,25.29,25.29,0,0,1,1512.31,326.25Z"/><path class="cls-4" d="M1504.65,327.56c-7.14-.31-9.65-1.84-12.91-3,8.63-1.09,14.14,1.33,20.57,1.7C1507.25,326.28,1502.31,326.12,1504.65,327.56Z"/><path class="cls-4" d="M1284.92,334.9c1.64.16,5.58.15,5.69,1l-11.94,0C1273.88,335.44,1282.54,335.08,1284.92,334.9Z"/><path class="cls-4" d="M1240.9,330.8c-9.54-.14-4.57,2.05-9.4,1.55l.54-2.88Z"/><path class="cls-4" d="M1246.2,316.18l2.82.29-3.22-.1Z"/><path class="cls-4" d="M1195,333.66l6.59,3.21C1193.57,336.05,1193.46,333.5,1195,333.66Z"/><polygon class="cls-4" points="1158.61 335.82 1164.2 336.82 1146.69 335.86 1158.61 335.82"/><polygon class="cls-4" points="1114.76 334.27 1113.21 334.95 1101.2 334.14 1114.76 334.27"/><path class="cls-4" d="M637.54,331.58c-1.82-2.72,17.32-1.59,22.89-2.29C656.61,332.7,645.16,328.16,637.54,331.58Z"/><path class="cls-4" d="M290.06,331.69l18.28.62C294.18,333.38,304.39,332.32,290.06,331.69Z"/></g><g class="cls-3"><path class="cls-4" d="M1699.05,477.31c.83.13,2.13.19,3.17.29C1699.21,477.7,1697.75,477.67,1699.05,477.31Z"/><path class="cls-4" d="M1741.25,478.7c-10.9,0-28.18,0-39-1.1C1711.89,477.26,1738,475.46,1741.25,478.7Z"/><path class="cls-4" d="M1697.11,472.06l13.56,1C1702.73,473.9,1704.2,472.37,1697.11,472.06Z"/><polygon class="cls-4" points="1702.05 475.09 1701.34 476.28 1694.1 475.12 1702.05 475.09"/><path class="cls-4" d="M1008.81,486.92c1.41.52,2.28,1.08,1.62,1.8Z"/><path class="cls-4" d="M977.4,481.53c-2.82-.2-4.79-.28-6.48-.33A40.83,40.83,0,0,1,977.4,481.53Z"/><path class="cls-4" d="M1037.35,486.43l-5.58.16A39.66,39.66,0,0,1,1037.35,486.43Z"/><path class="cls-4" d="M1385.91,481.88c5.19.86,10.11,1.64,13.84,2.18C1389.65,485,1388.78,483,1385.91,481.88Z"/><path class="cls-4" d="M833,464.18l-1.34.95C830.2,464.7,829.48,464.28,833,464.18Z"/><path class="cls-4" d="M969.87,465.6c.14.55-.16,1-.74,1.26-.55-.08-1.11-.14-1.63-.23Z"/><path class="cls-4" d="M1059.46,484.49c.08,0,.21-.07.31-.11l4.54.6C1061.88,485.16,1060.33,485,1059.46,484.49Z"/><path class="cls-4" d="M788.94,462.87a25.63,25.63,0,0,1-5.49-2.1C787.69,461.21,789.68,462.14,788.94,462.87Z"/><path class="cls-4" d="M970.15,481.21c-.06,0,0,0-.06,0,.23,0,.61,0,.83,0C970.63,481.21,970.43,481.19,970.15,481.21Z"/><path class="cls-4" d="M1015.25,466.64c-2.39-.16-4.64-.28-7.2-.49A22.62,22.62,0,0,1,1015.25,466.64Z"/><path class="cls-4" d="M1385.91,481.88c-1.47-.24-2.92-.47-4.39-.73A11.53,11.53,0,0,1,1385.91,481.88Z"/><path class="cls-4" d="M1662.58,479.46c-4.38,0-5.42-.66-6.25-1.35A31.2,31.2,0,0,1,1662.58,479.46Z"/><path class="cls-4" d="M76.82,483.65l-1.75,0A8.77,8.77,0,0,1,76.82,483.65Z"/><path class="cls-4" d="M244.8,486.2A12.12,12.12,0,0,1,247,487C245.59,487.21,244.78,486.77,244.8,486.2Z"/><path class="cls-4" d="M399.54,463c-11,1.4-22.3-1.45-31.85-1.59l3.25,1.18-9.62-1,.11,1.7c-15.92-.8-35.68,1-41.5-1.74l1.86,2.72-16.88-2.16,9.66,1.84c-19,.57-47.77-1.54-51.82-1.53l1.71,1c-3.11.52-5.56-.15-8.79-.47l2.49,1.51c-28.58-.41-36.39,3-68.29,1.41-8.7.37,4.82.5,4.95,1.35-4.75,1.2-15.92.05-18.33-.62,2.52,2.36,16,1.64,5.76,3.54-7.25-1.17,4.95,2.19-7.82,1.73l-5-3c-7.1.53-1.42,2.37-12.64,2.08-12.82-1.33,15.68-3.45-5-3.89-10.34.2-21.76,7-41.81,5.39-17.3,1.59,9.1,4.73-14.83,3.95l15.32,2c-4,.86-1.47,2.37-11.83,1.73a56.29,56.29,0,0,0-15.29-2.84c22.41,2.3-19.66,3.46,1.21,6.45l-7.78-.11c1,.11,1.21.41.7.64l-10.33.21c6.37.66,21.53.94,14.49,3.18l-15,.55c4,1.68-1.49,2.38-.62,3.74l44,3.25c-1.73-1-8.07-1.67-5.71-2.69,11.76-.89,9.6,1.82,20.64.43l-4.88-1.34c.88.51,2.43.67,0,.84-3.87.87-5.56-.14-5.6-1,3.87-1.71,15-.56,18.33.62,14.3-.22,3-3.07,6.1-3.59,7.39,2.86,23.87-.07,32.73,1.26l-5.68-1.86c10.88-2.24,20.62-.4,27,.26l-2.47-1.52c15.14.29,22.66-4.83,34.2.57l-1.6-1c6.21-.47,15.65-1.6,21.6,0,.14-.64,1.2-1.43,3.72-1.62,3.36,2.09,9.82.51,19,.14-6.08-.55-4.14-3.24-10.54-3.89,14.13-2.77,13,3,24.83,3,7.12-1.38-6.38-1.5-8.09-2.51,18.33,1.46,37.67-6.24,49.24-.84l-7.87,1.72c7.29,1.16,11.24,1.15,10.35.65a5.5,5.5,0,0,1-4-.84c22-2.79,34.43,4,56.65,2.87-1.65-1-4.83-1.34-5-2.19,10.23-1,10,5.23,26.48,3.14l-3.24-1.18c5.51-.7,9.58,1,8.84,1.33.43-4.58,35,.22,46.5-5.75,8.09,2.52,31.28,4.48,38.36,3.09,10.16-2.74-9-3-5.22-5.58,8,0,12.14,2.51,24,1.62.2,2.54-23.43,5.17-1.12,6.63l3.12-1.38a44.47,44.47,0,0,1-8.72.37c-6.45-1.5,3.87-1.71,5.35-2.39l24,.77c1.75,2.71-12.57,2.08-14.05,2.76,19-.57,41.76-4.54,59.38-2.74l-1.67-1c22.47,2.3,13.12-5,31-.61,9.44-.71-3.4-2.88,10.86-3.09,4,0,1.66,1,.94,1.36,17.52,1,7.71-2.58,23.88-.09L638.29,477c19.26,2,39.46,7,56.1,5.76-1-2.21-11.29-2-15.39-3.68,22.56,4,54.1.5,75,2.64-6.23,1.88,9.87,4.38-3.49,5.95-3.45-2.87-9.71-1-16.86-1.31,11.56,6.25,48.32-3,51.85,2.38l3-2.21c3.2.32,11.32,2,5.72,2.69l23-1.42c-8.08-1.68-25.1-5.53-30.44-3.14-6.55-2.35,9.42-1.56,3.62-4.25,15.39,3.68,9.46-1.56,25.4-.76-7.21,3.2,15.86,4.34,15.14,5.89,5.21-.59,16.8.89,21.29,2,9.21.3,30.36-2.28,45.15-1.18-5.6-1-14.46-2.33-13.81-4.36,7.26,1.16,15.22,1.13,16.6-1.25-25.76-4.33-8.3,5.46-31.62,2.65-5.75-2.7-12.14-3.36-24.15-4.16,5.47-1.55,3.06-2.22,5.31-4.1,14.7,5.72,38.22.56,57.45,3.38,8.1,1.67,2,5.26,20.35,5.88l-15.76,1.75c17.33-1.59,4.07,1.68,18.39,2.31l-5.7-1.85c8.76-.36,12,0,16.83,1.31l-7.41-2.86c4.72-.36,13.45-.72,13.57,1,1.22-.7,1.64-1.26,1.64-1.74.92.47,3.15.78,8.68.68-3.24-.32-5.58-.14-5.65-1,21.08.67,4.93-3.1,18-2.83-2.07-.66,1.64-1.48,6.32-1.84-.31,4.51,25.56,5.11,32.4,7.6l-.08-.06,17.63,1.81c-3.57-.37.28-1.6,5.41-2.08l-.83,0c5.6-.7-6.66-4.9,10.14-3.6l8.83,1.33c-1.58-.16-.06-.85.77-1.19l9.09,1.22c13.91-4.21,26.25,2.37,42.62.31-4.72.35-11.91,0-8.83-1.33A29.67,29.67,0,0,1,1104,484l-.82-.5,31.18,2.78c-2.53-1.52-20-1.63-12.18-3.35,4.61-2.06,13.56.12,19.16.27-.72,1.19-11,2.25-.61,2.89,1.27-.59,11.19-1.82,6.51-2.67,10.69,1.21,26.2,1.95,35.76,4.06,3-.52-1.74-1-3.33-1.18l-.76.34c-6.44-.66-1-3.05-13.63-1.82-1.06-3.91,18.22-1.08,29.3-1.62l-17.67-2.66c29.76-5.36,69.95.44,99.44.52-8.65,1.22-15.89.06-14.86,3.11,18.32,1.47,15.92.79,34.2,1.41l-1.58-.16c9.45-1.56,22.36,1.45,28.55-1.28-4.08-1.69-13.41,1.57-13.63-1.83l23,.27c-7.25-2-23-.27-31.84-.75-6.34.19,12.75.47,9.73,2.69-21.52-.1-26.42-2.29-37-5.48-6.45-2.36,9.4-2.41,13.4-2.43,13.7,3.52,33.71,5.15,55.05,3.56l11.72-2.58c10.57,2.34,6.08,6.94,25.16,6.36l-5.7-1.85a51.44,51.44,0,0,1,9-1c-8.21-1.4-17-3-24.46-4.43,10.85-3.93,31.18,1.94,47.15,2.73-.83-.5-6.41-.65-8.07-1.66,23.81-.93,48.74,3.74,67.13,4.36,7.78-1.72-15.27-1.14-11.48-3.69,9.66,1,20.59-1.26,23.17,1.11-4.22-3.38,22.22-.25,3.73-3.41,34.85-1.47,73.21,1.63,108.43,3.55-1.71-1-1.71-1.86-.23-2.55-11.92,0-29.43-.92-36-3.27,7.83-1.73,18.53,2.31,20.78,1.29-4-.83-11.94-.81-12.08-2.5,10.2-1.91,15.92.79,23.1,1.11l-3.89.86c22.39,2.3,12.35,5.9,36.13,5,8.61-2.06-.08-1.69-.23-4.23,5.6,1,23.66-1.78,29.48.92l-14.39.22c10.08.71,19.6.7,26.58,1.59a5.37,5.37,0,0,0-3.44-1.33c8,.82,18.27.61,22.37,2.31l2.25-2.73c-4.78,1.2-19,1.42-21.46-.1,1.38-2.38,15.81-.9,22.13-1.09-27.88-.75-28.22-5-51.82-3.22l4,.83c-14.69,2.07-29.82-1.34-42.68-1.25,3.62-.56,4.35-1.55,2.65-2-28.46,2.13-56.46.52-88.9,1.81l-9.76-2.68-.61,2c-15.87.9-3.44-2.88-13.67-2.68,3.89,0,3.19.33,4,.84-18.42-2.31-10.24,1.9-20.57,1.26,4.91,2.19,19.93.78,15.31,3.68-18.38-2.31-47-1-49.65-6-34.13,2-76.43-1.1-105.12-1.53-3.91.87,2.44.68.94,1.37-11.34-2.85-38.06,2-38.24-.56a22.89,22.89,0,0,0-9.27,3.25,206.44,206.44,0,0,0-25.25-2.16l6.77.7-.74.34-9.6-1,.36-.16c-23-.72-49.63-.11-70.52-2.84,12,1.67-3,3.07,2.66,4.07-10.62-4-36.07-4.13-56.71-3.72.09.85-1.51,1.53.92,2.21l-12-1.67,1.58,1c-21.43.75-44.76-3.76-58.91-1.84,8.75.48,8.8,1.33,9.67,2.68-15.35-.1-29.83-.15-47.77-1.37,1,.25,1.59.53,1.61.84-4.7.36-10.34-.65-15.15-1.14l-.66,2c-9.17-.94-21,.1-31.92-1.52-4.28,2.23-26.42-2.07-39-1.13-4.82-.5,10.5,2.34-3,2.22-1.92-4.42-17.54-.12-18.6-4.87l-11.81,1.74-2.61-2.37c-10,4.44-15.28-2-30.22-.58.79.51,2.39.67,1.62,1-4.82-.49-16-.79-7.33-2-8,0-35-1.08-22.89,1.43-.88-1.36,10.25-.2,15.07.29-.63,2-12.59,1.23-15.56,3.45a31.94,31.94,0,0,0-3.1-.91L830,466.39c-15-2.24-30.15-.63-41-3.52-.64.63-3.26,1.11-8.4,1l-.22-2.55-15.89.06,7.44,3.7c-17.45.74-29.72-3.47-44-4.09-3.69,4.25-28-1.61-40.38,2.16l11.2,1.16c-23.93-.78-27.74,1.79-50.06.33,18.94-1.42,19-.57,46.62-4.05-27.68,1.78-47.83-2.4-73.18.07,1.7,1,8.06,1.66,1.86,2.7-5-2.19-23.88.08-20.13-2.48-7.87.87-9.24,3.26-14,3.61l-26.42-3.14.81.51c-44.91,5.92-83.82-4-128.89-1.45l.88,1.36-11.29-2c8.84,1.33-3.82,1.7-4.52,2.89l-28.87-3C390.75,460.86,392.46,463.57,399.54,463Zm380.15,1.14,6.84.19a15.88,15.88,0,0,1,4.33.11l-4.33-.11C783,464.7,780.43,465.78,779.69,464.18Zm630.07,4.9c3.28,1.19-4.75.36-7,.53l11.13.31C1415.4,469.24,1411.38,469.25,1409.76,469.08ZM780.09,480.64l-3.81,1.71L771.4,481Zm-97,.15,9.67,1-.81.34-9.57-1ZM575.35,467.05c.61.1,1.17.17,1.86.34a15.16,15.16,0,0,1-1.86-.34c-7.47-1.23-10.44,1.83-16.51-1.14C566.29,463.38,571.08,466,575.35,467.05Zm170.39,0a36.37,36.37,0,0,0,7.19.31c-1.68-1-8.17-2.51-3.41-2.87,3.3,1.18,14.39,1.48,14.55,3.18C754.42,465.79,747.6,470.57,745.74,467Zm228.31,1.12-2.43.18,8.9,1.32Zm41.46,1.73c4.93,2.19,17.61,1.81,26.38,2.29,2.27-1.87-6.64-4-17-3.85C1012.86,466.64,1020.37,471.2,1015.51,469.86Zm-344.25.45,2.46,1.51-2.31.18,9.58,1c-12.59,2.08-21.59-1.8-28-2.46C658.59,470.69,674,474.37,671.26,470.31Zm432.62.62c8.84,1.33,24.78,3,23.31,4.51.57-2.89-12.23-4.21-16.21-4.19A36.17,36.17,0,0,1,1103.88,470.93Zm-.48,5.44c-12.81-1.32-13.69-2.67-23.47-5.36,12.68-1.23,16.15,2.49,14.64,4,8.83,1.34,7.13-.53,11.85-.88Zm-13.31-8.11-5.22.4c-6.17,1.2-7.46,4.47-16.12,1.2l16.12-1.2A22.33,22.33,0,0,1,1090.09,468.26Zm107.78.15-5.27-1c5.2.1,5.8.53,5.27,1l4.38.84C1190.83,470.3,1196.71,469.3,1197.87,468.41Zm-82.2.79-15.14-.3C1101.4,470.26,1110.85,469.55,1115.67,469.2Zm78.82,1.78c-6.38.19-23,.58-20.71.4C1175.29,469.85,1190.44,470.14,1194.49,471Zm334.2,4-9.54-.15,4.61-2Zm-112,1.55,2.36-1,5.55.15Zm-103.25.15c.49-.45.22-1-.63-1.48a9.8,9.8,0,0,1-3.6-.86,7.41,7.41,0,0,1,3.6.86,51,51,0,0,0,13.1-.41c-1.66-1-8-.82-10.49-1.49,9.44-2.41,30.65,4.82,24.59-2.12,4,.83,17.68,2.66,13,3.86-10.81-.4-31.32.35-39.52,1.64-.48.37-1.38.65-3.24.71A15,15,0,0,1,1313.46,476.68Zm-139.16,1.49a33.14,33.14,0,0,1-6.37-.61c-3.35-.51-5.9-1.28-4.92-2.24,8.16.84,3,1.63,4.92,2.24A53.66,53.66,0,0,0,1174.3,478.17Zm-24.6.42,12.77,1.31-6.43-1.5,19.25,2.82C1164.24,482.61,1151.41,480.45,1149.7,478.59Zm-4.49,1.34-2.64-1.66,4,1.69-1.39,0,.6.37-21.52-.95Zm-219.87-3.32c-8.06,5.72,19,4.06,23.24,6.82.89-1.92,9-4.89-12-4.83,18.16-1.92,11.37,3.71,22.19-1.08-8.7.36-19.18-1.13-20.73-1.29l10.25-.21C942.52,472.48,932.55,477.77,925.34,476.61Zm-110.48.87-13.49-.13,12.77.47ZM481.8,479.07c1,1.35-16.41,3.79-20.54,1.25C470,480,479.57,480.09,481.8,479.07Zm-143.1-.38,15.16,1.14c-2.93,3.06-13.54-.13-20.65.4C330.74,478.72,336.34,479.72,338.7,478.69Zm-98.62,0-4.82-.49,5.07,3Zm6.64,4.05c-3,1.37,7.31,2,9.76,1.84Zm-88.84,2.67,6.32-.19-5.72-2.7ZM168,482.22c1.48,1.94.85,4.56,15.41,3.25.6-2-3.36-2,2-4.42-4.79-.49-8.71.38-11.11.55,3.26.33,7.12-.53,8,.82a45,45,0,0,1-14.35-.2c-.51-.69-1.32-1.3-3.24-1.61C164.76,481.23,166,481.8,168,482.22Zm52.72-2.14a19.64,19.64,0,0,0,4.34-.85l.88.51a7.85,7.85,0,0,1-5.22.34c-2.11.27-4.56.5-7.08.73-1.61,1.71,8.35,2.89,11,3.85-4.74-.49-8.85-2.18-15.13-1.14.83.51,0,.86,4,.83l-8.68.38c-9.94-2.4-.45-3.14,8.83-3.92.29-.38,1-.78,2.75-1.22A11.68,11.68,0,0,1,220.67,480.08Zm-69.76-3.83,4.75.49c2.45.67.89,1.35,1.75,1.86C151.83,478.45,144.56,477.28,150.91,476.25Zm285.4-.6c-3.16.52,4.14,2.54,11.23,2l-3.77,2.55c-.18-1.69-14.43-1.48-16-1.64C425.22,476.2,430.77,477.2,436.31,475.65Zm331.55-.06c2.59,3.22,20.75,1.29,24.76,2.13C783.18,478.43,761.71,479.18,767.86,475.59Zm31.49-1.3c5,0,6.38-.27,5.86,1.35,2.41.67,6.34-.19,8.77.48-9.67,1.42-9.06-1.15-14.63-1.83-1.3,0-2.77,0-4.62-.14A25.64,25.64,0,0,1,799.35,474.29Zm-193.8-.21-6.6-2.35-10.32.2ZM494.7,469.86c.85,1.36-11,1.4-13.46.72.75,1.79,8.69,1.56,15,1.75a25.52,25.52,0,0,0,4.16.23c-1.23-.13-2.61-.19-4.16-.23-2.36-.42-.72-1.33-.72-2l3.15-.52-8.75-.48ZM299.78,468c-7.08,1.38-7.92.88-12.68.38C288.63,467.65,295,467.45,299.78,468Zm253.67.36c-11.92.89,5.73,2.7-2.09,3.57l6.25-.18c-10.14,1.89-7.24-2-14.37-1.48l4.77-.36c3.77-1.71-7.3-1.16-8.2-2.52C545.38,466.64,558.2,468,553.45,468.31ZM288.58,466.8c-11.8,1.74-9.71-1.84-16.86-2.15C281.12,463.09,279.74,466.32,288.58,466.8Zm189.76-3.68.75-.33-9.58-1-.76.34Z"/><path class="cls-4" d="M273.92,484.67a39.55,39.55,0,0,1-6.42.05C269.54,484.63,271.67,484.59,273.92,484.67Z"/><path class="cls-4" d="M828.26,486.43c.27-.46,1.3-.7,2.68-.86C830.77,485.84,830.1,486.12,828.26,486.43Z"/><path class="cls-4" d="M851.35,487.54h.88l.72.16Z"/><path class="cls-4" d="M1655.61,481.69c5,2.19-4.77.36-8.75.37C1650.84,482.05,1652.37,480.52,1655.61,481.69Z"/><path class="cls-4" d="M1624.33,478.06a46.7,46.7,0,0,0,9.82,1.27A34.42,34.42,0,0,1,1624.33,478.06Z"/><path class="cls-4" d="M1649.85,479a131.24,131.24,0,0,1-15.7.33C1638.16,479.24,1641.55,478.4,1649.85,479Z"/><path class="cls-4" d="M1540.08,478.68c4.92,1.33,14.37.63,14.37.63-20.6,1.25,4.15,2.53,5.86,3.54C1547.49,482.38,1547.41,480.69,1540.08,478.68Z"/><path class="cls-4" d="M1512.81,478a52.87,52.87,0,0,0,5.7-.26A25.17,25.17,0,0,1,1512.81,478Z"/><path class="cls-4" d="M1505.14,479.3c-7.13-.32-9.64-1.84-12.9-3,8.63-1.1,14.14,1.33,20.57,1.7C1507.75,478,1502.8,477.86,1505.14,479.3Z"/><path class="cls-4" d="M1285.42,486.64c1.64.16,5.58.15,5.69,1l-11.94.05C1274.38,487.18,1283,486.81,1285.42,486.64Z"/><path class="cls-4" d="M1241.4,482.53c-9.54-.13-4.57,2.06-9.41,1.56l.55-2.89Z"/><path class="cls-4" d="M1246.7,467.92l2.81.29c-1,0-2.09-.08-3.21-.11Z"/><path class="cls-4" d="M1195.48,485.4l6.59,3.21C1194.06,487.79,1194,485.23,1195.48,485.4Z"/><polygon class="cls-4" points="1159.1 487.56 1164.7 488.55 1147.18 487.59 1159.1 487.56"/><polygon class="cls-4" points="1115.25 486 1113.71 486.69 1101.7 485.88 1115.25 486"/><path class="cls-4" d="M638,483.31c-1.82-2.71,17.31-1.58,22.88-2.28C657.11,484.44,645.66,479.89,638,483.31Z"/><path class="cls-4" d="M290.56,483.43l18.28.62C294.67,485.11,304.89,484.06,290.56,483.43Z"/></g><g class="cls-3"><path class="cls-4" d="M1699.55,629.05c.83.13,2.13.19,3.17.29C1699.7,629.44,1698.24,629.41,1699.55,629.05Z"/><path class="cls-4" d="M1741.75,630.44c-10.91,0-28.18,0-39-1.1C1712.39,629,1738.45,627.2,1741.75,630.44Z"/><path class="cls-4" d="M1697.61,623.79l13.56,1C1703.23,625.64,1704.69,624.11,1697.61,623.79Z"/><polygon class="cls-4" points="1702.55 626.83 1701.84 628.02 1694.6 626.86 1702.55 626.83"/><path class="cls-4" d="M1009.31,638.66c1.41.52,2.28,1.08,1.61,1.8Z"/><path class="cls-4" d="M977.9,633.26c-2.82-.19-4.79-.27-6.48-.32A41.86,41.86,0,0,1,977.9,633.26Z"/><path class="cls-4" d="M1037.84,638.16l-5.57.17A41.12,41.12,0,0,1,1037.84,638.16Z"/><path class="cls-4" d="M1386.41,633.62c5.19.86,10.1,1.64,13.84,2.17C1390.15,636.71,1389.28,634.76,1386.41,633.62Z"/><path class="cls-4" d="M833.52,615.91l-1.35,1C830.7,616.44,830,616,833.52,615.91Z"/><path class="cls-4" d="M970.36,617.34c.14.55-.15,1-.74,1.25-.54-.08-1.1-.13-1.62-.23Z"/><path class="cls-4" d="M1060,636.22c.07,0,.21-.06.31-.1l4.53.59C1062.38,636.9,1060.83,636.73,1060,636.22Z"/><path class="cls-4" d="M789.43,614.6a26,26,0,0,1-5.49-2.09C788.19,613,790.18,613.88,789.43,614.6Z"/><path class="cls-4" d="M970.65,632.94c-.07,0,0,0-.07,0,.24,0,.61,0,.84,0C971.13,633,970.93,632.93,970.65,632.94Z"/><path class="cls-4" d="M1015.75,618.38c-2.4-.16-4.64-.28-7.21-.49A22.4,22.4,0,0,1,1015.75,618.38Z"/><path class="cls-4" d="M1386.41,633.62l-4.39-.73A11.53,11.53,0,0,1,1386.41,633.62Z"/><path class="cls-4" d="M1663.08,631.2c-4.39,0-5.42-.66-6.25-1.35A30.52,30.52,0,0,1,1663.08,631.2Z"/><path class="cls-4" d="M77.32,635.38l-1.75,0A8.89,8.89,0,0,1,77.32,635.38Z"/><path class="cls-4" d="M245.3,637.93a11.75,11.75,0,0,1,2.22.77C246.09,638.94,245.28,638.5,245.3,637.93Z"/><path class="cls-4" d="M400,614.78c-11,1.39-22.3-1.45-31.85-1.59l3.26,1.18-9.63-1,.11,1.69c-15.91-.79-35.67,1-41.5-1.73l1.87,2.71L305.4,613.9l9.67,1.84c-19,.57-47.78-1.55-51.83-1.53l1.71,1c-3.1.52-5.55-.15-8.79-.48l2.5,1.52c-28.58-.42-36.4,3-68.3,1.41-8.69.36,4.82.49,5,1.34-4.75,1.2-15.92.06-18.34-.62,2.53,2.37,16,1.65,5.77,3.55-7.26-1.17,4.94,2.19-7.82,1.72l-5-3c-7.1.52-1.42,2.37-12.65,2.07-12.82-1.32,15.69-3.44-4.95-3.89-10.35.2-21.77,7-41.82,5.4-17.3,1.59,9.1,4.73-14.83,3.95l15.32,2c-4,.86-1.46,2.38-11.83,1.74a55.75,55.75,0,0,0-15.29-2.84c22.42,2.3-19.65,3.46,1.22,6.45l-7.78-.12c1,.12,1.21.41.7.64l-10.34.21c6.38.67,21.53.95,14.49,3.18l-15,.56c4,1.68-1.49,2.38-.62,3.74l44,3.25c-1.73-1-8.07-1.67-5.71-2.7,11.75-.89,9.6,1.83,20.64.44l-4.88-1.34c.88.51,2.43.67,0,.84-3.87.87-5.56-.14-5.6-1,3.87-1.71,15-.56,18.33.62,14.3-.22,2.94-3.07,6.09-3.59,7.4,2.86,23.88-.07,32.74,1.25l-5.69-1.85c10.88-2.24,20.63-.4,27,.26l-2.47-1.52c15.15.29,22.67-4.83,34.2.56l-1.6-1c6.22-.47,15.65-1.6,21.61,0,.14-.63,1.19-1.42,3.71-1.61,3.37,2.09,9.83.51,19,.13-6.08-.54-4.14-3.23-10.55-3.89,14.14-2.76,13,3,24.84,3,7.12-1.38-6.39-1.5-8.09-2.52,18.33,1.47,37.67-6.23,49.23-.83l-7.86,1.72c7.28,1.16,11.23,1.15,10.35.64a5.47,5.47,0,0,1-4-.83c22-2.79,34.44,4,56.66,2.87-1.65-1-4.83-1.34-5-2.19,10.23-1,10,5.23,26.49,3.13l-3.24-1.17c5.5-.7,9.58,1,8.84,1.33.43-4.58,35,.22,46.49-5.75,8.1,2.51,31.29,4.48,38.37,3.09,10.16-2.74-9-3-5.22-5.58,8,0,12.14,2.51,24,1.62.2,2.54-23.43,5.17-1.12,6.62l3.12-1.37a46.08,46.08,0,0,1-8.72.37c-6.45-1.5,3.87-1.71,5.35-2.39l24,.77c1.75,2.71-12.57,2.08-14.05,2.76,19-.57,41.76-4.55,59.38-2.74l-1.67-1c22.47,2.3,13.11-5,31-.61,9.44-.71-3.41-2.88,10.85-3.09,4,0,1.67,1,.95,1.35,17.52,1,7.71-2.57,23.88-.08l-3.49-2.87c19.27,2,39.46,7,56.11,5.76-1-2.21-11.29-2-15.39-3.68,22.55,4,54.1.5,74.94,2.64-6.23,1.88,9.87,4.37-3.48,5.94-3.45-2.87-9.72-1-16.86-1.3,11.56,6.25,48.31-3,51.85,2.38l3-2.22c3.2.33,11.32,2,5.72,2.7l23-1.43c-8.08-1.67-25.1-5.52-30.45-3.13-6.54-2.35,9.42-1.56,3.63-4.25,15.39,3.68,9.46-1.56,25.4-.76-7.22,3.2,15.85,4.34,15.13,5.89,5.22-.6,16.81.89,21.29,2,9.22.3,30.36-2.29,45.16-1.18-5.6-1-14.46-2.33-13.81-4.36,7.25,1.16,15.22,1.13,16.59-1.25-25.75-4.33-8.29,5.46-31.61,2.65-5.76-2.7-12.15-3.36-24.15-4.16,5.47-1.55,3.06-2.22,5.31-4.1,14.7,5.72,38.22.56,57.45,3.38,8.09,1.67,2,5.26,20.35,5.88l-15.77,1.74c17.34-1.58,4.07,1.69,18.39,2.32l-5.69-1.85c8.76-.37,12,0,16.82,1.31l-7.41-2.87c4.72-.35,13.46-.72,13.58,1,1.21-.7,1.64-1.26,1.64-1.75.92.48,3.15.78,8.68.69-3.24-.33-5.58-.14-5.65-1,21.07.67,4.93-3.1,18-2.83-2.06-.66,1.65-1.49,6.33-1.84-.31,4.51,25.56,5.1,32.4,7.6l-.08-.06,17.63,1.81c-3.58-.37.28-1.6,5.41-2.08l-.84,0c5.6-.7-6.66-4.89,10.15-3.59l8.83,1.33c-1.58-.16-.06-.85.76-1.2l9.1,1.23c13.91-4.21,26.25,2.37,42.62.3-4.72.36-11.92,0-8.83-1.33a29.9,29.9,0,0,1,10.42.65l-.83-.5,31.18,2.78c-2.53-1.52-20-1.64-12.18-3.36,4.62-2,13.56.13,19.16.28-.72,1.19-11,2.25-.61,2.88,1.28-.58,11.2-1.81,6.52-2.67,10.68,1.22,26.2,2,35.76,4.07,3-.52-1.74-1-3.33-1.18l-.77.34c-6.43-.66-1-3-13.63-1.82-1-3.91,18.22-1.08,29.3-1.63l-17.67-2.65c29.77-5.36,69.95.44,99.45.52-8.66,1.21-15.9.06-14.86,3.1,18.32,1.47,15.92.8,34.19,1.42l-1.57-.16c9.45-1.56,22.36,1.45,28.55-1.29-4.08-1.68-13.41,1.58-13.64-1.82l23.06.26c-7.25-2-23.06-.26-31.85-.74-6.34.19,12.75.47,9.74,2.69-21.52-.11-26.43-2.29-37-5.48-6.45-2.36,9.4-2.41,13.4-2.43,13.69,3.52,33.7,5.15,55.05,3.56l11.72-2.58c10.57,2.34,6.07,6.94,25.16,6.36l-5.7-1.85a50.37,50.37,0,0,1,9-1c-8.21-1.4-17-3-24.47-4.43,10.86-3.93,31.19,1.94,47.15,2.73-.83-.5-6.41-.65-8.07-1.66,23.81-.93,48.75,3.74,67.14,4.36,7.77-1.72-15.28-1.14-11.49-3.7,9.67,1,20.59-1.25,23.18,1.12-4.23-3.38,22.22-.25,3.73-3.41,34.85-1.48,73.21,1.63,108.43,3.55-1.71-1-1.71-1.86-.23-2.55-11.92,0-29.43-.92-36.05-3.27,7.83-1.73,18.53,2.31,20.78,1.29-4-.84-11.94-.81-12.07-2.51,10.2-1.9,15.92.79,23.1,1.11l-3.9.86c22.39,2.3,12.36,5.9,36.14,5,8.61-2.06-.08-1.69-.23-4.24,5.6,1,23.65-1.77,29.48.93l-14.39.22c10.07.71,19.6.7,26.58,1.59a5.43,5.43,0,0,0-3.44-1.33c8,.82,18.27.61,22.37,2.31l2.25-2.73c-4.78,1.2-19,1.42-21.46-.1,1.37-2.39,15.81-.9,22.13-1.09-27.88-.76-28.22-5-51.83-3.23l4,.84c-14.68,2.06-29.81-1.34-42.68-1.25,3.62-.56,4.36-1.56,2.66-2-28.46,2.12-56.46.52-88.9,1.81l-9.77-2.69-.6,2c-15.87.9-3.44-2.88-13.67-2.68,3.89,0,3.19.33,4,.84-18.43-2.32-10.24,1.9-20.58,1.26,4.92,2.18,19.93.78,15.32,3.68-18.38-2.32-47-1-49.66-5.95-34.12,2-76.43-1.1-105.11-1.53-3.92.86,2.44.68.93,1.36-11.34-2.85-38.06,2-38.24-.55a23,23,0,0,0-9.27,3.25,206,206,0,0,0-25.24-2.17l6.77.71-.74.34-9.6-1,.35-.16c-23-.73-49.62-.11-70.51-2.84,12,1.66-3,3.07,2.66,4.07-10.62-4-36.07-4.13-56.71-3.72.09.85-1.51,1.53.91,2.21l-12-1.67,1.58,1c-21.43.75-44.77-3.76-58.91-1.85,8.74.48,8.79,1.33,9.67,2.69-15.36-.1-29.84-.15-47.77-1.37,1,.25,1.58.53,1.61.84-4.7.35-10.35-.65-15.16-1.14l-.65,2c-9.17-.94-21,.1-31.93-1.53-4.27,2.24-26.41-2.07-39-1.12-4.81-.5,10.5,2.33-3,2.21-1.91-4.41-17.54-.11-18.59-4.86l-11.81,1.74-2.61-2.38c-10,4.45-15.29-2-30.22-.58.79.52,2.39.68,1.62,1-4.82-.49-16-.8-7.33-2-8,0-35-1.08-22.89,1.43-.88-1.36,10.25-.2,15.07.29-.63,2-12.59,1.23-15.56,3.45a28.91,28.91,0,0,0-3.11-.91l-1.7,1.26c-15-2.25-30.15-.63-41-3.53-.63.63-3.25,1.12-8.39,1l-.22-2.55-15.9.05,7.45,3.71c-17.45.74-29.73-3.47-44.06-4.1-3.68,4.26-28-1.6-40.38,2.17l11.2,1.15c-23.92-.77-27.73,1.79-50,.34,18.93-1.42,19-.57,46.61-4.05-27.68,1.78-47.82-2.4-73.17.06,1.7,1,8.06,1.67,1.85,2.71-4.94-2.19-23.88.08-20.12-2.48-7.87.87-9.24,3.25-14.06,3.61l-26.41-3.14.81.5c-44.91,5.92-83.83-4-128.89-1.44l.87,1.36-11.28-2c8.84,1.33-3.83,1.71-4.52,2.9l-28.87-3C391.25,612.6,393,615.31,400,614.78Zm380.16,1.14,6.83.19a15.94,15.94,0,0,1,4.34.11l-4.34-.11C783.51,616.44,780.93,617.51,780.19,615.92Zm630.06,4.9c3.29,1.18-4.74.36-7,.53l11.13.31C1415.89,621,1411.87,621,1410.25,620.82ZM780.59,632.38l-3.82,1.71-4.87-1.34Zm-97,.15,9.67,1-.81.35-9.57-1ZM575.85,618.79c.61.1,1.17.17,1.86.34a15.16,15.16,0,0,1-1.86-.34c-7.47-1.23-10.44,1.83-16.51-1.14C566.79,615.11,571.58,617.74,575.85,618.79Zm170.39,0a36.37,36.37,0,0,0,7.19.31c-1.68-1-8.17-2.51-3.42-2.87,3.31,1.18,14.4,1.48,14.56,3.17C754.92,617.53,748.1,622.3,746.24,618.75Zm228.31,1.12-2.43.18,8.9,1.32ZM1016,621.6c4.94,2.19,17.62,1.81,26.39,2.29,2.27-1.88-6.64-4-17-3.85C1013.35,618.38,1020.87,622.94,1016,621.6ZM671.76,622l2.46,1.52-2.32.18,9.58,1c-12.59,2.09-21.58-1.79-28-2.45C659.09,622.43,674.44,626.11,671.76,622Zm432.62.63c8.83,1.33,24.77,3,23.31,4.51.57-2.89-12.23-4.21-16.21-4.19A36.17,36.17,0,0,1,1104.38,622.67Zm-.48,5.44c-12.81-1.32-13.69-2.67-23.48-5.36,12.69-1.23,16.15,2.49,14.65,4,8.83,1.34,7.12-.53,11.84-.88ZM1090.59,620l-5.22.39c-6.18,1.2-7.46,4.48-16.12,1.2l16.12-1.2A23,23,0,0,1,1090.59,620Zm107.77.15-5.26-1c5.19.1,5.8.53,5.26,1l4.39.84C1191.32,622,1197.2,621,1198.36,620.15Zm-82.19.78-15.14-.29C1101.9,622,1111.35,621.29,1116.17,620.93Zm78.81,1.79c-6.38.19-23,.58-20.7.4C1175.79,621.59,1190.94,621.88,1195,622.72Zm334.21,4-9.55-.15,4.62-2.05Zm-112,1.55,2.36-1,5.56.15Zm-103.25.14c.5-.44.23-1-.63-1.47a9.73,9.73,0,0,1-3.59-.86,7.37,7.37,0,0,1,3.59.86,51.09,51.09,0,0,0,13.11-.41c-1.66-1-8-.82-10.5-1.49,9.44-2.41,30.65,4.82,24.6-2.12,4,.83,17.68,2.66,13,3.86-10.82-.4-31.32.35-39.53,1.63-.47.37-1.37.66-3.23.72A15.31,15.31,0,0,1,1314,628.41Zm-139.15,1.5a33,33,0,0,1-6.37-.61c-3.36-.51-5.91-1.29-4.92-2.24,8.16.84,2.94,1.62,4.92,2.24A53.66,53.66,0,0,0,1174.8,629.91Zm-24.6.42,12.77,1.31-6.44-1.5,19.26,2.82C1164.74,634.35,1151.91,632.19,1150.2,630.33Zm-4.5,1.33-2.63-1.65,4,1.69-1.4,0,.61.38-21.52-.95Zm-219.86-3.32c-8.06,5.73,19,4.07,23.23,6.82.9-1.91,9.06-4.89-12-4.82,18.16-1.92,11.38,3.7,22.19-1.09-8.7.37-19.17-1.12-20.73-1.29l10.25-.2C943,624.22,933,629.51,925.84,628.34Zm-110.48.87-13.49-.13,12.77.47Zm-333.06,1.6c.95,1.35-16.41,3.79-20.54,1.25C470.5,631.69,480.06,631.83,482.3,630.81Zm-143.1-.38,15.15,1.13c-2.92,3.07-13.53-.12-20.64.41C331.24,630.45,336.84,631.46,339.2,630.43Zm-98.62,0-4.82-.5,5.07,3Zm6.63,4.05c-3,1.36,7.32,2,9.76,1.84Zm-88.84,2.67,6.33-.19-5.72-2.7ZM168.44,634c1.49,1.94.86,4.55,15.41,3.25.61-2-3.35-2,2.05-4.42-4.79-.49-8.72.37-11.11.55,3.26.33,7.11-.53,8,.82a45,45,0,0,1-14.36-.2c-.51-.69-1.32-1.3-3.23-1.61C165.26,633,166.49,633.54,168.44,634Zm52.73-2.14a18.94,18.94,0,0,0,4.34-.86l.88.52a7.92,7.92,0,0,1-5.22.34c-2.11.27-4.56.5-7.08.72-1.62,1.72,8.35,2.9,11,3.86-4.74-.5-8.84-2.18-15.13-1.14.83.51,0,.85,4,.83l-8.67.38c-9.94-2.4-.45-3.14,8.83-3.93.29-.38,1-.77,2.75-1.21A11.48,11.48,0,0,1,221.17,631.82ZM151.4,628l4.76.5c2.44.67.89,1.35,1.74,1.86C152.33,630.19,145.06,629,151.4,628Zm285.41-.59c-3.16.52,4.13,2.54,11.23,2L444.26,632c-.18-1.7-14.42-1.48-16-1.65C425.72,627.94,431.27,628.94,436.81,627.39Zm331.55-.06c2.59,3.22,20.74,1.28,24.76,2.13C783.68,630.16,762.2,630.91,768.36,627.33ZM799.84,626c5,0,6.38-.26,5.87,1.36,2.41.67,6.34-.19,8.77.48-9.67,1.42-9.07-1.16-14.64-1.84-1.29,0-2.76,0-4.61-.13A26.61,26.61,0,0,1,799.84,626Zm-193.79-.2-6.61-2.36-10.31.21ZM495.2,621.6c.84,1.36-11,1.39-13.46.72.75,1.78,8.69,1.55,15,1.74a25.1,25.1,0,0,0,4.16.24c-1.24-.13-2.61-.19-4.16-.24-2.37-.41-.72-1.33-.72-1.95l3.14-.52-8.74-.49Zm-194.92-1.92c-7.08,1.39-7.92.89-12.68.39C289.13,619.38,295.47,619.19,300.28,619.68Zm253.67.37c-11.92.89,5.73,2.7-2.09,3.57l6.24-.18c-10.13,1.89-7.23-2-14.36-1.49l4.77-.35c3.77-1.71-7.31-1.17-8.2-2.52C545.87,618.38,558.69,619.69,554,620.05Zm-264.87-1.51c-11.8,1.74-9.72-1.84-16.87-2.15C281.61,614.82,280.24,618.06,289.08,618.54Zm189.76-3.68.75-.33-9.58-1-.76.35Z"/><path class="cls-4" d="M274.42,636.41a38.19,38.19,0,0,1-6.42,0C270,636.37,272.17,636.33,274.42,636.41Z"/><path class="cls-4" d="M828.76,638.16c.27-.46,1.29-.7,2.67-.85C831.26,637.58,830.6,637.86,828.76,638.16Z"/><path class="cls-4" d="M851.85,639.28h.87l.73.15Z"/><path class="cls-4" d="M1656.1,633.43c5,2.19-4.77.36-8.75.37C1651.33,633.79,1652.87,632.25,1656.1,633.43Z"/><path class="cls-4" d="M1624.83,629.8a47.36,47.36,0,0,0,9.81,1.27A34.36,34.36,0,0,1,1624.83,629.8Z"/><path class="cls-4" d="M1650.35,630.74a131.4,131.4,0,0,1-15.71.33C1638.66,631,1642.05,630.14,1650.35,630.74Z"/><path class="cls-4" d="M1540.58,630.41c4.92,1.34,14.37.63,14.37.63-20.6,1.26,4.14,2.54,5.86,3.55C1548,634.12,1547.91,632.43,1540.58,630.41Z"/><path class="cls-4" d="M1513.3,629.73a50.27,50.27,0,0,0,5.71-.27A24.69,24.69,0,0,1,1513.3,629.73Z"/><path class="cls-4" d="M1505.64,631c-7.13-.32-9.65-1.84-12.91-3,8.63-1.1,14.15,1.32,20.57,1.7C1508.25,629.76,1503.3,629.59,1505.64,631Z"/><path class="cls-4" d="M1285.92,638.37c1.64.17,5.58.16,5.69,1l-11.94,0C1274.88,638.92,1283.53,638.55,1285.92,638.37Z"/><path class="cls-4" d="M1241.89,634.27c-9.54-.13-4.57,2.06-9.4,1.56l.54-2.89Z"/><path class="cls-4" d="M1247.2,619.66l2.81.28-3.22-.1Z"/><path class="cls-4" d="M1196,637.14l6.6,3.2C1194.56,639.52,1194.45,637,1196,637.14Z"/><polygon class="cls-4" points="1159.6 639.3 1165.2 640.29 1147.68 639.33 1159.6 639.3"/><polygon class="cls-4" points="1115.75 637.74 1114.2 638.42 1102.19 637.61 1115.75 637.74"/><path class="cls-4" d="M638.54,635.05c-1.82-2.71,17.31-1.58,22.88-2.28C657.61,636.18,646.16,631.63,638.54,635.05Z"/><path class="cls-4" d="M291.05,635.17l18.28.62C295.17,636.85,305.38,635.8,291.05,635.17Z"/></g><g class="cls-3"><path class="cls-4" d="M1700,780.79c.83.12,2.14.18,3.17.28C1700.2,781.18,1698.74,781.15,1700,780.79Z"/><path class="cls-4" d="M1742.24,782.17c-10.9,0-28.17,0-39-1.1C1712.88,780.74,1738.94,778.93,1742.24,782.17Z"/><path class="cls-4" d="M1698.11,775.53l13.56,1C1703.73,777.38,1705.19,775.85,1698.11,775.53Z"/><polygon class="cls-4" points="1703.04 778.57 1702.33 779.75 1695.1 778.59 1703.04 778.57"/><path class="cls-4" d="M1009.81,790.4c1.41.51,2.28,1.07,1.61,1.8Z"/><path class="cls-4" d="M978.4,785c-2.82-.19-4.8-.27-6.48-.32A42,42,0,0,1,978.4,785Z"/><path class="cls-4" d="M1038.34,789.9l-5.58.17A41.27,41.27,0,0,1,1038.34,789.9Z"/><path class="cls-4" d="M1386.9,785.35c5.19.86,10.11,1.65,13.85,2.18C1390.65,788.45,1389.77,786.49,1386.9,785.35Z"/><path class="cls-4" d="M834,767.65l-1.35,1C831.2,768.18,830.47,767.76,834,767.65Z"/><path class="cls-4" d="M970.86,769.07c.14.56-.16,1-.74,1.26-.54-.08-1.1-.13-1.62-.23Z"/><path class="cls-4" d="M1060.45,788c.08,0,.22-.06.31-.11l4.54.6C1062.87,788.63,1061.33,788.47,1060.45,788Z"/><path class="cls-4" d="M789.93,766.34a25.82,25.82,0,0,1-5.49-2.09C788.69,764.69,790.67,765.61,789.93,766.34Z"/><path class="cls-4" d="M971.14,784.68c-.06,0,0,0-.06,0,.23,0,.61,0,.84,0C971.62,784.69,971.42,784.67,971.14,784.68Z"/><path class="cls-4" d="M1016.24,770.12c-2.39-.17-4.63-.28-7.2-.49A22.31,22.31,0,0,1,1016.24,770.12Z"/><path class="cls-4" d="M1386.9,785.35l-4.39-.72A11.72,11.72,0,0,1,1386.9,785.35Z"/><path class="cls-4" d="M1663.57,782.94c-4.38,0-5.42-.66-6.25-1.36A30.32,30.32,0,0,1,1663.57,782.94Z"/><path class="cls-4" d="M77.81,787.12l-1.75,0A9.58,9.58,0,0,1,77.81,787.12Z"/><path class="cls-4" d="M245.8,789.67a11.76,11.76,0,0,1,2.22.76C246.59,790.68,245.78,790.24,245.8,789.67Z"/><path class="cls-4" d="M400.53,766.52c-11,1.39-22.3-1.45-31.85-1.6l3.26,1.18-9.63-1,.11,1.69c-15.91-.79-35.68,1-41.5-1.73l1.86,2.71-16.88-2.15,9.67,1.83c-19,.57-47.78-1.54-51.83-1.52l1.71,1c-3.1.52-5.55-.15-8.79-.48l2.5,1.52c-28.58-.42-36.4,3-68.3,1.41-8.69.36,4.82.49,5,1.34-4.75,1.2-15.92,0-18.34-.62,2.53,2.37,16,1.65,5.76,3.55-7.25-1.17,4.95,2.19-7.81,1.72l-5-3c-7.1.53-1.42,2.38-12.65,2.08-12.82-1.32,15.69-3.44-4.95-3.89-10.35.2-21.77,7-41.82,5.4-17.3,1.58,9.1,4.73-14.83,3.95l15.32,2c-4,.86-1.46,2.38-11.83,1.74a55.83,55.83,0,0,0-15.29-2.84c22.42,2.3-19.65,3.46,1.21,6.44l-7.78-.11c1,.12,1.22.41.7.64L68.18,788c6.37.66,21.53.94,14.49,3.18l-15,.56c4,1.68-1.49,2.38-.62,3.74l44,3.25c-1.72-1-8.07-1.67-5.7-2.7,11.75-.89,9.59,1.83,20.63.43l-4.87-1.33c.87.5,2.43.67,0,.84-3.87.87-5.57-.15-5.6-1,3.87-1.71,15-.56,18.33.62,14.3-.22,2.94-3.07,6.09-3.59,7.4,2.86,23.88-.08,32.74,1.25l-5.69-1.85c10.88-2.24,20.63-.4,27,.26l-2.47-1.52c15.15.28,22.66-4.83,34.2.56l-1.6-1c6.22-.47,15.65-1.61,21.61,0,.13-.63,1.19-1.42,3.71-1.61,3.37,2.08,9.83.51,19,.13-6.08-.54-4.14-3.23-10.55-3.89,14.13-2.76,13,3,24.83,3,7.12-1.38-6.38-1.51-8.09-2.52,18.34,1.47,37.67-6.23,49.24-.84l-7.87,1.72c7.29,1.17,11.24,1.16,10.36.65a5.47,5.47,0,0,1-4-.83c22-2.79,34.43,4,56.66,2.87-1.66-1-4.83-1.35-5-2.19,10.23-1.06,10,5.22,26.49,3.13l-3.24-1.17c5.5-.7,9.58,1,8.84,1.33.43-4.59,35,.22,46.49-5.76,8.1,2.52,31.28,4.48,38.37,3.1,10.16-2.75-9-3-5.23-5.58,8,0,12.14,2.5,24,1.62.2,2.54-23.43,5.17-1.13,6.62l3.13-1.37a46.23,46.23,0,0,1-8.73.37c-6.45-1.51,3.87-1.71,5.36-2.4l24,.78c1.74,2.71-12.58,2.07-14.06,2.76,19-.57,41.76-4.55,59.38-2.74l-1.67-1c22.47,2.31,13.12-5,31-.6,9.45-.71-3.4-2.88,10.86-3.1,4,0,1.67,1,.95,1.36,17.51,1,7.71-2.57,23.87-.08l-3.48-2.87c19.27,2,39.46,7,56.11,5.76-1-2.21-11.3-2-15.39-3.69,22.55,4,54.09.5,74.94,2.64-6.23,1.89,9.87,4.38-3.48,5.95-3.46-2.87-9.72-1-16.86-1.3,11.55,6.25,48.31-3,51.84,2.38L789.5,790c3.2.33,11.31,2,5.71,2.7l23-1.43c-8.07-1.67-25.1-5.52-30.44-3.13-6.54-2.35,9.42-1.56,3.63-4.26,15.39,3.69,9.45-1.56,25.39-.76-7.21,3.21,15.86,4.35,15.14,5.9,5.22-.6,16.81.89,21.29,2,9.22.3,30.36-2.28,45.15-1.17-5.59-1-14.45-2.33-13.8-4.37,7.25,1.16,15.22,1.13,16.59-1.24-25.75-4.34-8.3,5.45-31.61,2.65-5.76-2.7-12.15-3.36-24.16-4.16,5.47-1.55,3.06-2.22,5.31-4.1,14.7,5.72,38.22.55,57.45,3.38,8.1,1.67,2,5.25,20.35,5.88l-15.76,1.74c17.33-1.58,4.07,1.68,18.39,2.32l-5.69-1.85c8.75-.37,12,0,16.82,1.31l-7.41-2.87c4.72-.35,13.46-.72,13.57,1,1.22-.69,1.64-1.25,1.64-1.74.92.48,3.15.78,8.68.69-3.24-.33-5.57-.15-5.64-1,21.07.68,4.92-3.1,18-2.82-2.06-.66,1.65-1.49,6.33-1.84-.32,4.51,25.56,5.1,32.4,7.6l-.08-.07,17.62,1.81c-3.57-.36.29-1.59,5.41-2.07l-.83,0c5.6-.7-6.66-4.9,10.14-3.6l8.83,1.33c-1.58-.16-.06-.85.77-1.19l9.09,1.22c13.91-4.21,26.26,2.38,42.62.31-4.72.36-11.91,0-8.83-1.33a29.66,29.66,0,0,1,10.42.65l-.82-.51,31.18,2.78c-2.53-1.52-20-1.63-12.18-3.35,4.61-2,13.56.12,19.16.28-.72,1.19-11,2.24-.61,2.88,1.28-.58,11.2-1.82,6.52-2.67,10.68,1.22,26.2,2,35.75,4.06,3-.52-1.73-1-3.32-1.17l-.77.34c-6.44-.66-1-3.06-13.63-1.82-1.06-3.91,18.22-1.08,29.3-1.63L1177.88,784c29.77-5.35,69.95.45,99.44.52-8.65,1.22-15.89.06-14.85,3.11,18.32,1.47,15.92.8,34.19,1.42l-1.57-.16c9.45-1.57,22.35,1.45,28.55-1.29-4.08-1.68-13.41,1.58-13.64-1.82l23,.26c-7.24-2-23-.26-31.84-.74-6.34.19,12.75.47,9.74,2.69-21.52-.11-26.43-2.3-37-5.49-6.45-2.36,9.4-2.4,13.4-2.42,13.7,3.52,33.71,5.15,55.06,3.56l11.72-2.58c10.56,2.34,6.07,6.94,25.15,6.36l-5.69-1.85a50.36,50.36,0,0,1,8.94-1c-8.2-1.4-17-3-24.46-4.43,10.86-3.94,31.19,1.94,47.15,2.73-.83-.5-6.41-.65-8.07-1.67,23.81-.93,48.75,3.75,67.14,4.37,7.77-1.72-15.28-1.14-11.49-3.7,9.67,1,20.59-1.25,23.18,1.11-4.23-3.37,22.22-.24,3.72-3.4,34.85-1.48,73.22,1.62,108.43,3.55-1.7-1-1.7-1.87-.22-2.55-11.92,0-29.43-.92-36.05-3.28,7.83-1.72,18.53,2.32,20.78,1.3-4-.84-11.94-.82-12.08-2.51,10.21-1.91,15.92.79,23.11,1.11l-3.9.86c22.39,2.3,12.36,5.9,36.13,5,8.62-2.06-.08-1.69-.22-4.24,5.6,1,23.65-1.77,29.48.93l-14.39.21c10.07.72,19.59.71,26.57,1.59a5.43,5.43,0,0,0-3.44-1.32c8,.82,18.28.61,22.37,2.3l2.25-2.73c-4.77,1.21-19,1.43-21.45-.09,1.37-2.39,15.81-.9,22.13-1.09-27.88-.76-28.23-5-51.83-3.23l4,.84c-14.68,2.06-29.81-1.34-42.68-1.26,3.62-.55,4.36-1.55,2.65-2-28.46,2.13-56.45.52-88.9,1.82l-9.76-2.69-.61,2c-15.87.9-3.43-2.88-13.66-2.68,3.89,0,3.19.33,4,.84-18.42-2.32-10.23,1.9-20.57,1.25,4.91,2.19,19.93.79,15.32,3.69-18.38-2.32-47-1-49.66-5.95-34.12,2-76.43-1.11-105.12-1.53-3.91.86,2.45.68.94,1.36-11.34-2.85-38.06,2-38.24-.56a22.69,22.69,0,0,0-9.27,3.26,206.13,206.13,0,0,0-25.24-2.17l6.76.7-.74.35-9.6-1,.36-.16c-23-.73-49.63-.11-70.51-2.84,12,1.66-3,3.07,2.65,4.07-10.61-4-36.06-4.13-56.7-3.72.09.85-1.51,1.53.91,2.2l-12-1.66,1.59,1c-21.43.75-44.77-3.75-58.92-1.84,8.75.48,8.8,1.33,9.68,2.69-15.36-.1-29.84-.15-47.78-1.37,1,.25,1.59.53,1.62.84-4.7.35-10.35-.65-15.16-1.14l-.65,2c-9.18-.94-21,.11-31.93-1.52-4.28,2.24-26.42-2.07-39-1.13-4.82-.49,10.5,2.34-3,2.22-1.92-4.41-17.54-.11-18.6-4.86l-11.81,1.73-2.6-2.37c-10,4.45-15.29-2-30.22-.58.79.51,2.38.68,1.62,1-4.83-.5-16-.8-7.33-2-8,0-35-1.07-22.89,1.44-.88-1.36,10.25-.21,15.07.29-.64,2-12.6,1.23-15.57,3.44-.38-.22-2-.57-3.1-.91L831,769.86c-15-2.24-30.15-.62-41-3.52-.63.63-3.25,1.12-8.39,1l-.22-2.55-15.9.05,7.44,3.71c-17.44.74-29.72-3.47-44.05-4.1-3.68,4.26-28-1.6-40.38,2.17l11.2,1.15c-23.93-.77-27.74,1.79-50,.33,18.93-1.42,19-.57,46.61-4.05-27.68,1.79-47.83-2.39-73.17.07,1.69,1,8.05,1.67,1.85,2.71-5-2.19-23.88.08-20.13-2.48-7.87.87-9.24,3.25-14,3.6l-26.42-3.13.81.5c-44.9,5.92-83.82-4-128.88-1.45l.87,1.36-11.28-2c8.84,1.33-3.83,1.71-4.52,2.9l-28.87-3C391.75,764.34,393.45,767.05,400.53,766.52Zm380.16,1.14,6.83.18a15.58,15.58,0,0,1,4.34.12l-4.34-.12C784,768.18,781.43,769.25,780.69,767.66Zm630.06,4.9c3.29,1.18-4.74.36-7,.53l11.13.31C1416.39,772.71,1412.37,772.73,1410.75,772.56ZM781.09,784.12l-3.82,1.71-4.88-1.34Zm-97,.14,9.67,1-.81.34-9.56-1ZM576.34,770.53c.61.1,1.18.17,1.87.33a13.58,13.58,0,0,1-1.87-.33c-7.46-1.23-10.43,1.82-16.51-1.14C567.29,766.85,572.08,769.48,576.34,770.53Zm170.39,0a35.81,35.81,0,0,0,7.2.32c-1.68-1-8.18-2.52-3.42-2.87,3.31,1.17,14.39,1.47,14.55,3.17C755.42,769.27,748.59,774,746.73,770.48Zm228.32,1.12-2.43.18,8.9,1.33Zm41.45,1.74c4.93,2.19,17.61,1.8,26.38,2.29,2.27-1.88-6.63-4-17-3.85C1013.85,770.12,1021.37,774.68,1016.5,773.34Zm-344.24.44,2.45,1.52-2.31.18,9.58,1c-12.59,2.09-21.59-1.79-28-2.45C659.58,774.16,674.94,777.85,672.26,773.78Zm432.61.63c8.84,1.33,24.78,3,23.32,4.51.56-2.89-12.24-4.21-16.22-4.2A35.32,35.32,0,0,1,1104.87,774.41Zm-.47,5.43c-12.82-1.31-13.7-2.66-23.48-5.36,12.69-1.22,16.15,2.5,14.64,4,8.84,1.33,7.13-.54,11.85-.89Zm-13.31-8.1-5.22.39c-6.18,1.2-7.46,4.47-16.12,1.2l16.12-1.2A22.9,22.9,0,0,1,1091.09,771.74Zm107.77.15-5.26-1c5.19.1,5.79.54,5.26,1l4.38.84C1191.82,773.77,1197.7,772.77,1198.86,771.89Zm-82.19.78-15.15-.29C1102.39,773.74,1111.84,773,1116.67,772.67Zm78.81,1.78c-6.38.19-23,.59-20.71.41C1176.28,773.33,1191.43,773.62,1195.48,774.45Zm334.21,4-9.55-.14,4.61-2Zm-112,1.55,2.36-1,5.55.15Zm-103.25.15c.5-.44.23-1-.63-1.47a9.7,9.7,0,0,1-3.59-.87,7.48,7.48,0,0,1,3.59.87,50.6,50.6,0,0,0,13.11-.42c-1.66-1-8-.81-10.5-1.49,9.44-2.4,30.65,4.83,24.6-2.11,4,.83,17.67,2.65,13,3.86-10.82-.4-31.32.35-39.53,1.63a5.72,5.72,0,0,1-3.24.72A15.6,15.6,0,0,1,1314.45,780.15Zm-139.15,1.5a34,34,0,0,1-6.37-.61c-3.36-.51-5.91-1.29-4.92-2.24,8.15.84,2.94,1.62,4.92,2.24A53.66,53.66,0,0,0,1175.3,781.65Zm-24.61.42,12.78,1.31-6.44-1.51,19.25,2.83C1165.24,786.09,1152.4,783.93,1150.69,782.07Zm-4.49,1.33-2.63-1.65,4,1.69-1.39,0,.6.38-21.51-.95Zm-219.86-3.32c-8.07,5.72,19,4.06,23.23,6.82.9-1.91,9.06-4.89-12-4.82,18.16-1.93,11.38,3.7,22.19-1.09-8.7.37-19.18-1.13-20.73-1.29l10.25-.2C943.52,776,933.54,781.24,926.34,780.08ZM815.85,781l-13.49-.13,12.77.47Zm-333,1.6c.95,1.35-16.42,3.79-20.55,1.25C471,783.43,480.56,783.57,482.8,782.55Zm-143.11-.39,15.16,1.14c-2.92,3.07-13.54-.12-20.65.41C331.73,782.19,337.33,783.19,339.69,782.16Zm-98.61,0-4.83-.5,5.07,3Zm6.63,4.05c-3,1.36,7.32,2,9.76,1.83Zm-88.84,2.66,6.32-.19L159.48,786Zm10.07-3.16c1.49,1.94.86,4.55,15.41,3.25.6-2-3.36-2,2.05-4.42-4.8-.49-8.72.37-11.11.54,3.26.34,7.11-.53,8,.83a45,45,0,0,1-14.35-.2c-.51-.69-1.32-1.3-3.23-1.61C165.75,784.71,167,785.28,168.94,785.7Zm52.72-2.14a19.5,19.5,0,0,0,4.35-.86l.87.52a8,8,0,0,1-5.22.34c-2.1.27-4.55.5-7.08.72-1.61,1.72,8.35,2.89,11,3.85-4.74-.49-8.84-2.17-15.13-1.13.83.5,0,.85,4,.83l-8.68.37c-9.93-2.39-.44-3.13,8.83-3.92.3-.38,1-.77,2.75-1.21A11.24,11.24,0,0,1,221.66,783.56Zm-69.76-3.84,4.76.5c2.44.67.89,1.35,1.74,1.86C152.83,781.92,145.55,780.76,151.9,779.72Zm285.4-.59c-3.15.52,4.14,2.53,11.24,2l-3.78,2.56c-.18-1.7-14.43-1.48-16-1.65C426.21,779.68,431.77,780.68,437.3,779.13Zm331.56-.06c2.58,3.22,20.74,1.28,24.75,2.13C784.17,781.9,762.7,782.65,768.86,779.07Zm31.48-1.31c5,0,6.38-.26,5.87,1.35,2.4.68,6.34-.18,8.77.49-9.67,1.42-9.07-1.16-14.64-1.84-1.3,0-2.77,0-4.61-.14A25.56,25.56,0,0,1,800.34,777.76Zm-193.8-.2-6.6-2.36-10.31.21ZM495.7,773.34c.84,1.35-11,1.39-13.47.72.76,1.78,8.7,1.55,15,1.74a25.1,25.1,0,0,0,4.16.24c-1.24-.13-2.61-.19-4.16-.24-2.37-.41-.72-1.33-.72-1.95l3.14-.52-8.74-.49Zm-194.93-1.92c-7.07,1.39-7.92.88-12.68.39C289.62,771.12,296,770.93,300.77,771.42Zm253.68.37c-11.92.89,5.73,2.69-2.1,3.57l6.25-.19c-10.14,1.9-7.23-2-14.36-1.48l4.77-.35c3.77-1.71-7.31-1.17-8.2-2.52C546.37,770.11,559.19,771.43,554.45,771.79Zm-264.88-1.51c-11.8,1.73-9.71-1.84-16.86-2.15C282.11,766.56,280.74,769.8,289.57,770.28Zm189.77-3.68.75-.34-9.58-1-.77.34Z"/><path class="cls-4" d="M274.92,788.15a39.29,39.29,0,0,1-6.42,0C270.53,788.1,272.67,788.06,274.92,788.15Z"/><path class="cls-4" d="M829.26,789.9c.26-.46,1.29-.7,2.67-.85C831.76,789.32,831.09,789.59,829.26,789.9Z"/><path class="cls-4" d="M852.34,791c.3,0,.61,0,.88,0s.49.11.72.16Z"/><path class="cls-4" d="M1656.6,785.17c5,2.19-4.77.36-8.75.37C1651.83,785.53,1653.36,784,1656.6,785.17Z"/><path class="cls-4" d="M1625.32,781.54a48.27,48.27,0,0,0,9.82,1.27A34.42,34.42,0,0,1,1625.32,781.54Z"/><path class="cls-4" d="M1650.84,782.47a131.45,131.45,0,0,1-15.7.34C1639.15,782.71,1642.55,781.88,1650.84,782.47Z"/><path class="cls-4" d="M1541.08,782.15c4.92,1.34,14.36.63,14.36.63-20.59,1.26,4.15,2.54,5.86,3.55C1548.49,785.86,1548.4,784.17,1541.08,782.15Z"/><path class="cls-4" d="M1513.8,781.46a50.6,50.6,0,0,0,5.71-.26A24.72,24.72,0,0,1,1513.8,781.46Z"/><path class="cls-4" d="M1506.14,782.77c-7.13-.31-9.65-1.83-12.91-3,8.63-1.09,14.14,1.33,20.57,1.7C1508.74,781.5,1503.8,781.33,1506.14,782.77Z"/><path class="cls-4" d="M1286.41,790.11c1.64.17,5.58.15,5.69,1l-11.94,0C1275.37,790.65,1284,790.29,1286.41,790.11Z"/><path class="cls-4" d="M1242.39,786c-9.54-.14-4.57,2-9.4,1.56l.54-2.89Z"/><path class="cls-4" d="M1247.69,771.39l2.82.29-3.22-.1Z"/><path class="cls-4" d="M1196.47,788.88l6.59,3.2C1195.06,791.26,1195,788.71,1196.47,788.88Z"/><polygon class="cls-4" points="1160.1 791.03 1165.69 792.03 1148.18 791.07 1160.1 791.03"/><polygon class="cls-4" points="1116.25 789.48 1114.7 790.16 1102.69 789.35 1116.25 789.48"/><path class="cls-4" d="M639,786.79c-1.82-2.71,17.32-1.58,22.89-2.29C658.1,787.92,646.65,783.37,639,786.79Z"/><path class="cls-4" d="M291.55,786.91l18.28.62C295.67,788.59,305.88,787.53,291.55,786.91Z"/></g><g class="cls-3"><path class="cls-4" d="M1700.54,932.52c.83.13,2.13.19,3.17.29C1700.7,932.91,1699.24,932.89,1700.54,932.52Z"/><path class="cls-4" d="M1742.74,933.91c-10.9,0-28.17,0-39-1.1C1713.38,932.48,1739.44,930.67,1742.74,933.91Z"/><path class="cls-4" d="M1698.6,927.27l13.57,1C1704.23,929.11,1705.69,927.59,1698.6,927.27Z"/><polygon class="cls-4" points="1703.54 930.3 1702.83 931.49 1695.59 930.33 1703.54 930.3"/><path class="cls-4" d="M1010.3,942.14c1.41.51,2.28,1.07,1.62,1.79Z"/><path class="cls-4" d="M978.89,936.74c-2.82-.19-4.79-.27-6.47-.33A42,42,0,0,1,978.89,936.74Z"/><path class="cls-4" d="M1038.84,941.64l-5.58.17A39.7,39.7,0,0,1,1038.84,941.64Z"/><path class="cls-4" d="M1387.4,937.09c5.19.86,10.11,1.65,13.84,2.18C1391.14,940.19,1390.27,938.23,1387.4,937.09Z"/><path class="cls-4" d="M834.51,919.39l-1.34,1C831.69,919.91,831,919.49,834.51,919.39Z"/><path class="cls-4" d="M971.36,920.81c.14.56-.16,1-.74,1.26-.55-.08-1.11-.14-1.63-.23Z"/><path class="cls-4" d="M1061,939.7c.08,0,.22-.07.31-.11l4.54.6C1063.37,940.37,1061.82,940.2,1061,939.7Z"/><path class="cls-4" d="M790.43,918.08a26.16,26.16,0,0,1-5.49-2.09C789.18,916.43,791.17,917.35,790.43,918.08Z"/><path class="cls-4" d="M971.64,936.42c-.06,0,0,0-.06,0l.84,0C972.12,936.43,971.92,936.4,971.64,936.42Z"/><path class="cls-4" d="M1016.74,921.85c-2.39-.16-4.64-.27-7.2-.49A22.92,22.92,0,0,1,1016.74,921.85Z"/><path class="cls-4" d="M1387.4,937.09c-1.47-.24-2.92-.47-4.39-.73A11.73,11.73,0,0,1,1387.4,937.09Z"/><path class="cls-4" d="M1664.07,934.68c-4.38,0-5.42-.67-6.25-1.36A30.47,30.47,0,0,1,1664.07,934.68Z"/><path class="cls-4" d="M78.31,938.86l-1.75,0A9.6,9.6,0,0,1,78.31,938.86Z"/><path class="cls-4" d="M246.29,941.41a12.12,12.12,0,0,1,2.23.76C247.08,942.42,246.27,942,246.29,941.41Z"/><path class="cls-4" d="M401,918.26c-11,1.39-22.3-1.46-31.85-1.6l3.25,1.18-9.62-1,.11,1.7c-15.92-.79-35.68,1-41.5-1.74l1.86,2.72-16.88-2.15,9.66,1.83c-19,.57-47.77-1.54-51.82-1.52l1.71,1c-3.11.51-5.56-.15-8.79-.48l2.49,1.51c-28.58-.41-36.39,3-68.29,1.42-8.69.36,4.82.49,4.95,1.34-4.75,1.2-15.92,0-18.33-.62,2.52,2.37,16,1.64,5.76,3.54-7.25-1.16,4.95,2.2-7.81,1.73l-5-3c-7.1.53-1.42,2.38-12.64,2.08-12.82-1.32,15.68-3.45-5-3.89-10.34.2-21.76,7-41.81,5.4-17.3,1.58,9.1,4.72-14.83,3.95l15.32,2c-4,.86-1.47,2.38-11.83,1.73a56.32,56.32,0,0,0-15.29-2.83c22.41,2.3-19.66,3.45,1.21,6.44l-7.78-.11c1,.12,1.21.41.7.64l-10.33.21c6.37.66,21.53.94,14.49,3.18l-15,.56c4,1.68-1.49,2.38-.62,3.73l44,3.25c-1.73-1-8.07-1.67-5.71-2.69,11.76-.89,9.6,1.83,20.64.43l-4.88-1.34c.88.51,2.43.67,0,.85-3.87.87-5.56-.15-5.59-1,3.87-1.7,15-.56,18.32.62,14.3-.21,3-3.07,6.1-3.59,7.39,2.86,23.88-.07,32.73,1.26l-5.68-1.85c10.88-2.25,20.62-.41,27,.25l-2.47-1.52c15.15.29,22.66-4.82,34.2.57l-1.6-1c6.21-.48,15.65-1.61,21.6,0,.14-.64,1.2-1.43,3.72-1.61,3.36,2.08,9.82.5,19,.13-6.08-.54-4.13-3.24-10.54-3.89,14.13-2.77,13,3,24.83,3,7.12-1.38-6.38-1.51-8.09-2.52,18.33,1.47,37.67-6.23,49.24-.84l-7.87,1.72c7.29,1.17,11.24,1.15,10.35.65a5.45,5.45,0,0,1-4-.84c22-2.78,34.43,4,56.65,2.87-1.65-1-4.83-1.34-5-2.19,10.23-1.05,10,5.23,26.48,3.14l-3.24-1.17c5.51-.71,9.58,1,8.84,1.33.44-4.59,35,.22,46.5-5.76,8.1,2.52,31.28,4.48,38.36,3.1,10.16-2.75-9-3-5.22-5.59,8,0,12.14,2.51,24,1.62.2,2.55-23.43,5.17-1.12,6.63l3.12-1.37a46.08,46.08,0,0,1-8.72.37c-6.45-1.51,3.87-1.71,5.35-2.4l23.95.77c1.75,2.72-12.57,2.08-14,2.77,19-.57,41.76-4.55,59.38-2.74l-1.67-1c22.47,2.31,13.12-5,31-.61,9.44-.7-3.4-2.87,10.86-3.09,4,0,1.66,1,.94,1.36,17.52,1,7.72-2.58,23.88-.08l-3.48-2.87c19.26,2,39.46,7,56.1,5.76-1-2.21-11.29-2-15.39-3.69,22.56,4,54.1.5,75,2.64-6.23,1.89,9.87,4.38-3.49,5.95-3.45-2.87-9.71-1-16.86-1.3,11.56,6.24,48.32-3,51.85,2.37l3-2.21c3.2.33,11.32,2,5.72,2.7l23-1.43c-8.08-1.68-25.1-5.53-30.44-3.13-6.54-2.36,9.42-1.56,3.62-4.26,15.39,3.69,9.46-1.56,25.4-.76-7.21,3.21,15.86,4.35,15.14,5.89,5.21-.59,16.8.9,21.29,2,9.21.3,30.36-2.28,45.15-1.17-5.6-1-14.46-2.33-13.8-4.37,7.25,1.16,15.21,1.13,16.59-1.24-25.76-4.34-8.3,5.45-31.61,2.64-5.76-2.69-12.15-3.36-24.16-4.16,5.47-1.55,3.06-2.22,5.31-4.09,14.7,5.71,38.22.55,57.45,3.38,8.1,1.67,2,5.25,20.35,5.88l-15.76,1.74c17.33-1.58,4.07,1.68,18.39,2.31l-5.7-1.85c8.76-.36,12,0,16.83,1.31l-7.41-2.86c4.72-.36,13.45-.72,13.57,1,1.22-.7,1.64-1.25,1.64-1.74.92.48,3.15.78,8.68.69-3.24-.33-5.58-.15-5.65-1,21.08.68,4.93-3.1,18-2.82-2.07-.67,1.64-1.49,6.32-1.84-.31,4.51,25.56,5.1,32.4,7.6l-.08-.07,17.63,1.81c-3.57-.37.28-1.6,5.41-2.07l-.83,0c5.6-.7-6.66-4.9,10.14-3.6l8.83,1.33c-1.58-.16-.06-.85.77-1.19l9.09,1.22c13.91-4.21,26.25,2.38,42.62.31-4.72.36-11.91,0-8.83-1.33a29.91,29.91,0,0,1,10.42.64l-.82-.5,31.18,2.78c-2.53-1.52-20-1.63-12.18-3.35,4.61-2.06,13.56.12,19.16.28-.72,1.19-11,2.24-.61,2.88,1.27-.59,11.19-1.82,6.52-2.67,10.68,1.21,26.19,2,35.75,4.06,3-.52-1.74-1-3.33-1.17l-.76.34c-6.44-.66-1-3.06-13.63-1.82-1.06-3.91,18.22-1.09,29.3-1.63l-17.67-2.66c29.76-5.35,69.95.45,99.44.52-8.65,1.22-15.89.06-14.86,3.11,18.32,1.47,15.92.8,34.2,1.42l-1.57-.17c9.44-1.56,22.35,1.45,28.55-1.28-4.09-1.68-13.42,1.58-13.64-1.82l23,.26c-7.25-2-23-.26-31.84-.74-6.34.19,12.75.46,9.73,2.68-21.52-.1-26.42-2.29-37-5.48-6.45-2.36,9.4-2.4,13.4-2.42,13.7,3.51,33.71,5.15,55.05,3.55l11.72-2.58c10.57,2.34,6.08,6.94,25.16,6.37l-5.7-1.85a51.7,51.7,0,0,1,9-1c-8.21-1.39-17-3-24.46-4.43,10.85-3.93,31.18,2,47.15,2.74-.83-.5-6.41-.66-8.07-1.67,23.81-.93,48.74,3.74,67.13,4.36,7.78-1.72-15.27-1.13-11.48-3.69,9.66,1,20.59-1.26,23.18,1.11-4.23-3.38,22.21-.25,3.72-3.41,34.85-1.47,73.21,1.63,108.43,3.55-1.71-1-1.71-1.86-.23-2.54-11.92,0-29.43-.93-36-3.28,7.83-1.73,18.53,2.31,20.78,1.29-4-.83-11.94-.81-12.08-2.5,10.2-1.91,15.92.79,23.1,1.11l-3.89.86c22.39,2.3,12.35,5.9,36.13,5,8.61-2.06-.08-1.69-.23-4.24,5.6,1,23.66-1.78,29.48.92l-14.39.22c10.08.72,19.6.71,26.58,1.59a5.37,5.37,0,0,0-3.44-1.33c8,.83,18.27.62,22.37,2.31l2.25-2.73c-4.78,1.21-19,1.42-21.46-.09,1.38-2.39,15.81-.91,22.13-1.1-27.88-.75-28.22-5-51.82-3.22l4,.84c-14.69,2.06-29.82-1.34-42.68-1.26,3.62-.55,4.35-1.55,2.65-2-28.46,2.13-56.46.52-88.9,1.81l-9.76-2.68-.61,2c-15.87.9-3.44-2.87-13.67-2.67,3.89,0,3.19.33,4,.84-18.42-2.32-10.24,1.9-20.57,1.25,4.91,2.19,19.93.79,15.31,3.69-18.38-2.32-47-1-49.65-6-34.13,2-76.43-1.1-105.12-1.52-3.91.86,2.44.67.94,1.36-11.34-2.85-38.06,2-38.24-.56a22.89,22.89,0,0,0-9.27,3.25,206.44,206.44,0,0,0-25.25-2.16l6.77.7-.74.35-9.6-1,.36-.15c-23-.73-49.63-.12-70.52-2.84,12,1.66-3,3.06,2.66,4.07-10.62-4-36.07-4.14-56.71-3.72.09.85-1.51,1.53.92,2.2l-12-1.66,1.58,1c-21.43.75-44.76-3.75-58.91-1.84,8.75.48,8.8,1.33,9.67,2.68-15.35-.09-29.83-.14-47.77-1.37,1,.25,1.59.54,1.61.84-4.69.36-10.34-.64-15.15-1.13l-.66,2c-9.17-.94-21,.11-31.92-1.52-4.28,2.24-26.42-2.07-39-1.13-4.82-.49,10.5,2.34-3,2.22-1.92-4.41-17.54-.11-18.6-4.86L898.19,920l-2.61-2.37c-10,4.45-15.28-2-30.22-.58.79.51,2.39.68,1.62,1-4.82-.5-16-.8-7.33-2-8,0-35-1.07-22.88,1.44-.88-1.36,10.25-.21,15.06.28-.63,2-12.59,1.24-15.56,3.45-.38-.22-2-.57-3.1-.91l-1.71,1.26c-15-2.24-30.15-.62-41-3.52-.64.63-3.26,1.12-8.4,1l-.21-2.55-15.9.06,7.44,3.7c-17.45.74-29.72-3.46-44.05-4.09-3.69,4.25-28-1.61-40.38,2.17l11.2,1.15c-23.93-.78-27.74,1.79-50.06.33,18.94-1.42,19-.57,46.62-4.05-27.68,1.78-47.83-2.4-73.18.07,1.7,1,8.06,1.66,1.86,2.71-5-2.19-23.88.08-20.13-2.49-7.87.87-9.24,3.26-14,3.61l-26.42-3.14.81.51c-44.91,5.92-83.82-4-128.89-1.45l.88,1.36-11.29-2c8.84,1.33-3.82,1.71-4.52,2.9l-28.87-3C392.25,916.08,394,918.79,401,918.26Zm380.15,1.14,6.84.18a15.88,15.88,0,0,1,4.33.11l-4.33-.11C784.5,919.92,781.92,921,781.18,919.4Zm630.07,4.9c3.28,1.18-4.74.36-7,.53l11.13.3C1416.89,924.45,1412.87,924.47,1411.25,924.3ZM781.58,935.86l-3.81,1.7-4.88-1.33Zm-97,.14,9.67,1-.81.34-9.57-1ZM576.84,922.26c.61.1,1.17.18,1.87.34a13.62,13.62,0,0,1-1.87-.34c-7.47-1.23-10.44,1.83-16.51-1.13C567.78,918.59,572.57,921.22,576.84,922.26Zm170.39,0a37.26,37.26,0,0,0,7.19.32c-1.68-1-8.17-2.52-3.41-2.88,3.3,1.18,14.39,1.48,14.55,3.18C755.91,921,749.09,925.78,747.23,922.22Zm228.31,1.12-2.42.18,8.89,1.33Zm41.46,1.73c4.93,2.19,17.61,1.81,26.38,2.29,2.27-1.87-6.64-4-17-3.84C1014.35,921.86,1021.86,926.42,1017,925.07Zm-344.25.45,2.46,1.51-2.31.18,9.58,1c-12.59,2.08-21.59-1.8-28-2.46C660.08,925.9,675.44,929.59,672.75,925.52Zm432.62.63c8.84,1.33,24.78,3,23.31,4.5.57-2.89-12.23-4.2-16.21-4.19A36.87,36.87,0,0,1,1105.37,926.15Zm-.47,5.43c-12.82-1.32-13.7-2.67-23.48-5.36,12.68-1.22,16.15,2.49,14.64,4,8.84,1.33,7.13-.54,11.85-.89Zm-13.32-8.11-5.22.4c-6.17,1.2-7.46,4.47-16.12,1.2l16.12-1.2A23.47,23.47,0,0,1,1091.58,923.47Zm107.78.15-5.27-1c5.2.1,5.8.53,5.27,1l4.38.85C1192.32,925.51,1198.2,924.51,1199.36,923.62Zm-82.2.79-15.14-.3C1102.89,925.48,1112.34,924.76,1117.16,924.41Zm78.82,1.78c-6.38.19-23,.59-20.71.4C1176.78,925.06,1191.93,925.35,1196,926.19Zm334.2,4-9.54-.14,4.61-2Zm-112,1.55,2.36-1,5.55.15Zm-103.25.15c.49-.44.23-1-.63-1.47a9.76,9.76,0,0,1-3.6-.87,7.41,7.41,0,0,1,3.6.87,50.52,50.52,0,0,0,13.1-.42c-1.66-1-8-.81-10.49-1.49,9.44-2.4,30.65,4.83,24.59-2.11,4,.83,17.68,2.65,13,3.86-10.81-.4-31.32.35-39.52,1.63a5.66,5.66,0,0,1-3.24.71A15.6,15.6,0,0,1,1315,931.89Zm-139.16,1.49a34.54,34.54,0,0,1-6.37-.6c-3.35-.52-5.9-1.29-4.92-2.24,8.16.83,3,1.62,4.92,2.24A56.05,56.05,0,0,0,1175.79,933.38Zm-24.6.42,12.77,1.32-6.43-1.51,19.25,2.83C1165.73,937.83,1152.9,935.66,1151.19,933.8Zm-4.49,1.34-2.64-1.66,4,1.7-1.39,0,.6.38-21.52-1Zm-219.87-3.32c-8.06,5.72,19,4.06,23.24,6.82.89-1.92,9-4.89-12-4.82,18.16-1.93,11.37,3.7,22.19-1.09-8.7.36-19.18-1.13-20.73-1.29l10.25-.2C944,927.69,934,933,926.83,931.82Zm-110.48.87-13.49-.13,12.77.47Zm-333.06,1.6c1,1.34-16.41,3.78-20.54,1.25C471.5,935.16,481.06,935.3,483.29,934.29Zm-143.1-.39L355.35,935c-2.93,3.07-13.54-.13-20.65.41C332.23,933.93,337.83,934.93,340.19,933.9Zm-98.62,0-4.82-.49,5.07,3Zm6.64,4c-3,1.37,7.31,2,9.76,1.84Zm-88.84,2.67,6.32-.19-5.72-2.7Zm10.07-3.16c1.48,1.93.85,4.55,15.41,3.25.6-2-3.36-2,2-4.42-4.79-.5-8.71.37-11.11.54,3.26.33,7.12-.53,8,.82a45.31,45.31,0,0,1-14.35-.19c-.51-.7-1.32-1.31-3.24-1.61C166.25,936.45,167.49,937,169.44,937.44Zm52.72-2.14a20.11,20.11,0,0,0,4.34-.86l.88.51a7.92,7.92,0,0,1-5.22.35c-2.11.26-4.56.5-7.08.72-1.61,1.72,8.35,2.89,11,3.85-4.74-.49-8.85-2.17-15.13-1.13.83.5,0,.85,4,.83l-8.68.37c-9.94-2.39-.45-3.14,8.83-3.92.29-.38,1-.78,2.75-1.21A11.28,11.28,0,0,1,222.16,935.3Zm-69.76-3.84,4.75.49c2.45.67.89,1.36,1.75,1.86C153.32,933.66,146.05,932.5,152.4,931.46Zm285.4-.6c-3.16.53,4.14,2.54,11.23,2l-3.77,2.55c-.18-1.69-14.43-1.47-16-1.64C426.71,931.41,432.26,932.41,437.8,930.86Zm331.55-.06c2.59,3.22,20.75,1.29,24.76,2.13C784.67,933.64,763.2,934.39,769.35,930.8Zm31.49-1.3c5,0,6.38-.27,5.86,1.35,2.41.68,6.34-.19,8.77.48-9.67,1.43-9.06-1.15-14.63-1.83-1.3,0-2.77,0-4.61-.14A25.56,25.56,0,0,1,800.84,929.5ZM607,929.3l-6.6-2.36-10.32.21Zm-110.85-4.23c.85,1.36-11,1.4-13.46.73.76,1.78,8.7,1.55,15,1.74a24.4,24.4,0,0,0,4.16.23c-1.23-.12-2.61-.18-4.16-.23-2.36-.42-.72-1.33-.72-2l3.15-.52-8.74-.48Zm-194.92-1.91c-7.08,1.39-7.92.88-12.68.39C290.12,922.86,296.46,922.67,301.27,923.16Zm253.67.37c-11.92.88,5.73,2.69-2.09,3.57l6.25-.19c-10.14,1.9-7.24-2-14.37-1.48l4.77-.36c3.77-1.71-7.3-1.16-8.2-2.52C546.87,921.85,559.69,923.17,554.94,923.53ZM290.07,922c-11.8,1.74-9.71-1.83-16.86-2.15C282.61,918.3,281.23,921.54,290.07,922Zm189.76-3.67.75-.34L471,917l-.76.34Z"/><path class="cls-4" d="M275.41,939.88a39.55,39.55,0,0,1-6.42,0C271,939.84,273.16,939.8,275.41,939.88Z"/><path class="cls-4" d="M829.75,941.64c.27-.46,1.3-.7,2.68-.86C832.26,941.05,831.59,941.33,829.75,941.64Z"/><path class="cls-4" d="M852.84,942.75h.88l.72.16Z"/><path class="cls-4" d="M1657.1,936.91c5,2.19-4.77.35-8.75.36C1652.33,937.26,1653.86,935.73,1657.1,936.91Z"/><path class="cls-4" d="M1625.82,933.27a47.27,47.27,0,0,0,9.82,1.28A34.5,34.5,0,0,1,1625.82,933.27Z"/><path class="cls-4" d="M1651.34,934.21a131.49,131.49,0,0,1-15.7.34C1639.65,934.45,1643,933.61,1651.34,934.21Z"/><path class="cls-4" d="M1541.57,933.89c4.92,1.34,14.37.63,14.37.63-20.6,1.26,4.15,2.53,5.86,3.55C1549,937.6,1548.9,935.9,1541.57,933.89Z"/><path class="cls-4" d="M1514.3,933.2a50.71,50.71,0,0,0,5.71-.26A25.29,25.29,0,0,1,1514.3,933.2Z"/><path class="cls-4" d="M1506.63,934.51c-7.13-.31-9.64-1.84-12.9-3,8.63-1.09,14.14,1.33,20.57,1.7C1509.24,933.23,1504.29,933.07,1506.63,934.51Z"/><path class="cls-4" d="M1286.91,941.85c1.64.16,5.58.15,5.69,1l-11.94,0C1275.87,942.39,1284.52,942,1286.91,941.85Z"/><path class="cls-4" d="M1242.89,937.75c-9.54-.14-4.57,2-9.4,1.55l.54-2.88Z"/><path class="cls-4" d="M1248.19,923.13l2.81.29-3.21-.1Z"/><path class="cls-4" d="M1197,940.61l6.59,3.21C1195.55,943,1195.44,940.45,1197,940.61Z"/><polygon class="cls-4" points="1160.59 942.77 1166.19 943.77 1148.67 942.81 1160.59 942.77"/><polygon class="cls-4" points="1116.74 941.22 1115.2 941.9 1103.19 941.09 1116.74 941.22"/><path class="cls-4" d="M639.53,938.53c-1.82-2.71,17.31-1.59,22.88-2.29C658.6,939.65,647.15,935.11,639.53,938.53Z"/><path class="cls-4" d="M292.05,938.64l18.28.62C296.17,940.33,306.38,939.27,292.05,938.64Z"/></g><g class="cls-3"><path class="cls-4" d="M1701,1084.26c.83.13,2.13.19,3.17.29C1701.19,1084.65,1699.73,1084.62,1701,1084.26Z"/><path class="cls-4" d="M1743.24,1085.65c-10.91,0-28.18,0-39-1.1C1713.88,1084.21,1739.94,1082.41,1743.24,1085.65Z"/><path class="cls-4" d="M1699.1,1079l13.56,1C1704.72,1080.85,1706.18,1079.32,1699.1,1079Z"/><polygon class="cls-4" points="1704.04 1082.04 1703.33 1083.23 1696.09 1082.07 1704.04 1082.04"/><path class="cls-4" d="M1010.8,1093.87c1.41.52,2.28,1.08,1.61,1.8Z"/><path class="cls-4" d="M979.39,1088.48c-2.82-.2-4.79-.28-6.48-.33A40.83,40.83,0,0,1,979.39,1088.48Z"/><path class="cls-4" d="M1039.33,1093.38l-5.57.16A39.57,39.57,0,0,1,1039.33,1093.38Z"/><path class="cls-4" d="M1387.9,1088.83c5.19.86,10.11,1.64,13.84,2.18C1391.64,1091.92,1390.77,1090,1387.9,1088.83Z"/><path class="cls-4" d="M835,1071.13l-1.35.95C832.19,1071.65,831.46,1071.23,835,1071.13Z"/><path class="cls-4" d="M971.86,1072.55c.13.55-.16,1-.75,1.26-.54-.08-1.1-.14-1.62-.23Z"/><path class="cls-4" d="M1061.45,1091.44c.07,0,.21-.07.31-.11l4.53.6C1063.87,1092.11,1062.32,1091.94,1061.45,1091.44Z"/><path class="cls-4" d="M790.92,1069.82a26,26,0,0,1-5.49-2.1C789.68,1068.16,791.67,1069.09,790.92,1069.82Z"/><path class="cls-4" d="M972.14,1088.16c-.07,0,0,0-.07-.05.24,0,.61,0,.84,0C972.62,1088.16,972.42,1088.14,972.14,1088.16Z"/><path class="cls-4" d="M1017.24,1073.59c-2.4-.16-4.64-.28-7.21-.49A23,23,0,0,1,1017.24,1073.59Z"/><path class="cls-4" d="M1387.9,1088.83c-1.47-.24-2.92-.47-4.39-.73A11.53,11.53,0,0,1,1387.9,1088.83Z"/><path class="cls-4" d="M1664.57,1086.41c-4.39,0-5.42-.66-6.25-1.35A31.2,31.2,0,0,1,1664.57,1086.41Z"/><path class="cls-4" d="M78.81,1090.6l-1.75,0A8.77,8.77,0,0,1,78.81,1090.6Z"/><path class="cls-4" d="M246.79,1093.15a11.76,11.76,0,0,1,2.22.76C247.58,1094.16,246.77,1093.72,246.79,1093.15Z"/><path class="cls-4" d="M401.53,1070c-11,1.4-22.31-1.45-31.86-1.59l3.26,1.18-9.63-1,.11,1.7c-15.91-.8-35.67,1-41.5-1.74l1.87,2.72-16.89-2.16,9.67,1.84c-19,.57-47.78-1.54-51.83-1.53l1.71,1c-3.1.52-5.55-.15-8.79-.47l2.5,1.51c-28.58-.41-36.39,3-68.3,1.41-8.69.37,4.82.5,5,1.35-4.75,1.2-15.92,0-18.34-.62,2.53,2.36,16,1.64,5.77,3.54-7.26-1.16,4.94,2.19-7.82,1.73l-5-3c-7.1.53-1.42,2.37-12.65,2.08-12.81-1.33,15.69-3.45-5-3.89-10.35.2-21.77,7-41.82,5.39-17.3,1.59,9.1,4.73-14.83,3.95l15.32,2c-4,.86-1.46,2.38-11.83,1.73a56.13,56.13,0,0,0-15.29-2.84c22.42,2.3-19.65,3.46,1.22,6.45l-7.78-.11c1,.11,1.21.41.7.64l-10.34.21c6.38.66,21.53.94,14.49,3.18l-15,.55c4,1.68-1.49,2.39-.62,3.74l44,3.25c-1.73-1-8.07-1.67-5.71-2.69,11.75-.89,9.6,1.82,20.64.43l-4.88-1.34c.88.51,2.43.67,0,.84-3.87.87-5.56-.14-5.6-1,3.87-1.71,15-.56,18.33.62,14.3-.22,2.94-3.07,6.09-3.59,7.4,2.86,23.88-.07,32.74,1.26l-5.69-1.86c10.88-2.24,20.63-.4,27,.26l-2.47-1.52c15.15.29,22.67-4.83,34.2.57l-1.6-1c6.22-.48,15.66-1.61,21.61,0,.14-.64,1.2-1.43,3.71-1.62,3.37,2.09,9.83.51,19,.14-6.08-.55-4.14-3.24-10.55-3.89,14.14-2.77,13,3,24.84,3,7.12-1.39-6.39-1.51-8.09-2.52,18.33,1.46,37.67-6.24,49.24-.84l-7.87,1.72c7.28,1.16,11.24,1.15,10.35.65a5.46,5.46,0,0,1-4-.84c22-2.79,34.44,4,56.66,2.87-1.65-1-4.83-1.34-5-2.19,10.23-1,10,5.23,26.49,3.14l-3.24-1.18c5.5-.7,9.58,1,8.84,1.33.43-4.58,35,.22,46.49-5.75,8.1,2.52,31.29,4.48,38.37,3.1,10.16-2.75-9-3-5.22-5.59,8,0,12.14,2.51,24,1.62.2,2.55-23.43,5.17-1.12,6.63l3.12-1.38a44.47,44.47,0,0,1-8.72.37c-6.45-1.5,3.87-1.71,5.35-2.39l23.95.77c1.75,2.71-12.57,2.08-14,2.76,19-.57,41.76-4.54,59.38-2.74l-1.67-1c22.47,2.3,13.11-5,31-.61,9.44-.71-3.41-2.88,10.85-3.09,4,0,1.67,1,1,1.36,17.52,1,7.71-2.58,23.88-.09l-3.49-2.87c19.27,2,39.46,7,56.11,5.76-1-2.21-11.29-2-15.39-3.68,22.56,4,54.1.5,74.94,2.64-6.23,1.88,9.87,4.38-3.48,6-3.45-2.87-9.72-1-16.86-1.31,11.56,6.25,48.31-3,51.85,2.38l3-2.21c3.2.32,11.32,2,5.72,2.69l23-1.42c-8.08-1.68-25.1-5.53-30.45-3.13-6.54-2.36,9.42-1.57,3.63-4.26,15.39,3.68,9.46-1.56,25.4-.76-7.21,3.2,15.85,4.34,15.14,5.89,5.21-.59,16.8.89,21.29,2,9.21.3,30.35-2.28,45.15-1.18-5.6-1-14.46-2.33-13.81-4.36,7.25,1.16,15.22,1.13,16.59-1.25-25.75-4.33-8.29,5.46-31.61,2.65-5.76-2.7-12.15-3.36-24.15-4.16,5.47-1.55,3.06-2.22,5.31-4.1,14.7,5.72,38.22.56,57.45,3.38,8.09,1.67,2,5.26,20.35,5.88l-15.76,1.75c17.33-1.59,4.06,1.68,18.38,2.31l-5.69-1.85c8.76-.36,12,0,16.82,1.31l-7.41-2.86c4.73-.36,13.46-.72,13.58,1,1.21-.7,1.64-1.25,1.64-1.74.92.47,3.15.78,8.68.69-3.24-.33-5.58-.15-5.65-1,21.07.67,4.93-3.1,18-2.83-2.06-.66,1.65-1.48,6.33-1.84-.31,4.52,25.56,5.11,32.4,7.6l-.08-.06,17.63,1.81c-3.58-.37.28-1.6,5.41-2.08l-.84,0c5.61-.7-6.66-4.9,10.15-3.6l8.83,1.33c-1.58-.16-.06-.85.77-1.19l9.09,1.22c13.91-4.21,26.25,2.37,42.62.31-4.72.35-11.92,0-8.83-1.33a29.67,29.67,0,0,1,10.42.64l-.83-.5,31.19,2.78c-2.54-1.52-20-1.63-12.19-3.35,4.62-2.06,13.57.12,19.16.27-.72,1.19-11,2.25-.61,2.89,1.28-.59,11.2-1.82,6.52-2.67,10.68,1.21,26.2,2,35.76,4.06,3-.52-1.74-1-3.33-1.18l-.77.34c-6.43-.66-1-3-13.63-1.82-1-3.91,18.22-1.08,29.3-1.62l-17.67-2.66c29.77-5.36,70,.44,99.45.52-8.66,1.22-15.89.06-14.86,3.11,18.32,1.47,15.92.79,34.19,1.41l-1.57-.16c9.45-1.56,22.36,1.45,28.55-1.28-4.08-1.69-13.41,1.57-13.64-1.83l23.06.27c-7.25-2-23.06-.27-31.85-.75-6.34.19,12.75.47,9.74,2.69-21.52-.1-26.43-2.29-37-5.48-6.45-2.36,9.4-2.41,13.4-2.42,13.69,3.51,33.7,5.14,55.05,3.55l11.72-2.58c10.57,2.34,6.07,6.94,25.16,6.36l-5.7-1.85a51.35,51.35,0,0,1,9-1c-8.21-1.4-17-3-24.47-4.43,10.86-3.93,31.19,1.94,47.15,2.73-.83-.5-6.41-.65-8.07-1.66,23.81-.93,48.75,3.74,67.14,4.36,7.77-1.72-15.28-1.14-11.49-3.69,9.67,1,20.59-1.26,23.18,1.11-4.23-3.38,22.22-.25,3.73-3.41,34.85-1.47,73.21,1.63,108.43,3.55-1.71-1-1.71-1.86-.23-2.55-11.92.05-29.43-.92-36.05-3.27,7.84-1.73,18.53,2.31,20.78,1.29-4-.83-11.94-.81-12.07-2.5,10.2-1.91,15.92.79,23.1,1.11l-3.9.86c22.39,2.3,12.36,5.9,36.14,5,8.61-2.07-.08-1.7-.23-4.24,5.6,1,23.65-1.78,29.48.92l-14.39.22c10.07.71,19.6.71,26.58,1.59a5.43,5.43,0,0,0-3.44-1.33c8,.82,18.27.61,22.37,2.31l2.25-2.73c-4.78,1.2-19,1.42-21.46-.1,1.37-2.38,15.81-.9,22.13-1.09-27.88-.75-28.22-5-51.83-3.22l4,.84c-14.68,2.06-29.81-1.35-42.68-1.26,3.63-.56,4.36-1.55,2.66-2-28.46,2.13-56.46.52-88.9,1.81l-9.77-2.68-.6,2c-15.87.9-3.44-2.88-13.67-2.67,3.89,0,3.19.32,4,.83-18.43-2.31-10.24,1.9-20.57,1.26,4.91,2.19,19.92.78,15.31,3.68-18.38-2.31-47-1-49.66-6-34.12,2-76.43-1.1-105.11-1.53-3.92.87,2.44.68.94,1.37-11.35-2.85-38.07,2-38.25-.56a22.82,22.82,0,0,0-9.26,3.25,206.44,206.44,0,0,0-25.25-2.16l6.77.7-.74.34-9.6-1,.35-.16c-23-.72-49.62-.11-70.51-2.84,12,1.67-3,3.07,2.66,4.07-10.62-4-36.07-4.13-56.71-3.72.09.85-1.51,1.53.91,2.21l-12-1.67,1.58,1c-21.43.75-44.77-3.76-58.91-1.84,8.74.48,8.79,1.33,9.67,2.68-15.35-.1-29.83-.15-47.77-1.37,1,.25,1.58.53,1.61.84-4.7.36-10.35-.65-15.16-1.14l-.65,2c-9.17-.94-21,.1-31.93-1.52-4.27,2.23-26.41-2.07-39-1.13-4.82-.5,10.49,2.34-3,2.22-1.91-4.42-17.54-.12-18.59-4.87l-11.81,1.74-2.61-2.37c-10,4.44-15.29-2-30.22-.58.79.51,2.39.67,1.62,1-4.82-.49-16-.79-7.33-2-8,0-35-1.08-22.89,1.43-.88-1.36,10.25-.2,15.07.29-.63,2-12.59,1.23-15.56,3.45a31.47,31.47,0,0,0-3.11-.91l-1.7,1.26c-15-2.24-30.15-.63-41-3.52-.63.63-3.25,1.11-8.39,1l-.22-2.55-15.9.06,7.45,3.7c-17.45.74-29.73-3.47-44.06-4.09-3.68,4.25-28-1.61-40.38,2.16l11.2,1.16c-23.92-.78-27.73,1.79-50,.33,18.93-1.42,19-.57,46.61-4-27.68,1.78-47.82-2.4-73.17.07,1.7,1,8.06,1.66,1.85,2.7-4.94-2.19-23.88.08-20.12-2.48-7.87.87-9.24,3.26-14.06,3.61l-26.41-3.14.81.51c-44.91,5.92-83.83-4-128.89-1.45l.87,1.36-11.28-2c8.84,1.33-3.83,1.7-4.52,2.89l-28.87-3C392.74,1067.82,394.44,1070.53,401.53,1070Zm380.15,1.14,6.83.19a15.94,15.94,0,0,1,4.34.11l-4.34-.11C785,1071.66,782.42,1072.73,781.68,1071.13Zm630.06,4.9c3.29,1.19-4.74.36-7,.54l11.13.3C1417.38,1076.19,1413.36,1076.2,1411.74,1076Zm-629.66,11.56-3.82,1.71-4.87-1.34Zm-97,.15,9.67,1-.81.34-9.57-1ZM577.34,1074c.61.1,1.17.17,1.86.34a15.16,15.16,0,0,1-1.86-.34c-7.47-1.23-10.44,1.83-16.51-1.14C568.28,1070.33,573.07,1073,577.34,1074Zm170.39,0a36.37,36.37,0,0,0,7.19.31c-1.68-1-8.17-2.51-3.42-2.87,3.31,1.18,14.4,1.48,14.56,3.18C756.41,1072.74,749.59,1077.52,747.73,1074ZM976,1075.08l-2.43.18,8.9,1.33Zm41.45,1.73c4.94,2.19,17.62,1.81,26.39,2.29,2.27-1.87-6.64-4-17-3.85C1014.84,1073.59,1022.36,1078.15,1017.49,1076.81Zm-344.24.45,2.46,1.51-2.32.18,9.58,1c-12.59,2.08-21.58-1.8-28-2.46C660.58,1077.64,675.93,1081.32,673.25,1077.26Zm432.62.62c8.83,1.34,24.77,3,23.31,4.51.57-2.89-12.23-4.21-16.21-4.19A36.17,36.17,0,0,1,1105.87,1077.88Zm-.48,5.44c-12.81-1.32-13.69-2.67-23.48-5.36,12.69-1.22,16.15,2.49,14.65,4,8.83,1.33,7.12-.54,11.84-.89Zm-13.31-8.11-5.22.4c-6.18,1.2-7.46,4.47-16.12,1.2l16.12-1.2A22.33,22.33,0,0,1,1092.08,1075.21Zm107.77.15-5.26-1c5.19.1,5.8.53,5.26,1l4.39.84C1192.81,1077.25,1198.69,1076.25,1199.85,1075.36Zm-82.19.79-15.14-.3C1103.39,1077.21,1112.84,1076.5,1117.66,1076.15Zm78.81,1.78c-6.38.19-23,.58-20.7.4C1177.28,1076.8,1192.43,1077.09,1196.47,1077.93Zm334.21,4-9.55-.14,4.62-2Zm-112,1.55,2.36-1,5.56.15Zm-103.25.15c.5-.45.23-1-.63-1.47a9.91,9.91,0,0,1-3.59-.87,7.26,7.26,0,0,1,3.59.87,51.5,51.5,0,0,0,13.11-.42c-1.66-1-8-.82-10.5-1.49,9.44-2.41,30.65,4.82,24.6-2.12,4,.83,17.68,2.66,13,3.86-10.82-.4-31.32.35-39.53,1.64-.47.37-1.37.65-3.23.71A15.46,15.46,0,0,1,1315.44,1083.63Zm-139.15,1.49a33.14,33.14,0,0,1-6.37-.61c-3.36-.51-5.91-1.28-4.92-2.24,8.16.84,2.94,1.63,4.92,2.24A53.66,53.66,0,0,0,1176.29,1085.12Zm-24.6.42,12.77,1.31-6.44-1.5,19.26,2.82C1166.23,1089.57,1153.4,1087.4,1151.69,1085.54Zm-4.5,1.34-2.63-1.66,4,1.69-1.4,0,.61.37-21.52-1Zm-219.86-3.32c-8.06,5.72,19,4.06,23.23,6.82.9-1.92,9.06-4.89-12-4.83,18.17-1.92,11.38,3.71,22.19-1.08-8.7.36-19.17-1.13-20.73-1.29l10.25-.21C944.51,1079.43,934.53,1084.72,927.33,1083.56Zm-110.48.87-13.49-.13,12.77.47ZM483.79,1086c.95,1.35-16.41,3.79-20.54,1.25C472,1086.9,481.55,1087,483.79,1086Zm-143.1-.38,15.15,1.14c-2.92,3.06-13.53-.13-20.64.4C332.73,1085.67,338.33,1086.67,340.69,1085.64Zm-98.62,0-4.82-.49,5.07,3Zm6.63,4.05c-3,1.37,7.32,2,9.76,1.84Zm-88.84,2.67,6.33-.19-5.72-2.7Zm10.07-3.17c1.49,1.94.86,4.56,15.41,3.26.61-2-3.35-2,2-4.43-4.79-.49-8.72.38-11.11.55,3.26.33,7.12-.53,8,.82a45,45,0,0,1-14.36-.2c-.51-.69-1.32-1.3-3.23-1.61C166.75,1088.18,168,1088.75,169.93,1089.17Zm52.73-2.14a19.64,19.64,0,0,0,4.34-.85l.88.51a7.86,7.86,0,0,1-5.22.34c-2.11.27-4.56.5-7.08.73-1.62,1.71,8.35,2.89,11,3.85-4.74-.49-8.84-2.18-15.12-1.14.82.51,0,.86,4,.83l-8.67.38c-9.94-2.4-.45-3.14,8.83-3.92.29-.38,1-.78,2.75-1.22A11.68,11.68,0,0,1,222.66,1087Zm-69.77-3.83,4.76.49c2.44.67.89,1.35,1.74,1.86C153.82,1085.4,146.55,1084.24,152.89,1083.2Zm285.41-.6c-3.16.52,4.13,2.54,11.23,2l-3.77,2.55c-.18-1.69-14.43-1.48-16-1.64C427.21,1083.15,432.76,1084.15,438.3,1082.6Zm331.55-.06c2.59,3.22,20.74,1.29,24.76,2.13C785.17,1085.38,763.69,1086.13,769.85,1082.54Zm31.48-1.3c5,0,6.38-.27,5.87,1.35,2.41.67,6.34-.19,8.77.48-9.67,1.42-9.07-1.15-14.64-1.83-1.29,0-2.76,0-4.61-.14A25.49,25.49,0,0,1,801.33,1081.24ZM607.54,1081l-6.61-2.35-10.31.2Zm-110.85-4.22c.84,1.36-11,1.4-13.46.72.75,1.79,8.69,1.56,15,1.75a25.43,25.43,0,0,0,4.16.23c-1.24-.13-2.61-.19-4.16-.23-2.37-.42-.72-1.33-.72-2l3.14-.52-8.74-.48Zm-194.92-1.91c-7.08,1.38-7.92.88-12.68.38C290.62,1074.6,297,1074.4,301.77,1074.9Zm253.67.36c-11.92.89,5.73,2.7-2.09,3.58l6.24-.19c-10.13,1.89-7.23-2-14.36-1.48l4.77-.36c3.77-1.71-7.31-1.16-8.2-2.52C547.36,1073.59,560.18,1074.91,555.44,1075.26Zm-264.87-1.51c-11.8,1.74-9.72-1.84-16.87-2.15C283.1,1070,281.73,1073.27,290.57,1073.75Zm189.76-3.68.75-.33-9.58-1-.76.34Z"/><path class="cls-4" d="M275.91,1091.62a39.54,39.54,0,0,1-6.42.05C271.53,1091.58,273.66,1091.54,275.91,1091.62Z"/><path class="cls-4" d="M830.25,1093.38c.27-.46,1.3-.7,2.68-.86C832.75,1092.79,832.09,1093.07,830.25,1093.38Z"/><path class="cls-4" d="M853.34,1094.49h.88l.72.16Z"/><path class="cls-4" d="M1657.59,1088.65c5,2.18-4.77.35-8.75.36C1652.82,1089,1654.36,1087.47,1657.59,1088.65Z"/><path class="cls-4" d="M1626.32,1085a47.26,47.26,0,0,0,9.81,1.28A34.81,34.81,0,0,1,1626.32,1085Z"/><path class="cls-4" d="M1651.84,1086a133.8,133.8,0,0,1-15.71.34C1640.15,1086.19,1643.54,1085.35,1651.84,1086Z"/><path class="cls-4" d="M1542.07,1085.63c4.92,1.34,14.37.63,14.37.63-20.6,1.25,4.14,2.53,5.86,3.54C1549.48,1089.33,1549.4,1087.64,1542.07,1085.63Z"/><path class="cls-4" d="M1514.79,1084.94a50.48,50.48,0,0,0,5.71-.26A25.24,25.24,0,0,1,1514.79,1084.94Z"/><path class="cls-4" d="M1507.13,1086.25c-7.13-.32-9.65-1.84-12.91-3,8.63-1.1,14.15,1.33,20.57,1.7C1509.74,1085,1504.79,1084.81,1507.13,1086.25Z"/><path class="cls-4" d="M1287.41,1093.59c1.64.16,5.58.15,5.69,1l-11.94.05C1276.37,1094.13,1285,1093.76,1287.41,1093.59Z"/><path class="cls-4" d="M1243.38,1089.49c-9.54-.14-4.57,2-9.4,1.55l.54-2.88Z"/><path class="cls-4" d="M1248.69,1074.87l2.81.29c-1.06-.05-2.09-.07-3.22-.11Z"/><path class="cls-4" d="M1197.46,1092.35l6.6,3.21C1196.05,1094.74,1195.94,1092.18,1197.46,1092.35Z"/><polygon class="cls-4" points="1161.09 1094.51 1166.69 1095.5 1149.17 1094.54 1161.09 1094.51"/><polygon class="cls-4" points="1117.24 1092.95 1115.69 1093.64 1103.68 1092.83 1117.24 1092.95"/><path class="cls-4" d="M640,1090.26c-1.82-2.71,17.31-1.58,22.88-2.28C659.1,1091.39,647.65,1086.84,640,1090.26Z"/><path class="cls-4" d="M292.54,1090.38l18.28.62C296.66,1092.06,306.87,1091,292.54,1090.38Z"/></g></g></g></svg>