<?xml version="1.0" encoding="utf-8"?>
<!-- Generator: Adobe Illustrator 22.0.0, SVG Export Plug-In . SVG Version: 6.00 Build 0)  -->
<svg version="1.1" id="Layer_1" xmlns="http://www.w3.org/2000/svg" xmlns:xlink="http://www.w3.org/1999/xlink" x="0px" y="0px"
	 viewBox="0 0 850.4 283.5" style="enable-background:new 0 0 850.4 283.5;" xml:space="preserve">
<style type="text/css">
	.st0{fill:#227FAD;stroke:#25598B;stroke-width:2;stroke-miterlimit:10;}
</style>
<g>
	<path class="st0" d="M221.8,155.9l5.1,29.3H214l-3.5-20.3h-2.8l-3.5,20.3h-12.9l5.1-29.3H221.8z M246.4,187.9v23.2h-51.6v-23.2
		H246.4z M208.3,202.4H233v-6h-24.7V202.4z M246.4,155.2v10.1h5.3v9.4h-5.3v11.1h-14.1v-30.6H246.4z"/>
	<path class="st0" d="M311.3,180.3v9.6h-9.4v4.1h8v6.1c0,1.1-0.1,2.3-0.3,3.4l-1,7.5h-14.1l1-7.5h-38.1v-9.5h8.7V190h-9.4v-9.6
		H311.3z M301.4,177.7h-35c-2.7,0-4.9-0.8-6.4-2.3c-1.5-1.5-2.3-3.7-2.3-6.4v-4.5c0-2.7,0.8-4.8,2.3-6.4c1.5-1.5,3.7-2.3,6.4-2.3h35
		c2.7,0,4.9,0.8,6.4,2.3c1.5,1.5,2.3,3.7,2.3,6.4v4.5c0,2.7-0.8,4.8-2.3,6.4C306.3,177,304.1,177.7,301.4,177.7z M294.9,169.1
		c0.4,0,0.8-0.1,1-0.4s0.4-0.6,0.4-1v-1c0-0.4-0.1-0.8-0.4-1c-0.3-0.3-0.6-0.4-1-0.4h-22.1c-0.4,0-0.8,0.1-1,0.4
		c-0.3,0.3-0.4,0.6-0.4,1v0.9c0,0.4,0.1,0.8,0.4,1.1c0.3,0.3,0.6,0.4,1,0.4H294.9z M289.7,194.1V190h-11.5v4.1H289.7z"/>
	<path class="st0" d="M370.7,157.1v6.3c0,1.5-0.3,4.2-1,8.2l-6.2,38.8H350l6.8-40.1c0.2-1,0.3-1.9,0.4-2.8h-19.1v-10.5H370.7z
		 M392.1,176.1h5.3v11h-5.3v23.9H378v-55.9h14.1V176.1z"/>
	<path class="st0" d="M456.9,176.3v8.5h-54.7v-8.5H456.9z M448.3,155.9c2,0,3.8,0.7,5.3,2.2c1.5,1.5,2.2,3.3,2.2,5.3v3.4
		c0,2-0.7,3.8-2.2,5.3s-3.3,2.2-5.3,2.2h-37.4c-2.3,0-4.1-0.7-5.4-2.1s-2-3.2-2.1-5.4v-3.4c0-2.3,0.7-4.2,2-5.5c1.3-1.4,3.1-2,5.5-2
		H448.3z M403.6,211.1v-15.5h37.8v-1.5h-37.8V187h51.9v15.1h-37.8v1.6h37.8v7.3H403.6z M441,166.8c0.3,0,0.5-0.1,0.7-0.3
		c0.2-0.2,0.3-0.4,0.3-0.8v-0.9c0-0.3-0.1-0.5-0.3-0.7c-0.2-0.2-0.4-0.3-0.7-0.3h-22.9c-0.3,0-0.5,0.1-0.7,0.3
		c-0.2,0.2-0.3,0.4-0.3,0.7v0.9c0,0.3,0.1,0.6,0.3,0.8c0.2,0.2,0.4,0.3,0.7,0.3H441z"/>
	<path class="st0" d="M539.3,182v10.1h-17.8v6h-14.1v-6h-22.9V182H539.3z M528.4,155.9c2.8,0,5.1,0.9,6.9,2.7
		c1.8,1.8,2.7,4.1,2.7,6.9v3.9c0,2.8-1,5.2-2.7,7s-4.1,2.7-6.9,2.7h-33.1c-2.9,0-5.2-0.8-7-2.7s-2.7-4.1-2.7-7v-3.9
		c0-2.8,0.9-5.1,2.7-6.9c1.8-1.8,4.1-2.7,6.9-2.7H528.4z M485.9,211.1v-16.4H500v6.6h37.8v9.8H485.9z M522.7,170
		c0.5,0,0.9-0.2,1.2-0.5c0.3-0.3,0.5-0.7,0.5-1.2v-1.2c0-0.5-0.2-0.9-0.5-1.2c-0.3-0.3-0.7-0.5-1.2-0.5H501c-0.5,0-0.9,0.2-1.2,0.5
		c-0.3,0.3-0.4,0.7-0.4,1.2v1.2c0,0.5,0.1,0.9,0.4,1.2c0.3,0.3,0.7,0.4,1.2,0.4H522.7z"/>
	<path class="st0" d="M601.1,155.9v9.2h-37.7v3.4h37.7v8.6h-18.8v2.5h20.3v9.4h-54.7v-9.4h20.3V177h-18.9v-21.1H601.1z M593.8,191.2
		c2.4,0,4.4,0.9,5.9,2.4c1.5,1.6,2.3,3.5,2.3,5.7v3.6c0,2.3-0.8,4.2-2.3,5.8c-1.5,1.6-3.5,2.3-5.9,2.3h-37.1c-2.4,0-4.4-0.8-5.9-2.3
		c-1.5-1.6-2.3-3.5-2.3-5.8v-3.6c0-2.2,0.8-4.1,2.3-5.7c1.5-1.6,3.5-2.4,5.9-2.4H593.8z M587.6,202.6c0.4,0,0.7-0.1,1-0.4
		s0.4-0.6,0.4-1v-0.8c0-0.4-0.1-0.7-0.4-1s-0.6-0.4-1-0.4h-24.7c-0.4,0-0.7,0.1-1,0.4c-0.3,0.3-0.4,0.6-0.4,1v0.8
		c0,0.4,0.1,0.7,0.4,1c0.3,0.3,0.6,0.4,1,0.4H587.6z"/>
	<path class="st0" d="M650,199.5v10.4h-40.1v-10.4h13.3v-3.9h12.5v3.9H650z M636,154.6v3.7h12v10.4h-37.5v-10.4h12.7v-3.7H636z
		 M638.4,170.9c2.4,0,4.5,0.8,6,2.3c1.6,1.6,2.3,3.6,2.3,6v5.8c0,2.4-0.8,4.4-2.3,6c-1.6,1.6-3.6,2.4-6,2.4h-18.2
		c-2.4,0-4.5-0.8-6-2.4c-1.6-1.6-2.3-3.6-2.3-6v-5.8c0-2.4,0.8-4.5,2.3-6s3.6-2.3,6-2.3H638.4z M632.8,185c0.6,0,1.1-0.2,1.5-0.6
		c0.4-0.4,0.6-0.9,0.6-1.5v-1.4c0-0.6-0.2-1.1-0.6-1.5c-0.4-0.4-0.9-0.6-1.5-0.6h-6.7c-0.6,0-1.1,0.2-1.5,0.6
		c-0.4,0.4-0.6,0.9-0.6,1.5v1.4c0,0.6,0.2,1.1,0.6,1.5c0.4,0.4,0.9,0.6,1.5,0.6H632.8z M665.7,155.9v55.2h-13.1v-55.2H665.7z"/>
</g>
</svg>
