<svg xmlns="http://www.w3.org/2000/svg" viewBox="0 0 1873 939.74"><defs><style>.cls-1{fill:#c2bfad;}.cls-2{fill:#ebe8d8;}.cls-3{opacity:0.5;}.cls-4{fill:#c9c6b6;}</style></defs><title>자산 20</title><g id="레이어_2" data-name="레이어 2"><g id="Layer_1" data-name="Layer 1"><path class="cls-1" d="M1823.69,52.17,1873,50.53l-.75-27-107.86,3.58,2.14,77.41H1714.4l-2.11-50.54,49.28-2.47-1.13-27L1659,29.54l0-1.27L1551.2,23.49l-3,81h-52.46l2-52.9L1547,53.77l1-27L1440.17,22l-3,82.52H1390l-1.41-51.28,49.31-1.64-.75-27-107.87,3.59,2.11,76.37h-65.12l-1.29-46.6,49.31-1.64-.75-27-107.87,3.59,2,71.69h-52.21l-1.87-44.82,49.28-2.48-1.13-27-101.45,5.1,0-1.28L992.45,29.21l-2.77,75.27H937.22L939,57.3l49.29,2.18,1-27L881.42,27.67l-2.83,76.81H831.06L829.8,58.92l49.31-1.64-.75-27L770.49,33.82l2,70.66H716.91L704.8,63.14l47-16.54-7.54-25.76L647.18,55l-.51-18.12L538.81,40.48l1.77,64H488.26l-1.55-37.13L536,64.88l-1.13-27L433.41,43l0-1.27L325.63,36.9,325.51,40,220.76,35.37l-2.55,69.11H168.59l1.63-44.27,49.29,2.19,1-27L112.68,30.59,110,104.48H68.42V35.94H16V912.19l276,19.74,103,7.68,1213.54.13c140.49,0,254.38-124.91,254.38-279V104.48h-37.78Zm-214.94.95,44.94,2,2.07,49.37h-48.91ZM1050,58.83l44.94,2,1.83,43.66h-48.46ZM598.11,65.58l45.44-1.51,11.83,40.41H599.19Zm-170,2.94,1.51,36H381.77l1.4-37.95ZM324.52,67l-1.38,37.44H276.85L278.3,65Z"/><path class="cls-2" d="M1807.69,31.33,1857,29.69l-.75-27L1748.39,6.24l2.14,77.41H1698.4l-2.11-50.54,49.28-2.48-1.13-27L1643,8.7l0-1.27L1535.2,2.66l-3,81h-52.46l2-52.9L1531,32.93l1-27L1424.17,1.12l-3,82.53H1374l-1.41-51.29,49.31-1.64-.75-27L1313.24,7.27l2.11,76.38h-65.12L1248.94,37l49.31-1.64-.75-27L1189.63,12l2,71.7h-52.21l-1.87-44.83,49.28-2.48-1.13-27-101.45,5.1,0-1.27L976.45,8.37l-2.77,75.28H921.22L923,36.46l49.29,2.18,1-27L865.42,6.84l-2.83,76.81H815.06L813.8,38.08l49.31-1.64-.75-27L754.49,13l2,70.66H700.91L688.8,42.3l47-16.54L728.24,0,631.18,34.18l-.51-18.12L522.81,19.65l1.77,64H472.26l-1.55-37.13L520,44l-1.13-27-101.45,5.1,0-1.28L309.63,16.07l-.12,3.1L204.76,14.53l-2.55,69.12H152.59l1.63-44.27,49.29,2.18,1-27L96.68,9.75,94,83.65H52.42V15.1H0V918.9H1592.54c140.49,0,254.38-124.91,254.38-279V83.65h-37.78Zm-214.94,1,44.94,2,2.07,49.38h-48.91ZM1034,38l44.94,2,1.83,43.67h-48.46ZM582.11,44.74l45.44-1.51,11.83,40.42H583.19Zm-170,2.94,1.51,36H365.77l1.4-38ZM308.52,46.2l-1.38,37.45H260.85l1.45-39.49Z"/><g class="cls-3"><path class="cls-4" d="M1748,241.78c.85.13,2.19.19,3.26.29C1748.18,242.17,1746.67,242.15,1748,241.78Z"/><path class="cls-4" d="M1791.44,243.17c-11.22,0-29,0-40.16-1.1C1761.23,241.74,1788.05,239.93,1791.44,243.17Z"/><path class="cls-4" d="M1746,236.53l14,1C1751.81,238.37,1753.31,236.84,1746,236.53Z"/><polygon class="cls-4" points="1751.1 239.56 1750.37 240.75 1742.93 239.59 1751.1 239.56"/><path class="cls-4" d="M1037.68,251.4c1.45.51,2.35,1.07,1.66,1.79Z"/><path class="cls-4" d="M1005.35,246c-2.9-.19-4.93-.28-6.66-.33A43.13,43.13,0,0,1,1005.35,246Z"/><path class="cls-4" d="M1067,250.9l-5.74.16A43.69,43.69,0,0,1,1067,250.9Z"/><path class="cls-4" d="M1425.76,246.35c5.34.86,10.4,1.64,14.24,2.18C1429.61,249.44,1428.71,247.49,1425.76,246.35Z"/><path class="cls-4" d="M856.77,228.65l-1.38.95C853.87,229.17,853.12,228.75,856.77,228.65Z"/><path class="cls-4" d="M997.6,230.07c.14.55-.16,1-.76,1.26-.56-.08-1.14-.14-1.68-.23Z"/><path class="cls-4" d="M1089.8,249c.08,0,.22-.07.32-.11l4.67.6C1092.29,249.63,1090.7,249.46,1089.8,249Z"/><path class="cls-4" d="M811.4,227.34a27.26,27.26,0,0,1-5.65-2.1C810.12,225.68,812.16,226.61,811.4,227.34Z"/><path class="cls-4" d="M997.89,245.68c-.06,0,0,0-.06-.05.24,0,.62,0,.86,0C998.38,245.69,998.18,245.66,997.89,245.68Z"/><path class="cls-4" d="M1044.3,231.11c-2.46-.16-4.77-.28-7.41-.49A24.23,24.23,0,0,1,1044.3,231.11Z"/><path class="cls-4" d="M1425.76,246.35c-1.51-.24-3-.47-4.52-.73A12.18,12.18,0,0,1,1425.76,246.35Z"/><path class="cls-4" d="M1710.48,243.93c-4.51,0-5.58-.66-6.43-1.35A32.59,32.59,0,0,1,1710.48,243.93Z"/><path class="cls-4" d="M78.55,248.12l-1.81,0A9.36,9.36,0,0,1,78.55,248.12Z"/><path class="cls-4" d="M251.42,250.67a12.54,12.54,0,0,1,2.29.76C252.23,251.68,251.4,251.24,251.42,250.67Z"/><path class="cls-4" d="M410.66,227.52c-11.28,1.39-23-1.46-32.78-1.6l3.35,1.18-9.9-1,.11,1.7c-16.38-.8-36.71,1-42.71-1.74l1.92,2.72-17.38-2.15,10,1.83c-19.52.57-49.17-1.54-53.33-1.53l1.76,1c-3.2.52-5.72-.14-9-.47l2.57,1.51c-29.41-.41-37.46,3-70.28,1.41-8.95.37,5,.5,5.1,1.35-4.89,1.2-16.39.05-18.88-.62,2.61,2.36,16.45,1.64,5.94,3.54-7.47-1.16,5.09,2.19-8.05,1.73l-5.15-3c-7.3.53-1.46,2.38-13,2.08-13.19-1.32,16.14-3.45-5.1-3.89-10.64.2-22.4,7-43,5.39-17.8,1.59,9.36,4.73-15.26,4l15.76,2c-4.07.86-1.5,2.38-12.17,1.73a59.36,59.36,0,0,0-15.74-2.84c23.07,2.3-20.22,3.46,1.25,6.45l-8-.11c1,.11,1.25.41.72.64L68.63,249c6.56.66,22.16.94,14.91,3.18l-15.4.55c4.11,1.69-1.54,2.39-.64,3.74l45.32,3.25c-1.78-1-8.31-1.67-5.88-2.69,12.1-.89,9.88,1.83,21.24.43l-5-1.34c.9.51,2.5.67,0,.85-4,.86-5.72-.15-5.76-1,4-1.71,15.45-.56,18.86.62,14.72-.22,3-3.07,6.27-3.59,7.62,2.86,24.58-.07,33.69,1.26l-5.85-1.86c11.2-2.24,21.23-.4,27.79.26l-2.55-1.52c15.6.29,23.33-4.83,35.2.57l-1.65-1c6.4-.48,16.11-1.61,22.24,0,.14-.64,1.23-1.43,3.82-1.62,3.47,2.09,10.11.51,19.54.14-6.26-.55-4.26-3.24-10.85-3.89,14.54-2.77,13.34,3,25.55,3,7.33-1.38-6.57-1.51-8.32-2.52,18.87,1.46,38.77-6.23,50.67-.84l-8.1,1.72c7.5,1.16,11.57,1.15,10.66.65a5.72,5.72,0,0,1-4.08-.84c22.65-2.79,35.43,4,58.3,2.87-1.7-1-5-1.34-5.11-2.19,10.53-1.05,10.26,5.23,27.26,3.14l-3.34-1.18c5.67-.7,9.87,1,9.1,1.33.45-4.58,36,.23,47.85-5.75,8.33,2.52,32.19,4.48,39.48,3.1,10.46-2.75-9.26-3-5.37-5.59,8.19,0,12.49,2.51,24.69,1.62.21,2.55-24.11,5.17-1.16,6.63l3.22-1.37a48.1,48.1,0,0,1-9,.36c-6.64-1.5,4-1.7,5.51-2.39l24.65.77c1.8,2.71-12.94,2.08-14.47,2.76,19.51-.57,43-4.54,61.12-2.73l-1.72-1c23.12,2.31,13.49-5,31.89-.61,9.72-.71-3.5-2.87,11.17-3.09,4.14,0,1.72,1,1,1.36,18,1,7.94-2.58,24.58-.09l-3.59-2.87c19.83,2,40.61,7,57.74,5.76-1-2.21-11.62-2-15.83-3.68,23.21,4,55.67.5,77.12,2.64-6.41,1.88,10.16,4.38-3.58,5.95-3.56-2.87-10-1-17.36-1.31,11.9,6.25,49.72-3,53.36,2.38L811,251c3.3.33,11.65,2,5.89,2.69l23.67-1.42c-8.31-1.68-25.83-5.53-31.33-3.13-6.74-2.36,9.69-1.56,3.73-4.26,15.84,3.68,9.73-1.56,26.14-.76-7.43,3.2,16.31,4.34,15.57,5.89,5.37-.59,17.3.89,21.91,2,9.49.3,31.25-2.28,46.47-1.18-5.76-1-14.88-2.32-14.21-4.36,7.47,1.16,15.67,1.13,17.08-1.25-26.51-4.33-8.54,5.46-32.53,2.65-5.93-2.7-12.5-3.36-24.86-4.16,5.63-1.55,3.15-2.22,5.46-4.1,15.13,5.72,39.34.56,59.12,3.38,8.34,1.68,2.07,5.26,21,5.88l-16.22,1.75c17.84-1.58,4.19,1.68,18.92,2.31l-5.86-1.85c9-.36,12.32,0,17.32,1.31l-7.63-2.86c4.86-.36,13.85-.72,14,1,1.25-.7,1.69-1.25,1.69-1.74.94.47,3.24.78,8.93.69-3.33-.33-5.74-.15-5.81-1,21.68.68,5.07-3.1,18.51-2.83-2.13-.66,1.69-1.48,6.51-1.84-.33,4.52,26.3,5.11,33.34,7.61l-.08-.07,18.14,1.81c-3.68-.37.29-1.6,5.56-2.08l-.85,0c5.76-.7-6.86-4.9,10.44-3.6l9.08,1.33c-1.62-.16-.06-.85.79-1.19l9.36,1.22c14.32-4.21,27,2.37,43.86.31-4.86.35-12.26,0-9.09-1.33a31.44,31.44,0,0,1,10.73.64l-.85-.5,32.09,2.78c-2.61-1.52-20.56-1.63-12.54-3.35,4.75-2.06,14,.12,19.72.28-.74,1.18-11.36,2.24-.63,2.88,1.32-.59,11.53-1.82,6.71-2.67,11,1.21,27,2,36.8,4.06,3.12-.52-1.79-1-3.43-1.18l-.79.34c-6.62-.66-1-3.05-14-1.82-1.09-3.9,18.75-1.08,30.15-1.62L1210.65,245c30.63-5.36,72,.45,102.34.52-8.91,1.22-16.36.06-15.29,3.11,18.85,1.47,16.38.79,35.19,1.41l-1.62-.16c9.72-1.56,23,1.45,29.38-1.28-4.2-1.68-13.8,1.58-14-1.83l23.73.27c-7.46-2-23.73-.27-32.77-.75-6.53.19,13.12.47,10,2.69-22.15-.1-27.2-2.29-38.09-5.48-6.64-2.36,9.67-2.41,13.79-2.42,14.09,3.51,34.68,5.15,56.65,3.55l12.06-2.58c10.88,2.34,6.25,6.94,25.89,6.36l-5.86-1.85a54.39,54.39,0,0,1,9.21-.95c-8.45-1.4-17.54-3-25.17-4.43,11.17-3.93,32.09,1.95,48.52,2.74-.86-.51-6.6-.66-8.31-1.67,24.51-.93,50.17,3.74,69.09,4.36,8-1.72-15.72-1.14-11.82-3.69,10,1,21.19-1.26,23.86,1.11-4.35-3.38,22.86-.25,3.83-3.41,35.86-1.47,75.35,1.63,111.59,3.55-1.76-1-1.76-1.86-.24-2.54-12.26,0-30.28-.93-37.09-3.28,8.06-1.73,19.07,2.31,21.38,1.29-4.11-.83-12.28-.81-12.43-2.5,10.5-1.91,16.39.79,23.78,1.11l-4,.86c23,2.3,12.72,5.9,37.19,5,8.86-2.06-.09-1.69-.24-4.24,5.77,1,24.34-1.78,30.34.92l-14.81.22c10.37.72,20.17.71,27.35,1.59a5.61,5.61,0,0,0-3.54-1.33c8.24.82,18.81.62,23,2.31l2.32-2.73c-4.92,1.2-19.6,1.42-22.08-.1,1.41-2.38,16.27-.9,22.77-1.09-28.69-.75-29-5-53.33-3.22l4.09.84c-15.11,2.06-30.68-1.35-43.92-1.26,3.73-.56,4.48-1.55,2.73-2-29.29,2.13-58.1.52-91.49,1.81l-10-2.68-.62,2c-16.33.9-3.54-2.88-14.07-2.67,4,0,3.29.33,4.11.84-19-2.32-10.54,1.89-21.17,1.25,5,2.19,20.5.78,15.76,3.68-18.92-2.31-48.33-1-51.11-5.95-35.11,2-78.65-1.1-108.17-1.53-4,.87,2.51.68,1,1.37-11.67-2.85-39.17,2-39.35-.56a24,24,0,0,0-9.54,3.25,218.34,218.34,0,0,0-26-2.16l7,.7-.76.34-9.88-1,.37-.16c-23.69-.72-51.07-.11-72.57-2.83,12.38,1.66-3.11,3.06,2.74,4.06-10.93-4-37.12-4.13-58.36-3.71.09.84-1.56,1.52.94,2.2l-12.32-1.67,1.63,1c-22.05.75-46.07-3.76-60.63-1.84,9,.48,9,1.33,10,2.68-15.8-.1-30.71-.15-49.17-1.37,1,.25,1.64.54,1.66.84-4.83.36-10.65-.65-15.59-1.14l-.68,2c-9.44-.94-21.63.1-32.85-1.52-4.4,2.24-27.19-2.07-40.15-1.13-5-.49,10.81,2.34-3.1,2.22-2-4.42-18.05-.11-19.13-4.87l-12.16,1.74-2.68-2.37c-10.33,4.45-15.73-2-31.1-.58.81.51,2.46.67,1.67,1-5-.49-16.42-.79-7.55-2-8.19,0-36.06-1.07-23.55,1.43-.91-1.36,10.55-.2,15.5.29-.65,2-13,1.23-16,3.45-.4-.22-2-.57-3.19-.91l-1.76,1.26c-15.39-2.24-31-.63-42.23-3.52-.65.63-3.35,1.11-8.64,1l-.22-2.55-16.37.06,7.67,3.7c-18,.74-30.59-3.47-45.34-4.09-3.79,4.25-28.78-1.61-41.55,2.16l11.52,1.16c-24.62-.78-28.54,1.79-51.51.33,19.48-1.42,19.6-.57,48-4.05-28.49,1.78-49.22-2.4-75.3.07,1.74,1,8.29,1.66,1.9,2.7-5.09-2.19-24.57.08-20.71-2.48-8.1.87-9.51,3.26-14.46,3.61l-27.19-3.14.83.51c-46.21,5.92-86.26-4-132.63-1.45l.89,1.36-11.61-2c9.1,1.33-3.94,1.7-4.65,2.89l-29.71-3C401.62,225.34,403.37,228.05,410.66,227.52Zm391.23,1.13,7,.19a16.83,16.83,0,0,1,4.46.11l-4.46-.11C805.31,229.18,802.65,230.25,801.89,228.65Zm648.41,4.9c3.38,1.19-4.88.36-7.24.54l11.46.3C1456.1,233.71,1452,233.72,1450.3,233.55Zm-648,11.56-3.93,1.71-5-1.34Zm-99.82.15,9.95,1-.83.34-9.85-1ZM591.59,231.52c.63.1,1.21.17,1.92.34a16.1,16.1,0,0,1-1.92-.34c-7.68-1.23-10.74,1.83-17-1.13C582.27,227.85,587.2,230.48,591.59,231.52Zm175.36,0a38.5,38.5,0,0,0,7.4.31c-1.73-1-8.41-2.51-3.52-2.87,3.4,1.18,14.82,1.48,15,3.18C775.88,230.26,768.86,235,767,231.48Zm235,1.12-2.5.18,9.16,1.33Zm42.66,1.73c5.07,2.19,18.12,1.81,27.15,2.29,2.34-1.87-6.83-4.05-17.45-3.85C1041.84,231.12,1049.57,235.68,1044.57,234.33Zm-354.27.45,2.53,1.51-2.38.18,9.86,1c-13,2.08-22.22-1.8-28.84-2.46C677.26,235.16,693.06,238.84,690.3,234.78Zm445.21.62c9.1,1.34,25.5,3,24,4.51.58-2.89-12.59-4.2-16.69-4.19A38.35,38.35,0,0,1,1135.51,235.4Zm-.48,5.44c-13.19-1.32-14.1-2.67-24.17-5.36,13.06-1.22,16.63,2.49,15.07,4,9.1,1.33,7.34-.54,12.2-.89Zm-13.7-8.11-5.38.4c-6.35,1.2-7.67,4.47-16.59,1.2l16.59-1.2A24.25,24.25,0,0,1,1121.33,232.73Zm110.91.15-5.42-1c5.35.1,6,.53,5.42,1l4.51.84C1225,234.77,1231,233.77,1232.24,232.88Zm-84.59.79-15.58-.3C1133,234.73,1142.69,234,1147.65,233.67Zm81.11,1.78c-6.56.19-23.69.58-21.31.4C1209,234.32,1224.6,234.61,1228.76,235.45Zm343.94,4-9.83-.14,4.75-2.05ZM1457.45,241l2.43-1,5.71.15Zm-106.26.15c.51-.45.24-1-.64-1.47a10.45,10.45,0,0,1-3.7-.87,7.68,7.68,0,0,1,3.7.87,54,54,0,0,0,13.48-.42c-1.71-1-8.27-.82-10.8-1.49,9.72-2.41,31.54,4.82,25.32-2.12,4.11.84,18.19,2.66,13.32,3.87-11.13-.41-32.23.34-40.68,1.63-.49.37-1.41.65-3.33.71A16.5,16.5,0,0,1,1351.19,241.15ZM1208,242.64a35.15,35.15,0,0,1-6.56-.61c-3.45-.51-6.08-1.28-5.06-2.24,8.4.84,3,1.63,5.06,2.24A56.9,56.9,0,0,0,1208,242.64Zm-25.32.42,13.14,1.31-6.62-1.5,19.81,2.82C1197.64,247.09,1184.43,244.92,1182.67,243.06ZM1178,244.4l-2.71-1.66,4.15,1.69-1.44,0,.63.37-22.15-1Zm-226.26-3.32c-8.3,5.72,19.58,4.06,23.91,6.82.92-1.92,9.32-4.89-12.31-4.83,18.69-1.92,11.71,3.71,22.84-1.08-9,.36-19.74-1.13-21.34-1.29l10.55-.21C969.46,237,959.19,242.24,951.78,241.08Zm-113.7.87-13.88-.13,13.14.47Zm-342.76,1.59c1,1.35-16.89,3.79-21.14,1.25C483.18,244.42,493,244.56,495.32,243.54Zm-147.27-.38,15.6,1.14c-3,3.06-13.93-.13-21.25.41C339.86,243.19,345.62,244.19,348.05,243.16Zm-101.49,0-5-.49,5.22,3Zm6.83,4.05c-3.13,1.37,7.53,2,10,1.84ZM162,249.86l6.51-.19-5.88-2.7Zm10.36-3.17c1.53,1.94.89,4.56,15.86,3.26.63-2-3.45-2,2.11-4.43-4.93-.49-9,.38-11.43.55,3.35.33,7.32-.53,8.24.82a47.71,47.71,0,0,1-14.78-.2c-.52-.69-1.35-1.3-3.32-1.6C169.05,245.7,170.32,246.27,172.32,246.69Zm54.26-2.14a20.94,20.94,0,0,0,4.48-.85l.9.51a8.33,8.33,0,0,1-5.38.34c-2.16.27-4.68.5-7.28.73-1.66,1.72,8.59,2.89,11.3,3.85-4.88-.49-9.11-2.17-15.57-1.14.85.51,0,.86,4.11.83l-8.93.38c-10.22-2.4-.46-3.14,9.09-3.92.3-.38,1-.78,2.83-1.21A12.07,12.07,0,0,1,226.58,244.55Zm-71.79-3.83,4.89.49c2.52.67.92,1.36,1.8,1.86C155.74,242.92,148.26,241.76,154.79,240.72Zm293.71-.6c-3.24.52,4.26,2.54,11.56,2l-3.88,2.55c-.19-1.69-14.85-1.48-16.5-1.64C437.09,240.67,442.81,241.67,448.5,240.12Zm341.21-.06c2.67,3.22,21.35,1.29,25.48,2.13C805.48,242.9,783.38,243.65,789.71,240.06Zm32.4-1.3c5.11,0,6.57-.27,6,1.35,2.48.67,6.53-.19,9,.48-9.95,1.42-9.32-1.15-15.06-1.83-1.33,0-2.84,0-4.74-.14A27,27,0,0,1,822.11,238.76Zm-199.44-.21-6.79-2.35-10.62.2ZM508.6,234.33c.87,1.36-11.32,1.4-13.86.72.78,1.79,8.95,1.56,15.45,1.75a27,27,0,0,0,4.28.23c-1.27-.13-2.68-.19-4.28-.23-2.43-.42-.74-1.33-.74-2l3.24-.52-9-.48ZM308,232.42c-7.28,1.38-8.15.88-13.05.38C296.52,232.12,303.05,231.93,308,232.42Zm261.06.36c-12.27.89,5.89,2.7-2.15,3.58l6.42-.19c-10.43,1.9-7.44-2-14.78-1.48l4.91-.36c3.88-1.71-7.52-1.16-8.44-2.52C560.75,231.11,573.94,232.43,569.06,232.78Zm-272.59-1.51c-12.14,1.74-10-1.84-17.35-2.15C288.79,227.56,287.38,230.79,296.47,231.27Zm195.29-3.68.77-.33-9.86-1-.78.34Z"/><path class="cls-4" d="M281.39,249.14a41.91,41.91,0,0,1-6.61.05C276.88,249.1,279.07,249.06,281.39,249.14Z"/><path class="cls-4" d="M851.87,250.9c.28-.46,1.33-.7,2.75-.86C854.45,250.31,853.76,250.59,851.87,250.9Z"/><path class="cls-4" d="M875.63,252h.9l.75.16Z"/><path class="cls-4" d="M1703.31,246.17c5.09,2.18-4.91.35-9,.36C1698.4,246.52,1700,245,1703.31,246.17Z"/><path class="cls-4" d="M1671.12,242.53a50,50,0,0,0,10.1,1.28A36.86,36.86,0,0,1,1671.12,242.53Z"/><path class="cls-4" d="M1697.38,243.47a139.25,139.25,0,0,1-16.16.34C1685.35,243.71,1688.85,242.87,1697.38,243.47Z"/><path class="cls-4" d="M1584.42,243.15c5.06,1.34,14.79.63,14.79.63-21.2,1.25,4.26,2.53,6,3.54C1592,246.85,1592,245.16,1584.42,243.15Z"/><path class="cls-4" d="M1556.35,242.46a53.4,53.4,0,0,0,5.87-.26A26.68,26.68,0,0,1,1556.35,242.46Z"/><path class="cls-4" d="M1548.46,243.77c-7.34-.32-9.93-1.84-13.28-3,8.88-1.1,14.55,1.33,21.17,1.7C1551.15,242.49,1546.06,242.33,1548.46,243.77Z"/><path class="cls-4" d="M1322.34,251.11c1.69.16,5.74.15,5.86,1l-12.29,0C1311,251.65,1319.88,251.28,1322.34,251.11Z"/><path class="cls-4" d="M1277,247c-9.82-.14-4.71,2.05-9.68,1.55l.56-2.88Z"/><path class="cls-4" d="M1282.49,232.39l2.9.29-3.31-.11Z"/><path class="cls-4" d="M1229.78,249.87l6.78,3.21C1228.32,252.26,1228.21,249.7,1229.78,249.87Z"/><polygon class="cls-4" points="1192.35 252.03 1198.11 253.03 1180.08 252.06 1192.35 252.03"/><polygon class="cls-4" points="1147.22 250.48 1145.63 251.16 1133.27 250.35 1147.22 250.48"/><path class="cls-4" d="M656.11,247.78c-1.87-2.71,17.82-1.58,23.55-2.28C675.73,248.91,664,244.37,656.11,247.78Z"/><path class="cls-4" d="M298.51,247.9l18.81.62C302.74,249.59,313.25,248.53,298.51,247.9Z"/></g><g class="cls-3"><path class="cls-4" d="M1748.53,354.48c.85.13,2.19.19,3.26.29C1748.69,354.87,1747.19,354.85,1748.53,354.48Z"/><path class="cls-4" d="M1792,355.87c-11.21,0-29,0-40.16-1.1C1761.74,354.44,1788.56,352.63,1792,355.87Z"/><path class="cls-4" d="M1746.54,349.23l14,1C1752.32,351.07,1753.82,349.55,1746.54,349.23Z"/><polygon class="cls-4" points="1751.61 352.26 1750.88 353.45 1743.44 352.29 1751.61 352.26"/><path class="cls-4" d="M1038.19,364.1c1.45.51,2.35,1.07,1.66,1.79Z"/><path class="cls-4" d="M1005.87,358.7c-2.91-.19-4.94-.27-6.67-.33A44.62,44.62,0,0,1,1005.87,358.7Z"/><path class="cls-4" d="M1067.56,363.6l-5.75.17A42.15,42.15,0,0,1,1067.56,363.6Z"/><path class="cls-4" d="M1426.27,359.05c5.34.86,10.4,1.65,14.25,2.18C1430.12,362.15,1429.22,360.19,1426.27,359.05Z"/><path class="cls-4" d="M857.28,341.35l-1.38.95C854.38,341.87,853.63,341.45,857.28,341.35Z"/><path class="cls-4" d="M998.11,342.77c.14.56-.16,1-.76,1.26-.56-.08-1.14-.14-1.67-.23Z"/><path class="cls-4" d="M1090.31,361.66c.08,0,.22-.07.32-.11l4.67.6C1092.8,362.33,1091.21,362.16,1090.31,361.66Z"/><path class="cls-4" d="M811.91,340a27.83,27.83,0,0,1-5.65-2.09C810.63,338.39,812.67,339.31,811.91,340Z"/><path class="cls-4" d="M998.4,358.38c-.06,0,0,0-.06,0l.86,0C998.9,358.39,998.69,358.36,998.4,358.38Z"/><path class="cls-4" d="M1044.82,343.81c-2.47-.16-4.78-.27-7.42-.49A24.33,24.33,0,0,1,1044.82,343.81Z"/><path class="cls-4" d="M1426.27,359.05c-1.51-.24-3-.47-4.52-.73A12.39,12.39,0,0,1,1426.27,359.05Z"/><path class="cls-4" d="M1711,356.63c-4.52,0-5.58-.66-6.44-1.35A32.86,32.86,0,0,1,1711,356.63Z"/><path class="cls-4" d="M79.06,360.82l-1.8,0A10.15,10.15,0,0,1,79.06,360.82Z"/><path class="cls-4" d="M251.93,363.37a12.29,12.29,0,0,1,2.29.76C252.75,364.38,251.91,363.94,251.93,363.37Z"/><path class="cls-4" d="M411.17,340.22c-11.28,1.39-22.95-1.46-32.78-1.6l3.36,1.18-9.91-1,.11,1.7c-16.38-.79-36.71,1-42.71-1.74l1.92,2.72-17.38-2.15,10,1.83c-19.51.57-49.16-1.54-53.33-1.52l1.76,1c-3.2.51-5.72-.15-9.05-.48l2.57,1.51c-29.41-.41-37.45,3-70.28,1.41-9,.37,4.95.5,5.1,1.35-4.89,1.2-16.39.05-18.87-.62,2.6,2.36,16.44,1.64,5.93,3.54-7.47-1.16,5.09,2.19-8.05,1.73l-5.14-3c-7.31.53-1.46,2.38-13,2.08-13.19-1.32,16.15-3.45-5.1-3.89-10.64.2-22.4,7-43,5.4-17.8,1.58,9.37,4.72-15.26,4l15.76,2c-4.07.86-1.5,2.38-12.17,1.73a59.32,59.32,0,0,0-15.74-2.83c23.07,2.3-20.22,3.45,1.25,6.44l-8-.11c1,.12,1.25.41.72.64l-10.64.21c6.56.66,22.16.94,14.92,3.18l-15.41.56c4.11,1.68-1.54,2.38-.64,3.73l45.32,3.25c-1.78-1-8.31-1.67-5.88-2.69,12.1-.89,9.88,1.83,21.24.43l-5-1.34c.91.51,2.5.67,0,.85-4,.86-5.72-.15-5.76-1,4-1.7,15.45-.56,18.86.62,14.72-.21,3-3.07,6.27-3.59,7.62,2.86,24.58-.07,33.7,1.26l-5.86-1.85c11.2-2.25,21.23-.41,27.79.25l-2.54-1.52c15.59.29,23.32-4.82,35.19.57l-1.64-1c6.39-.48,16.1-1.61,22.23,0,.14-.64,1.23-1.43,3.82-1.61,3.47,2.08,10.12.5,19.54.13-6.25-.54-4.26-3.24-10.85-3.89,14.55-2.77,13.34,3,25.55,3,7.33-1.38-6.56-1.51-8.32-2.52,18.87,1.47,38.77-6.23,50.67-.84l-8.1,1.72c7.5,1.17,11.57,1.15,10.66.65a5.72,5.72,0,0,1-4.08-.84c22.65-2.78,35.43,4,58.3,2.87-1.7-1-5-1.34-5.11-2.19,10.53-1.05,10.26,5.23,27.26,3.14l-3.33-1.17c5.66-.71,9.86,1,9.09,1.32.45-4.58,36,.23,47.85-5.75,8.34,2.52,32.2,4.48,39.48,3.1,10.46-2.75-9.25-3-5.37-5.59,8.19,0,12.49,2.51,24.69,1.62.21,2.55-24.11,5.17-1.15,6.63l3.21-1.37a48.84,48.84,0,0,1-9,.37c-6.63-1.51,4-1.71,5.51-2.4l24.65.77c1.8,2.72-12.94,2.08-14.46,2.77,19.5-.57,43-4.55,61.11-2.74l-1.72-1c23.12,2.31,13.49-5,31.89-.61,9.72-.7-3.5-2.87,11.17-3.09,4.15,0,1.72,1,1,1.36,18,1,7.93-2.58,24.57-.08l-3.59-2.87c19.83,2,40.61,7,57.75,5.76-1-2.21-11.63-2-15.84-3.69,23.21,4,55.67.5,77.12,2.64-6.41,1.89,10.16,4.38-3.58,5.95-3.56-2.87-10-1-17.36-1.3,11.9,6.24,49.73-3,53.36,2.37l3.15-2.21c3.29.33,11.64,2,5.88,2.7L841,365c-8.31-1.68-25.83-5.53-31.33-3.13-6.73-2.36,9.69-1.56,3.73-4.26,15.84,3.69,9.73-1.56,26.14-.76-7.43,3.21,16.32,4.34,15.58,5.89,5.36-.59,17.29.9,21.91,2,9.48.3,31.24-2.28,46.46-1.17-5.76-1-14.88-2.33-14.2-4.37,7.46,1.16,15.66,1.13,17.07-1.24-26.5-4.34-8.54,5.45-32.53,2.64-5.93-2.69-12.5-3.36-24.86-4.16,5.63-1.55,3.15-2.22,5.46-4.09,15.13,5.71,39.34.55,59.13,3.38,8.33,1.67,2.06,5.25,20.94,5.88l-16.22,1.74c17.84-1.58,4.19,1.68,18.92,2.31l-5.86-1.85c9-.36,12.32,0,17.32,1.31l-7.63-2.86c4.86-.36,13.85-.72,14,1,1.25-.7,1.69-1.25,1.69-1.74.94.48,3.24.78,8.93.69-3.33-.33-5.74-.15-5.81-1,21.69.68,5.07-3.1,18.51-2.82-2.13-.67,1.69-1.49,6.51-1.84-.33,4.51,26.3,5.1,33.34,7.6l-.08-.07,18.14,1.81c-3.68-.37.29-1.6,5.56-2.07l-.85,0c5.76-.7-6.86-4.9,10.44-3.6l9.09,1.33c-1.63-.16-.07-.85.78-1.19l9.36,1.22c14.32-4.21,27,2.38,43.86.31-4.86.36-12.26,0-9.09-1.33a31.68,31.68,0,0,1,10.73.64l-.85-.5,32.09,2.78c-2.6-1.52-20.56-1.63-12.53-3.35,4.74-2.06,14,.12,19.71.28-.74,1.18-11.36,2.24-.62,2.88,1.31-.59,11.52-1.82,6.7-2.67,11,1.21,27,2,36.8,4.06,3.12-.52-1.79-1-3.42-1.18l-.79.34c-6.63-.65-1-3.05-14-1.81-1.09-3.91,18.75-1.09,30.15-1.63l-18.18-2.66c30.63-5.35,72,.45,102.34.52-8.91,1.22-16.36.06-15.29,3.11,18.85,1.47,16.38.8,35.19,1.41l-1.62-.16c9.72-1.56,23,1.45,29.38-1.28-4.2-1.68-13.8,1.58-14-1.82l23.73.26c-7.46-2-23.73-.26-32.77-.74-6.53.19,13.12.46,10,2.68-22.15-.1-27.2-2.29-38.09-5.48-6.64-2.36,9.67-2.4,13.79-2.42,14.09,3.51,34.69,5.15,56.65,3.55l12.07-2.58c10.87,2.34,6.25,6.94,25.89,6.37l-5.87-1.85a54.67,54.67,0,0,1,9.21-1c-8.44-1.39-17.54-3-25.17-4.43,11.17-3.93,32.09,1.95,48.52,2.74-.86-.5-6.6-.66-8.31-1.67,24.51-.93,50.17,3.74,69.09,4.36,8-1.72-15.72-1.13-11.82-3.69,10,1,21.19-1.26,23.86,1.11-4.35-3.38,22.86-.25,3.83-3.41,35.87-1.47,75.35,1.63,111.59,3.55-1.76-1-1.76-1.86-.23-2.54-12.27,0-30.29-.93-37.1-3.28,8.06-1.73,19.07,2.31,21.38,1.29-4.11-.83-12.28-.81-12.43-2.5,10.5-1.91,16.39.79,23.78,1.11l-4,.86c23,2.3,12.72,5.9,37.19,5,8.86-2.06-.09-1.69-.24-4.24,5.77,1,24.35-1.78,30.34.92l-14.81.22c10.37.72,20.17.71,27.35,1.59A5.61,5.61,0,0,0,1701,354c8.24.83,18.81.62,23,2.31l2.32-2.73c-4.91,1.21-19.6,1.42-22.08-.09,1.41-2.39,16.27-.91,22.77-1.1-28.69-.75-29-5-53.33-3.22l4.09.84c-15.11,2.06-30.68-1.34-43.92-1.26,3.73-.55,4.48-1.55,2.73-2-29.29,2.13-58.1.52-91.49,1.81l-10.05-2.68-.62,2c-16.33.9-3.54-2.87-14.06-2.67,4,0,3.28.33,4.1.84-19-2.32-10.54,1.9-21.17,1.25,5.05,2.19,20.5.78,15.76,3.69-18.92-2.32-48.33-1-51.11-6-35.11,2-78.65-1.1-108.17-1.52-4,.86,2.51.67,1,1.36-11.67-2.85-39.17,2-39.35-.56a24,24,0,0,0-9.54,3.25,218.34,218.34,0,0,0-26-2.16l7,.7-.76.35-9.88-1,.37-.15c-23.69-.73-51.07-.12-72.57-2.84,12.38,1.66-3.11,3.06,2.74,4.06-10.93-4-37.12-4.13-58.36-3.71.09.85-1.55,1.52.94,2.2L1143,343.33l1.63,1c-22.05.75-46.07-3.75-60.63-1.84,9,.48,9.06,1.33,10,2.68-15.8-.09-30.7-.14-49.16-1.37,1,.25,1.63.54,1.66.84-4.84.36-10.65-.64-15.6-1.13l-.67,2c-9.44-.94-21.64.11-32.86-1.52-4.4,2.24-27.19-2.07-40.15-1.13-5-.49,10.81,2.34-3.1,2.22-2-4.41-18.05-.11-19.13-4.87L922.81,342l-2.68-2.37c-10.33,4.45-15.73-2-31.1-.58.81.51,2.46.68,1.67,1-5-.5-16.42-.8-7.55-2-8.19,0-36.06-1.07-23.55,1.43-.91-1.35,10.55-.2,15.5.29-.65,2-13,1.24-16,3.45-.4-.22-2-.57-3.19-.91l-1.76,1.26c-15.39-2.24-31-.62-42.23-3.52-.65.63-3.35,1.12-8.64,1l-.22-2.55-16.36.06,7.66,3.7c-18,.74-30.59-3.46-45.34-4.09-3.79,4.25-28.78-1.61-41.55,2.17L719,341.45c-24.62-.78-28.54,1.79-51.51.33,19.48-1.42,19.6-.57,48-4-28.49,1.78-49.22-2.4-75.3.07,1.74,1,8.29,1.66,1.9,2.7-5.09-2.19-24.57.09-20.71-2.48-8.1.87-9.51,3.26-14.46,3.61l-27.19-3.14.84.51c-46.22,5.92-86.27-4-132.64-1.45l.89,1.36-11.61-2c9.1,1.33-3.94,1.71-4.65,2.9l-29.71-3C402.13,338,403.88,340.75,411.17,340.22Zm391.23,1.14,7,.18a16.92,16.92,0,0,1,4.47.11l-4.47-.11C805.82,341.88,803.16,343,802.4,341.36Zm648.41,4.9c3.38,1.18-4.88.35-7.24.53l11.46.3C1456.61,346.41,1452.48,346.43,1450.81,346.26Zm-648,11.55-3.93,1.71-5-1.33ZM703,358l10,1-.83.34-9.85-1ZM592.1,344.22c.63.1,1.21.18,1.92.34a14.6,14.6,0,0,1-1.92-.34c-7.68-1.23-10.74,1.83-17-1.13C582.78,340.55,587.71,343.18,592.1,344.22Zm175.36,0a39.44,39.44,0,0,0,7.4.32c-1.73-1-8.41-2.52-3.52-2.88,3.41,1.18,14.82,1.48,15,3.18C776.39,343,769.37,347.74,767.46,344.18Zm235,1.12-2.5.18,9.16,1.33Zm42.66,1.73c5.08,2.19,18.13,1.81,27.15,2.29,2.34-1.87-6.83-4-17.45-3.84C1042.35,343.82,1050.09,348.38,1045.08,347Zm-354.27.45,2.53,1.51-2.38.18,9.86,1c-13,2.08-22.22-1.8-28.84-2.46C677.77,347.86,693.57,351.55,690.81,347.48Zm445.22.63c9.09,1.33,25.49,3,24,4.5.58-2.89-12.59-4.2-16.69-4.19A39,39,0,0,1,1136,348.11Zm-.49,5.43c-13.19-1.32-14.1-2.67-24.17-5.36,13.06-1.22,16.63,2.49,15.07,4,9.1,1.33,7.34-.54,12.2-.89Zm-13.7-8.11-5.38.4c-6.35,1.2-7.67,4.47-16.58,1.2l16.58-1.2A24.87,24.87,0,0,1,1121.84,345.43Zm110.91.15-5.42-1c5.35.1,6,.53,5.42,1l4.51.85C1225.5,347.47,1231.55,346.47,1232.75,345.58Zm-84.59.79-15.58-.3C1133.47,347.44,1143.2,346.72,1148.16,346.37Zm81.11,1.78c-6.56.19-23.69.59-21.31.4C1209.51,347,1225.11,347.31,1229.27,348.15Zm343.94,4-9.82-.14,4.74-2.05ZM1458,353.7l2.43-1,5.71.15Zm-106.25.15c.51-.44.23-1-.65-1.47a10.24,10.24,0,0,1-3.7-.87,7.8,7.8,0,0,1,3.7.87,53.55,53.55,0,0,0,13.49-.42c-1.71-1-8.27-.81-10.81-1.49,9.72-2.41,31.54,4.83,25.32-2.12,4.11.84,18.19,2.66,13.32,3.87-11.13-.41-32.23.34-40.67,1.63-.5.37-1.42.66-3.34.71A16.47,16.47,0,0,1,1351.71,353.85Zm-143.21,1.49a36.64,36.64,0,0,1-6.56-.6c-3.45-.52-6.08-1.29-5.06-2.24,8.4.83,3,1.62,5.06,2.24A59.43,59.43,0,0,0,1208.5,355.34Zm-25.32.42,13.14,1.32-6.62-1.51,19.81,2.83C1198.15,359.79,1184.94,357.62,1183.18,355.76Zm-4.62,1.34-2.71-1.66,4.14,1.7-1.43,0,.62.37-22.15-1Zm-226.27-3.32c-8.3,5.72,19.58,4.06,23.91,6.82.92-1.92,9.32-4.89-12.31-4.82,18.69-1.93,11.71,3.7,22.84-1.09-9,.36-19.74-1.13-21.33-1.29l10.54-.2C970,349.65,959.7,354.94,952.29,353.78Zm-113.7.87-13.88-.13,13.14.47Zm-342.76,1.6c1,1.34-16.89,3.78-21.14,1.25C483.69,357.12,493.53,357.26,495.83,356.25Zm-147.27-.39,15.6,1.14c-3,3.06-13.93-.13-21.25.41C340.37,355.89,346.13,356.89,348.56,355.86Zm-101.49,0-5-.49,5.22,3Zm6.83,4.05c-3.13,1.37,7.53,2,10,1.84Zm-91.42,2.67,6.5-.19-5.88-2.7Zm10.36-3.16c1.53,1.93.88,4.55,15.86,3.25.62-2-3.46-2,2.1-4.42-4.93-.5-9,.37-11.43.54,3.35.33,7.32-.53,8.24.82a48,48,0,0,1-14.77-.19c-.53-.7-1.36-1.31-3.33-1.61C169.56,358.41,170.83,359,172.84,359.4Zm54.26-2.14a21.46,21.46,0,0,0,4.47-.86l.9.51a8.37,8.37,0,0,1-5.37.35c-2.17.26-4.69.5-7.29.72-1.66,1.72,8.59,2.89,11.3,3.85-4.88-.49-9.11-2.17-15.57-1.13.85.5,0,.85,4.11.83l-8.93.37c-10.22-2.39-.46-3.14,9.09-3.92.3-.38,1-.78,2.83-1.21A11.93,11.93,0,0,1,227.1,357.26Zm-71.8-3.84,4.9.49c2.51.67.91,1.36,1.79,1.86C156.25,355.62,148.77,354.46,155.3,353.42Zm293.71-.6c-3.24.52,4.26,2.54,11.57,2l-3.89,2.55c-.18-1.69-14.85-1.47-16.49-1.64C437.6,353.37,443.32,354.37,449,352.82Zm341.21-.06c2.67,3.22,21.35,1.29,25.48,2.13C806,355.6,783.89,356.35,790.22,352.76Zm32.4-1.3c5.12,0,6.57-.27,6,1.35,2.48.68,6.53-.19,9,.48-10,1.43-9.33-1.15-15.07-1.83-1.33,0-2.84,0-4.74-.14A27,27,0,0,1,822.62,351.46Zm-199.44-.2-6.79-2.36-10.61.2ZM509.11,347c.87,1.36-11.32,1.4-13.86.73.78,1.78,8.95,1.55,15.45,1.74a25.92,25.92,0,0,0,4.29.23c-1.28-.12-2.69-.18-4.29-.23-2.43-.42-.74-1.33-.74-2l3.24-.52-9-.48Zm-200.6-1.91c-7.28,1.38-8.15.88-13.05.39C297,344.82,303.56,344.63,308.51,345.12Zm261.06.37c-12.27.88,5.9,2.69-2.15,3.57l6.42-.19c-10.43,1.9-7.44-2-14.78-1.48L564,347c3.88-1.71-7.52-1.16-8.44-2.52C561.26,343.81,574.45,345.13,569.57,345.49ZM297,344c-12.15,1.74-10-1.83-17.36-2.15C289.3,340.26,287.89,343.5,297,344Zm195.28-3.67L493,340l-9.85-1-.79.34Z"/><path class="cls-4" d="M281.9,361.84a41.91,41.91,0,0,1-6.61.05C277.39,361.8,279.58,361.76,281.9,361.84Z"/><path class="cls-4" d="M852.38,363.6c.28-.46,1.34-.7,2.76-.86C855,363,854.27,363.29,852.38,363.6Z"/><path class="cls-4" d="M876.14,364.71h.91l.74.16Z"/><path class="cls-4" d="M1703.82,358.87c5.09,2.19-4.91.35-9,.36C1698.91,359.22,1700.49,357.69,1703.82,358.87Z"/><path class="cls-4" d="M1671.63,355.23a50,50,0,0,0,10.1,1.28A36.86,36.86,0,0,1,1671.63,355.23Z"/><path class="cls-4" d="M1697.9,356.17a139.42,139.42,0,0,1-16.17.34C1685.86,356.41,1689.36,355.57,1697.9,356.17Z"/><path class="cls-4" d="M1584.93,355.85c5.06,1.34,14.79.63,14.79.63-21.2,1.26,4.26,2.53,6,3.55C1592.56,359.56,1592.47,357.86,1584.93,355.85Z"/><path class="cls-4" d="M1556.86,355.16a53.6,53.6,0,0,0,5.88-.26A26.79,26.79,0,0,1,1556.86,355.16Z"/><path class="cls-4" d="M1549,356.47c-7.34-.31-9.92-1.84-13.28-3,8.88-1.09,14.56,1.33,21.17,1.7C1551.66,355.19,1546.57,355,1549,356.47Z"/><path class="cls-4" d="M1322.85,363.81c1.69.16,5.75.15,5.86,1l-12.29,0C1311.49,364.35,1320.4,364,1322.85,363.81Z"/><path class="cls-4" d="M1277.55,359.71c-9.82-.14-4.71,2.05-9.68,1.55l.56-2.88Z"/><path class="cls-4" d="M1283,345.09l2.9.29-3.31-.1Z"/><path class="cls-4" d="M1230.29,362.57l6.79,3.21C1228.84,365,1228.72,362.41,1230.29,362.57Z"/><polygon class="cls-4" points="1192.86 364.73 1198.62 365.73 1180.59 364.77 1192.86 364.73"/><polygon class="cls-4" points="1147.73 363.18 1146.14 363.86 1133.78 363.05 1147.73 363.18"/><path class="cls-4" d="M656.62,360.49c-1.87-2.71,17.82-1.59,23.55-2.29C676.24,361.61,664.46,357.07,656.62,360.49Z"/><path class="cls-4" d="M299,360.6l18.81.62C303.26,362.29,313.76,361.23,299,360.6Z"/></g><g class="cls-3"><path class="cls-4" d="M1749,467.19c.85.12,2.19.18,3.26.28C1749.2,467.58,1747.7,467.55,1749,467.19Z"/><path class="cls-4" d="M1792.47,468.57c-11.22,0-29,0-40.17-1.1C1762.25,467.14,1789.07,465.33,1792.47,468.57Z"/><path class="cls-4" d="M1747.05,461.93l14,1C1752.83,463.78,1754.34,462.25,1747.05,461.93Z"/><polygon class="cls-4" points="1752.13 464.96 1751.4 466.15 1743.95 464.99 1752.13 464.96"/><path class="cls-4" d="M1038.7,476.8c1.45.51,2.35,1.07,1.66,1.8Z"/><path class="cls-4" d="M1006.38,471.4c-2.91-.19-4.93-.27-6.67-.32A43.1,43.1,0,0,1,1006.38,471.4Z"/><path class="cls-4" d="M1068.07,476.3l-5.74.17A43.62,43.62,0,0,1,1068.07,476.3Z"/><path class="cls-4" d="M1426.78,471.75c5.34.86,10.4,1.65,14.25,2.18C1430.63,474.85,1429.73,472.89,1426.78,471.75Z"/><path class="cls-4" d="M857.79,454.05l-1.38.95C854.89,454.57,854.14,454.16,857.79,454.05Z"/><path class="cls-4" d="M998.62,455.47c.14.56-.16,1-.76,1.26-.56-.08-1.14-.13-1.67-.23Z"/><path class="cls-4" d="M1090.82,474.36c.08,0,.22-.06.32-.11l4.67.6C1093.31,475,1091.72,474.86,1090.82,474.36Z"/><path class="cls-4" d="M812.42,452.74a27.24,27.24,0,0,1-5.65-2.09C811.14,451.09,813.19,452,812.42,452.74Z"/><path class="cls-4" d="M998.91,471.08c-.06,0,0,0-.06,0,.24,0,.63,0,.86,0C999.41,471.09,999.2,471.06,998.91,471.08Z"/><path class="cls-4" d="M1045.33,456.52c-2.47-.17-4.78-.28-7.42-.49A23.68,23.68,0,0,1,1045.33,456.52Z"/><path class="cls-4" d="M1426.78,471.75c-1.51-.24-3-.47-4.52-.73A12.57,12.57,0,0,1,1426.78,471.75Z"/><path class="cls-4" d="M1711.51,469.34c-4.52,0-5.58-.67-6.44-1.36A32.1,32.1,0,0,1,1711.51,469.34Z"/><path class="cls-4" d="M79.57,473.52l-1.8,0A10.15,10.15,0,0,1,79.57,473.52Z"/><path class="cls-4" d="M252.44,476.07a12.29,12.29,0,0,1,2.29.76C253.26,477.08,252.42,476.64,252.44,476.07Z"/><path class="cls-4" d="M411.68,452.92c-11.28,1.39-22.95-1.45-32.78-1.6l3.36,1.18-9.91-1,.11,1.7c-16.37-.79-36.71,1-42.71-1.73l1.92,2.71L314.3,452l9.95,1.83c-19.52.57-49.17-1.54-53.34-1.52l1.76,1c-3.2.52-5.71-.15-9.05-.48l2.57,1.51c-29.41-.41-37.45,3-70.28,1.42-8.95.36,5,.49,5.1,1.34-4.89,1.2-16.39.05-18.87-.62,2.6,2.37,16.44,1.64,5.93,3.55-7.47-1.17,5.09,2.19-8,1.72l-5.15-3c-7.31.53-1.46,2.38-13,2.08-13.19-1.32,16.15-3.45-5.1-3.89-10.64.2-22.39,7-43,5.4-17.8,1.58,9.37,4.73-15.26,3.95l15.76,2c-4.07.86-1.5,2.38-12.17,1.74a58.88,58.88,0,0,0-15.73-2.84c23.07,2.3-20.23,3.46,1.25,6.44l-8-.11c1,.12,1.25.41.72.64l-10.64.21c6.56.66,22.16.94,14.92,3.18l-15.41.56c4.11,1.68-1.53,2.38-.64,3.73l45.32,3.26c-1.78-1-8.31-1.68-5.88-2.7,12.1-.89,9.88,1.83,21.24.43l-5-1.33c.91.5,2.5.66,0,.84-4,.87-5.72-.15-5.76-1,4-1.71,15.45-.57,18.86.62,14.72-.22,3-3.07,6.28-3.59,7.61,2.86,24.57-.08,33.69,1.25l-5.86-1.85c11.2-2.24,21.23-.4,27.79.25l-2.54-1.51c15.59.28,23.32-4.83,35.19.56l-1.64-1c6.39-.47,16.1-1.61,22.23,0,.15-.63,1.23-1.42,3.82-1.61,3.47,2.08,10.12.5,19.54.13-6.25-.54-4.25-3.23-10.85-3.89,14.55-2.76,13.34,3,25.56,3,7.32-1.38-6.57-1.51-8.33-2.52,18.87,1.47,38.77-6.23,50.67-.84l-8.1,1.72c7.5,1.17,11.57,1.16,10.66.65a5.68,5.68,0,0,1-4.08-.84c22.65-2.78,35.43,4,58.3,2.87-1.7-1-5-1.34-5.11-2.19,10.53-1,10.26,5.23,27.26,3.14l-3.33-1.17c5.66-.71,9.86,1,9.09,1.33.45-4.59,36,.22,47.85-5.76,8.34,2.52,32.2,4.48,39.49,3.1,10.45-2.75-9.26-3-5.38-5.58,8.19,0,12.49,2.5,24.69,1.62.21,2.54-24.11,5.16-1.15,6.62l3.21-1.37a48.77,48.77,0,0,1-9,.37c-6.64-1.51,4-1.71,5.5-2.4l24.65.78c1.8,2.71-12.94,2.07-14.46,2.76,19.5-.57,43-4.55,61.11-2.74l-1.72-1c23.12,2.31,13.5-5,31.89-.6,9.72-.71-3.5-2.88,11.17-3.1,4.15,0,1.72,1,1,1.36,18,1,7.93-2.58,24.57-.08l-3.59-2.87c19.83,2,40.61,7,57.75,5.76-1-2.21-11.63-2-15.84-3.69,23.21,4,55.67.5,77.12,2.64-6.41,1.89,10.16,4.38-3.58,5.95-3.55-2.87-10-1-17.35-1.3,11.89,6.25,49.72-3,53.36,2.38l3.14-2.22c3.29.33,11.64,2,5.88,2.7l23.67-1.43c-8.31-1.67-25.83-5.52-31.33-3.13-6.73-2.36,9.69-1.56,3.73-4.26,15.84,3.69,9.74-1.56,26.14-.76-7.42,3.21,16.32,4.35,15.58,5.9,5.36-.6,17.29.89,21.91,2,9.48.3,31.24-2.28,46.46-1.17-5.76-1-14.87-2.33-14.2-4.37,7.46,1.16,15.66,1.13,17.07-1.24-26.5-4.34-8.54,5.45-32.53,2.64-5.93-2.69-12.5-3.35-24.86-4.16,5.63-1.54,3.15-2.22,5.47-4.09,15.12,5.72,39.33.55,59.12,3.38,8.33,1.67,2.06,5.25,20.94,5.88L938.81,476c17.84-1.58,4.19,1.68,18.93,2.32l-5.86-1.86c9-.36,12.31,0,17.31,1.31l-7.63-2.86c4.86-.35,13.85-.72,14,1,1.25-.7,1.69-1.25,1.69-1.74.94.48,3.24.78,8.93.69-3.33-.33-5.74-.15-5.81-1,21.69.68,5.07-3.1,18.51-2.82-2.13-.66,1.69-1.49,6.51-1.84-.32,4.51,26.3,5.1,33.34,7.6l-.08-.07,18.14,1.81c-3.68-.36.29-1.59,5.57-2.07l-.86,0c5.76-.7-6.86-4.9,10.44-3.6l9.09,1.33c-1.63-.16-.07-.85.79-1.19l9.35,1.22c14.32-4.21,27,2.38,43.86.31-4.86.36-12.26,0-9.08-1.33a31.37,31.37,0,0,1,10.72.65l-.85-.51,32.09,2.78c-2.6-1.52-20.56-1.63-12.53-3.35,4.74-2.05,14,.12,19.71.28-.74,1.19-11.36,2.24-.62,2.88,1.31-.58,11.52-1.82,6.7-2.67,11,1.22,27,1.95,36.8,4.06,3.12-.52-1.79-1-3.42-1.17l-.79.34c-6.63-.66-1-3.06-14-1.82-1.09-3.91,18.75-1.08,30.16-1.63l-18.19-2.66c30.63-5.35,72,.45,102.34.52-8.91,1.22-16.36.06-15.29,3.11,18.85,1.47,16.38.8,35.19,1.42l-1.62-.16c9.73-1.57,23,1.45,29.38-1.29-4.2-1.68-13.8,1.58-14-1.82l23.72.26c-7.45-2-23.72-.26-32.77-.74-6.52.19,13.12.47,10,2.69-22.14-.11-27.19-2.3-38.09-5.49-6.64-2.36,9.68-2.4,13.79-2.42,14.1,3.52,34.69,5.15,56.66,3.55l12.06-2.58c10.87,2.34,6.25,7,25.89,6.37l-5.87-1.85a54.67,54.67,0,0,1,9.21-1c-8.44-1.39-17.54-3-25.17-4.42,11.17-3.94,32.09,1.94,48.52,2.73-.85-.5-6.6-.66-8.31-1.67,24.51-.93,50.17,3.75,69.1,4.36,8-1.72-15.72-1.13-11.83-3.69,10,1,21.19-1.25,23.86,1.11-4.35-3.38,22.86-.24,3.83-3.41,35.87-1.47,75.35,1.63,111.59,3.56-1.76-1-1.76-1.87-.23-2.55-12.27,0-30.29-.92-37.1-3.28,8.06-1.72,19.07,2.32,21.38,1.29-4.11-.83-12.28-.81-12.42-2.5,10.5-1.91,16.38.79,23.77,1.11l-4,.86c23,2.3,12.72,5.9,37.19,5,8.86-2.06-.09-1.69-.24-4.24,5.77,1,24.35-1.78,30.34.93l-14.81.21c10.37.72,20.17.71,27.35,1.59a5.56,5.56,0,0,0-3.54-1.32c8.24.82,18.81.61,23,2.3l2.32-2.73c-4.91,1.21-19.6,1.43-22.08-.09,1.41-2.39,16.27-.9,22.78-1.09-28.7-.76-29-5-53.34-3.23l4.09.84c-15.11,2.06-30.68-1.34-43.92-1.26,3.73-.55,4.48-1.55,2.73-2-29.29,2.13-58.1.52-91.49,1.82l-10.05-2.69-.62,2c-16.33.9-3.53-2.87-14.06-2.67,4,0,3.28.33,4.1.84-19-2.32-10.54,1.9-21.17,1.25,5.05,2.19,20.51.79,15.76,3.69-18.92-2.32-48.33-1-51.1-6-35.12,2-78.66-1.1-108.18-1.52-4,.86,2.51.67,1,1.36-11.68-2.85-39.17,2-39.36-.56a23.75,23.75,0,0,0-9.54,3.26,218.2,218.2,0,0,0-26-2.17l7,.7-.76.35-9.88-1,.37-.16c-23.69-.73-51.07-.11-72.57-2.84,12.38,1.66-3.11,3.07,2.74,4.07-10.93-4-37.12-4.13-58.36-3.72.09.85-1.55,1.53.94,2.2L1143.53,456l1.64,1c-22.06.75-46.08-3.75-60.64-1.84,9,.48,9.06,1.33,10,2.69-15.8-.1-30.7-.15-49.16-1.37,1,.24,1.63.53,1.66.84-4.84.35-10.65-.65-15.6-1.14l-.67,2c-9.44-.94-21.64.11-32.86-1.52-4.4,2.24-27.19-2.07-40.14-1.13-5-.49,10.8,2.34-3.11,2.22-2-4.41-18-.11-19.13-4.86l-12.16,1.73-2.68-2.37c-10.33,4.45-15.73-2-31.1-.58.81.51,2.46.68,1.67,1-5-.5-16.42-.8-7.54-2-8.2,0-36.07-1.07-23.56,1.44-.91-1.36,10.55-.21,15.51.28-.65,2-13,1.24-16,3.45-.4-.22-2-.57-3.19-.91l-1.76,1.26c-15.39-2.24-31-.62-42.23-3.52-.65.63-3.34,1.12-8.63,1l-.23-2.54-16.36.05,7.66,3.71c-18,.74-30.59-3.47-45.34-4.1-3.79,4.26-28.78-1.61-41.55,2.17l11.52,1.15c-24.62-.77-28.54,1.79-51.51.33,19.49-1.42,19.6-.57,48-4.05-28.48,1.78-49.22-2.4-75.3.07,1.74,1,8.29,1.66,1.91,2.71-5.1-2.19-24.58.08-20.72-2.48-8.1.86-9.51,3.25-14.46,3.6l-27.19-3.13.84.5c-46.22,5.92-86.27-4-132.64-1.45l.9,1.36-11.61-2c9.09,1.33-3.94,1.71-4.66,2.9l-29.71-3C402.65,450.74,404.4,453.45,411.68,452.92Zm391.23,1.14,7,.18a16.52,16.52,0,0,1,4.47.12l-4.47-.12C806.33,454.58,803.67,455.65,802.91,454.06Zm648.41,4.9c3.38,1.18-4.88.36-7.24.53l11.46.31C1457.13,459.11,1453,459.13,1451.32,459Zm-648,11.56-3.93,1.71-5-1.34Zm-99.82.14,10,1-.83.34-9.84-1ZM592.61,456.92c.63.1,1.21.18,1.93.34a13,13,0,0,1-1.93-.34c-7.68-1.22-10.74,1.83-17-1.13C583.3,453.25,588.22,455.88,592.61,456.92Zm175.36,0a38.61,38.61,0,0,0,7.4.32c-1.73-1-8.41-2.52-3.52-2.87,3.41,1.17,14.82,1.47,15,3.17C776.9,455.67,769.88,460.44,768,456.88Zm235,1.12-2.5.18,9.16,1.33Zm42.66,1.74c5.08,2.19,18.13,1.8,27.15,2.29,2.34-1.88-6.83-4-17.45-3.85C1042.86,456.52,1050.6,461.08,1045.59,459.74Zm-354.27.44,2.53,1.52-2.38.18,9.86,1c-13,2.09-22.22-1.79-28.84-2.45C678.28,460.56,694.08,464.25,691.32,460.18Zm445.22.63c9.09,1.33,25.49,3,24,4.5.58-2.88-12.59-4.2-16.69-4.19A37.35,37.35,0,0,1,1136.54,460.81Zm-.49,5.43c-13.19-1.31-14.1-2.67-24.17-5.36,13.06-1.22,16.63,2.5,15.07,4,9.1,1.33,7.34-.54,12.2-.89Zm-13.7-8.1-5.37.39c-6.36,1.2-7.68,4.47-16.59,1.2l16.59-1.2A24.23,24.23,0,0,1,1122.35,458.14Zm110.91.14-5.42-1c5.35.1,6,.54,5.42,1l4.51.85C1226,460.17,1232.07,459.17,1233.26,458.28Zm-84.59.79-15.58-.29C1134,460.14,1143.71,459.43,1148.67,459.07Zm81.11,1.78c-6.56.19-23.69.59-21.31.41C1210,459.72,1225.62,460,1229.78,460.85Zm343.94,4-9.82-.14,4.74-2Zm-115.25,1.55,2.43-1,5.72.15Zm-106.25.15c.51-.44.23-1-.65-1.47a10.24,10.24,0,0,1-3.7-.87,7.92,7.92,0,0,1,3.7.87,53.55,53.55,0,0,0,13.49-.42c-1.71-1-8.27-.81-10.81-1.49,9.72-2.4,31.55,4.83,25.32-2.11,4.11.83,18.19,2.65,13.32,3.86-11.13-.4-32.23.35-40.67,1.63-.49.37-1.42.66-3.33.71A16.88,16.88,0,0,1,1352.22,466.55ZM1209,468.05a35.85,35.85,0,0,1-6.55-.61c-3.46-.52-6.08-1.29-5.07-2.24,8.4.83,3,1.62,5.07,2.24A59,59,0,0,0,1209,468.05Zm-25.32.42,13.15,1.31-6.63-1.51L1210,471.1C1198.66,472.49,1185.45,470.33,1183.69,468.47Zm-4.62,1.33-2.71-1.65,4.14,1.69-1.43,0,.62.38-22.15-.95ZM952.8,466.48c-8.3,5.72,19.58,4.06,23.91,6.82.93-1.91,9.32-4.89-12.31-4.82,18.69-1.93,11.71,3.7,22.84-1.09-9,.37-19.74-1.13-21.33-1.29l10.55-.2C970.48,462.35,960.21,467.64,952.8,466.48Zm-113.7.87-13.88-.13,13.14.47ZM496.35,469c1,1.35-16.9,3.79-21.15,1.25C484.21,469.83,494,470,496.35,469Zm-147.28-.39,15.6,1.14c-3,3.07-13.93-.12-21.24.41C340.88,468.59,346.64,469.59,349.07,468.56Zm-101.49,0-5-.49,5.22,3Zm6.83,4c-3.13,1.37,7.53,2,10,1.84ZM163,475.26l6.5-.19-5.88-2.69Zm10.36-3.16c1.53,1.93.88,4.55,15.86,3.25.62-2-3.46-2,2.1-4.42-4.93-.5-9,.37-11.43.54,3.35.33,7.32-.53,8.24.83a47.94,47.94,0,0,1-14.77-.2c-.53-.69-1.36-1.3-3.33-1.61C170.07,471.11,171.34,471.68,173.35,472.1ZM227.61,470a20.81,20.81,0,0,0,4.47-.86l.9.51a8.37,8.37,0,0,1-5.37.35c-2.17.26-4.69.5-7.29.72-1.66,1.72,8.59,2.89,11.3,3.85-4.88-.49-9.1-2.17-15.57-1.13.85.5,0,.85,4.11.83l-8.93.37c-10.22-2.39-.46-3.13,9.09-3.92.3-.38,1-.77,2.83-1.21A11.93,11.93,0,0,1,227.61,470Zm-71.8-3.84,4.9.49c2.51.67.91,1.36,1.79,1.87C156.76,468.32,149.28,467.16,155.81,466.12Zm293.72-.59c-3.25.52,4.25,2.53,11.56,2l-3.89,2.56c-.18-1.7-14.85-1.48-16.49-1.65C438.11,466.08,443.83,467.08,449.53,465.53Zm341.2-.06c2.67,3.22,21.35,1.28,25.48,2.12C806.5,468.3,784.4,469.05,790.73,465.47Zm32.41-1.31c5.11,0,6.56-.26,6,1.35,2.48.68,6.53-.18,9,.48-10,1.43-9.33-1.15-15.06-1.83-1.34,0-2.85,0-4.75-.14A27.15,27.15,0,0,1,823.14,464.16ZM623.69,464l-6.79-2.36-10.61.21Zm-114.07-4.22c.87,1.35-11.32,1.39-13.86.72.78,1.78,8.95,1.55,15.46,1.74a25.69,25.69,0,0,0,4.28.23c-1.28-.12-2.69-.18-4.28-.23-2.44-.42-.74-1.33-.74-1.95l3.23-.53-9-.48ZM309,457.82c-7.28,1.39-8.15.88-13,.39C297.55,457.52,304.07,457.33,309,457.82Zm261.06.37c-12.26.88,5.9,2.69-2.15,3.57l6.42-.19c-10.43,1.9-7.44-2-14.78-1.48l4.91-.35c3.88-1.71-7.52-1.17-8.44-2.53C561.77,456.51,575,457.83,570.08,458.19ZM297.5,456.67c-12.15,1.74-10-1.83-17.36-2.15C289.81,453,288.4,456.2,297.5,456.67ZM492.78,453l.77-.34-9.85-1-.79.34Z"/><path class="cls-4" d="M282.41,474.54a40.72,40.72,0,0,1-6.61,0C277.9,474.5,280.1,474.46,282.41,474.54Z"/><path class="cls-4" d="M852.89,476.3c.28-.46,1.34-.7,2.76-.85C855.47,475.71,854.78,476,852.89,476.3Z"/><path class="cls-4" d="M876.65,477.41c.31,0,.63,0,.91,0s.5.11.74.16Z"/><path class="cls-4" d="M1704.33,471.57c5.09,2.19-4.91.36-9,.36C1699.42,471.93,1701,470.39,1704.33,471.57Z"/><path class="cls-4" d="M1672.14,467.94a50.87,50.87,0,0,0,10.1,1.27A36.77,36.77,0,0,1,1672.14,467.94Z"/><path class="cls-4" d="M1698.41,468.87a139.42,139.42,0,0,1-16.17.34C1686.37,469.11,1689.87,468.28,1698.41,468.87Z"/><path class="cls-4" d="M1585.44,468.55c5.06,1.34,14.79.63,14.79.63-21.2,1.26,4.27,2.53,6,3.55C1593.07,472.26,1593,470.56,1585.44,468.55Z"/><path class="cls-4" d="M1557.37,467.86a53.6,53.6,0,0,0,5.88-.26A26.79,26.79,0,0,1,1557.37,467.86Z"/><path class="cls-4" d="M1549.48,469.17c-7.33-.31-9.92-1.84-13.28-3,8.88-1.09,14.56,1.33,21.17,1.7C1552.17,467.89,1547.08,467.73,1549.48,469.17Z"/><path class="cls-4" d="M1323.37,476.51c1.68.17,5.74.15,5.85,1l-12.29,0C1312,477.05,1320.91,476.69,1323.37,476.51Z"/><path class="cls-4" d="M1278.06,472.41c-9.82-.14-4.7,2-9.68,1.55l.56-2.88Z"/><path class="cls-4" d="M1283.52,457.79l2.89.29-3.31-.1Z"/><path class="cls-4" d="M1230.8,475.27l6.79,3.21C1229.35,477.66,1229.23,475.11,1230.8,475.27Z"/><polygon class="cls-4" points="1193.37 477.43 1199.13 478.43 1181.1 477.47 1193.37 477.43"/><polygon class="cls-4" points="1148.24 475.88 1146.65 476.56 1134.29 475.75 1148.24 475.88"/><path class="cls-4" d="M657.13,473.19c-1.87-2.71,17.82-1.59,23.55-2.29C676.76,474.31,665,469.77,657.13,473.19Z"/><path class="cls-4" d="M299.53,473.3l18.81.63C303.77,475,314.28,473.93,299.53,473.3Z"/></g><g class="cls-3"><path class="cls-4" d="M1749.55,579.89c.85.12,2.2.18,3.26.29C1749.71,580.28,1748.21,580.25,1749.55,579.89Z"/><path class="cls-4" d="M1793,581.28c-11.22,0-29,0-40.17-1.1C1762.76,579.84,1789.58,578,1793,581.28Z"/><path class="cls-4" d="M1747.56,574.63l14,1C1753.34,576.48,1754.85,575,1747.56,574.63Z"/><polygon class="cls-4" points="1752.64 577.67 1751.91 578.86 1744.46 577.69 1752.64 577.67"/><path class="cls-4" d="M1039.21,589.5c1.45.51,2.35,1.08,1.66,1.8Z"/><path class="cls-4" d="M1006.89,584.1c-2.91-.19-4.93-.27-6.67-.32A44.4,44.4,0,0,1,1006.89,584.1Z"/><path class="cls-4" d="M1068.58,589l-5.74.17A43.67,43.67,0,0,1,1068.58,589Z"/><path class="cls-4" d="M1427.29,584.45c5.34.86,10.4,1.65,14.25,2.18C1431.14,587.55,1430.25,585.59,1427.29,584.45Z"/><path class="cls-4" d="M858.3,566.75l-1.38,1C855.4,567.28,854.65,566.86,858.3,566.75Z"/><path class="cls-4" d="M999.13,568.18c.15.55-.16,1-.76,1.25-.56-.08-1.14-.13-1.67-.23Z"/><path class="cls-4" d="M1091.34,587.06c.07,0,.22-.06.31-.1l4.67.59C1093.82,587.73,1092.23,587.57,1091.34,587.06Z"/><path class="cls-4" d="M812.93,565.44a27.24,27.24,0,0,1-5.65-2.09C811.66,563.79,813.7,564.72,812.93,565.44Z"/><path class="cls-4" d="M999.42,583.78c-.06,0,0,0-.06,0,.24,0,.63,0,.86,0Z"/><path class="cls-4" d="M1045.84,569.22c-2.47-.17-4.77-.28-7.42-.49A23.68,23.68,0,0,1,1045.84,569.22Z"/><path class="cls-4" d="M1427.29,584.45c-1.51-.23-3-.47-4.52-.72A12.39,12.39,0,0,1,1427.29,584.45Z"/><path class="cls-4" d="M1712,582c-4.51,0-5.58-.66-6.43-1.36A32.14,32.14,0,0,1,1712,582Z"/><path class="cls-4" d="M80.08,586.22l-1.8,0A9.41,9.41,0,0,1,80.08,586.22Z"/><path class="cls-4" d="M253,588.77a12.43,12.43,0,0,1,2.28.76C253.77,589.78,252.93,589.34,253,588.77Z"/><path class="cls-4" d="M412.2,565.62c-11.29,1.39-23-1.45-32.78-1.6l3.35,1.19-9.91-1,.11,1.69c-16.37-.79-36.71,1-42.71-1.73l1.92,2.71-17.37-2.15,9.95,1.84c-19.52.56-49.17-1.55-53.34-1.53l1.76,1c-3.19.52-5.71-.15-9.05-.48l2.57,1.52c-29.41-.42-37.45,3-70.28,1.41-8.95.36,5,.49,5.1,1.34-4.89,1.2-16.38,0-18.87-.62,2.6,2.37,16.44,1.65,5.93,3.55-7.46-1.17,5.09,2.19-8,1.72l-5.15-3c-7.31.53-1.46,2.38-13,2.08-13.2-1.32,16.14-3.44-5.1-3.89-10.65.2-22.4,7-43,5.4-17.8,1.58,9.37,4.73-15.26,4l15.77,2c-4.08.86-1.51,2.38-12.18,1.74a58.88,58.88,0,0,0-15.73-2.84c23.07,2.3-20.23,3.46,1.25,6.44l-8-.11c1,.12,1.25.41.72.64l-10.64.21c6.56.66,22.16.94,14.92,3.18l-15.41.56c4.11,1.68-1.53,2.38-.64,3.74l45.32,3.25c-1.78-1-8.3-1.67-5.88-2.7,12.1-.89,9.88,1.83,21.24.43l-5-1.33c.9.51,2.49.67,0,.84-4,.87-5.73-.15-5.77-1,4-1.71,15.45-.56,18.87.62,14.71-.22,3-3.07,6.27-3.59,7.61,2.86,24.57-.08,33.69,1.25l-5.86-1.85c11.2-2.24,21.23-.4,27.79.26l-2.54-1.52c15.59.28,23.32-4.83,35.19.56l-1.64-1c6.4-.47,16.11-1.61,22.24,0,.14-.63,1.22-1.42,3.82-1.61,3.46,2.08,10.11.51,19.53.13-6.25-.54-4.25-3.23-10.85-3.89,14.55-2.76,13.34,3,25.56,3,7.33-1.38-6.57-1.51-8.33-2.52,18.87,1.47,38.77-6.23,50.67-.84l-8.09,1.72c7.5,1.17,11.56,1.16,10.65.65a5.75,5.75,0,0,1-4.08-.83c22.65-2.79,35.44,4,58.31,2.87-1.7-1-5-1.34-5.11-2.19,10.52-1.06,10.25,5.22,27.25,3.13L409,587.19c5.66-.7,9.86,1,9.1,1.33.44-4.59,36,.22,47.84-5.75,8.34,2.51,32.2,4.47,39.49,3.09,10.45-2.75-9.26-3-5.38-5.58,8.19,0,12.49,2.5,24.7,1.62.2,2.54-24.12,5.17-1.16,6.62l3.21-1.37a48.77,48.77,0,0,1-9,.37c-6.64-1.51,4-1.71,5.5-2.4l24.65.78c1.8,2.71-12.94,2.07-14.46,2.76,19.5-.57,43-4.55,61.11-2.74l-1.72-1c23.12,2.31,13.5-5,31.89-.6,9.72-.71-3.5-2.88,11.17-3.09,4.15,0,1.72,1,1,1.35,18,1,7.94-2.57,24.57-.08l-3.58-2.87c19.82,2,40.61,7,57.74,5.76-1-2.21-11.62-2-15.84-3.68,23.21,4,55.67.49,77.13,2.63-6.42,1.89,10.15,4.38-3.59,5.95-3.55-2.87-10-1-17.35-1.3,11.89,6.25,49.72-3,53.36,2.38l3.14-2.22c3.29.33,11.64,2,5.88,2.7L842,590.4c-8.31-1.67-25.83-5.52-31.33-3.13-6.73-2.35,9.69-1.56,3.73-4.26,15.84,3.69,9.74-1.56,26.14-.76-7.42,3.21,16.32,4.35,15.58,5.9,5.36-.6,17.29.89,21.91,2,9.48.3,31.24-2.28,46.47-1.17-5.77-1-14.88-2.33-14.21-4.37,7.46,1.16,15.66,1.14,17.07-1.24-26.5-4.34-8.54,5.45-32.53,2.65-5.93-2.7-12.5-3.36-24.86-4.16,5.63-1.55,3.15-2.22,5.47-4.1,15.12,5.72,39.33.55,59.12,3.38,8.33,1.67,2.06,5.26,20.94,5.88l-16.22,1.74c17.84-1.58,4.19,1.68,18.93,2.32l-5.86-1.85c9-.37,12.31,0,17.31,1.31l-7.63-2.87c4.86-.35,13.85-.72,14,1,1.25-.69,1.69-1.25,1.69-1.74.95.48,3.24.78,8.93.69-3.33-.33-5.74-.15-5.81-1,21.69.68,5.07-3.1,18.51-2.82-2.13-.66,1.69-1.49,6.51-1.84-.32,4.51,26.3,5.1,33.34,7.6l-.08-.07,18.14,1.81c-3.68-.36.29-1.59,5.57-2.07l-.86,0c5.77-.7-6.85-4.9,10.44-3.6l9.09,1.34c-1.63-.17-.07-.85.79-1.2l9.35,1.23c14.32-4.22,27,2.37,43.87.3-4.86.36-12.27,0-9.09-1.33a31.63,31.63,0,0,1,10.72.65l-.85-.51,32.09,2.78c-2.6-1.51-20.56-1.63-12.53-3.35,4.74-2,14,.12,19.72.28-.74,1.19-11.37,2.24-.63,2.88,1.31-.58,11.52-1.81,6.71-2.67,11,1.22,27,2,36.79,4.06,3.12-.52-1.78-1-3.42-1.17l-.79.34c-6.62-.66-1-3.06-14-1.82-1.08-3.91,18.75-1.08,30.16-1.63l-18.19-2.65c30.64-5.36,72,.44,102.34.51-8.91,1.22-16.35.06-15.29,3.11,18.86,1.47,16.38.8,35.19,1.42l-1.62-.16c9.73-1.57,23,1.45,29.38-1.29-4.2-1.68-13.8,1.58-14-1.82l23.72.26c-7.45-2-23.72-.26-32.77-.74-6.52.19,13.12.47,10,2.69-22.14-.11-27.19-2.3-38.09-5.49-6.64-2.36,9.68-2.4,13.79-2.42,14.1,3.52,34.69,5.15,56.66,3.56l12.06-2.58c10.87,2.34,6.25,6.94,25.89,6.36l-5.86-1.85a53.26,53.26,0,0,1,9.2-.95c-8.44-1.4-17.54-3-25.17-4.43,11.17-3.94,32.09,1.94,48.52,2.73-.85-.5-6.6-.65-8.3-1.66,24.5-.94,50.16,3.74,69.09,4.36,8-1.72-15.72-1.14-11.82-3.7,10,1,21.19-1.25,23.85,1.11-4.35-3.37,22.86-.24,3.83-3.4,35.87-1.48,75.35,1.63,111.59,3.55-1.76-1-1.76-1.86-.23-2.55-12.27,0-30.29-.92-37.1-3.27,8.06-1.73,19.07,2.31,21.39,1.29-4.12-.84-12.29-.81-12.43-2.51,10.5-1.9,16.38.79,23.77,1.11l-4,.86c23,2.3,12.72,5.9,37.19,5,8.86-2.06-.08-1.69-.23-4.24,5.76,1,24.34-1.77,30.33.93l-14.81.21c10.37.72,20.17.71,27.36,1.59a5.74,5.74,0,0,0-3.54-1.32c8.23.82,18.8.61,23,2.3l2.31-2.73c-4.91,1.21-19.6,1.43-22.08-.09,1.41-2.39,16.27-.9,22.78-1.09-28.7-.76-29-5-53.34-3.23l4.1.84c-15.12,2.06-30.69-1.34-43.93-1.26,3.73-.55,4.48-1.55,2.74-2-29.3,2.13-58.11.53-91.5,1.82l-10-2.69-.63,2c-16.33.9-3.53-2.88-14.06-2.68,4,0,3.28.33,4.1.84-19-2.32-10.53,1.9-21.17,1.26,5.06,2.18,20.51.78,15.76,3.68-18.92-2.32-48.33-1-51.1-6-35.12,2-78.66-1.11-108.18-1.53-4,.86,2.51.68,1,1.36-11.67-2.85-39.17,2-39.36-.55-5.65.7-8,2.57-9.54,3.25a218.2,218.2,0,0,0-26-2.17l7,.7-.76.35-9.88-1,.37-.16c-23.69-.73-51.07-.11-72.56-2.84,12.38,1.66-3.12,3.07,2.73,4.07-10.93-4-37.12-4.13-58.36-3.72.09.85-1.55,1.53.94,2.2l-12.31-1.66,1.63,1c-22.06.74-46.07-3.76-60.63-1.85,9,.48,9,1.33,10,2.69-15.8-.1-30.7-.15-49.16-1.37,1,.25,1.63.53,1.66.84-4.84.35-10.65-.65-15.6-1.14l-.67,2c-9.44-.94-21.64.11-32.86-1.52-4.4,2.24-27.19-2.07-40.14-1.13-5-.49,10.8,2.34-3.1,2.22-2-4.41-18-.11-19.14-4.86l-12.15,1.73L921.15,565c-10.33,4.45-15.73-2-31.1-.58.81.51,2.46.68,1.67,1-5-.5-16.42-.8-7.54-2-8.19,0-36.07-1.08-23.56,1.43-.9-1.36,10.55-.21,15.51.29-.65,2-13,1.23-16,3.45a30.2,30.2,0,0,0-3.19-.91L855.16,569c-15.38-2.25-31-.63-42.23-3.53-.65.63-3.34,1.12-8.63,1l-.23-2.55-16.36,0,7.66,3.71c-18,.74-30.59-3.47-45.34-4.1-3.79,4.26-28.78-1.6-41.55,2.17L720,566.85c-24.62-.77-28.54,1.79-51.51.33,19.49-1.42,19.6-.56,48-4-28.48,1.79-49.22-2.39-75.3.07,1.74,1,8.29,1.67,1.91,2.71-5.09-2.19-24.58.08-20.72-2.48-8.09.87-9.51,3.25-14.46,3.6l-27.18-3.13.83.5c-46.21,5.92-86.27-4-132.64-1.44l.9,1.35-11.61-2c9.09,1.33-3.94,1.71-4.66,2.9l-29.71-3C403.16,563.44,404.91,566.15,412.2,565.62Zm391.22,1.14,7,.18a16.52,16.52,0,0,1,4.47.12l-4.47-.12C806.84,567.28,804.18,568.35,803.42,566.76Zm648.41,4.9c3.39,1.18-4.88.36-7.23.53l11.45.31C1457.64,571.81,1453.5,571.83,1451.83,571.66Zm-648,11.56-3.92,1.71-5-1.34Zm-99.81.15,10,1-.84.35-9.84-1ZM593.13,569.63c.63.1,1.2.17,1.92.33a14.28,14.28,0,0,1-1.92-.33c-7.69-1.23-10.74,1.82-17-1.14C583.81,566,588.73,568.58,593.13,569.63Zm175.35,0a37.81,37.81,0,0,0,7.4.32c-1.73-1-8.41-2.52-3.52-2.87,3.41,1.18,14.82,1.47,15,3.17C777.41,568.37,770.39,573.14,768.48,569.58Zm235,1.13-2.5.17,9.16,1.33Zm42.66,1.73c5.08,2.19,18.13,1.81,27.15,2.29,2.34-1.88-6.83-4.05-17.45-3.85C1043.37,569.22,1051.11,573.78,1046.1,572.44Zm-354.27.44,2.53,1.52-2.38.18,9.86,1c-13,2.09-22.22-1.79-28.83-2.45C678.79,573.26,694.6,577,691.83,572.88Zm445.22.63c9.09,1.33,25.5,3,24,4.51.58-2.89-12.59-4.21-16.69-4.2A37.35,37.35,0,0,1,1137.05,573.51Zm-.49,5.43c-13.19-1.31-14.1-2.66-24.16-5.36,13-1.22,16.62,2.5,15.07,4,9.09,1.33,7.33-.53,12.19-.89Zm-13.7-8.1-5.37.39c-6.36,1.2-7.68,4.48-16.59,1.2l16.59-1.2A24.28,24.28,0,0,1,1122.86,570.84Zm110.91.15-5.42-1c5.35.09,6,.53,5.42,1l4.51.84C1226.53,572.87,1232.58,571.87,1233.77,571Zm-84.59.78-15.58-.29C1134.5,572.84,1144.22,572.13,1149.18,571.77Zm81.11,1.78c-6.56.19-23.69.59-21.31.41C1210.54,572.43,1226.13,572.72,1230.29,573.55Zm343.94,4-9.82-.15,4.75-2ZM1459,579.1l2.42-1,5.72.15Zm-106.26.15c.51-.44.23-1-.65-1.47a10.24,10.24,0,0,1-3.7-.87,7.92,7.92,0,0,1,3.7.87,54.07,54.07,0,0,0,13.49-.41c-1.71-1-8.27-.82-10.81-1.5,9.72-2.4,31.55,4.83,25.32-2.11,4.12.83,18.19,2.66,13.32,3.86-11.13-.4-32.23.35-40.67,1.63-.49.37-1.42.66-3.33.72A16,16,0,0,1,1352.73,579.25Zm-143.21,1.5a35.85,35.85,0,0,1-6.55-.61c-3.46-.51-6.08-1.29-5.06-2.24,8.39.84,3,1.62,5.06,2.24A56.73,56.73,0,0,0,1209.52,580.75Zm-25.32.42,13.15,1.31-6.63-1.5,19.82,2.82C1199.17,585.19,1186,583,1184.2,581.17Zm-4.62,1.33-2.71-1.65,4.14,1.69-1.43,0,.62.38-22.14-1Zm-226.27-3.32c-8.3,5.72,19.58,4.06,23.91,6.82.93-1.91,9.32-4.89-12.31-4.82,18.69-1.93,11.71,3.7,22.84-1.09-9,.37-19.74-1.12-21.33-1.29l10.55-.2C971,575.05,960.73,580.34,953.31,579.18Zm-113.7.87-13.88-.13,13.14.47Zm-342.75,1.6c1,1.35-16.9,3.79-21.15,1.25C484.72,582.53,494.55,582.67,496.86,581.65Zm-147.27-.38,15.59,1.13c-3,3.07-13.93-.12-21.24.41C341.39,581.29,347.16,582.29,349.59,581.27Zm-101.49,0-5-.5,5.22,3Zm6.82,4c-3.12,1.36,7.53,2,10.05,1.83ZM163.5,588l6.5-.19-5.88-2.69Zm10.36-3.16c1.53,1.94.88,4.55,15.86,3.25.62-2-3.46-2,2.1-4.42-4.93-.49-9,.37-11.43.54,3.35.34,7.32-.53,8.24.83a47.63,47.63,0,0,1-14.77-.2c-.53-.69-1.36-1.3-3.33-1.61C170.58,583.81,171.85,584.38,173.86,584.8Zm54.26-2.14a20,20,0,0,0,4.47-.86l.9.52a8.36,8.36,0,0,1-5.37.34c-2.17.27-4.69.5-7.29.72-1.66,1.72,8.6,2.89,11.3,3.85-4.88-.49-9.1-2.17-15.57-1.13.85.5,0,.85,4.12.83l-8.94.37c-10.22-2.39-.46-3.13,9.09-3.92.31-.38,1-.77,2.83-1.21A12.14,12.14,0,0,1,228.12,582.66Zm-71.8-3.84,4.9.5c2.51.67.92,1.35,1.79,1.86C157.28,581,149.79,579.86,156.32,578.82ZM450,578.23c-3.25.52,4.25,2.53,11.56,2l-3.89,2.56c-.18-1.7-14.85-1.48-16.49-1.65C438.63,578.78,444.34,579.78,450,578.23Zm341.21-.06c2.66,3.22,21.35,1.28,25.48,2.13C807,581,784.91,581.75,791.25,578.17Zm32.4-1.31c5.11,0,6.56-.26,6,1.36,2.48.67,6.53-.19,9,.48-10,1.42-9.33-1.16-15.06-1.84-1.34,0-2.85,0-4.75-.14A28.17,28.17,0,0,1,823.65,576.86Zm-199.45-.2-6.79-2.36-10.61.21Zm-114.07-4.22c.87,1.35-11.32,1.39-13.85.72.77,1.78,8.94,1.55,15.45,1.74a26.52,26.52,0,0,0,4.28.24c-1.28-.13-2.69-.19-4.28-.24-2.44-.41-.74-1.33-.74-1.95l3.23-.52-9-.49Zm-200.6-1.92c-7.28,1.39-8.15.88-13,.39C298.06,570.22,304.58,570,309.53,570.52Zm261.06.37c-12.26.89,5.9,2.69-2.15,3.57l6.43-.19c-10.43,1.9-7.45-2-14.78-1.48l4.9-.35c3.89-1.71-7.52-1.17-8.44-2.52C562.28,569.22,575.47,570.53,570.59,570.89ZM298,569.38c-12.15,1.73-10-1.84-17.36-2.15C290.33,565.66,288.91,568.9,298,569.38ZM493.3,565.7l.77-.34-9.86-1-.79.35Z"/><path class="cls-4" d="M282.92,587.25a41.67,41.67,0,0,1-6.61,0C278.41,587.21,280.61,587.16,282.92,587.25Z"/><path class="cls-4" d="M853.4,589c.28-.46,1.34-.7,2.76-.85C856,588.42,855.3,588.7,853.4,589Z"/><path class="cls-4" d="M877.17,590.11c.3,0,.62,0,.9,0s.5.11.74.16Z"/><path class="cls-4" d="M1704.84,584.27c5.1,2.19-4.91.36-9,.37C1699.93,584.63,1701.51,583.09,1704.84,584.27Z"/><path class="cls-4" d="M1672.66,580.64a50.66,50.66,0,0,0,10.1,1.27A36.35,36.35,0,0,1,1672.66,580.64Z"/><path class="cls-4" d="M1698.92,581.58a139,139,0,0,1-16.16.33C1686.89,581.81,1690.38,581,1698.92,581.58Z"/><path class="cls-4" d="M1586,581.25c5.07,1.34,14.79.63,14.79.63-21.2,1.26,4.27,2.54,6,3.55C1593.58,585,1593.49,583.27,1586,581.25Z"/><path class="cls-4" d="M1557.88,580.56a53.6,53.6,0,0,0,5.88-.26A26.19,26.19,0,0,1,1557.88,580.56Z"/><path class="cls-4" d="M1550,581.87c-7.34-.31-9.93-1.83-13.29-3,8.89-1.09,14.56,1.33,21.17,1.7C1552.68,580.6,1547.59,580.43,1550,581.87Z"/><path class="cls-4" d="M1323.88,589.21c1.68.17,5.74.15,5.85,1l-12.29,0C1312.52,589.75,1321.42,589.39,1323.88,589.21Z"/><path class="cls-4" d="M1278.57,585.11c-9.82-.14-4.7,2-9.68,1.56l.56-2.89Z"/><path class="cls-4" d="M1284,570.49l2.89.29-3.31-.1Z"/><path class="cls-4" d="M1231.31,588l6.79,3.2C1229.86,590.36,1229.75,587.81,1231.31,588Z"/><polygon class="cls-4" points="1193.88 590.14 1199.64 591.13 1181.61 590.17 1193.88 590.14"/><polygon class="cls-4" points="1148.75 588.58 1147.16 589.26 1134.8 588.45 1148.75 588.58"/><path class="cls-4" d="M657.64,585.89c-1.87-2.71,17.82-1.58,23.55-2.29C677.27,587,665.49,582.47,657.64,585.89Z"/><path class="cls-4" d="M300,586l18.81.62C304.28,587.69,314.79,586.63,300,586Z"/></g><g class="cls-3"><path class="cls-4" d="M1750.06,692.59c.85.13,2.2.19,3.26.29C1750.22,693,1748.72,693,1750.06,692.59Z"/><path class="cls-4" d="M1793.49,694c-11.22,0-29,0-40.17-1.1C1763.27,692.54,1790.09,690.74,1793.49,694Z"/><path class="cls-4" d="M1748.07,687.33l14,1C1753.85,689.18,1755.36,687.65,1748.07,687.33Z"/><polygon class="cls-4" points="1753.15 690.37 1752.42 691.56 1744.97 690.4 1753.15 690.37"/><path class="cls-4" d="M1039.73,702.2c1.44.52,2.34,1.08,1.66,1.8Z"/><path class="cls-4" d="M1007.4,696.8c-2.9-.19-4.93-.27-6.67-.32A44.4,44.4,0,0,1,1007.4,696.8Z"/><path class="cls-4" d="M1069.09,701.7l-5.74.17A43.67,43.67,0,0,1,1069.09,701.7Z"/><path class="cls-4" d="M1427.8,697.16c5.34.86,10.41,1.64,14.25,2.17C1431.65,700.25,1430.76,698.3,1427.8,697.16Z"/><path class="cls-4" d="M858.82,679.45l-1.39,1C855.91,680,855.17,679.56,858.82,679.45Z"/><path class="cls-4" d="M999.65,680.88c.14.55-.17,1-.77,1.26-.56-.09-1.14-.14-1.67-.23Z"/><path class="cls-4" d="M1091.85,699.76c.08,0,.22-.06.32-.1l4.66.59C1094.33,700.44,1092.74,700.27,1091.85,699.76Z"/><path class="cls-4" d="M813.44,678.14a26.94,26.94,0,0,1-5.64-2.09C812.17,676.49,814.21,677.42,813.44,678.14Z"/><path class="cls-4" d="M999.93,696.48c-.06,0,0,0-.06,0,.24,0,.63,0,.86,0Z"/><path class="cls-4" d="M1046.35,681.92c-2.46-.16-4.77-.28-7.41-.49A23.64,23.64,0,0,1,1046.35,681.92Z"/><path class="cls-4" d="M1427.8,697.16l-4.51-.73A12.12,12.12,0,0,1,1427.8,697.16Z"/><path class="cls-4" d="M1712.53,694.74c-4.51,0-5.58-.66-6.43-1.35A32.19,32.19,0,0,1,1712.53,694.74Z"/><path class="cls-4" d="M80.59,698.92l-1.8,0A9.41,9.41,0,0,1,80.59,698.92Z"/><path class="cls-4" d="M253.47,701.47a12.41,12.41,0,0,1,2.28.77C254.28,702.48,253.45,702,253.47,701.47Z"/><path class="cls-4" d="M412.71,678.32c-11.29,1.39-22.95-1.45-32.78-1.59l3.35,1.18-9.91-1,.11,1.69c-16.37-.79-36.71,1-42.7-1.73l1.92,2.71-17.38-2.15,9.95,1.84c-19.52.57-49.17-1.55-53.34-1.53l1.76,1c-3.19.52-5.71-.15-9-.48l2.56,1.52c-29.41-.42-37.45,3-70.28,1.41-9,.36,5,.49,5.1,1.34-4.89,1.2-16.38.06-18.87-.62,2.6,2.37,16.44,1.65,5.93,3.55-7.46-1.17,5.09,2.19-8,1.72l-5.15-3c-7.31.52-1.46,2.37-13,2.07-13.2-1.32,16.14-3.44-5.1-3.89-10.65.2-22.4,7-43,5.4-17.8,1.59,9.37,4.73-15.26,4l15.77,2c-4.08.86-1.51,2.38-12.18,1.74a58.88,58.88,0,0,0-15.73-2.84c23.07,2.3-20.23,3.46,1.25,6.45l-8-.12c1,.12,1.25.41.72.64l-10.63.21c6.56.67,22.15,1,14.91,3.18l-15.41.56c4.11,1.68-1.53,2.38-.63,3.74l45.31,3.25c-1.78-1-8.3-1.67-5.87-2.7,12.09-.88,9.87,1.83,21.24.44l-5-1.34c.9.51,2.5.67,0,.84-4,.87-5.73-.14-5.76-1,4-1.71,15.44-.56,18.86.62,14.71-.22,3-3.07,6.27-3.59,7.61,2.86,24.57-.07,33.69,1.25l-5.86-1.85c11.2-2.24,21.23-.4,27.79.26l-2.54-1.52c15.59.29,23.32-4.83,35.2.56l-1.65-1c6.4-.47,16.11-1.6,22.24,0,.14-.63,1.23-1.42,3.82-1.61,3.46,2.08,10.11.51,19.54.13-6.26-.54-4.26-3.23-10.86-3.89,14.55-2.76,13.34,3,25.56,3,7.33-1.38-6.57-1.5-8.33-2.52,18.87,1.47,38.77-6.23,50.68-.83l-8.1,1.72c7.5,1.16,11.56,1.15,10.65.64a5.75,5.75,0,0,1-4.08-.83c22.66-2.79,35.44,4,58.31,2.87-1.7-1-5-1.34-5.11-2.19,10.52-1,10.25,5.23,27.25,3.13l-3.33-1.17c5.66-.7,9.86,1,9.1,1.33.44-4.58,36,.22,47.85-5.75,8.33,2.51,32.19,4.48,39.48,3.09,10.45-2.74-9.26-3-5.38-5.58,8.2,0,12.5,2.51,24.7,1.62.2,2.54-24.12,5.17-1.16,6.62l3.21-1.37a48.77,48.77,0,0,1-9,.37c-6.64-1.5,4-1.71,5.5-2.39l24.65.77c1.8,2.71-12.94,2.08-14.46,2.76,19.5-.57,43-4.55,61.11-2.74l-1.72-1c23.12,2.3,13.5-5,31.89-.61,9.72-.71-3.5-2.88,11.18-3.09,4.14,0,1.71,1,1,1.35,18,1,7.94-2.57,24.57-.08l-3.58-2.87c19.82,2,40.61,7,57.74,5.76-1-2.21-11.62-2-15.84-3.68,23.21,4,55.67.5,77.13,2.64-6.42,1.88,10.15,4.38-3.59,5.94-3.55-2.87-10-1-17.35-1.3,11.89,6.25,49.72-3,53.36,2.38l3.14-2.22c3.29.33,11.64,2,5.88,2.7l23.67-1.43c-8.31-1.67-25.83-5.52-31.33-3.13-6.73-2.35,9.7-1.56,3.73-4.25,15.84,3.68,9.74-1.56,26.14-.76-7.42,3.2,16.32,4.34,15.58,5.89,5.36-.6,17.29.89,21.91,2,9.48.3,31.24-2.29,46.47-1.18-5.77-1-14.88-2.33-14.21-4.36,7.46,1.16,15.66,1.13,17.07-1.25-26.5-4.33-8.54,5.46-32.53,2.65-5.92-2.7-12.5-3.36-24.86-4.16,5.63-1.55,3.15-2.22,5.47-4.1,15.13,5.72,39.33.56,59.12,3.38,8.33,1.67,2.06,5.26,20.94,5.88l-16.22,1.74c17.84-1.58,4.19,1.69,18.93,2.32l-5.86-1.85c9-.37,12.31,0,17.31,1.31l-7.63-2.87c4.86-.35,13.85-.72,14,1,1.24-.7,1.68-1.26,1.68-1.75,1,.48,3.24.78,8.93.69-3.33-.33-5.74-.14-5.81-1,21.69.67,5.07-3.1,18.51-2.83-2.13-.66,1.7-1.49,6.51-1.84-.32,4.51,26.31,5.1,33.35,7.6l-.09-.06,18.14,1.81c-3.68-.37.29-1.6,5.57-2.08l-.86,0c5.77-.7-6.85-4.89,10.44-3.59l9.09,1.33c-1.63-.16-.06-.85.79-1.2l9.36,1.23c14.31-4.21,27,2.37,43.86.3-4.86.36-12.26,0-9.09-1.33a31.63,31.63,0,0,1,10.72.65l-.84-.5,32.08,2.78c-2.6-1.52-20.56-1.64-12.53-3.36,4.75-2.05,14,.13,19.72.28-.74,1.19-11.36,2.25-.63,2.88,1.31-.58,11.52-1.81,6.71-2.67,11,1.22,27,1.95,36.79,4.07,3.13-.52-1.78-1-3.42-1.18l-.79.34c-6.62-.66-1-3-14-1.82-1.08-3.91,18.75-1.08,30.16-1.63l-18.19-2.65c30.64-5.36,72,.44,102.34.52-8.91,1.21-16.35.06-15.29,3.1,18.86,1.47,16.38.8,35.19,1.42l-1.62-.16c9.73-1.56,23,1.45,29.39-1.29-4.2-1.68-13.81,1.58-14-1.82l23.72.27c-7.45-2-23.72-.27-32.77-.75-6.52.19,13.12.47,10,2.69-22.14-.11-27.19-2.29-38.09-5.48-6.64-2.36,9.68-2.41,13.79-2.43,14.1,3.52,34.69,5.15,56.66,3.56l12.06-2.58c10.87,2.34,6.25,6.94,25.89,6.36l-5.86-1.85a54.3,54.3,0,0,1,9.21-1c-8.45-1.4-17.55-3-25.18-4.43,11.17-3.93,32.09,1.94,48.52,2.73-.85-.5-6.59-.65-8.3-1.66,24.5-.93,50.16,3.74,69.09,4.36,8-1.72-15.72-1.14-11.82-3.7,10,1,21.19-1.25,23.85,1.12-4.35-3.38,22.87-.25,3.83-3.41,35.87-1.48,75.35,1.63,111.59,3.55-1.76-1-1.76-1.86-.23-2.55-12.27,0-30.29-.92-37.1-3.27,8.06-1.73,19.07,2.31,21.39,1.29-4.12-.84-12.29-.81-12.43-2.51,10.5-1.9,16.38.79,23.77,1.11l-4,.86c23,2.3,12.71,5.9,37.18,5,8.86-2.06-.08-1.69-.23-4.24,5.76,1,24.34-1.77,30.34.93l-14.81.22c10.36.71,20.16.7,27.35,1.59a5.67,5.67,0,0,0-3.54-1.33c8.23.82,18.8.61,23,2.31l2.31-2.73c-4.91,1.2-19.6,1.42-22.08-.1,1.41-2.38,16.27-.9,22.78-1.09-28.69-.76-29-5-53.34-3.23l4.1.84c-15.12,2.06-30.69-1.34-43.93-1.25,3.73-.56,4.49-1.56,2.74-2-29.3,2.12-58.11.52-91.49,1.81l-10.05-2.69L1536,686c-16.34.9-3.54-2.88-14.07-2.68,4,0,3.28.33,4.1.84-19-2.32-10.53,1.9-21.17,1.26,5.06,2.18,20.51.78,15.76,3.68-18.91-2.32-48.33-1-51.1-6-35.12,2-78.66-1.1-108.18-1.53-4,.86,2.52.68,1,1.36-11.67-2.85-39.17,2-39.36-.55-5.65.7-8,2.57-9.54,3.25a218.2,218.2,0,0,0-26-2.17l7,.71-.76.34-9.89-1,.37-.16c-23.69-.73-51.07-.11-72.56-2.84,12.38,1.66-3.12,3.07,2.73,4.07-10.92-4-37.12-4.13-58.36-3.72.09.85-1.55,1.53.94,2.21l-12.31-1.67,1.63,1c-22.06.75-46.07-3.76-60.63-1.85,9,.48,9,1.33,10,2.69-15.8-.1-30.7-.15-49.16-1.37,1,.25,1.63.53,1.66.84-4.84.35-10.65-.65-15.6-1.14l-.67,2c-9.44-.94-21.64.1-32.86-1.52-4.4,2.23-27.18-2.08-40.14-1.13-5-.5,10.8,2.33-3.1,2.21-2-4.41-18-.11-19.14-4.86l-12.15,1.74-2.69-2.38c-10.33,4.45-15.73-2-31.1-.58.82.52,2.46.68,1.67,1-5-.49-16.42-.8-7.54-2-8.19,0-36.06-1.08-23.56,1.43-.9-1.36,10.55-.2,15.51.29-.65,2-13,1.23-16,3.45a30.2,30.2,0,0,0-3.19-.91l-1.76,1.26c-15.38-2.25-31-.63-42.23-3.53-.65.63-3.34,1.12-8.63,1l-.23-2.55-16.36,0,7.66,3.71c-18,.74-30.59-3.47-45.33-4.1-3.8,4.26-28.79-1.6-41.56,2.17l11.52,1.15c-24.62-.77-28.54,1.79-51.5.34,19.48-1.42,19.59-.57,48-4-28.49,1.78-49.22-2.4-75.31.06,1.75,1,8.29,1.67,1.91,2.71-5.09-2.19-24.58.08-20.71-2.48-8.1.87-9.52,3.25-14.47,3.61l-27.18-3.14.83.5c-46.21,5.92-86.26-4-132.64-1.44l.9,1.36-11.61-2c9.09,1.33-3.94,1.71-4.66,2.9l-29.7-3C403.67,676.14,405.42,678.85,412.71,678.32Zm391.22,1.14,7,.19a16.84,16.84,0,0,1,4.46.11l-4.46-.11C807.35,680,804.7,681.05,803.93,679.46Zm648.41,4.9c3.39,1.18-4.88.36-7.23.53l11.45.31C1458.15,684.52,1454,684.53,1452.34,684.36Zm-648,11.56-3.92,1.71-5-1.34Zm-99.81.15,10,1-.84.35-9.84-1ZM593.64,682.33c.63.1,1.21.17,1.92.34a16.1,16.1,0,0,1-1.92-.34c-7.69-1.23-10.74,1.83-17-1.14C584.32,678.66,589.25,681.28,593.64,682.33Zm175.35,0a38.53,38.53,0,0,0,7.4.31c-1.73-1-8.41-2.51-3.51-2.87,3.4,1.18,14.81,1.48,15,3.17C777.93,681.07,770.91,685.84,769,682.29Zm235,1.12-2.5.18,9.16,1.32Zm42.66,1.73c5.08,2.19,18.13,1.81,27.15,2.29,2.34-1.88-6.83-4-17.45-3.85C1043.89,681.92,1051.62,686.48,1046.61,685.14Zm-354.27.44,2.53,1.52-2.38.18,9.86,1c-13,2.09-22.21-1.79-28.83-2.45C679.3,686,695.11,689.65,692.34,685.58Zm445.22.63c9.09,1.33,25.5,3,24,4.51.58-2.89-12.59-4.21-16.68-4.19A38.32,38.32,0,0,1,1137.56,686.21Zm-.49,5.44c-13.19-1.32-14.09-2.67-24.16-5.36,13-1.23,16.62,2.49,15.07,4,9.09,1.34,7.33-.53,12.19-.88Zm-13.7-8.11-5.37.39c-6.36,1.2-7.68,4.48-16.59,1.21l16.59-1.21A24.28,24.28,0,0,1,1123.37,683.54Zm110.91.15-5.41-1c5.34.1,6,.53,5.41,1l4.51.84C1227,685.58,1233.09,684.57,1234.28,683.69Zm-84.58.78-15.59-.29C1135,685.54,1144.73,684.83,1149.7,684.47Zm81.11,1.79c-6.57.19-23.7.58-21.32.4C1211.05,685.13,1226.64,685.42,1230.81,686.26Zm343.93,4-9.82-.15,4.75-2.05Zm-115.24,1.55,2.43-1,5.71.15Zm-106.26.14c.51-.44.23-1-.65-1.47a10.33,10.33,0,0,1-3.7-.86,7.77,7.77,0,0,1,3.7.86,54.07,54.07,0,0,0,13.49-.41c-1.71-1-8.27-.82-10.8-1.49,9.71-2.41,31.54,4.82,25.31-2.12,4.12.83,18.19,2.66,13.33,3.86-11.13-.4-32.23.35-40.68,1.63-.49.37-1.42.66-3.33.72A16.33,16.33,0,0,1,1353.24,692ZM1210,693.45a34.86,34.86,0,0,1-6.55-.61c-3.46-.51-6.08-1.29-5.06-2.24,8.39.84,3,1.62,5.06,2.24A56.73,56.73,0,0,0,1210,693.45Zm-25.32.42,13.15,1.31-6.63-1.5,19.82,2.82C1199.68,697.89,1186.47,695.73,1184.71,693.87Zm-4.62,1.33-2.71-1.65,4.14,1.69-1.43,0,.62.38-22.14-1Zm-226.27-3.32c-8.3,5.73,19.59,4.06,23.91,6.82.93-1.91,9.32-4.89-12.31-4.82,18.7-1.92,11.71,3.7,22.84-1.09-9,.37-19.73-1.12-21.33-1.29l10.55-.2C971.5,687.76,961.24,693.05,953.82,691.88Zm-113.7.87-13.88-.13,13.14.47Zm-342.75,1.6c1,1.35-16.89,3.79-21.15,1.25C485.23,695.23,495.07,695.37,497.37,694.35ZM350.1,694l15.6,1.13c-3,3.07-13.94-.12-21.25.41C341.91,694,347.67,695,350.1,694Zm-101.49,0-5-.5,5.22,3Zm6.83,4c-3.13,1.37,7.53,2,10,1.84ZM164,700.67l6.5-.19-5.88-2.7Zm10.36-3.17c1.53,1.94.88,4.55,15.86,3.25.62-2-3.45-2,2.1-4.42-4.93-.49-9,.37-11.43.55,3.36.33,7.32-.53,8.24.82a47.63,47.63,0,0,1-14.77-.2c-.52-.69-1.36-1.3-3.33-1.61C171.09,696.51,172.36,697.08,174.37,697.5Zm54.26-2.14a20,20,0,0,0,4.47-.86l.9.52a8.36,8.36,0,0,1-5.37.34c-2.17.27-4.69.5-7.29.72-1.66,1.72,8.6,2.9,11.3,3.86-4.88-.5-9.1-2.18-15.57-1.14.85.51,0,.85,4.12.83l-8.94.38c-10.22-2.4-.45-3.14,9.09-3.93.31-.38,1-.77,2.83-1.21A12.14,12.14,0,0,1,228.63,695.36Zm-71.79-3.84,4.89.5c2.51.67.92,1.35,1.79,1.86C157.79,693.73,150.3,692.56,156.84,691.52Zm293.71-.59c-3.25.52,4.26,2.54,11.56,2l-3.89,2.56c-.18-1.7-14.84-1.48-16.49-1.65C439.14,691.48,444.85,692.48,450.55,690.93Zm341.21-.06c2.66,3.22,21.35,1.29,25.48,2.13C807.52,693.7,785.42,694.45,791.76,690.87Zm32.4-1.31c5.11,0,6.56-.26,6,1.36,2.48.67,6.53-.19,9,.48-10,1.42-9.33-1.16-15.06-1.84-1.34,0-2.85,0-4.75-.13A28.31,28.31,0,0,1,824.16,689.56Zm-199.44-.2-6.8-2.36-10.61.21Zm-114.08-4.22c.87,1.36-11.32,1.39-13.85.72.77,1.78,8.95,1.56,15.45,1.74a26.52,26.52,0,0,0,4.28.24c-1.27-.13-2.69-.19-4.28-.24-2.44-.41-.74-1.33-.74-2l3.23-.52-9-.49ZM310,683.22c-7.28,1.39-8.15.89-13.05.39C298.57,682.92,305.09,682.73,310,683.22Zm261.06.37c-12.26.89,5.9,2.7-2.15,3.57l6.43-.18c-10.43,1.89-7.45-2-14.78-1.49l4.91-.35c3.88-1.71-7.53-1.17-8.44-2.52C562.79,681.92,576,683.23,571.1,683.59Zm-272.58-1.51c-12.15,1.74-10-1.84-17.36-2.15C290.84,678.37,289.42,681.6,298.52,682.08Zm195.29-3.68.77-.33-9.86-1-.78.35Z"/><path class="cls-4" d="M283.43,700a40.36,40.36,0,0,1-6.6,0C278.92,699.91,281.12,699.87,283.43,700Z"/><path class="cls-4" d="M853.92,701.7c.27-.46,1.33-.7,2.75-.85C856.49,701.12,855.81,701.4,853.92,701.7Z"/><path class="cls-4" d="M877.68,702.82h.9l.74.15Z"/><path class="cls-4" d="M1705.35,697c5.1,2.19-4.91.36-9,.37C1700.44,697.33,1702,695.79,1705.35,697Z"/><path class="cls-4" d="M1673.17,693.34a50,50,0,0,0,10.1,1.27A36.35,36.35,0,0,1,1673.17,693.34Z"/><path class="cls-4" d="M1699.43,694.28a139,139,0,0,1-16.16.33C1687.4,694.51,1690.89,693.68,1699.43,694.28Z"/><path class="cls-4" d="M1586.47,694c5.06,1.34,14.78.63,14.78.63-21.2,1.26,4.27,2.54,6,3.55C1594.09,697.66,1594,696,1586.47,694Z"/><path class="cls-4" d="M1558.39,693.27a53.37,53.37,0,0,0,5.88-.27A26.19,26.19,0,0,1,1558.39,693.27Z"/><path class="cls-4" d="M1550.51,694.58c-7.34-.32-9.93-1.84-13.29-3,8.89-1.1,14.56,1.32,21.17,1.7C1553.19,693.3,1548.1,693.13,1550.51,694.58Z"/><path class="cls-4" d="M1324.39,701.91c1.68.17,5.74.16,5.85,1L1318,703C1313,702.46,1321.93,702.09,1324.39,701.91Z"/><path class="cls-4" d="M1279.08,697.81c-9.82-.13-4.7,2.06-9.67,1.56l.55-2.89Z"/><path class="cls-4" d="M1284.54,683.2l2.89.28-3.31-.1Z"/><path class="cls-4" d="M1231.82,700.68l6.79,3.2C1230.37,703.06,1230.26,700.51,1231.82,700.68Z"/><polygon class="cls-4" points="1194.39 702.84 1200.15 703.83 1182.12 702.87 1194.39 702.84"/><polygon class="cls-4" points="1149.27 701.28 1147.67 701.96 1135.31 701.15 1149.27 701.28"/><path class="cls-4" d="M658.15,698.59c-1.87-2.71,17.82-1.58,23.55-2.28C677.78,699.72,666,695.17,658.15,698.59Z"/><path class="cls-4" d="M300.55,698.71l18.81.62C304.79,700.39,315.3,699.34,300.55,698.71Z"/></g><g class="cls-3"><path class="cls-4" d="M1750.57,805.29c.86.13,2.2.19,3.27.29C1750.73,805.68,1749.23,805.65,1750.57,805.29Z"/><path class="cls-4" d="M1794,806.68c-11.22,0-29,0-40.16-1.1C1763.79,805.24,1790.6,803.44,1794,806.68Z"/><path class="cls-4" d="M1748.58,800l14,1C1754.36,801.88,1755.87,800.35,1748.58,800Z"/><polygon class="cls-4" points="1753.66 803.07 1752.93 804.26 1745.48 803.1 1753.66 803.07"/><path class="cls-4" d="M1040.24,814.9c1.45.52,2.34,1.08,1.66,1.8Z"/><path class="cls-4" d="M1007.91,809.51c-2.9-.2-4.93-.28-6.67-.33A43.31,43.31,0,0,1,1007.91,809.51Z"/><path class="cls-4" d="M1069.6,814.41l-5.74.16A42,42,0,0,1,1069.6,814.41Z"/><path class="cls-4" d="M1428.32,809.86c5.33.86,10.4,1.64,14.24,2.18C1432.16,813,1431.27,811,1428.32,809.86Z"/><path class="cls-4" d="M859.33,792.16l-1.39,1C856.43,792.68,855.68,792.26,859.33,792.16Z"/><path class="cls-4" d="M1000.16,793.58c.14.55-.17,1-.77,1.26-.56-.08-1.13-.14-1.67-.23Z"/><path class="cls-4" d="M1092.36,812.46c.08,0,.22-.06.32-.1l4.67.6C1094.85,813.14,1093.26,813,1092.36,812.46Z"/><path class="cls-4" d="M814,790.85a26.84,26.84,0,0,1-5.65-2.1C812.68,789.19,814.72,790.12,814,790.85Z"/><path class="cls-4" d="M1000.45,809.19c-.07,0,0,0-.07-.05l.86,0C1000.94,809.19,1000.74,809.17,1000.45,809.19Z"/><path class="cls-4" d="M1046.86,794.62c-2.46-.16-4.77-.28-7.41-.49A24,24,0,0,1,1046.86,794.62Z"/><path class="cls-4" d="M1428.32,809.86c-1.51-.24-3-.47-4.52-.73A12.22,12.22,0,0,1,1428.32,809.86Z"/><path class="cls-4" d="M1713,807.44c-4.51,0-5.58-.66-6.43-1.35A32.91,32.91,0,0,1,1713,807.44Z"/><path class="cls-4" d="M81.1,811.63l-1.8,0A9.27,9.27,0,0,1,81.1,811.63Z"/><path class="cls-4" d="M254,814.18a12.8,12.8,0,0,1,2.29.76C254.79,815.19,254,814.74,254,814.18Z"/><path class="cls-4" d="M413.22,791c-11.29,1.4-23-1.45-32.78-1.59l3.35,1.18-9.91-1,.12,1.7c-16.38-.8-36.72,1-42.71-1.74l1.92,2.72-17.38-2.16,9.95,1.84c-19.52.57-49.17-1.54-53.34-1.53l1.76,1c-3.19.52-5.71-.15-9-.47l2.57,1.51c-29.41-.41-37.46,3-70.29,1.41-8.94.37,5,.5,5.1,1.34-4.89,1.21-16.38.06-18.87-.61,2.6,2.36,16.44,1.64,5.93,3.54-7.46-1.17,5.09,2.19-8,1.73l-5.15-3c-7.31.53-1.46,2.37-13,2.08-13.19-1.33,16.14-3.45-5.1-3.89-10.65.2-22.4,7-43,5.39-17.81,1.59,9.36,4.73-15.27,3.95l15.77,2c-4.08.85-1.51,2.37-12.18,1.73a59.28,59.28,0,0,0-15.73-2.84c23.07,2.3-20.22,3.46,1.25,6.45l-8-.11c1,.11,1.25.41.72.64l-10.63.2c6.56.67,22.16.95,14.91,3.18l-15.41.56c4.11,1.68-1.53,2.38-.63,3.74l45.31,3.25c-1.78-1-8.3-1.67-5.87-2.69,12.09-.89,9.88,1.82,21.24.43l-5-1.34c.9.51,2.5.67,0,.84-4,.87-5.73-.14-5.76-1,4-1.71,15.45-.56,18.86.62,14.72-.22,3-3.07,6.27-3.59,7.61,2.86,24.57-.07,33.69,1.26L173,815.88c11.2-2.24,21.22-.4,27.78.26l-2.54-1.52c15.59.29,23.33-4.83,35.2.57l-1.65-1c6.4-.47,16.11-1.6,22.24,0,.14-.64,1.23-1.43,3.82-1.62,3.46,2.09,10.11.51,19.54.14-6.26-.55-4.26-3.24-10.86-3.9,14.55-2.76,13.34,3,25.56,3,7.33-1.38-6.57-1.5-8.33-2.51,18.87,1.46,38.77-6.24,50.68-.84l-8.1,1.72c7.5,1.16,11.57,1.15,10.65.65a5.8,5.8,0,0,1-4.08-.84c22.66-2.79,35.44,4,58.31,2.87-1.7-1-5-1.34-5.11-2.19,10.53-1,10.25,5.23,27.26,3.14L410,812.59c5.66-.7,9.86,1,9.1,1.33.44-4.58,36,.22,47.85-5.75,8.33,2.52,32.19,4.48,39.48,3.09,10.46-2.74-9.26-3-5.38-5.58,8.2,0,12.5,2.51,24.7,1.62.2,2.54-24.12,5.17-1.16,6.62l3.21-1.37a47.9,47.9,0,0,1-9,.37c-6.64-1.5,4-1.71,5.51-2.39l24.64.77c1.8,2.71-12.94,2.08-14.46,2.76,19.5-.57,43-4.54,61.11-2.74l-1.72-1c23.13,2.3,13.5-5,31.9-.61,9.71-.71-3.51-2.88,11.17-3.09,4.14,0,1.71,1,1,1.35,18,1,7.94-2.57,24.58-.08L658.92,805c19.83,2,40.61,7,57.74,5.76-1-2.21-11.62-2-15.84-3.68,23.21,4,55.67.5,77.13,2.64-6.41,1.88,10.15,4.38-3.59,5.95-3.55-2.87-10-1-17.35-1.31,11.89,6.25,49.72-3,53.36,2.38l3.14-2.21c3.29.32,11.65,2,5.88,2.69l23.67-1.42c-8.31-1.68-25.83-5.53-31.33-3.14-6.73-2.35,9.7-1.56,3.74-4.25,15.83,3.68,9.73-1.56,26.13-.76-7.42,3.2,16.32,4.34,15.58,5.89,5.37-.59,17.29.89,21.91,2,9.49.3,31.24-2.29,46.47-1.18-5.76-1-14.88-2.33-14.21-4.36,7.46,1.16,15.66,1.13,17.07-1.25-26.5-4.33-8.53,5.46-32.53,2.65-5.92-2.7-12.5-3.36-24.85-4.16,5.62-1.55,3.15-2.22,5.46-4.1,15.13,5.72,39.33.56,59.12,3.38,8.33,1.67,2.06,5.26,20.94,5.88l-16.22,1.75c17.84-1.59,4.19,1.68,18.93,2.31l-5.86-1.85c9-.36,12.31,0,17.31,1.31l-7.62-2.86c4.86-.36,13.84-.72,14,1,1.25-.7,1.68-1.26,1.68-1.74,1,.47,3.24.78,8.93.68-3.33-.32-5.73-.14-5.81-1,21.69.67,5.07-3.1,18.51-2.83-2.12-.66,1.7-1.48,6.51-1.84-.32,4.51,26.31,5.11,33.35,7.6l-.09-.06,18.14,1.81c-3.67-.37.29-1.6,5.57-2.08l-.86,0c5.77-.7-6.85-4.9,10.44-3.6l9.09,1.33c-1.63-.16-.06-.85.79-1.19l9.36,1.22c14.31-4.21,27,2.37,43.86.31-4.86.35-12.26,0-9.09-1.34a31.63,31.63,0,0,1,10.72.65l-.84-.5,32.09,2.78c-2.61-1.52-20.57-1.63-12.54-3.35,4.75-2.06,14,.12,19.72.27-.74,1.19-11.36,2.25-.63,2.89,1.31-.59,11.52-1.82,6.71-2.67,11,1.21,27,2,36.8,4.06,3.12-.52-1.79-1-3.43-1.18l-.79.34c-6.62-.66-1-3-14-1.82-1.09-3.91,18.74-1.08,30.15-1.62l-18.19-2.66c30.64-5.36,72,.44,102.34.52-8.9,1.22-16.35.06-15.29,3.11,18.86,1.46,16.39.79,35.19,1.41l-1.61-.16c9.72-1.56,23,1.45,29.38-1.29-4.2-1.68-13.81,1.58-14-1.82l23.73.27c-7.46-2-23.73-.27-32.78-.75-6.52.19,13.12.47,10,2.69-22.14-.1-27.19-2.29-38.09-5.48-6.63-2.36,9.68-2.41,13.79-2.43,14.1,3.52,34.69,5.15,56.66,3.56l12.06-2.58c10.88,2.34,6.25,6.94,25.89,6.36l-5.86-1.85a54.3,54.3,0,0,1,9.21-1c-8.45-1.4-17.55-3-25.18-4.43,11.17-3.93,32.1,1.94,48.52,2.73-.85-.5-6.59-.65-8.3-1.66,24.5-.93,50.16,3.74,69.09,4.36,8-1.72-15.72-1.14-11.82-3.69,10,1,21.19-1.26,23.85,1.11-4.35-3.38,22.87-.25,3.83-3.41,35.87-1.47,75.35,1.63,111.59,3.55-1.75-1-1.75-1.86-.23-2.55-12.27.05-30.29-.92-37.1-3.27,8.06-1.73,19.07,2.31,21.39,1.29-4.12-.83-12.29-.81-12.43-2.51,10.5-1.9,16.38.8,23.78,1.12l-4,.86c23,2.3,12.71,5.9,37.18,5,8.86-2.06-.08-1.69-.23-4.24,5.76,1,24.34-1.77,30.34.93l-14.81.22c10.36.71,20.17.7,27.35,1.59a5.64,5.64,0,0,0-3.54-1.33c8.23.82,18.8.61,23,2.31l2.32-2.73c-4.92,1.2-19.61,1.42-22.09-.1,1.42-2.38,16.27-.9,22.78-1.09-28.69-.76-29-5-53.34-3.22l4.1.83c-15.11,2.07-30.68-1.34-43.93-1.25,3.73-.56,4.49-1.55,2.74-2-29.29,2.13-58.11.52-91.49,1.81l-10-2.68-.62,2c-16.34.9-3.54-2.88-14.07-2.68,4,0,3.28.33,4.1.84-19-2.31-10.53,1.9-21.17,1.26,5.06,2.19,20.51.78,15.76,3.68-18.91-2.31-48.33-1-51.1-5.95-35.12,2-78.65-1.1-108.18-1.53-4,.87,2.52.68,1,1.37-11.67-2.85-39.17,2-39.36-.56a24,24,0,0,0-9.53,3.25,218.71,218.71,0,0,0-26-2.16l7,.7-.76.34-9.88-1,.36-.16c-23.69-.72-51.07-.11-72.56-2.84,12.38,1.66-3.12,3.07,2.73,4.07-10.92-4-37.11-4.13-58.36-3.72.1.85-1.55,1.53.94,2.21l-12.31-1.67,1.63,1c-22.06.75-46.07-3.76-60.63-1.84,9,.48,9,1.33,10,2.68-15.8-.1-30.7-.15-49.16-1.37,1,.25,1.63.53,1.66.84-4.84.36-10.65-.65-15.6-1.14l-.67,2c-9.44-.94-21.63.1-32.86-1.52-4.4,2.23-27.18-2.07-40.14-1.13-5-.5,10.8,2.34-3.1,2.21-2-4.41-18-.11-19.14-4.86l-12.15,1.74-2.69-2.37c-10.33,4.44-15.73-2-31.1-.58.82.51,2.46.67,1.67,1-5-.49-16.42-.79-7.54-2-8.19,0-36.06-1.08-23.56,1.43-.9-1.36,10.55-.2,15.51.29-.65,2-13,1.23-16,3.45a32,32,0,0,0-3.19-.91l-1.75,1.26c-15.39-2.24-31-.63-42.23-3.52-.65.63-3.35,1.11-8.64,1l-.23-2.55-16.36.06,7.66,3.7c-17.95.74-30.59-3.47-45.33-4.09-3.79,4.25-28.79-1.61-41.56,2.16L721,792.25c-24.62-.77-28.54,1.8-51.5.34,19.48-1.42,19.59-.57,48-4.05-28.49,1.78-49.22-2.4-75.31.07,1.75,1,8.29,1.66,1.91,2.7-5.09-2.19-24.58.08-20.71-2.48-8.1.87-9.51,3.26-14.47,3.61l-27.18-3.14.83.51c-46.21,5.92-86.26-4-132.64-1.45l.9,1.36-11.61-2c9.1,1.33-3.94,1.7-4.65,2.89l-29.71-3C404.18,788.84,405.93,791.55,413.22,791Zm391.22,1.14,7,.19a16.84,16.84,0,0,1,4.46.11l-4.46-.11C807.86,792.68,805.21,793.76,804.44,792.16Zm648.41,4.9c3.39,1.18-4.87.36-7.23.53l11.45.31C1458.66,797.22,1454.52,797.23,1452.85,797.06Zm-648,11.56-3.92,1.71-5-1.34Zm-99.81.15,10,1-.83.34-9.85-1ZM594.15,795c.63.1,1.21.17,1.92.34a16.1,16.1,0,0,1-1.92-.34c-7.68-1.23-10.74,1.83-17-1.14C584.83,791.36,589.76,794,594.15,795Zm175.35,0a38.53,38.53,0,0,0,7.4.31c-1.73-1-8.41-2.51-3.51-2.87,3.4,1.18,14.81,1.48,15,3.18C778.44,793.77,771.42,798.55,769.5,795Zm235,1.12-2.5.18,9.16,1.32Zm42.66,1.73c5.08,2.19,18.13,1.81,27.16,2.29,2.33-1.88-6.83-4-17.45-3.85C1044.4,794.62,1052.13,799.18,1047.12,797.84Zm-354.26.45,2.52,1.51L693,800l9.86,1c-13,2.08-22.21-1.8-28.83-2.46C679.81,798.67,695.62,802.35,692.86,798.29Zm445.21.62c9.09,1.33,25.5,3,24,4.51.58-2.89-12.59-4.21-16.68-4.19A38.32,38.32,0,0,1,1138.07,798.91Zm-.49,5.44c-13.19-1.32-14.09-2.67-24.16-5.36,13-1.23,16.62,2.49,15.07,4,9.09,1.34,7.33-.53,12.19-.88Zm-13.7-8.11-5.37.4c-6.36,1.19-7.68,4.47-16.59,1.2l16.59-1.2A23.62,23.62,0,0,1,1123.88,796.24Zm110.91.15-5.41-1c5.34.1,6,.53,5.41,1l4.52.84C1227.55,798.28,1233.6,797.28,1234.79,796.39Zm-84.58.78-15.59-.29C1135.52,798.24,1145.24,797.53,1150.21,797.17Zm81.11,1.79c-6.57.19-23.69.58-21.31.4C1211.56,797.83,1227.15,798.12,1231.32,799Zm343.93,4-9.82-.15,4.75-2ZM1460,804.51l2.43-1,5.71.16Zm-106.26.15c.51-.45.24-1-.65-1.48a10.33,10.33,0,0,1-3.7-.86,7.74,7.74,0,0,1,3.7.86,54.07,54.07,0,0,0,13.49-.41c-1.71-1-8.27-.82-10.8-1.49,9.71-2.41,31.54,4.82,25.31-2.12,4.12.83,18.19,2.66,13.33,3.86-11.13-.4-32.23.35-40.68,1.64a6.13,6.13,0,0,1-3.33.71A15.82,15.82,0,0,1,1353.75,804.66Zm-143.21,1.49a35,35,0,0,1-6.55-.61c-3.45-.51-6.08-1.29-5.06-2.24,8.39.84,3,1.63,5.06,2.24A56.73,56.73,0,0,0,1210.54,806.15Zm-25.31.42,13.14,1.31-6.62-1.5,19.81,2.82C1200.19,810.59,1187,808.43,1185.23,806.57Zm-4.63,1.34-2.71-1.66,4.15,1.69-1.44,0,.62.37-22.14-.95Zm-226.27-3.32c-8.29,5.72,19.59,4.06,23.91,6.82.93-1.92,9.33-4.89-12.3-4.83,18.69-1.92,11.7,3.71,22.83-1.08-8.95.36-19.73-1.13-21.33-1.3L978,804C972,800.46,961.75,805.75,954.33,804.59Zm-113.69.87-13.89-.13,13.14.47Zm-342.76,1.59c1,1.35-16.89,3.79-21.14,1.25C485.74,807.93,495.58,808.07,497.88,807.05Zm-147.27-.38,15.6,1.14c-3,3.06-13.94-.13-21.25.4C342.42,806.7,348.18,807.7,350.61,806.67Zm-101.49,0-5-.49,5.22,3ZM256,810.7c-3.13,1.37,7.53,2,10,1.84Zm-91.43,2.67,6.51-.19-5.89-2.7Zm10.36-3.17c1.53,1.94.88,4.55,15.86,3.25.62-2-3.45-2,2.11-4.42-4.94-.49-9,.38-11.44.55,3.36.33,7.33-.53,8.24.82a47.63,47.63,0,0,1-14.77-.2c-.52-.69-1.36-1.3-3.33-1.61C171.6,809.21,172.87,809.78,174.88,810.2Zm54.26-2.14a20.69,20.69,0,0,0,4.47-.85l.9.51a8.3,8.3,0,0,1-5.37.34c-2.17.27-4.69.5-7.29.73-1.66,1.71,8.6,2.89,11.3,3.85-4.88-.49-9.1-2.18-15.57-1.14.86.51,0,.85,4.12.83l-8.93.38c-10.23-2.4-.46-3.14,9.08-3.92.31-.38,1-.78,2.84-1.22A12.32,12.32,0,0,1,229.14,808.06Zm-71.79-3.83,4.89.49c2.51.67.92,1.35,1.79,1.86C158.3,806.43,150.81,805.26,157.35,804.23Zm293.71-.6c-3.25.52,4.26,2.54,11.56,2l-3.88,2.55c-.19-1.69-14.85-1.48-16.5-1.64C439.65,804.18,445.36,805.18,451.06,803.63Zm341.21-.06c2.66,3.22,21.35,1.29,25.48,2.13C808,806.41,785.93,807.16,792.27,803.57Zm32.4-1.3c5.11,0,6.57-.27,6,1.35,2.47.67,6.52-.19,9,.48-10,1.42-9.33-1.15-15.06-1.83-1.34,0-2.85,0-4.75-.14A27.07,27.07,0,0,1,824.67,802.27Zm-199.44-.21-6.8-2.35-10.61.2Zm-114.08-4.22c.87,1.36-11.32,1.4-13.85.72.78,1.79,8.95,1.56,15.45,1.75a26.87,26.87,0,0,0,4.28.23c-1.27-.13-2.68-.19-4.28-.23-2.44-.42-.74-1.33-.74-2l3.23-.52-9-.48Zm-200.6-1.91c-7.28,1.38-8.14.88-13,.38C299.08,795.63,305.6,795.43,310.55,795.93Zm261.07.36c-12.27.89,5.89,2.7-2.16,3.57l6.43-.18c-10.43,1.89-7.44-2-14.78-1.48l4.91-.36c3.88-1.71-7.52-1.16-8.44-2.52C563.3,794.62,576.5,795.94,571.62,796.29ZM299,794.78c-12.15,1.74-10-1.84-17.36-2.15C291.35,791.07,289.93,794.3,299,794.78Zm195.29-3.68.77-.33-9.86-1-.78.34Z"/><path class="cls-4" d="M284,812.65a41.91,41.91,0,0,1-6.61.05C279.43,812.61,281.63,812.57,284,812.65Z"/><path class="cls-4" d="M854.43,814.41c.27-.46,1.33-.7,2.75-.86C857,813.82,856.32,814.1,854.43,814.41Z"/><path class="cls-4" d="M878.19,815.52h.9l.74.16Z"/><path class="cls-4" d="M1705.86,809.67c5.1,2.19-4.9.36-9,.37C1701,810,1702.53,808.5,1705.86,809.67Z"/><path class="cls-4" d="M1673.68,806a49.32,49.32,0,0,0,10.1,1.27A36.35,36.35,0,0,1,1673.68,806Z"/><path class="cls-4" d="M1699.94,807a139,139,0,0,1-16.16.33C1687.91,807.22,1691.4,806.38,1699.94,807Z"/><path class="cls-4" d="M1587,806.65c5.06,1.34,14.78.64,14.78.64-21.2,1.25,4.27,2.53,6,3.54C1594.6,810.36,1594.52,808.67,1587,806.65Z"/><path class="cls-4" d="M1558.91,806a56.14,56.14,0,0,0,5.87-.26A26.7,26.7,0,0,1,1558.91,806Z"/><path class="cls-4" d="M1551,807.28c-7.34-.32-9.93-1.84-13.28-3,8.88-1.1,14.55,1.33,21.17,1.7C1553.7,806,1548.61,805.84,1551,807.28Z"/><path class="cls-4" d="M1324.9,814.62c1.69.16,5.74.15,5.85,1l-12.28,0C1313.54,815.16,1322.44,814.79,1324.9,814.62Z"/><path class="cls-4" d="M1279.59,810.51c-9.82-.13-4.7,2.06-9.67,1.56l.55-2.89Z"/><path class="cls-4" d="M1285.05,795.9l2.9.29c-1.09-.05-2.16-.08-3.32-.11Z"/><path class="cls-4" d="M1232.34,813.38l6.78,3.21C1230.88,815.77,1230.77,813.21,1232.34,813.38Z"/><polygon class="cls-4" points="1194.9 815.54 1200.66 816.53 1182.63 815.57 1194.9 815.54"/><polygon class="cls-4" points="1149.78 813.99 1148.18 814.67 1135.82 813.86 1149.78 813.99"/><path class="cls-4" d="M658.66,811.29c-1.87-2.71,17.82-1.58,23.55-2.28C678.29,812.42,666.51,807.87,658.66,811.29Z"/><path class="cls-4" d="M301.06,811.41l18.82.62C305.3,813.09,315.81,812,301.06,811.41Z"/></g></g></g></svg>