<svg id="Layer_1" data-name="Layer 1" xmlns="http://www.w3.org/2000/svg" viewBox="0 0 1680 386.01"><defs><style>.cls-1{fill:#fff;}.cls-2{fill:none;stroke:#286380;stroke-linecap:round;stroke-linejoin:round;stroke-width:16px;stroke-dasharray:10 35;}.cls-3{fill:#22526b;}</style></defs><title>ㅁㅁ</title><path class="cls-1" d="M231,1644H1895v204s-234,111-550,147-454,12-562,0c0,0-240-18-552-146Z" transform="translate(-223 -1636)"/><path class="cls-2" d="M231,1644H1895v204s-234,111-550,147-454,12-562,0c0,0-240-18-552-146Z" transform="translate(-223 -1636)"/><path class="cls-3" d="M350.36,1703.56c-3.74,1.78-5.61,2.66-9.35,4.35-3.73-2.38-5.59-3.55-9.33-5.85v-3.84q36.07,2.6,72.17,5c6-2.8,9-4.25,15-7.23,5.92,3.58,8.89,5.41,14.8,9.14l-.07,4.66Q392,1706.84,350.36,1703.56Zm33.53,7.3a58.15,58.15,0,0,1,18.57,4.65,53.41,53.41,0,0,1,15.43,10.1A48.4,48.4,0,0,1,428.38,1740a37.7,37.7,0,0,1,3.75,17,31.24,31.24,0,0,1-4.23,15.61,32.75,32.75,0,0,1-10.8,11.21,37.79,37.79,0,0,1-15.52,5.41,51.2,51.2,0,0,1-18.42-1.11,68,68,0,0,1-18.23-7.2,75,75,0,0,1-15.2-11.3A56.86,56.86,0,0,1,339.22,1756a29.74,29.74,0,0,1-4-14.35,22.93,22.93,0,0,1,4-13.2,34.9,34.9,0,0,1,10.66-10,51.55,51.55,0,0,1,15.46-6.25A58.91,58.91,0,0,1,383.89,1710.86Zm90.57,164.38a4.12,4.12,0,0,1,2.25,1.76,5.18,5.18,0,0,1,.89,3.06,3.56,3.56,0,0,1-1,2.63,2.19,2.19,0,0,1-2.28.52q-47-14.51-93.26-31a16.51,16.51,0,0,1-7.4,2.48,38.14,38.14,0,0,1-7.92,0,61,61,0,0,1-9.1-1.72q.18-32.38.34-64.78l-10.31-3.85a2.07,2.07,0,0,1-1.22-.91,2.44,2.44,0,0,1-.46-1.31c0-1.32.63-1.82,1.88-1.51l.19.05q19.63,6.87,39.25,13.79,25.07,6,50.21,11.66c6.26-2.19,9.39-3.33,15.67-5.73,6.31,5,9.47,7.6,15.77,12.79l-1,57.37ZM397.8,1679.53c1.89,2.53,2.18,5,.88,7.27a12.75,12.75,0,0,1-6.09,5.32,20.3,20.3,0,0,1-9.11,1.7,11.23,11.23,0,0,1-8-3.26l-3-3c-1.26-1.24-2.66-2.65-4.18-4.22s-3-3.28-4.57-5.1a49,49,0,0,1-4.18-5.81,41.7,41.7,0,0,1,13.46-3.6,35,35,0,0,1,12.47,1.57C389.89,1671.76,394,1674.76,397.8,1679.53Zm-14.6,104.73c3.64.82,6.77.47,9.37-1.08a18.35,18.35,0,0,0,6.51-6.88,35.24,35.24,0,0,0,3.83-10.8,70.46,70.46,0,0,0,1.29-12.69,76.52,76.52,0,0,0-1-13.26,46.75,46.75,0,0,0-3.57-12,26.51,26.51,0,0,0-6.39-8.88,15.94,15.94,0,0,0-9.4-3.9,14.4,14.4,0,0,0-9.46,2.07,19.28,19.28,0,0,0-6.43,7.15,38.64,38.64,0,0,0-3.78,10.38,57.41,57.41,0,0,0-1.31,12,62.8,62.8,0,0,0,1.15,12.15,50.51,50.51,0,0,0,3.61,11.48,31.87,31.87,0,0,0,6.26,9.19A18.56,18.56,0,0,0,383.2,1784.26Zm3,17.08q-.19,20.76-.41,41.52a12.6,12.6,0,0,1-.6,3.92q26.06,8.9,52.28,17.22l.78-49.93Q412.22,1807.91,386.24,1801.34Zm101.09-65.76c3.69.35,6.82,2.37,9.36,6.12a22,22,0,0,1,3.67,13.1q-15.27-1.74-30.54-3.6c-.19,11.15-.29,16.72-.49,27.86-.09,5.26-1.72,9.28-4.88,12a24.93,24.93,0,0,1-10.29,5.38,53.9,53.9,0,0,1-14.85,1.32l1.8-115.55c-4.21-.67-6.31-1-10.52-1.66a1.49,1.49,0,0,1-1.24-.72,2.53,2.53,0,0,1-.46-1.4c0-1.54.68-2.3,1.95-2.28h.2q20,2.64,40,5.56-.56,30.69-1.09,61.38l5.34.58a14.39,14.39,0,0,1,5-6.22A10.36,10.36,0,0,1,487.33,1735.58Z" transform="translate(-223 -1636)"/><path class="cls-3" d="M559.46,1705.51a405,405,0,0,1-4,52.4c-2.16,14.46-5.2,29-10.38,42.88a94.15,94.15,0,0,1-18.13,30.3c-6.41,7-17.65,13.19-27.23,14.42l-2.19-5.15q7-5.11,11.85-15.77a128.41,128.41,0,0,0,8-24.14,276.05,276.05,0,0,0,5.06-28.07c1.25-9.7,2.2-18.87,2.75-27.4s.93-16,1.12-22.48.31-10.9.36-13.38l-4.6-.24c-3.81,2.55-5.71,3.81-9.52,6.29-3.7-2.94-5.55-4.39-9.26-7.27l.1-4.9c9.5.45,14.26.67,23.77,1.1,6.52-3.85,9.79-5.81,16.32-9.83C549.92,1698.7,553.1,1700.94,559.46,1705.51Zm40.3,1.64c-.56,18.28-1.43,36.72-4,54.61-2.18,15.1-5.24,30.25-10.44,44.84a102.75,102.75,0,0,1-18.23,32c-6.33,7.4-17.57,14.19-27.36,15.81-.87-2.14-1.31-3.21-2.19-5.34q7-5.56,11.94-16.85a142.66,142.66,0,0,0,8.09-25.46c2.19-9.65,3.88-19.66,5.12-29.46,1.2-9.47,2.2-19.14,2.8-28.7.55-8.92,1-16.77,1.15-23.52s.33-11.41.39-14l-6.53-.31c-3.81,2.69-5.72,4-9.54,6.64-3.7-3-5.55-4.56-9.25-7.56l.1-5.12c10.28.45,15.42.67,25.71,1.1,6.54-4.06,9.81-6.13,16.35-10.34C590.23,1700.1,593.41,1702.43,599.76,1707.15Zm13.7,82c-5.22-.58-7.83-.87-13.05-1.47a16.66,16.66,0,0,1-5,7.37,9.15,9.15,0,0,1-7.06,2c-3.71-.47-6.83-2.82-9.36-7a25.87,25.87,0,0,1-3.64-14.36q19.16,2.15,38.35,4.11ZM627,1887.74c-.13,6.29-1.57,11.09-4.34,14.35a24,24,0,0,1-9.2,7,36.1,36.1,0,0,1-13.14,2.3q2.24-108.37,4.46-216.74c-4.21-.81-6.31-1.21-10.52-2-1.15-.41-1.7-1.37-1.67-2.89,0-1.7.69-2.54,2-2.52h.19q18.11,3.23,36.18,6.6Zm34.25,24.49c-.13,6.46-1.58,11.41-4.35,14.79a24.58,24.58,0,0,1-9.22,7.3,35.45,35.45,0,0,1-13.18,2.49q2.52-125.07,5-250.16l-10.52-2c-1.15-.41-1.71-1.39-1.67-3,0-1.76.69-2.64,2-2.62h.19q18.12,3.15,36.19,6.45Z" transform="translate(-223 -1636)"/><path class="cls-3" d="M746.71,1727.62c-3.83,3.19-5.74,4.78-9.57,7.94-3.72-3.47-5.58-5.19-9.29-8.63,0-2.53.07-3.79.11-6.32q36.38,1.19,72.75,2.16c6.08-4.58,9.12-6.89,15.19-11.54,5.94,4.88,8.91,7.34,14.85,12.28,0,2.66,0,4-.08,6.66Q788.69,1729.08,746.71,1727.62Zm33.75,9.6c6.55.23,12.78,2.62,18.68,7.22a64.35,64.35,0,0,1,15.47,18.1,102.57,102.57,0,0,1,10.46,26.38,132.68,132.68,0,0,1,3.64,32.18,119.68,119.68,0,0,1-4.49,31.51,91.67,91.67,0,0,1-11.2,24.82,51.34,51.34,0,0,1-16,15.79,29.44,29.44,0,0,1-19,4.31c-6.59-.75-12.82-3.62-18.68-8.52a71.21,71.21,0,0,1-15.39-18.72,105.09,105.09,0,0,1-10.39-25.92,121,121,0,0,1-3.53-30.72,112.17,112.17,0,0,1,4.58-30.16,91.8,91.8,0,0,1,11.22-24.21A60.1,60.1,0,0,1,761.67,1743,31,31,0,0,1,780.46,1737.22Zm14.39-47.74a13,13,0,0,1,.8,10.83,17.67,17.67,0,0,1-6.18,8.25,15.68,15.68,0,0,1-9.19,3.07,9.09,9.09,0,0,1-8-4.57q-1.12-1.65-3-4.44c-1.25-1.85-2.63-4-4.13-6.38s-3-5-4.49-7.81a78.66,78.66,0,0,1-4.08-9.06c4.53-3.18,9.11-5.19,13.54-5.73,3.79-.47,8,.35,12.46,2.33S791.11,1682.44,794.85,1689.48ZM778.1,1889.71c3.75.42,7-1.4,9.69-5.5a56.65,56.65,0,0,0,6.84-16.23,144.82,144.82,0,0,0,4.11-23q1.35-12.88,1.54-25.74.19-13.49-.78-26.4a154.5,154.5,0,0,0-3.42-23.37,64.24,64.24,0,0,0-6.31-17.18q-3.84-6.71-9.44-6.92t-9.64,6.11a57.89,57.89,0,0,0-6.72,16.35,159.93,159.93,0,0,0-4.13,22.53q-1.46,12.5-1.68,25.7-.2,12.57.85,25.42a170.49,170.49,0,0,0,3.39,23.3,65,65,0,0,0,6.22,17.37C771.19,1886.76,774.35,1889.3,778.1,1889.71Zm109.25-103.53q5.61.19,9.51,7.31a34.3,34.3,0,0,1,3.81,17q-15.49-.59-31-1.31-.69,62.38-1.37,124.76-.11,10.83-5,17.14a31,31,0,0,1-10.54,9.09,46.82,46.82,0,0,1-15.27,4.4L841,1689.27l-10.55-2.09c-1.15-.46-1.71-1.57-1.69-3.35,0-2,.68-3,2-3h.19q20.07,3.45,40.11,7-.6,55.11-1.21,110.22l5.42.22a22,22,0,0,1,5-9A9.32,9.32,0,0,1,887.35,1786.18Z" transform="translate(-223 -1636)"/><path class="cls-3" d="M916.9,1838.18c-4.63,6.12-6.95,9.16-11.58,15.23L894,1837.17c0-2.72,0-4.09.06-6.81q66.7,2.91,133.45,3.57,9.54-11.43,19-22.89,9.5,11.52,19,23v7Q991.2,1841.07,916.9,1838.18Zm8.89-45.32a7.4,7.4,0,0,1-6.36-3.27,22,22,0,0,1-3-6.94,47.57,47.57,0,0,1-1.26-10.31q.25-31.68.53-63.35l-9.63-.1c-1.28,0-1.91-1.16-1.89-3.44s.67-3.4,2-3.39c9.4.09,14.09.13,23.49.2a9,9,0,0,1,6.91,2.63,26.3,26.3,0,0,1,5.62,7.62,49.08,49.08,0,0,1,3.79,10.21,41.73,41.73,0,0,1,1.37,10.7l-.3,46.88a13.12,13.12,0,0,0,.36,3.46q.75,3.12,3.08,3.17,31.62.64,63.27,1c6.51-5.37,9.77-8.06,16.27-13.46,6.49,5.46,9.74,8.19,16.24,13.63v6.62Q986,1794.47,925.79,1792.86Zm6.45,175.57a7.76,7.76,0,0,1-6.42-3.5,22.82,22.82,0,0,1-3.08-7.07,48.42,48.42,0,0,1-1.28-10.38L922,1884c-3.89-.19-5.84-.29-9.73-.5-1.29-.07-1.93-1.24-1.91-3.52s.68-3.39,2-3.32c9.49.48,14.23.71,23.72,1.11a9.42,9.42,0,0,1,7,2.88,27.55,27.55,0,0,1,5.69,7.81,50.75,50.75,0,0,1,3.83,10.34,42.45,42.45,0,0,1,1.39,10.76q-.13,23.48-.29,47A13.16,13.16,0,0,0,954,1960c.5,2.1,1.54,3.19,3.1,3.26q30,1.5,60,2c6.59-5.3,9.88-8,16.45-13.33,6.56,5.5,9.85,8.24,16.42,13.69v6.61Q991.05,1971.93,932.24,1968.43Z" transform="translate(-223 -1636)"/><path class="cls-3" d="M1146,1850.18c-4.56,3.73-6.85,5.59-11.42,9.31-4.6-3.48-6.9-5.23-11.5-8.75,0-2.77,0-4.16,0-6.93q66.79-1.49,133.46-5.36,9.33-11.64,18.7-23.25,9.55,10.44,19.25,20.75c0,2.65,0,4,.09,6.63Q1220.34,1848,1146,1850.18Zm71.24-102.6a51.75,51.75,0,0,0,6.6,4.43q4.67,2.77,10.49,6.17t12,7.41a127.87,127.87,0,0,1,11.2,8.2,48.84,48.84,0,0,1,8.31,8.56c2.16,2.93,3.21,5.74,3.1,8.41a30.29,30.29,0,0,1-2.94,12.38,21.34,21.34,0,0,1-6.39,8,11,11,0,0,1-7.91,2.26q-4.15-.46-7.7-5-1.18-1.64-5.79-7.52t-10-13.34q-5.39-7.45-10.49-15a108.37,108.37,0,0,1-7.26-11.9c-1.29,2.62-1.93,3.94-3.22,6.57q-4.38,7.62-13.31,14.55a148.42,148.42,0,0,1-19.44,12.72q-10.51,5.78-21.23,10.52t-18.85,8c-.94-1.5-1.4-2.26-2.34-3.77a92,92,0,0,0,22.46-19,156.53,156.53,0,0,0,16.29-22.75,143.55,143.55,0,0,0,10.84-23.08,186.19,186.19,0,0,0,6.11-20.35h-.2q-16.38.21-32.76.38l-9.4,8c-3.8-3.15-5.7-4.72-9.49-7.88,0-2.49,0-3.74,0-6.23q48.84-.39,97.67-1.13l2.12,0,14.9-10.69c6.06,4.09,9.09,6.13,15.14,10.17,0,2.41,0,3.62.08,6q-16.08.33-32.17.63l-11.75.2-10.6.17a41.94,41.94,0,0,1,7.54,2.77,4.49,4.49,0,0,1,2.55,4.89,33.54,33.54,0,0,1-.73,3.59c-.37,1.48-.78,3-1.21,4.62s-.84,3.14-1.21,4.62S1217.49,1746.89,1217.24,1747.58Zm-3,116.34a62.77,62.77,0,0,1,21,5.74,59.83,59.83,0,0,1,16.94,11.87,54.4,54.4,0,0,1,15.72,38.06,53.06,53.06,0,0,1-4.69,22.79,61.16,61.16,0,0,1-13.43,19,72,72,0,0,1-20.16,13.6,73,73,0,0,1-24.87,6.38,66.2,66.2,0,0,1-24.86-2.5,59.19,59.19,0,0,1-20.31-10.7,51.36,51.36,0,0,1-13.79-17.49,52.08,52.08,0,0,1-5.1-22.81,56.56,56.56,0,0,1,5.72-25.82,66.19,66.19,0,0,1,15-19.9,70,70,0,0,1,20.33-12.89,65.93,65.93,0,0,1,22-5.14l5.24-.27A42.15,42.15,0,0,1,1214.28,1863.92Zm-9.54,107.88a22.08,22.08,0,0,0,12.56-4.76,30.75,30.75,0,0,0,8.29-10.73,54.8,54.8,0,0,0,4.53-15.17,109,109,0,0,0,1.27-18.44,118.64,118.64,0,0,0-1.65-18.89,59.43,59.43,0,0,0-4.83-15.83,29.29,29.29,0,0,0-8.46-10.72,18.51,18.51,0,0,0-12.58-3.57,19.65,19.65,0,0,0-12.59,4.92,33.82,33.82,0,0,0-8.18,11.73,62.46,62.46,0,0,0-4.45,16.55,133.89,133.89,0,0,0-1.22,19.32,117.55,117.55,0,0,0,1.5,18.5,48,48,0,0,0,4.7,14.67A25.79,25.79,0,0,0,1192,1969Q1197.11,1972.38,1204.74,1971.8ZM1219,1688.31a14,14,0,0,1,1.08,11.22,18.72,18.72,0,0,1-6,8.75,15.49,15.49,0,0,1-9.12,3.52c-3.33.15-6-1.35-8.13-4.53-.78-1.13-1.82-2.67-3.11-4.59s-2.73-4.15-4.29-6.66-3.12-5.23-4.69-8.2a88.65,88.65,0,0,1-4.3-9.6c4.46-3.45,9-5.6,13.41-6.21,3.76-.51,8,.34,12.51,2.38S1215.06,1681.08,1219,1688.31Zm3.46,155.42q-15.12.78-30.26,1.4l-.51-62.73a50.72,50.72,0,0,1,15.14,5.71,30.9,30.9,0,0,1,5.64,4.08,28.81,28.81,0,0,1,8.36,13.5,35.29,35.29,0,0,1,1.35,9.81Q1222.28,1829.62,1222.43,1843.73Z" transform="translate(-223 -1636)"/><path class="cls-3" d="M1315.13,1727.58c-3.72,3.52-5.58,5.29-9.31,8.84-3.83-3.31-5.74-5-9.56-8.32l-.09-6.62q36.38-.88,72.75-2c5.93-4.78,8.89-7.15,14.81-11.86,6.08,4.4,9.12,6.58,15.2,10.89,0,2.5.07,3.76.12,6.26Q1357.09,1726.34,1315.13,1727.58Zm34,6.06a41.27,41.27,0,0,1,18.85,3.77,49.27,49.27,0,0,1,15.9,11.52,59.28,59.28,0,0,1,15.55,39.51,62,62,0,0,1-3.65,22.32,68,68,0,0,1-10.47,19.17,57.68,57.68,0,0,1-15.52,13.84,44.35,44.35,0,0,1-18.76,6.39,38.29,38.29,0,0,1-18.83-2.77,45.22,45.22,0,0,1-15.86-11.27,58.64,58.64,0,0,1-11.1-18.14,63.78,63.78,0,0,1-4.38-22.87,67.86,67.86,0,0,1,3.72-23.66,66.11,66.11,0,0,1,10.53-19.4,51.67,51.67,0,0,1,15.42-13.19A40.91,40.91,0,0,1,1349.13,1733.64Zm90.92,170.95a32.17,32.17,0,0,1-2.28,13.13,40,40,0,0,1-6,10.2,50,50,0,0,1-7.83,7.66,65.55,65.55,0,0,1-8,5.38,69.13,69.13,0,0,1-6.37,3.21c-1.74.74-2.68,1.12-2.81,1.14q-.73-40-1.46-80-28.38,3.64-56.8,6.81c-6.5,5.63-9.75,8.46-16.26,14.14-6.59-4.25-9.88-6.4-16.46-10.77l-.09-6.24q61.86-6,123.42-14.4Zm-78-218.87a12.4,12.4,0,0,1,1.14,10.56,17.62,17.62,0,0,1-5.92,8.29,16,16,0,0,1-9.08,3.42,8.89,8.89,0,0,1-8.15-4.19q-1.18-1.6-3.15-4.33t-4.33-6.27c-1.57-2.36-3.15-5-4.73-7.77a81.06,81.06,0,0,1-4.37-9.11,29.07,29.07,0,0,1,13.36-5.91c3.76-.5,8,.31,12.52,2.23S1358,1678.93,1362,1685.72Zm-11.07,158.63a13.34,13.34,0,0,0,9.49-5.59,41.48,41.48,0,0,0,6.36-12.63,82.1,82.1,0,0,0,3.48-17,151.71,151.71,0,0,0-.63-37.34,81.21,81.21,0,0,0-4.05-16.57,34.6,34.6,0,0,0-6.75-11.71,12,12,0,0,0-9.6-4.11,12.52,12.52,0,0,0-9.46,4.91,36.12,36.12,0,0,0-6.27,12.47,97.25,97.25,0,0,0-3.49,17.29,147.19,147.19,0,0,0-1,19.31,141.34,141.34,0,0,0,1.55,18.84,86.28,86.28,0,0,0,4,16.65,33.73,33.73,0,0,0,6.66,11.63A11.14,11.14,0,0,0,1350.93,1844.35ZM1454.17,1749c3.72-.25,6.93,1.61,9.64,5.5A25.68,25.68,0,0,1,1468,1769q-15.37,1.31-30.76,2.5.42,21.83.85,43.66c.12,6.51-1.35,12-4.41,16.45a40.18,40.18,0,0,1-10.13,10.48,61.6,61.6,0,0,1-14.93,7.43q-1.5-81.08-3-162.15c-4.24-.68-6.36-1-10.6-1.73a1.45,1.45,0,0,1-1.27-.93,4.12,4.12,0,0,1-.51-1.88c0-2.09.58-3.15,1.86-3.16h.19q20.13,3,40.28,5.73l1.47,76,5.38-.38a21,21,0,0,1,4.75-8.53A10.39,10.39,0,0,1,1454.17,1749Z" transform="translate(-223 -1636)"/><path class="cls-3" d="M1509.07,1697.18q6.15-.17,9.3,3.58A23.17,23.17,0,0,1,1523,1709a40.17,40.17,0,0,1,1.41,12.12c-.15,6.15-.64,12.47-1.15,18.66a113.13,113.13,0,0,1-2.18,15.38q2.92,2.31,7.91,6.52a106.92,106.92,0,0,1,9.9,9.54,57.81,57.81,0,0,1,8.3,11.59,24.68,24.68,0,0,1,3.32,12.32c-.1,4.77-1.2,8.61-3.12,11.4a16.36,16.36,0,0,1-6.69,5.88,14.8,14.8,0,0,1-7.37,1.39,6.94,6.94,0,0,1-5.14-2.36,27.85,27.85,0,0,1-4.5-8.74,86.31,86.31,0,0,1-2.51-10.08q-1-5.14-2.14-10.31a40.61,40.61,0,0,0-3.37-9.5c-1.17,2.75-1.76,4.13-2.93,6.9a77.66,77.66,0,0,1-10.45,15.33,120.55,120.55,0,0,1-13.39,13.16,139.39,139.39,0,0,1-15.18,11.08q-8,5-15.8,9.66c-1-1.56-1.44-2.35-2.39-3.92a79.08,79.08,0,0,0,17.62-19.81,110.63,110.63,0,0,0,11.07-23.41,146.3,146.3,0,0,0,5.95-24.34,227.41,227.41,0,0,0,2.42-23q.54-10.83.37-19.43t-.08-13.28l-10,.32c-1.28,0-1.93-.63-2-2s.6-2.08,1.88-2.12C1493.29,1697.64,1498.55,1697.49,1509.07,1697.18Zm68.7,111.25a51.15,51.15,0,0,1,16.81,3,41.29,41.29,0,0,1,13.63,8,37.52,37.52,0,0,1,9.22,12.65,41.55,41.55,0,0,1,3.55,16.58,47.76,47.76,0,0,1-3.64,19.23,65,65,0,0,1-10.52,17.36,73.42,73.42,0,0,1-15.85,14.06,68.45,68.45,0,0,1-19.6,9,50.55,50.55,0,0,1-19.79,1.71,34.51,34.51,0,0,1-27.57-19.46,45.27,45.27,0,0,1-4.44-19.53,57.19,57.19,0,0,1,4.23-23.36,66.38,66.38,0,0,1,11.71-18.87,62.58,62.58,0,0,1,16.24-13.1,53.66,53.66,0,0,1,17.6-6.4c1.4-.23,2.81-.41,4.21-.55S1576.36,1808.49,1577.77,1808.43Zm36.68-62.23q-17.21,1.79-34.42,3.49.3,14.54.59,29.08c.11,5.7-1.13,10.46-3.74,14.34a38.66,38.66,0,0,1-8.81,9.57,53.7,53.7,0,0,1-12.9,6.92q-1.18-58-2.38-116l-10.59-1.35a2.54,2.54,0,0,1-1.78-2.74c0-1.67.58-2.52,1.87-2.55h.19q18.18,2.38,36.38,4.51.51,24.83,1,49.64,17-1.51,34.06-3.1C1614.13,1741.31,1614.24,1742.94,1614.45,1746.2Zm-43.25,154a21,21,0,0,0,9.93-5.76,31.79,31.79,0,0,0,6.48-10.15,53.69,53.69,0,0,0,3.46-13.38,104.11,104.11,0,0,0-.61-30.77,45.78,45.78,0,0,0-4-12.62,21.26,21.26,0,0,0-6.87-8.22,13.22,13.22,0,0,0-10.09-1.88,17.28,17.28,0,0,0-10.14,5.43,32,32,0,0,0-6.4,10.91,66.14,66.14,0,0,0-3.34,14.62,117.4,117.4,0,0,0-.81,16.7,100.75,100.75,0,0,0,1.47,15.53,42,42,0,0,0,3.9,12.12,15.6,15.6,0,0,0,6.75,7Q1565.11,1901.79,1571.2,1900.16Zm47.74-119a22.76,22.76,0,0,1-3.75,13.78,39.52,39.52,0,0,1-8.8,9.39,56.17,56.17,0,0,1-12.87,7q-1.26-63.49-2.51-127c-4.24-.54-6.36-.81-10.59-1.37a2.46,2.46,0,0,1-1.78-2.63c0-1.6.59-2.41,1.87-2.43h.19q18.18,2.4,36.38,4.56Z" transform="translate(-223 -1636)"/><path class="cls-3" d="M1655,1833.8c-4.42,3.63-6.63,5.47-11,9.16-4.52-1.42-6.77-2.16-11.3-3.69l-.09-5q40.1-9.43,79.89-20c7.27-2.53,13.24-4.85,17.93-6.91a97.93,97.93,0,0,0,11.61-5.9,33.44,33.44,0,0,0,7.2-5.67,32.58,32.58,0,0,0,4.56-6.42q1.95-3.55,4-8.1c1.37-3,3.11-6.52,5.23-10.46l1.32,1.69c1.15,5.71-.09,11.2-3.7,16.7a46.46,46.46,0,0,1-6.53,7.62,64.73,64.73,0,0,1-10.83,8.15,121.41,121.41,0,0,1-16.29,8.27,175.92,175.92,0,0,1-22.72,7.71Q1679.65,1827.64,1655,1833.8Zm1.82-129.84c-3.71,2.72-5.57,4.09-9.27,6.88-3.8-2.3-5.69-3.47-9.49-5.83l-.09-5q36.18-1.75,72.36-3.67c5.93-3.5,8.89-5.21,14.84-8.55,6,2.85,9,4.23,15,6.9,0,1.67,0,2.51,0,4.18Q1698.46,1701.59,1656.78,1704Zm28.78,3.64a40.63,40.63,0,0,1,16,2,43.45,43.45,0,0,1,13.36,7.2,34.42,34.42,0,0,1,9.18,11.12,31.71,31.71,0,0,1,3.47,14.6,36.46,36.46,0,0,1-3.18,15.12,53.44,53.44,0,0,1-8.86,13.91,55.82,55.82,0,0,1-13,11,48.49,48.49,0,0,1-15.76,6.27,37.06,37.06,0,0,1-15.87,0,31.35,31.35,0,0,1-13.34-6.65,36.17,36.17,0,0,1-9.26-12.24,39.18,39.18,0,0,1-3.63-16.19,45.27,45.27,0,0,1,3-17.52,45.85,45.85,0,0,1,8.84-14.31,46.44,46.44,0,0,1,13.14-10A40.4,40.4,0,0,1,1685.56,1707.6Zm16.25-30.7c2,2.5,2.3,4.93,1,7.36a14.5,14.5,0,0,1-6,5.94,21.06,21.06,0,0,1-9.07,2.67,9.85,9.85,0,0,1-8.08-2.79q-1.17-1.11-3.12-3t-4.28-4.45q-2.34-2.52-4.7-5.56a52.23,52.23,0,0,1-4.33-6.6,34.93,34.93,0,0,1,13.38-4.29,33.22,33.22,0,0,1,12.51,1.6C1693.71,1669.11,1697.91,1672.19,1701.81,1676.9Zm-15.15,107.84a13.61,13.61,0,0,0,8-4.88,33.48,33.48,0,0,0,5.39-9.4,52.41,52.41,0,0,0,3-11.86,86.48,86.48,0,0,0,.79-12.67,82.93,82.93,0,0,0-1.11-12.85,44.92,44.92,0,0,0-3.29-11.12,21.34,21.34,0,0,0-5.64-7.76,11.07,11.07,0,0,0-8.17-2.46,12.1,12.1,0,0,0-8.07,3.76,24.79,24.79,0,0,0-5.31,9,62.23,62.23,0,0,0-3,12.35,88.93,88.93,0,0,0-.83,13.86,81.64,81.64,0,0,0,1.26,13.1,49.5,49.5,0,0,0,3.32,11.4,20.16,20.16,0,0,0,5.54,7.7A9.31,9.31,0,0,0,1686.66,1784.74Zm16.19,34.32q-13.74,3.69-27.52,7.2l-.63-40.62a54.72,54.72,0,0,1,13.89,1.48,26.8,26.8,0,0,1,9.56,5c2.93,2.31,4.43,5.82,4.49,10.6C1702.72,1809.24,1702.76,1812.52,1702.85,1819.06Zm76.81-.79a18.25,18.25,0,0,1-4.54,11.7,57.73,57.73,0,0,1-9.9,9.65,108.73,108.73,0,0,1-14.45,9.16l-1-168.51c-4.22-.37-6.33-.56-10.55-1a1.94,1.94,0,0,1-1.74-2,1.69,1.69,0,0,1,1.9-1.92h.19q20,1.73,40.08,3.09Z" transform="translate(-223 -1636)"/></svg>