<svg xmlns="http://www.w3.org/2000/svg" viewBox="0 0 2557.38 2697.19"><defs><style>.cls-1,.cls-13,.cls-16,.cls-6,.cls-7,.cls-8{fill:none;}.cls-1,.cls-18{stroke:#fff;}.cls-1,.cls-13,.cls-16,.cls-18,.cls-6,.cls-7,.cls-8{stroke-miterlimit:10;}.cls-2{font-size:21px;}.cls-19,.cls-2,.cls-3,.cls-4,.cls-5{fill:#fff;}.cls-11,.cls-19,.cls-2,.cls-3,.cls-4,.cls-5{font-family:NanumSquareR, NanumSquare;}.cls-3{font-size:19px;}.cls-4{font-size:16px;}.cls-5{font-size:14px;}.cls-6{stroke:#00ff36;}.cls-13,.cls-16,.cls-6,.cls-7,.cls-8{stroke-width:2px;}.cls-7{stroke:#ed1c24;}.cls-8{stroke:#f800ff;}.cls-12,.cls-20,.cls-9{font-size:21.48px;}.cls-20,.cls-9{fill:#f800ff;}.cls-12,.cls-14,.cls-15,.cls-17,.cls-20,.cls-9{font-family:NanumSquareEB, NanumSquare;}.cls-10,.cls-14,.cls-15,.cls-17,.cls-20{font-weight:700;}.cls-12{fill:#ed1c24;}.cls-13{stroke:#fff800;}.cls-14,.cls-15,.cls-17{font-size:20px;}.cls-14{fill:#fff800;}.cls-15{fill:#00ff36;}.cls-16{stroke:#00cfff;}.cls-17{fill:#00cfff;}.cls-19{font-size:23px;}</style></defs><title>map(이거다 택준아)</title><g id="레이어_4" data-name="레이어 4"><polygon class="cls-1" points="1541.07 281.25 1541.07 288.25 1531.07 288.25 1531.07 243.25 1286.07 243.25 1286.07 261.25 1249.07 261.25 1249.07 327.25 1286.07 327.25 1286.07 352.25 1531.07 352.25 1531.07 328.25 1541.07 328.25 1541.07 332.25 1569.07 332.25 1569.07 281.25 1541.07 281.25"/><polygon class="cls-1" points="532.88 857.5 532.88 1120.5 215.88 1120.5 215.88 1363.5 532.88 1363.5 736.88 1363.5 736.88 1120.5 736.88 857.5 532.88 857.5"/><rect class="cls-1" x="383.88" y="1370.5" width="189" height="48"/><polygon class="cls-1" points="1758.88 863.5 1655.88 863.5 1655.88 947.5 1721.88 947.5 1721.88 991.5 1749.88 991.5 1749.88 947.5 1758.88 947.5 1758.88 863.5"/><polygon class="cls-1" points="1980.76 970.5 1980.76 1016.5 1799.76 1016.5 1799.76 991.5 1799.76 983.5 1799.76 970.5 1751.76 970.5 1751.76 991.5 1761.76 991.5 1761.76 1016.5 1656.76 1016.5 1656.76 1117.5 1980.76 1117.5 2018.76 1117.5 2019.76 1117.5 2019.76 970.5 1980.76 970.5"/><rect class="cls-1" x="1721.88" y="994.5" width="38" height="19"/><rect class="cls-1" x="1691.88" y="950.5" width="27" height="62"/><rect class="cls-1" x="1666.88" y="950.5" width="21" height="62"/><rect class="cls-1" x="1802.88" y="970.5" width="175" height="43"/><polygon class="cls-1" points="2135.88 646.5 2135.88 559.5 2058.88 559.5 1786.88 559.5 1771.88 559.5 1771.88 711.5 2018.88 711.5 2018.88 851.5 2036.88 851.5 2076.88 851.5 2134.88 851.5 2134.88 747.5 2076.88 747.5 2076.88 646.5 2135.88 646.5"/><rect class="cls-1" x="2079.88" y="649.5" width="36" height="95"/><polygon class="cls-1" points="218.25 1114.5 147.07 1009.15 0.69 1108.05 151.88 1331.5 154.38 1331.5 209.88 1331.5 209.88 1114.5 218.25 1114.5"/><polygon class="cls-1" points="1588.88 2147.94 1546.88 2147.94 1546.88 2127.6 1361.88 2127.6 1361.88 2217.09 1546.88 2217.09 1546.88 2190.36 1588.88 2190.36 1588.88 2147.94"/><polygon class="cls-1" points="1383.88 2087.5 1383.88 2126.43 1548.88 2126.43 1548.88 2146.19 1588.88 2146.19 1588.88 2126.43 1588.88 2089.82 1588.88 2087.5 1383.88 2087.5"/><rect class="cls-1" x="1548.88" y="2191.52" width="40" height="56.37"/><rect class="cls-1" x="1373.88" y="2218.25" width="173" height="29.64"/><rect class="cls-1" x="1383.88" y="2249.63" width="47" height="13.37"/><path class="cls-1" d="M2573.5,1119.5v-38H1920a11.5,11.5,0,0,1-11.5-11.5v-26.47h-.11v-21.72c.06-.93.11-1.86.11-2.81a38.49,38.49,0,0,0-37-38.46v0H1650a11.5,11.5,0,0,1-11.5-11.5V495.5h-37v133h-399v-270h-39v410h-.32a7.8,7.8,0,0,1,.32,1.33v6.67a25,25,0,0,1-25,25H764.68c-.4-36.47,2.26-118.07,25.82-243,15.08-79.95,21.18-164.91,23.26-234H1288.5v-22H814.31c1.37-70.59-1.32-120-1.81-122h-40c.69,2.76,5.65,98-2.12,214.27L49.5,267.5v40L766.41,443.73c-3.64,37.9-8.77,76.9-15.91,114.77-23.56,124.93-26.22,206.53-25.82,243H702.5v36h-26v108h47v-38h103v85h-392c-27,0-42,14-42,14l-.2.43v0l-172.6,124.17.13.19-.32.23c-44.13,31.66-13.71,67.92-11.17,70.81l-.32.22,38.37,57.37a45.93,45.93,0,0,0,4.12,6.6c20,27,45,26,45,26h227a18,18,0,0,0,18-18v-246h286v68h0c0,.33,0,.67,0,1a116,116,0,0,0,89.7,113h-.7v604.9L523.3,2166a134.51,134.51,0,1,0,59.16,114.26c15.41,1.52,46,5.87,85,18.2,57,18,125,7,125,7l285-56.08c8.26,36.43,23.7,141.54,147.26,204.08H1106.5v22h1160v-22H1294.94c-146.24-59.84-165.89-133.24-183.27-210.81l171.26-33.7a39.15,39.15,0,0,1,6.07-.49,38.5,38.5,0,0,1,38.5,38.5c0,.5,0,1,0,1.5h0v137h40V2206.84a19,19,0,0,1,14.24-14.34H1584.5v-41h-199v-.05a19,19,0,0,1-18-18.95v-411h-40v19h-215v-527h61v-26h428v159h37V1030a11.5,11.5,0,0,1,11.5-11.5h210a11.5,11.5,0,0,1,11.5,11.5v27.46h.11v21h0c-.08,1-.13,2-.13,3a38,38,0,0,0,37,38v0Zm-2233,134h-45a22.44,22.44,0,0,1-15.9-6.89l-41.18-61.56a16.12,16.12,0,0,0-.92-1.55c-12-18,3-24,3-24l.15-.38,99.85-71.84Zm159-6.5h0a7,7,0,0,1-7,6.5,4.19,4.19,0,0,1-.5,0v0H366.5V1165a10.5,10.5,0,0,1,10.5-10.5H483.5v.12a18,18,0,0,1,15.95,16.88h.05Zm0-133.5h-.26a19,19,0,0,1-15.74,15.74v.26h-97v-.08a21.45,21.45,0,0,1-20-20.92h0v-39.92l45.81-32.95.19-.13c8-6,22-7,22-7h65ZM448,2311a33.5,33.5,0,1,1,33.5-33.5A33.5,33.5,0,0,1,448,2311Zm566.5-1097.5h50V1712a25,25,0,1,1-50,0Zm313,587v352c0,4.06-2.91,7.55-7.09,9.12l-4.37.86-.54,0v.08l-523,102.92s-68,11-125-7c-43.66-13.79-77.55-17.6-90.34-18.63a134.54,134.54,0,0,0-9.51-23.87l452.43-404.5h.77a44.47,44.47,0,0,1,15.4-8.4,48.5,48.5,0,0,1,13.25-2.48v-.12h278Zm274-761v107h-428v-128H1590a11.5,11.5,0,0,1,11.5,11.5Zm0-75V969a11.5,11.5,0,0,1-11.5,11.5H1173.5V840.39L1202,801.5h.5v-.69l96.22-131.31H1601.5Z" transform="translate(-16.62 -180)"/><text class="cls-2" transform="translate(1375.47 1336.5)">도서관</text><text class="cls-2" transform="translate(393.1 1250.5)">삼육 100주년 기념관</text><text class="cls-2" transform="translate(1800.04 1071.5)">에스라관</text><text class="cls-3" transform="translate(1348.55 303.74)">아트앤디자인관</text><text class="cls-2" transform="translate(1581.47 1781.5)">바울관</text><text class="cls-2" transform="translate(1423.91 2177.5)">학생회관</text><text class="cls-4" transform="translate(1557.72 2235.5)">CU</text><text class="cls-5" transform="translate(1401.42 2237.5)">파인하우스(학생식당)</text><text class="cls-5" transform="translate(1049.53 1793.5)">솔로몬 광장</text><text class="cls-5" transform="translate(894.64 495.5)">선교 70주년 기념관</text><text class="cls-5" transform="translate(1211.65 1440.5)">우리은행</text><text class="cls-5" transform="translate(1610.65 2362.5)">농구코트</text></g><g id="레이어_3" data-name="레이어 3"><polygon class="cls-6" points="826.88 157.5 1077.88 159.5 1115.88 443.5 791.88 443.5 826.88 157.5"/><path class="cls-6" d="M1129.75,634h-322V735h57v9h208v-9h58V634Z" transform="translate(-16.62 -180)"/><rect class="cls-7" x="1157.88" y="1304.5" width="70" height="38"/><rect class="cls-7" x="1319.88" y="1417.5" width="38" height="54"/><polygon class="cls-7" points="1228.88 1346.5 1159.88 1346.5 1159.88 1502.5 1355.88 1502.5 1355.88 1473.5 1316.88 1473.5 1316.88 1414.5 1228.88 1346.5"/><polygon class="cls-7" points="1378.63 1197.51 1377.63 1197.51 1362.63 1197.51 1362.63 1172.51 1195.63 1172.51 1195.63 1305.51 1227.63 1305.51 1227.63 1343.51 1195.63 1343.51 1195.63 1347.51 1228.63 1347.51 1316.63 1415.51 1316.63 1470.51 1319.63 1470.51 1319.63 1418.51 1357.63 1418.51 1357.63 1470.51 1377.63 1470.51 1377.63 1492.51 1612.63 1492.51 1612.63 1197.51 1378.63 1197.51"/><rect class="cls-8" x="1816.38" y="1689.5" width="32.5" height="119"/><path class="cls-8" d="M1392.5,1869.5v167c0,5.52,7.28,10,16.25,10s16.25-4.48,16.25-10v-167Z" transform="translate(-16.62 -180)"/><path class="cls-8" d="M1833,1990v48c0,5.77,7.28,10.45,16.25,10.45s16.25-4.68,16.25-10.45v-48Z" transform="translate(-16.62 -180)"/><polygon class="cls-8" points="1647.88 1723.5 1647.88 1710.5 1411.88 1710.5 1411.88 1849.5 1584.88 1849.5 1584.88 1813.5 1634.88 1813.5 1634.88 1849.5 1636.38 1849.5 1647.88 1849.5 1779.58 1849.5 1779.58 1842.5 1811.88 1842.5 1811.88 1723.5 1647.88 1723.5"/><rect class="cls-8" x="1587.38" y="1816.5" width="44.64" height="32.5"/><circle class="cls-1" cx="948.88" cy="882.5" r="61"/><circle class="cls-1" cx="948.88" cy="882.5" r="47"/><circle class="cls-1" cx="948.88" cy="882.5" r="11"/></g><g id="레이어_6" data-name="레이어 6"><rect class="cls-8" x="848.38" y="1599.53" width="478.2" height="414.47"/><text class="cls-9" transform="translate(1031.05 1816.93)"><tspan class="cls-10">부스 ZONE</tspan><tspan class="cls-11" x="101.96" y="0"> </tspan></text><text class="cls-12" transform="translate(1342.28 1363.93)"><tspan class="cls-10">도서관 ZONE</tspan><tspan class="cls-11" x="121.51" y="0"> </tspan></text></g><g id="레이어_7" data-name="레이어 7"><rect class="cls-13" x="1047.88" y="1122.94" width="50" height="411"/><text class="cls-14" transform="translate(1063.78 1262.06)">포<tspan x="0" y="24">토</tspan><tspan x="2.81" y="72">Z</tspan><tspan x="1.9" y="96">O</tspan><tspan x="1.89" y="120">N</tspan><tspan x="3.02" y="144">E</tspan></text><text class="cls-15" transform="translate(857.15 518.59)">대강당 실내무대 ZONE</text><rect class="cls-16" x="1342.38" y="1878" width="513" height="220"/><text class="cls-17" transform="translate(1529.7 1998.67)">푸드트럭 ZONE</text></g><g id="레이어_9" data-name="레이어 9"><rect class="cls-1" x="949.67" y="2317.63" width="741.28" height="379.05" rx="43" ry="43"/><rect class="cls-1" x="1113.07" y="2356.16" width="471.16" height="302" rx="41" ry="41"/><rect class="cls-1" x="1194.55" y="2404.87" width="310.86" height="204.58"/><rect class="cls-18" x="958.52" y="2263" width="61.11" height="29.23"/><rect class="cls-18" x="909.81" y="2294" width="158.53" height="57.57"/><rect class="cls-18" x="909.81" y="2565" width="158.53" height="57.57"/><rect class="cls-18" x="909.81" y="2488.84" width="158.53" height="74.39"/><rect class="cls-18" x="909.81" y="2353.34" width="158.53" height="133.73"/><line class="cls-1" x1="1351.31" y1="2609.45" x2="1351.31" y2="2404.87"/><circle class="cls-1" cx="1351.31" cy="2507.16" r="27.45"/><polygon class="cls-1" points="1194.55 2447.82 1244.14 2447.82 1244.14 2485.24 1244.14 2566.5 1194.55 2566.5 1194.55 2447.82"/><path class="cls-1" d="M1260.76,2665.46s9.74,6.2,9.74,21.26-9.74,22.14-9.74,22.14" transform="translate(-16.62 -180)"/><rect class="cls-1" x="1194.55" y="2484.13" width="20.37" height="46.05"/><polygon class="cls-1" points="1505.41 2566.94 1455.44 2566.94 1455.44 2529.24 1455.44 2447.38 1505.41 2447.38 1505.41 2566.94"/><path class="cls-1" d="M1472.06,2709s-9.81-6.25-9.81-21.41,9.81-22.31,9.81-22.31" transform="translate(-16.62 -180)"/><rect class="cls-1" x="1501.5" y="2663.96" width="20.52" height="46.4" transform="translate(3006.91 5194.32) rotate(180)"/><rect class="cls-8" x="1597.38" y="2398.1" width="80" height="60"/><text class="cls-5" transform="translate(970.02 2326.45)">체육관</text><text class="cls-19" transform="translate(1318.74 2388.45)">운동장</text><text class="cls-20" transform="translate(1584.73 2386.98)">부스 ZONE</text></g></svg>