<svg xmlns="http://www.w3.org/2000/svg" viewBox="0 0 1224.57 479.78"><defs><style>.cls-1{fill:#fff;}.cls-2{fill:#286380;}</style></defs><title>자산 1</title><g id="레이어_2" data-name="레이어 2"><g id="Layer_1" data-name="Layer 1"><path class="cls-1" d="M17.71,217.78s527-490,1188,0l-99,182S633.86,3.6,122.28,400.19Z"/><path class="cls-1" d="M1175.66,295.58,1111,416.11s-24.46-11.37-71.63-20.47c0,0,80.36,59.12,97.83,84.14,0,0,14-56.85,14-93.24,0,0,47.17-20.46,73.37-38.65C1224.57,347.89,1201.86,316.05,1175.66,295.58Z"/><path class="cls-1" d="M48.91,295.58l64.64,120.53s24.45-11.37,71.62-20.47c0,0-80.36,59.12-97.83,84.14,0,0-14-56.85-14-93.24,0,0-47.17-20.46-73.37-38.65C0,347.89,22.71,316.05,48.91,295.58Z"/><polygon class="cls-2" points="200.94 269.79 170.04 268.62 151.56 293.41 143.13 263.66 113.84 253.75 139.52 236.53 139.9 205.61 164.22 224.72 193.74 215.53 183.08 244.55 200.94 269.79"/><polygon class="cls-2" points="1028.84 269.79 1059.74 268.62 1078.22 293.41 1086.65 263.66 1115.94 253.75 1090.26 236.53 1089.88 205.61 1065.57 224.72 1036.04 215.53 1046.7 244.55 1028.84 269.79"/><path class="cls-2" d="M255,140.67c-2.3,3.39-3.44,5.09-5.68,8.5-4,.72-6,1.1-10.07,1.89l-1.74-2.57c20.21-13.49,40.82-26,62.16-37.59,4.2-4.78,6.33-7.15,10.67-11.84,6.35-.72,9.51-1,15.82-1.58.53,1.12.8,1.68,1.34,2.8A789.51,789.51,0,0,0,255,140.67Zm30.5-14.49a69.12,69.12,0,0,1,17.18-7,53.48,53.48,0,0,1,16.3-1.77,33,33,0,0,1,13.24,3.37A17.83,17.83,0,0,1,340.5,129a18.44,18.44,0,0,1,1.35,11.41A35.94,35.94,0,0,1,337,152.78a57.4,57.4,0,0,1-9.85,11.88,75.52,75.52,0,0,1-29.48,16.87A58.9,58.9,0,0,1,282.37,184a36.68,36.68,0,0,1-13.28-2,18.17,18.17,0,0,1-9.21-6.91A17.6,17.6,0,0,1,257,163.82,33.61,33.61,0,0,1,261,150.61a55,55,0,0,1,9.84-13.2A69.08,69.08,0,0,1,285.54,126.18Zm110.81,44.23a10.28,10.28,0,0,1,.53,6.75,19.48,19.48,0,0,1-3,6.23,37.1,37.1,0,0,1-4.78,5.47,65.66,65.66,0,0,1-5.25,4.48q-2.53,1.93-4.35,3.13c-1.21.79-1.86,1.22-2,1.26q-8.49-17.94-17-35.89c-15.11,7.09-29.87,14.93-44.33,23.24-3.86,5-5.76,7.46-9.47,12.48-6.1,1-9.17,1.5-15.32,2.65l-1.59-2.48a688.32,688.32,0,0,1,96.77-50.68C390.55,156.4,392.48,161.07,396.35,170.41ZM286.29,99.46c2.56.61,3.65,2,3.3,4a13.11,13.11,0,0,1-3.44,6.41,29.6,29.6,0,0,1-7.23,5.86,13.71,13.71,0,0,1-8.09,2.28l-3.74-.21c-1.56-.09-3.31-.22-5.24-.39s-3.92-.4-6-.73a39.85,39.85,0,0,1-6-1.41,50.47,50.47,0,0,1,10.43-9.61A47.83,47.83,0,0,1,272,100.15,27.42,27.42,0,0,1,286.29,99.46ZM312,172.36a16.36,16.36,0,0,0,6.44-6.21,20,20,0,0,0,2.45-8,25,25,0,0,0-.77-8.75A38.6,38.6,0,0,0,316.8,141a37.91,37.91,0,0,0-5.27-7.56,24.08,24.08,0,0,0-7-5.47,18.63,18.63,0,0,0-8.37-2,20.52,20.52,0,0,0-16.19,9.26,18,18,0,0,0-2.43,8.23,26.77,26.77,0,0,0,1.13,8.84,34.61,34.61,0,0,0,3.75,8.43,35.79,35.79,0,0,0,5.71,7.06,28,28,0,0,0,7.16,5.08,19.33,19.33,0,0,0,8.07,2A16.48,16.48,0,0,0,312,172.36Zm69.55-80.54a13.28,13.28,0,0,1,9.6-.23,9.65,9.65,0,0,1,6.14,5.92c-9.06,3.28-18.07,6.78-26.95,10.49l8.49,20.49a9.66,9.66,0,0,1-.81,9.09,33.08,33.08,0,0,1-6.63,7.93,86,86,0,0,1-11,8.07q-17-36.56-34.09-73.1c-4,1.47-6,2.22-10,3.75a1.77,1.77,0,0,1-1.34.14,1.35,1.35,0,0,1-.85-.63c-.45-.92-.09-1.68,1.08-2.25l.18-.08q18.93-7.47,38.29-13.81l14.8,35.68c1.89-.79,2.83-1.18,4.73-2a11.43,11.43,0,0,1,2.76-5.62A14.27,14.27,0,0,1,381.51,91.82Z"/><path class="cls-2" d="M590.73,60a12.65,12.65,0,0,1,8.89,2.82,9.78,9.78,0,0,1,3.84,7.57c-11.17.31-16.76.58-27.92,1.37q2,28.54,4.07,57.09a10,10,0,0,1-3.27,8.33,29.2,29.2,0,0,1-7.94,5.35,71,71,0,0,1-11.78,4l-3.23-28.36c-1.34.68-2.85,1.37-4.5,2.09a104.31,104.31,0,0,1-13.63,4.57c-5.34,1.46-11.73,2.8-19.16,4.13-13.88,2.64-27.6,5.61-41.32,9-3.32,2.51-5,3.78-8.21,6.33-4.1-.56-6.16-.82-10.3-1.3-.34-1.19-.51-1.79-.86-3,7.92-2.29,11.89-3.36,19.87-5.37Q469,109.6,462.64,84.56a62.41,62.41,0,0,1,13.2-.31,30.2,30.2,0,0,1,9.61,2.7,9.46,9.46,0,0,1,5.58,7q3.71,17.67,7.43,35.36c9.63-2,14.46-2.93,24.14-4.55,6.13-1.44,11.18-2.69,15.13-3.82a85.49,85.49,0,0,0,9.69-3.24,25.42,25.42,0,0,0,5.55-3.16l-10.8-94.77c-4.19.1-6.29.17-10.49.33-1.16,0-1.79-.49-1.9-1.31s.45-1.47,1.71-1.63l.19,0q19.94-1,39.91-.86,1.8,25.22,3.59,50.44c2-.14,3-.21,4.92-.33a11.12,11.12,0,0,1,4.25-4.45A13.33,13.33,0,0,1,590.73,60ZM529,30.14c1.28,9.28,2.38,18.63,3.23,28a65.32,65.32,0,0,1-1.47,22.2,42,42,0,0,1-9.93,18c-4.91,5.42-12.27,10.61-22,15.86l-2.53-2.33A73.68,73.68,0,0,0,503,88.29a119.07,119.07,0,0,0,.42-21.93,101.42,101.42,0,0,0-2.83-17.61Q498.6,41.24,498,38c-13.76,2.62-27.4,5.54-41,8.78-3.19,2.45-4.77,3.68-7.9,6.16-3.95-.64-5.93-.94-9.91-1.52-.31-1.14-.47-1.71-.78-2.84,19.69-5.24,39.44-9.74,59.46-13.55,5.78-3.51,8.7-5.23,14.6-8.61C519.13,27.84,522.44,28.58,529,30.14Z"/><path class="cls-2" d="M747.43,41.91c-10.9-2-16.38-3-27.34-4.57-.88,1.66-1.94,3.8-3.18,6.44s-2.5,5.21-3.76,7.7-2.36,4.68-3.28,6.59a22.1,22.1,0,0,1-1.58,3,23.17,23.17,0,0,0,7.5,4.41,93.69,93.69,0,0,1,10,4.76,30.49,30.49,0,0,1,8,6.15,9,9,0,0,1,2,8.48c-.88,3.79-2.41,6.29-4.41,7.4a9.71,9.71,0,0,1-6.3,1.2,18.19,18.19,0,0,1-6.48-2.31,24.21,24.21,0,0,1-4.71-3.3l-6.72-6.75a36.12,36.12,0,0,1-7.31-11.74c-3.09,3.19-4.62,4.79-7.64,8a41.11,41.11,0,0,1-9.37,6.43,56.53,56.53,0,0,1-10.59,3.88c-3.78,1-7.83,1.83-12.12,2.54l-13.75,2.32-1.91-3.17c9.91-5,17.76-9.94,23.37-15s9.86-10,12.63-14.92a41.35,41.35,0,0,0,5.22-14.08q1-6.75,1.9-12c-6.73-.66-10.1-.94-16.84-1.43-3.74,1.34-5.61,2-9.31,3.43-3.51-1.83-5.28-2.73-8.84-4.51,0-1.24.08-1.86.14-3.1q18.81.87,37.57,2.76l3,.23q3.16.26,7.62.77t9.16,1.21q4.71.7,7.67,1.13c6.85-1.47,10.3-2.17,17.25-3.46,5.25,3.32,7.85,5,13,8.44C747.78,40.08,747.66,40.69,747.43,41.91ZM743.48,99a66.86,66.86,0,0,1,11.34,4.9L762.47,69c-4.93-1.08-7.39-1.6-12.33-2.58a11.66,11.66,0,0,1-5.29,3.23,14.19,14.19,0,0,1-6.69.33A13.27,13.27,0,0,1,730,65.35a9.88,9.88,0,0,1-2.39-8.17q18.06,2.93,36,6.85l7.14-32.58c-4-1.26-6-1.87-10.06-3.07-1.08-.43-1.54-1.05-1.38-1.87s.9-1.24,2.15-1l.19,0q19.29,5.5,38.23,12.12l-16.59,62.68a9.66,9.66,0,0,1-6.12,6.74,32.24,32.24,0,0,1-10,2.31c-1.42.08-2.82.12-4.22.11a42.43,42.43,0,0,1,4.6,4.77,27.24,27.24,0,0,1,5.51,10.34,20.72,20.72,0,0,1,.05,10.91,19.74,19.74,0,0,1-6.08,9.88,31.48,31.48,0,0,1-10.89,6.24,50.44,50.44,0,0,1-14.19,2.57,73.77,73.77,0,0,1-31.73-5.91A50,50,0,0,1,698,140.82a31.76,31.76,0,0,1-7.87-9.75A20.28,20.28,0,0,1,693.41,108,33.66,33.66,0,0,1,705,100.14a50.78,50.78,0,0,1,15.25-3.61,59.2,59.2,0,0,1,15.89.71c1.23.23,2.46.49,3.68.77S742.27,98.62,743.48,99Zm-16.89,49.5a17.92,17.92,0,0,0,8.43-.19,15.69,15.69,0,0,0,6.4-3.66,21.42,21.42,0,0,0,4.57-6.48,39.4,39.4,0,0,0,2.83-8.43,41.54,41.54,0,0,0,1-9.23,23.21,23.21,0,0,0-1.54-8.34,16.37,16.37,0,0,0-13-10.33,17.42,17.42,0,0,0-9.28.47,16.31,16.31,0,0,0-6.63,4.48A24.07,24.07,0,0,0,715,114a41.55,41.55,0,0,0-2.39,9,38.94,38.94,0,0,0-.4,8.89,22.1,22.1,0,0,0,1.84,7.67,14.77,14.77,0,0,0,4.56,5.71A18.32,18.32,0,0,0,726.59,148.47Z"/><path class="cls-2" d="M842.14,164c-4.18.06-6.27.11-10.42.24-3-2.88-4.51-4.3-7.57-7.14l1.07-2.91c17.81,6.72,35.23,14,52.49,22.07q8.22-17.21,16.45-34.42c-7-3.35-10.51-5-17.57-8.08a26.75,26.75,0,0,1-7.85.73,59.17,59.17,0,0,1-7.68-.79q-4.2-.74-8.38-1.9l23-57.64c-3.74-1.89-5.62-2.82-9.39-4.66a1.66,1.66,0,0,1-1-.87,1.32,1.32,0,0,1-.12-1c.37-1,1.14-1.23,2.33-.78l.18.07Q885.73,75.41,903.29,85c-2.65,5.88-4,8.82-6.61,14.71,19.69,9.06,38.89,18.83,57.81,29.42l9.15-16c-3.52-2.44-5.29-3.64-8.84-6a1.73,1.73,0,0,1-.88-1,1.34,1.34,0,0,1,0-1c.5-.91,1.32-1.05,2.45-.42l.17.09q17.09,11.2,33.5,23.39L963.17,170.7a9.55,9.55,0,0,1-8,4.5,34.58,34.58,0,0,1-10.54-1,93.15,93.15,0,0,1-13.28-4.54l3.7-6.47c-9.61-5.37-19.24-10.54-29-15.59a.75.75,0,0,0,.4.38,33.39,33.39,0,0,1,3.67,4.05,21.17,21.17,0,0,1,2.65,4.44,12.16,12.16,0,0,1,1,4.58,9,9,0,0,1-1.12,4.51L900.8,187.89c9.13,4.83,18.17,10,27,15.31,7.73-.13,11.63-.12,19.49.05,3.44,7.07,5.09,10.61,8.27,17.72l-1.74,2.56A657.87,657.87,0,0,0,842.14,164Zm95.43-5.2q7.2-12.58,14.38-25.18c-18.78-10.51-37.82-20.21-57.37-29.2L883.9,128.15a8,8,0,0,1-1.69,2.47C901.08,139.28,919.45,148.63,937.57,158.76Z"/></g></g></svg>