<svg xmlns="http://www.w3.org/2000/svg" width="258.665" height="43.52" viewBox="0 0 258.665 43.52">
  <defs>
    <style>
      .cls-1 {
        fill: #fff;
        stroke: #fff;
      }
    </style>
  </defs>
  <g id="그룹_140" data-name="그룹 140" transform="translate(-214.317 -521.652)">
    <path id="패스_55" data-name="패스 55" class="cls-1" d="M230.034,561.49c6.146,0,7.436-3.25,7.436-5.977,0-2.969-2.8-5.446-8.56-7.573-7.638-2.8-11.35-7.127-11.35-13.214a10.042,10.042,0,0,1,3.7-8.17c2.488-2.081,5.823-3.137,9.913-3.137,8.216,0,12.309,3.489,12.5,10.664l-3.931.726a11.52,11.52,0,0,0,.184-1.893c0-3.459-1.574-7.582-9.071-7.582-6.026,0-7.291,2.949-7.291,5.422,0,2.721,2.575,4.932,7.873,6.76a27.464,27.464,0,0,1,10.191,5.662l.9-.9a28.765,28.765,0,0,0-10.682-5.957c-4.656-1.606-7.017-3.477-7.017-5.56,0-1.783.624-4.154,6.023-4.154,5.251,0,7.8,2.065,7.8,6.314a12.458,12.458,0,0,1-.336,2.551l-.2.932,6.829-1.262v-.527c0-8.266-4.634-12.458-13.772-12.458-4.4,0-8,1.155-10.727,3.432a11.384,11.384,0,0,0-4.154,9.143c0,6.59,4.1,11.436,12.18,14.4,5.13,1.894,7.731,4.042,7.731,6.383,0,2.021-.639,4.709-6.168,4.709a13.025,13.025,0,0,1-3.255-.369l-.5,1.177A13.922,13.922,0,0,0,230.034,561.49Z" transform="translate(-1.007)"/>
    <path id="패스_56" data-name="패스 56" class="cls-1" d="M242.6,594a11.372,11.372,0,0,1-2.048,14.565c-2.555,2.176-6.022,3.279-10.3,3.279-9.534,0-14.168-3.546-14.168-10.84,0-.5.033-1.094.1-1.786l4.145-.912a17.334,17.334,0,0,0-.43,3.573,7.616,7.616,0,0,0,2.6,6.228l.518-1.223a6.422,6.422,0,0,1-1.848-5.005,17.809,17.809,0,0,1,.623-4.253l.252-1-7.025,1.545-.048.454a23.077,23.077,0,0,0-.15,2.374c0,8.034,5.193,12.107,15.436,12.107,4.592,0,8.334-1.205,11.125-3.582a12.672,12.672,0,0,0,2.152-16.457Z" transform="translate(0 -48.442)"/>
    <path id="패스_57" data-name="패스 57" class="cls-1" d="M311.77,525.538h10.618l8.568,20.279,7.7-20.279h3.25l-9.431,24.384v8.727h1.268v-8.49l10.013-25.889h-5.975l-6.893,18.141-7.665-18.141h-13.38l4.233,9.9,1.194-.433Z" transform="translate(-64.908 -1.447)"/>
    <path id="패스_58" data-name="패스 58" class="cls-1" d="M344.221,590.657H333.927v-14.21l-5.7-13.325-1.194.433,5.622,13.153v15.218h12.829v-3.651h-1.268Z" transform="translate(-76.649 -27.983)"/>
    <path id="패스_59" data-name="패스 59" class="cls-1" d="M420.183,525.538h10.293v24.907l1.268-.108V524.271H418.915V529.8h1.268Z" transform="translate(-139.402 -1.447)"/>
    <path id="패스_60" data-name="패스 60" class="cls-1" d="M445.395,551.647c0,5.938-2.362,8.825-7.219,8.825-2.487,0-4.19-.566-5.062-1.683-.772-.988-1.219-2.788-1.337-5.354l-1.264.108c.135,2.841.662,4.823,1.6,6.027,1.124,1.44,3.163,2.171,6.062,2.171,5.632,0,8.487-3.4,8.487-10.093V525.539h2.615v26.108c0,8.826-4.768,13.117-14.576,13.117-9.769,0-14.518-4.291-14.518-13.117V532.893h-1.268v18.754c0,9.545,5.311,14.385,15.786,14.385,10.513,0,15.844-4.84,15.844-14.385V524.271h-5.151Z" transform="translate(-139.402 -1.447)"/>
    <path id="패스_61" data-name="패스 61" class="cls-1" d="M540.2,525.538h20.22v2.732H545.971v14.552h12.262v2.732H545.971v18.568H535.678V525.538h1.491v-1.268H534.41v41.119h12.829V546.821H559.5v-5.268H547.239V529.538h14.452v-5.268H540.2Z" transform="translate(-218.287 -1.447)"/>
    <path id="패스_62" data-name="패스 62" class="cls-1" d="M641.459,545.6h12v-5.268h-12V529.538h14.276v-5.268H633.719v1.268h20.749v2.732H640.191V541.6h12v2.732h-12V561.39h16.7v2.732H629.9V525.538h.787v-1.268H628.63v41.119h29.529v-5.268h-16.7Z" transform="translate(-282.641 -1.447)"/>
    <path id="패스_63" data-name="패스 63" class="cls-1" d="M749.234,569.939c-2.555,2.176-6.021,3.279-10.3,3.279-9.534,0-14.168-3.546-14.168-10.84,0-.494.033-1.093.1-1.786l4.145-.912a17.332,17.332,0,0,0-.43,3.573c0,3.672,1.584,8.049,9.13,8.049,6.146,0,7.436-3.25,7.436-5.977,0-2.969-2.8-5.446-8.561-7.573-7.637-2.8-11.35-7.127-11.35-13.214a10.111,10.111,0,0,1,2.476-6.982l-.763-1.039a11.438,11.438,0,0,0-2.981,8.02c0,6.59,4.1,11.436,12.18,14.4,5.129,1.894,7.731,4.042,7.731,6.383,0,2.021-.639,4.709-6.168,4.709-5.29,0-7.862-2.218-7.862-6.782a17.822,17.822,0,0,1,.623-4.253l.252-1-7.025,1.545-.048.454a23.067,23.067,0,0,0-.15,2.374c0,8.034,5.193,12.107,15.436,12.107,4.592,0,8.335-1.205,11.126-3.582a12.171,12.171,0,0,0,2.228-2.478l-1.125-.594A11.067,11.067,0,0,1,749.234,569.939Z" transform="translate(-347.435 -9.814)"/>
    <path id="패스_64" data-name="패스 64" class="cls-1" d="M751.259,523.42c8.215,0,12.308,3.489,12.5,10.664l-3.931.726a11.512,11.512,0,0,0,.184-1.893c0-3.459-1.574-7.582-9.072-7.582-6.025,0-7.29,2.949-7.29,5.422,0,2.721,2.575,4.932,7.873,6.76,9.247,3.177,13.936,7.886,13.936,14a12.5,12.5,0,0,1-.543,3.78l1.126.595a13.568,13.568,0,0,0,.685-4.375c0-6.712-4.977-11.825-14.791-15.2-4.656-1.606-7.018-3.477-7.018-5.56,0-1.783.624-4.154,6.022-4.154,5.251,0,7.8,2.065,7.8,6.314a12.476,12.476,0,0,1-.336,2.551l-.2.932,6.828-1.262v-.527c0-8.266-4.633-12.458-13.771-12.458a16.936,16.936,0,0,0-9.587,2.58l.752,1.024A15.745,15.745,0,0,1,751.259,523.42Z" transform="translate(-359.851)"/>
    <path id="패스_65" data-name="패스 65" class="cls-1" d="M853.535,524.271h-3.258v1.268h1.99v2.732h-9.78v35.851H831.493V528.27h-9.839v-2.732h25.589v-1.268H820.387v5.268h9.839v35.851h13.53V529.538h9.78Z" transform="translate(-413.614 -1.447)"/>
    <path id="패스_66" data-name="패스 66" class="cls-1" d="M940.375,564.121l-2.365-8.642H925.052l-2.54,8.642h-3.2l11.419-38.583h9.2l10.741,38.583h-1.443l.179,1.268h2.934L940.9,524.271H929.783l-12.17,41.119h5.848l2.54-8.642h11.041l2.365,8.642h6.94l-.179-1.268Z" transform="translate(-480.021 -1.447)"/>
    <path id="패스_67" data-name="패스 67" class="cls-1" d="M953.312,568.3H945.2l4.214-14.653,2.611,9.812,1.227-.321-3.79-14.244-5.946,20.673h11.447l-.931-3.5-1.227.321Z" transform="translate(-497.712 -18.264)"/>
  </g>
</svg>
